<svg xmlns="http://www.w3.org/2000/svg" xmlns:xlink="http://www.w3.org/1999/xlink" version="1.1" x="0px" y="0px" width="2420px" height="336px" viewBox="0 0 2420 336" style="enable-background:new 0 0 2420 336;" xml:space="preserve">
<style type="text/css">
	.st0{fill-rule:evenodd;clip-rule:evenodd;fill:#FFFFFF;}
	.st1{fill-rule:evenodd;clip-rule:evenodd;fill:#A9AEBA;}
	.st2{fill-rule:evenodd;clip-rule:evenodd;fill:#E2E4E7;stroke:#D2D7DB;stroke-miterlimit:22.9256;}
	.st3{fill:#FFFFFF;}
	.st4{font-family:'Roboto','Helvetica Neue',sans-serif;}
	.st5{font-size:20px;}
	.st6{fill-rule:evenodd;clip-rule:evenodd;fill:#E6E6E6;}
	.st7{fill-rule:evenodd;clip-rule:evenodd;fill:#868D98;}
	.st8{fill-rule:evenodd;clip-rule:evenodd;fill:none;stroke:#BBDDFF;stroke-width:6;stroke-miterlimit:22.9256;}
</style>
<g id="Fon">
	<path class="st0" d="M2410.699,9.247C2409.894,8.454,2408.835,8,2407.7,8H12.3c-1.143,0-2.211,0.459-3.017,1.265L9.266,9.282   C8.46,10.088,8,11.153,8,12.296v311.408c0,1.143,0.46,2.208,1.266,3.014l0.017,0.016c0.806,0.806,1.874,1.265,3.017,1.265H2407.7   c1.145,0,2.213-0.462,2.968-1.216l0.016-0.016c0.812-0.826,1.316-1.895,1.316-3.064V12.296   C2412,11.134,2411.503,10.071,2410.699,9.247z"></path>
</g>
<g id="Railway_carriage">
	<path class="st1" d="M3.609,332.375l0.017,0.016C5.853,334.616,8.924,336,12.299,336H2407.7c3.376,0,6.446-1.384,8.674-3.608   l0.016-0.016c2.226-2.227,3.61-5.297,3.61-8.671V12.296c0-3.375-1.384-6.444-3.61-8.671l-0.016-0.016   C2414.146,1.384,2411.076,0,2407.7,0H12.3C8.924,0,5.853,1.384,3.626,3.609L3.609,3.625C1.384,5.852,0,8.922,0,12.296v311.408   C0,327.079,1.384,330.148,3.609,332.375z M8,12.296c0-1.143,0.46-2.208,1.266-3.014l0.016-0.016C10.089,8.459,11.156,8,12.3,8   H2407.7c1.135,0,2.193,0.454,2.999,1.247c0.804,0.824,1.301,1.887,1.301,3.049v311.408c0,1.169-0.503,2.237-1.315,3.064   l-0.016,0.016c-0.756,0.754-1.823,1.216-2.968,1.216H12.299c-1.143,0-2.21-0.459-3.017-1.265l-0.016-0.016   C8.46,325.912,8,324.847,8,323.704V12.296z"></path>
</g>
<g id="Compartment">
	<path class="st1" d="M8,243v-6h170h8v8v83h-6v-85H8z M8,99h170h8v-8V8h-6v85H8V99z M2252,110L2252,110l160,0v-6h-157l-38-60.229V8   h-6v38.117L2252,110z M1900,328V170c0-18.684,17.316-36,36-36h159c18.684,0,36,17.316,36,36v56v6h281v-6h-275v-56   c0-23.1-18.9-42-42-42h-159c-23.1,0-42,18.9-42,42v158H1900z M1234,8h-6v128h6V8z M1234,200h-6v128h6V200z"></path>
</g>
<g id="Seats">
	<path id="Seat1" class="st2 seat" d="M201.78,312.132c-2.282-9.418-2.282-18.835,0-28.253c0.618-2.551,1.404-5.102,2.357-7.652h29.712   c5.583,0,10.151,3.952,10.151,8.781v25.984c0,4.829-4.568,8.781-10.151,8.781h-29.712h-0.004   C203.182,317.226,202.398,314.679,201.78,312.132L201.78,312.132z M229.028,319.773L229.028,319.773h-24.891h-0.004h-5.896v2.349   c0,0.483,0.401,0.878,0.893,0.878h29.898c0.818,0,1.488-0.659,1.488-1.464v-0.3C230.516,320.432,229.846,319.773,229.028,319.773   L229.028,319.773z M229.028,273L229.028,273h-29.898c-0.491,0-0.893,0.395-0.893,0.878v2.349h5.9h24.891   c0.818,0,1.488-0.659,1.488-1.464v-0.3C230.516,273.659,229.846,273,229.028,273L229.028,273z M204.137,276.227L204.137,276.227   h-6.88c-0.691,0-1.257,0.556-1.257,1.236v41.086c0,0.68,0.566,1.236,1.257,1.236h6.88v-0.011h-0.004   c-0.951-2.547-1.735-5.094-2.353-7.641c-2.282-9.418-2.282-18.835,0-28.253C202.398,281.329,203.184,278.778,204.137,276.227z"></path>
	<path id="Seat2" class="st2 seat" d="M201.78,262.132c-2.282-9.418-2.282-18.835,0-28.253c0.618-2.551,1.404-5.102,2.357-7.652h29.712   c5.583,0,10.151,3.952,10.151,8.781v25.984c0,4.829-4.568,8.781-10.151,8.781h-29.712h-0.004   C203.182,267.226,202.398,264.679,201.78,262.132L201.78,262.132z M229.028,269.773L229.028,269.773h-24.891h-0.004h-5.896v2.349   c0,0.483,0.401,0.878,0.893,0.878h29.898c0.818,0,1.488-0.659,1.488-1.464v-0.3C230.516,270.432,229.846,269.773,229.028,269.773   L229.028,269.773z M229.028,223L229.028,223h-29.898c-0.491,0-0.893,0.395-0.893,0.878v2.349h5.9h24.891   c0.818,0,1.488-0.659,1.488-1.464v-0.3C230.516,223.659,229.846,223,229.028,223L229.028,223z M204.137,226.227L204.137,226.227   h-6.88c-0.691,0-1.257,0.556-1.257,1.236v41.086c0,0.68,0.566,1.236,1.257,1.236h6.88v-0.011h-0.004   c-0.951-2.547-1.735-5.094-2.353-7.641c-2.282-9.418-2.282-18.835,0-28.253C202.398,231.329,203.184,228.778,204.137,226.227z"></path>
	<path id="Seat3" class="st2 seat" d="M373.867,319.773h-0.004h-29.712c-5.582,0-10.151-3.952-10.151-8.781v-25.984   c0-4.829,4.568-8.781,10.151-8.781h29.712c0.953,2.551,1.739,5.102,2.357,7.652c2.282,9.418,2.282,18.835,0,28.253   C375.602,314.679,374.818,317.226,373.867,319.773L373.867,319.773z M347.484,321.237L347.484,321.237v0.3   c0,0.805,0.67,1.464,1.488,1.464h29.898c0.491,0,0.893-0.395,0.893-0.878v-2.349h-5.896h-0.004h-24.891   C348.153,319.773,347.484,320.432,347.484,321.237L347.484,321.237z M347.484,274.464L347.484,274.464v0.3   c0,0.805,0.67,1.464,1.488,1.464h24.891h5.9v-2.349c0-0.483-0.401-0.878-0.893-0.878h-29.898   C348.153,273,347.484,273.659,347.484,274.464L347.484,274.464z M376.22,283.879L376.22,283.879c2.282,9.418,2.282,18.835,0,28.253   c-0.617,2.547-1.401,5.094-2.353,7.641h-0.004v0.011h6.88c0.692,0,1.257-0.556,1.257-1.236v-41.086c0-0.68-0.566-1.236-1.257-1.236   h-6.88C374.816,278.778,375.602,281.329,376.22,283.879z"></path>
	<path id="Seat4" class="st2 seat seat--available compartment-1" d="M373.867,269.773h-0.004h-29.712c-5.582,0-10.151-3.952-10.151-8.781v-25.984   c0-4.829,4.568-8.781,10.151-8.781h29.712c0.953,2.551,1.739,5.102,2.357,7.652c2.282,9.418,2.282,18.835,0,28.253   C375.602,264.679,374.818,267.226,373.867,269.773L373.867,269.773z M347.484,271.237L347.484,271.237v0.3   c0,0.805,0.67,1.464,1.488,1.464h29.898c0.491,0,0.893-0.395,0.893-0.878v-2.349h-5.896h-0.004h-24.891   C348.153,269.773,347.484,270.432,347.484,271.237L347.484,271.237z M347.484,224.464L347.484,224.464v0.3   c0,0.805,0.67,1.464,1.488,1.464h24.891h5.9v-2.349c0-0.483-0.401-0.878-0.893-0.878h-29.898   C348.153,223,347.484,223.659,347.484,224.464L347.484,224.464z M376.22,233.879L376.22,233.879c2.282,9.418,2.282,18.835,0,28.253   c-0.617,2.547-1.401,5.094-2.353,7.641h-0.004v0.011h6.88c0.692,0,1.257-0.556,1.257-1.236v-41.086c0-0.68-0.566-1.236-1.257-1.236   h-6.88C374.816,228.778,375.602,231.329,376.22,233.879z"></path>
	<path id="Seat5" class="st2 seat" d="M201.78,52.132c-2.282-9.418-2.282-18.835,0-28.253c0.618-2.551,1.404-5.102,2.357-7.652h29.712   c5.583,0,10.151,3.952,10.151,8.781v25.984c0,4.829-4.568,8.781-10.151,8.781h-29.712h-0.004   C203.182,57.226,202.398,54.679,201.78,52.132L201.78,52.132z M229.028,59.773L229.028,59.773h-24.891h-0.004h-5.896v2.349   c0,0.483,0.401,0.878,0.893,0.878h29.898c0.818,0,1.488-0.659,1.488-1.463v-0.3C230.516,60.432,229.846,59.773,229.028,59.773   L229.028,59.773z M229.028,13L229.028,13h-29.898c-0.491,0-0.893,0.395-0.893,0.878v2.349h5.9h24.891   c0.818,0,1.488-0.659,1.488-1.463v-0.3C230.516,13.659,229.846,13,229.028,13L229.028,13z M204.137,16.227L204.137,16.227h-6.88   c-0.691,0-1.257,0.556-1.257,1.236v41.086c0,0.68,0.566,1.236,1.257,1.236h6.88v-0.011h-0.004   c-0.951-2.547-1.735-5.094-2.353-7.641c-2.282-9.418-2.282-18.835,0-28.253C202.398,21.329,203.184,18.778,204.137,16.227z"></path>
	<path id="Seat6" class="st2 seat seat--available compartment-2" d="M201.78,102.132c-2.282-9.418-2.282-18.835,0-28.253c0.618-2.551,1.404-5.102,2.357-7.652h29.712   c5.583,0,10.151,3.952,10.151,8.781v25.984c0,4.829-4.568,8.781-10.151,8.781h-29.712h-0.004   C203.182,107.226,202.398,104.679,201.78,102.132L201.78,102.132z M229.028,109.773L229.028,109.773h-24.891h-0.004h-5.896v2.349   c0,0.483,0.401,0.878,0.893,0.878h29.898c0.818,0,1.488-0.659,1.488-1.463v-0.3C230.516,110.432,229.846,109.773,229.028,109.773   L229.028,109.773z M229.028,63L229.028,63h-29.898c-0.491,0-0.893,0.395-0.893,0.878v2.349h5.9h24.891   c0.818,0,1.488-0.659,1.488-1.463v-0.3C230.516,63.659,229.846,63,229.028,63L229.028,63z M204.137,66.227L204.137,66.227h-6.88   c-0.691,0-1.257,0.556-1.257,1.236v41.086c0,0.68,0.566,1.236,1.257,1.236h6.88v-0.011h-0.004   c-0.951-2.547-1.735-5.094-2.353-7.641c-2.282-9.418-2.282-18.835,0-28.253C202.398,71.329,203.184,68.778,204.137,66.227z"></path>
	<path id="Seat7" class="st2 seat seat--available compartment-2" d="M373.867,59.773h-0.004h-29.712c-5.582,0-10.151-3.952-10.151-8.781V25.008   c0-4.829,4.568-8.781,10.151-8.781h29.712c0.953,2.551,1.739,5.102,2.357,7.652c2.282,9.418,2.282,18.835,0,28.253   C375.602,54.679,374.818,57.226,373.867,59.773L373.867,59.773z M347.484,61.237L347.484,61.237v0.3   c0,0.805,0.67,1.463,1.488,1.463h29.898c0.491,0,0.893-0.395,0.893-0.878v-2.349h-5.896h-0.004h-24.891   C348.153,59.773,347.484,60.432,347.484,61.237L347.484,61.237z M347.484,14.463L347.484,14.463v0.3   c0,0.805,0.67,1.463,1.488,1.463h24.891h5.9v-2.349c0-0.483-0.401-0.878-0.893-0.878h-29.898   C348.153,13,347.484,13.659,347.484,14.463L347.484,14.463z M376.22,23.879L376.22,23.879c2.282,9.418,2.282,18.835,0,28.253   c-0.617,2.547-1.401,5.094-2.353,7.641h-0.004v0.011h6.88c0.692,0,1.257-0.556,1.257-1.236V17.463c0-0.68-0.566-1.236-1.257-1.236   h-6.88C374.816,18.778,375.602,21.329,376.22,23.879z"></path>
	<path id="Seat8" class="st2 seat seat--available compartment-2" d="M373.867,109.773h-0.004h-29.712c-5.582,0-10.151-3.952-10.151-8.781V75.008   c0-4.829,4.568-8.781,10.151-8.781h29.712c0.953,2.551,1.739,5.102,2.357,7.652c2.282,9.418,2.282,18.835,0,28.253   C375.602,104.679,374.818,107.226,373.867,109.773L373.867,109.773z M347.484,111.237L347.484,111.237v0.3   c0,0.805,0.67,1.463,1.488,1.463h29.898c0.491,0,0.893-0.395,0.893-0.878v-2.349h-5.896h-0.004h-24.891   C348.153,109.773,347.484,110.432,347.484,111.237L347.484,111.237z M347.484,64.463L347.484,64.463v0.3   c0,0.805,0.67,1.463,1.488,1.463h24.891h5.9v-2.349c0-0.483-0.401-0.878-0.893-0.878h-29.898   C348.153,63,347.484,63.659,347.484,64.463L347.484,64.463z M376.22,73.879L376.22,73.879c2.282,9.418,2.282,18.835,0,28.253   c-0.617,2.547-1.401,5.094-2.353,7.641h-0.004v0.011h6.88c0.692,0,1.257-0.556,1.257-1.236V67.463c0-0.68-0.566-1.236-1.257-1.236   h-6.88C374.816,68.778,375.602,71.329,376.22,73.879z"></path>
	<path id="Seat9" class="st2 seat" d="M410.781,312.132c-2.282-9.418-2.282-18.835,0-28.253c0.618-2.551,1.404-5.102,2.357-7.652h29.712   c5.583,0,10.151,3.952,10.151,8.781v25.984c0,4.829-4.568,8.781-10.151,8.781h-29.712h-0.004   C412.182,317.226,411.398,314.679,410.781,312.132L410.781,312.132z M438.028,319.773L438.028,319.773h-24.891h-0.004h-5.896v2.349   c0,0.483,0.401,0.878,0.893,0.878h29.898c0.818,0,1.488-0.659,1.488-1.464v-0.3C439.516,320.432,438.847,319.773,438.028,319.773   L438.028,319.773z M438.028,273L438.028,273H408.13c-0.491,0-0.893,0.395-0.893,0.878v2.349h5.9h24.891   c0.818,0,1.488-0.659,1.488-1.464v-0.3C439.516,273.659,438.847,273,438.028,273L438.028,273z M413.137,276.227L413.137,276.227   h-6.88c-0.691,0-1.257,0.556-1.257,1.236v41.086c0,0.68,0.566,1.236,1.257,1.236h6.88v-0.011h-0.004   c-0.951-2.547-1.735-5.094-2.353-7.641c-2.282-9.418-2.282-18.835,0-28.253C411.399,281.329,412.185,278.778,413.137,276.227z"></path>
	<path id="Seat10" class="st2 seat seat--available compartment-3" d="M410.781,262.132c-2.282-9.418-2.282-18.835,0-28.253c0.618-2.551,1.404-5.102,2.357-7.652h29.712   c5.583,0,10.151,3.952,10.151,8.781v25.984c0,4.829-4.568,8.781-10.151,8.781h-29.712h-0.004   C412.182,267.226,411.398,264.679,410.781,262.132L410.781,262.132z M438.028,269.773L438.028,269.773h-24.891h-0.004h-5.896v2.349   c0,0.483,0.401,0.878,0.893,0.878h29.898c0.818,0,1.488-0.659,1.488-1.464v-0.3C439.516,270.432,438.847,269.773,438.028,269.773   L438.028,269.773z M438.028,223L438.028,223H408.13c-0.491,0-0.893,0.395-0.893,0.878v2.349h5.9h24.891   c0.818,0,1.488-0.659,1.488-1.464v-0.3C439.516,223.659,438.847,223,438.028,223L438.028,223z M413.137,226.227L413.137,226.227   h-6.88c-0.691,0-1.257,0.556-1.257,1.236v41.086c0,0.68,0.566,1.236,1.257,1.236h6.88v-0.011h-0.004   c-0.951-2.547-1.735-5.094-2.353-7.641c-2.282-9.418-2.282-18.835,0-28.253C411.399,231.329,412.185,228.778,413.137,226.227z"></path>
	<path id="Seat11" class="st2 seat" d="M582.867,319.773h-0.004h-29.712c-5.582,0-10.151-3.952-10.151-8.781v-25.984   c0-4.829,4.568-8.781,10.151-8.781h29.712c0.953,2.551,1.739,5.102,2.357,7.652c2.282,9.418,2.282,18.835,0,28.253   C584.603,314.679,583.819,317.226,582.867,319.773L582.867,319.773z M556.484,321.237L556.484,321.237v0.3   c0,0.805,0.67,1.464,1.488,1.464h29.898c0.491,0,0.893-0.395,0.893-0.878v-2.349h-5.896h-0.004h-24.891   C557.154,319.773,556.484,320.432,556.484,321.237L556.484,321.237z M556.484,274.464L556.484,274.464v0.3   c0,0.805,0.67,1.464,1.488,1.464h24.891h5.9v-2.349c0-0.483-0.401-0.878-0.893-0.878h-29.898   C557.154,273,556.484,273.659,556.484,274.464L556.484,274.464z M585.22,283.879L585.22,283.879c2.282,9.418,2.282,18.835,0,28.253   c-0.617,2.547-1.401,5.094-2.353,7.641h-0.004v0.011h6.88c0.692,0,1.257-0.556,1.257-1.236v-41.086c0-0.68-0.565-1.236-1.257-1.236   h-6.88C583.816,278.778,584.602,281.329,585.22,283.879z"></path>
	<path id="Seat12" class="st2 seat seat--available compartment-3" d="M582.867,269.773h-0.004h-29.712c-5.582,0-10.151-3.952-10.151-8.781v-25.984   c0-4.829,4.568-8.781,10.151-8.781h29.712c0.953,2.551,1.739,5.102,2.357,7.652c2.282,9.418,2.282,18.835,0,28.253   C584.603,264.679,583.819,267.226,582.867,269.773L582.867,269.773z M556.484,271.237L556.484,271.237v0.3   c0,0.805,0.67,1.464,1.488,1.464h29.898c0.491,0,0.893-0.395,0.893-0.878v-2.349h-5.896h-0.004h-24.891   C557.154,269.773,556.484,270.432,556.484,271.237L556.484,271.237z M556.484,224.464L556.484,224.464v0.3   c0,0.805,0.67,1.464,1.488,1.464h24.891h5.9v-2.349c0-0.483-0.401-0.878-0.893-0.878h-29.898   C557.154,223,556.484,223.659,556.484,224.464L556.484,224.464z M585.22,233.879L585.22,233.879c2.282,9.418,2.282,18.835,0,28.253   c-0.617,2.547-1.401,5.094-2.353,7.641h-0.004v0.011h6.88c0.692,0,1.257-0.556,1.257-1.236v-41.086c0-0.68-0.565-1.236-1.257-1.236   h-6.88C583.816,228.778,584.602,231.329,585.22,233.879z"></path>
	<path id="Seat13" class="st2 seat seat--available compartment-4" d="M410.781,52.132c-2.282-9.418-2.282-18.835,0-28.253c0.618-2.551,1.404-5.102,2.357-7.652h29.712   c5.583,0,10.151,3.952,10.151,8.781v25.984c0,4.829-4.568,8.781-10.151,8.781h-29.712h-0.004   C412.182,57.226,411.398,54.679,410.781,52.132L410.781,52.132z M438.028,59.773L438.028,59.773h-24.891h-0.004h-5.896v2.349   c0,0.483,0.401,0.878,0.893,0.878h29.898c0.818,0,1.488-0.659,1.488-1.463v-0.3C439.516,60.432,438.847,59.773,438.028,59.773   L438.028,59.773z M438.028,13L438.028,13H408.13c-0.491,0-0.893,0.395-0.893,0.878v2.349h5.9h24.891   c0.818,0,1.488-0.659,1.488-1.463v-0.3C439.516,13.659,438.847,13,438.028,13L438.028,13z M413.137,16.227L413.137,16.227h-6.88   c-0.691,0-1.257,0.556-1.257,1.236v41.086c0,0.68,0.566,1.236,1.257,1.236h6.88v-0.011h-0.004   c-0.951-2.547-1.735-5.094-2.353-7.641c-2.282-9.418-2.282-18.835,0-28.253C411.399,21.329,412.185,18.778,413.137,16.227z"></path>
	<path id="Seat14" class="st2 seat seat--available compartment-4" d="M410.781,102.132c-2.282-9.418-2.282-18.835,0-28.253c0.618-2.551,1.404-5.102,2.357-7.652h29.712   c5.583,0,10.151,3.952,10.151,8.781v25.984c0,4.829-4.568,8.781-10.151,8.781h-29.712h-0.004   C412.182,107.226,411.398,104.679,410.781,102.132L410.781,102.132z M438.028,109.773L438.028,109.773h-24.891h-0.004h-5.896v2.349   c0,0.483,0.401,0.878,0.893,0.878h29.898c0.818,0,1.488-0.659,1.488-1.463v-0.3C439.516,110.432,438.847,109.773,438.028,109.773   L438.028,109.773z M438.028,63L438.028,63H408.13c-0.491,0-0.893,0.395-0.893,0.878v2.349h5.9h24.891   c0.818,0,1.488-0.659,1.488-1.463v-0.3C439.516,63.659,438.847,63,438.028,63L438.028,63z M413.137,66.227L413.137,66.227h-6.88   c-0.691,0-1.257,0.556-1.257,1.236v41.086c0,0.68,0.566,1.236,1.257,1.236h6.88v-0.011h-0.004   c-0.951-2.547-1.735-5.094-2.353-7.641c-2.282-9.418-2.282-18.835,0-28.253C411.399,71.329,412.185,68.778,413.137,66.227z"></path>
	<path id="Seat15" class="st2 seat seat--available compartment-4" d="M582.867,59.773h-0.004h-29.712c-5.582,0-10.151-3.952-10.151-8.781V25.008   c0-4.829,4.568-8.781,10.151-8.781h29.712c0.953,2.551,1.739,5.102,2.357,7.652c2.282,9.418,2.282,18.835,0,28.253   C584.603,54.679,583.819,57.226,582.867,59.773L582.867,59.773z M556.484,61.237L556.484,61.237v0.3   c0,0.805,0.67,1.463,1.488,1.463h29.898c0.491,0,0.893-0.395,0.893-0.878v-2.349h-5.896h-0.004h-24.891   C557.154,59.773,556.484,60.432,556.484,61.237L556.484,61.237z M556.484,14.463L556.484,14.463v0.3   c0,0.805,0.67,1.463,1.488,1.463h24.891h5.9v-2.349c0-0.483-0.401-0.878-0.893-0.878h-29.898   C557.154,13,556.484,13.659,556.484,14.463L556.484,14.463z M585.22,23.879L585.22,23.879c2.282,9.418,2.282,18.835,0,28.253   c-0.617,2.547-1.401,5.094-2.353,7.641h-0.004v0.011h6.88c0.692,0,1.257-0.556,1.257-1.236V17.463c0-0.68-0.565-1.236-1.257-1.236   h-6.88C583.816,18.778,584.602,21.329,585.22,23.879z"></path>
	<path id="Seat16" class="st2 seat seat--available compartment-4" d="M582.867,109.773h-0.004h-29.712c-5.582,0-10.151-3.952-10.151-8.781V75.008   c0-4.829,4.568-8.781,10.151-8.781h29.712c0.953,2.551,1.739,5.102,2.357,7.652c2.282,9.418,2.282,18.835,0,28.253   C584.603,104.679,583.819,107.226,582.867,109.773L582.867,109.773z M556.484,111.237L556.484,111.237v0.3   c0,0.805,0.67,1.463,1.488,1.463h29.898c0.491,0,0.893-0.395,0.893-0.878v-2.349h-5.896h-0.004h-24.891   C557.154,109.773,556.484,110.432,556.484,111.237L556.484,111.237z M556.484,64.463L556.484,64.463v0.3   c0,0.805,0.67,1.463,1.488,1.463h24.891h5.9v-2.349c0-0.483-0.401-0.878-0.893-0.878h-29.898   C557.154,63,556.484,63.659,556.484,64.463L556.484,64.463z M585.22,73.879L585.22,73.879c2.282,9.418,2.282,18.835,0,28.253   c-0.617,2.547-1.401,5.094-2.353,7.641h-0.004v0.011h6.88c0.692,0,1.257-0.556,1.257-1.236V67.463c0-0.68-0.565-1.236-1.257-1.236   h-6.88C583.816,68.778,584.602,71.329,585.22,73.879z"></path>
	<path id="Seat17" class="st2 seat" d="M619.78,312.132c-2.282-9.418-2.282-18.835,0-28.253c0.618-2.551,1.404-5.102,2.357-7.652h29.712   c5.583,0,10.151,3.952,10.151,8.781v25.984c0,4.829-4.568,8.781-10.151,8.781h-29.712h-0.004   C621.182,317.226,620.398,314.679,619.78,312.132L619.78,312.132z M647.028,319.773L647.028,319.773h-24.891h-0.004h-5.896v2.349   c0,0.483,0.401,0.878,0.893,0.878h29.898c0.818,0,1.488-0.659,1.488-1.464v-0.3C648.516,320.432,647.846,319.773,647.028,319.773   L647.028,319.773z M647.028,273L647.028,273H617.13c-0.491,0-0.893,0.395-0.893,0.878v2.349h5.9h24.891   c0.818,0,1.488-0.659,1.488-1.464v-0.3C648.516,273.659,647.846,273,647.028,273L647.028,273z M622.137,276.227L622.137,276.227   h-6.88c-0.691,0-1.257,0.556-1.257,1.236v41.086c0,0.68,0.566,1.236,1.257,1.236h6.88v-0.011h-0.004   c-0.951-2.547-1.735-5.094-2.353-7.641c-2.282-9.418-2.282-18.835,0-28.253C620.398,281.329,621.184,278.778,622.137,276.227z"></path>
	<path id="Seat18" class="st2 seat" d="M619.78,262.132c-2.282-9.418-2.282-18.835,0-28.253c0.618-2.551,1.404-5.102,2.357-7.652h29.712   c5.583,0,10.151,3.952,10.151,8.781v25.984c0,4.829-4.568,8.781-10.151,8.781h-29.712h-0.004   C621.182,267.226,620.398,264.679,619.78,262.132L619.78,262.132z M647.028,269.773L647.028,269.773h-24.891h-0.004h-5.896v2.349   c0,0.483,0.401,0.878,0.893,0.878h29.898c0.818,0,1.488-0.659,1.488-1.464v-0.3C648.516,270.432,647.846,269.773,647.028,269.773   L647.028,269.773z M647.028,223L647.028,223H617.13c-0.491,0-0.893,0.395-0.893,0.878v2.349h5.9h24.891   c0.818,0,1.488-0.659,1.488-1.464v-0.3C648.516,223.659,647.846,223,647.028,223L647.028,223z M622.137,226.227L622.137,226.227   h-6.88c-0.691,0-1.257,0.556-1.257,1.236v41.086c0,0.68,0.566,1.236,1.257,1.236h6.88v-0.011h-0.004   c-0.951-2.547-1.735-5.094-2.353-7.641c-2.282-9.418-2.282-18.835,0-28.253C620.398,231.329,621.184,228.778,622.137,226.227z"></path>
	<path id="Seat19" class="st2 seat" d="M791.867,319.773h-0.004h-29.712c-5.582,0-10.151-3.952-10.151-8.781v-25.984   c0-4.829,4.568-8.781,10.151-8.781h29.712c0.953,2.551,1.739,5.102,2.357,7.652c2.282,9.418,2.282,18.835,0,28.253   C793.603,314.679,792.819,317.226,791.867,319.773L791.867,319.773z M765.484,321.237L765.484,321.237v0.3   c0,0.805,0.67,1.464,1.488,1.464h29.898c0.491,0,0.893-0.395,0.893-0.878v-2.349h-5.896h-0.004h-24.891   C766.154,319.773,765.484,320.432,765.484,321.237L765.484,321.237z M765.484,274.464L765.484,274.464v0.3   c0,0.805,0.67,1.464,1.488,1.464h24.891h5.9v-2.349c0-0.483-0.401-0.878-0.893-0.878h-29.898   C766.154,273,765.484,273.659,765.484,274.464L765.484,274.464z M794.22,283.879L794.22,283.879c2.282,9.418,2.282,18.835,0,28.253   c-0.617,2.547-1.401,5.094-2.353,7.641h-0.004v0.011h6.88c0.692,0,1.257-0.556,1.257-1.236v-41.086c0-0.68-0.565-1.236-1.257-1.236   h-6.88C792.816,278.778,793.602,281.329,794.22,283.879z"></path>
	<path id="Seat20" class="st2 seat" d="M791.867,269.773h-0.004h-29.712c-5.582,0-10.151-3.952-10.151-8.781v-25.984   c0-4.829,4.568-8.781,10.151-8.781h29.712c0.953,2.551,1.739,5.102,2.357,7.652c2.282,9.418,2.282,18.835,0,28.253   C793.603,264.679,792.819,267.226,791.867,269.773L791.867,269.773z M765.484,271.237L765.484,271.237v0.3   c0,0.805,0.67,1.464,1.488,1.464h29.898c0.491,0,0.893-0.395,0.893-0.878v-2.349h-5.896h-0.004h-24.891   C766.154,269.773,765.484,270.432,765.484,271.237L765.484,271.237z M765.484,224.464L765.484,224.464v0.3   c0,0.805,0.67,1.464,1.488,1.464h24.891h5.9v-2.349c0-0.483-0.401-0.878-0.893-0.878h-29.898   C766.154,223,765.484,223.659,765.484,224.464L765.484,224.464z M794.22,233.879L794.22,233.879c2.282,9.418,2.282,18.835,0,28.253   c-0.617,2.547-1.401,5.094-2.353,7.641h-0.004v0.011h6.88c0.692,0,1.257-0.556,1.257-1.236v-41.086c0-0.68-0.565-1.236-1.257-1.236   h-6.88C792.816,228.778,793.602,231.329,794.22,233.879z"></path>
	<path id="Seat21" class="st2 seat" d="M619.78,52.132c-2.282-9.418-2.282-18.835,0-28.253c0.618-2.551,1.404-5.102,2.357-7.652h29.712   c5.583,0,10.151,3.952,10.151,8.781v25.984c0,4.829-4.568,8.781-10.151,8.781h-29.712h-0.004   C621.182,57.226,620.398,54.679,619.78,52.132L619.78,52.132z M647.028,59.773L647.028,59.773h-24.891h-0.004h-5.896v2.349   c0,0.483,0.401,0.878,0.893,0.878h29.898c0.818,0,1.488-0.659,1.488-1.463v-0.3C648.516,60.432,647.846,59.773,647.028,59.773   L647.028,59.773z M647.028,13L647.028,13H617.13c-0.491,0-0.893,0.395-0.893,0.878v2.349h5.9h24.891   c0.818,0,1.488-0.659,1.488-1.463v-0.3C648.516,13.659,647.846,13,647.028,13L647.028,13z M622.137,16.227L622.137,16.227h-6.88   c-0.691,0-1.257,0.556-1.257,1.236v41.086c0,0.68,0.566,1.236,1.257,1.236h6.88v-0.011h-0.004   c-0.951-2.547-1.735-5.094-2.353-7.641c-2.282-9.418-2.282-18.835,0-28.253C620.398,21.329,621.184,18.778,622.137,16.227z"></path>
	<path id="Seat22" class="st2 seat" d="M619.78,102.132c-2.282-9.418-2.282-18.835,0-28.253c0.618-2.551,1.404-5.102,2.357-7.652h29.712   c5.583,0,10.151,3.952,10.151,8.781v25.984c0,4.829-4.568,8.781-10.151,8.781h-29.712h-0.004   C621.182,107.226,620.398,104.679,619.78,102.132L619.78,102.132z M647.028,109.773L647.028,109.773h-24.891h-0.004h-5.896v2.349   c0,0.483,0.401,0.878,0.893,0.878h29.898c0.818,0,1.488-0.659,1.488-1.463v-0.3C648.516,110.432,647.846,109.773,647.028,109.773   L647.028,109.773z M647.028,63L647.028,63H617.13c-0.491,0-0.893,0.395-0.893,0.878v2.349h5.9h24.891   c0.818,0,1.488-0.659,1.488-1.463v-0.3C648.516,63.659,647.846,63,647.028,63L647.028,63z M622.137,66.227L622.137,66.227h-6.88   c-0.691,0-1.257,0.556-1.257,1.236v41.086c0,0.68,0.566,1.236,1.257,1.236h6.88v-0.011h-0.004   c-0.951-2.547-1.735-5.094-2.353-7.641c-2.282-9.418-2.282-18.835,0-28.253C620.398,71.329,621.184,68.778,622.137,66.227z"></path>
	<path id="Seat23" class="st2 seat" d="M791.867,59.773h-0.004h-29.712c-5.582,0-10.151-3.952-10.151-8.781V25.008   c0-4.829,4.568-8.781,10.151-8.781h29.712c0.953,2.551,1.739,5.102,2.357,7.652c2.282,9.418,2.282,18.835,0,28.253   C793.603,54.679,792.819,57.226,791.867,59.773L791.867,59.773z M765.484,61.237L765.484,61.237v0.3   c0,0.805,0.67,1.463,1.488,1.463h29.898c0.491,0,0.893-0.395,0.893-0.878v-2.349h-5.896h-0.004h-24.891   C766.154,59.773,765.484,60.432,765.484,61.237L765.484,61.237z M765.484,14.463L765.484,14.463v0.3   c0,0.805,0.67,1.463,1.488,1.463h24.891h5.9v-2.349c0-0.483-0.401-0.878-0.893-0.878h-29.898   C766.154,13,765.484,13.659,765.484,14.463L765.484,14.463z M794.22,23.879L794.22,23.879c2.282,9.418,2.282,18.835,0,28.253   c-0.617,2.547-1.401,5.094-2.353,7.641h-0.004v0.011h6.88c0.692,0,1.257-0.556,1.257-1.236V17.463c0-0.68-0.565-1.236-1.257-1.236   h-6.88C792.816,18.778,793.602,21.329,794.22,23.879z"></path>
	<path id="Seat24" class="st2 seat" d="M791.867,109.773h-0.004h-29.712c-5.582,0-10.151-3.952-10.151-8.781V75.008   c0-4.829,4.568-8.781,10.151-8.781h29.712c0.953,2.551,1.739,5.102,2.357,7.652c2.282,9.418,2.282,18.835,0,28.253   C793.603,104.679,792.819,107.226,791.867,109.773L791.867,109.773z M765.484,111.237L765.484,111.237v0.3   c0,0.805,0.67,1.463,1.488,1.463h29.898c0.491,0,0.893-0.395,0.893-0.878v-2.349h-5.896h-0.004h-24.891   C766.154,109.773,765.484,110.432,765.484,111.237L765.484,111.237z M765.484,64.463L765.484,64.463v0.3   c0,0.805,0.67,1.463,1.488,1.463h24.891h5.9v-2.349c0-0.483-0.401-0.878-0.893-0.878h-29.898   C766.154,63,765.484,63.659,765.484,64.463L765.484,64.463z M794.22,73.879L794.22,73.879c2.282,9.418,2.282,18.835,0,28.253   c-0.617,2.547-1.401,5.094-2.353,7.641h-0.004v0.011h6.88c0.692,0,1.257-0.556,1.257-1.236V67.463c0-0.68-0.565-1.236-1.257-1.236   h-6.88C792.816,68.778,793.602,71.329,794.22,73.879z"></path>
	<path id="Seat25" class="st2 seat" d="M828.78,312.132c-2.282-9.418-2.282-18.835,0-28.253c0.618-2.551,1.404-5.102,2.357-7.652h29.712   c5.583,0,10.151,3.952,10.151,8.781v25.984c0,4.829-4.568,8.781-10.151,8.781h-29.712h-0.004   C830.182,317.226,829.398,314.679,828.78,312.132L828.78,312.132z M856.028,319.773L856.028,319.773h-24.891h-0.004h-5.896v2.349   c0,0.483,0.401,0.878,0.893,0.878h29.898c0.819,0,1.488-0.659,1.488-1.464v-0.3C857.516,320.432,856.846,319.773,856.028,319.773   L856.028,319.773z M856.028,273L856.028,273h-29.898c-0.491,0-0.893,0.395-0.893,0.878v2.349h5.9h24.891   c0.819,0,1.488-0.659,1.488-1.464v-0.3C857.516,273.659,856.846,273,856.028,273L856.028,273z M831.137,276.227L831.137,276.227   h-6.88c-0.691,0-1.257,0.556-1.257,1.236v41.086c0,0.68,0.566,1.236,1.257,1.236h6.88v-0.011h-0.004   c-0.952-2.547-1.735-5.094-2.353-7.641c-2.282-9.418-2.282-18.835,0-28.253C829.398,281.329,830.184,278.778,831.137,276.227z"></path>
	<path id="Seat26" class="st2 seat" d="M828.78,262.132c-2.282-9.418-2.282-18.835,0-28.253c0.618-2.551,1.404-5.102,2.357-7.652h29.712   c5.583,0,10.151,3.952,10.151,8.781v25.984c0,4.829-4.568,8.781-10.151,8.781h-29.712h-0.004   C830.182,267.226,829.398,264.679,828.78,262.132L828.78,262.132z M856.028,269.773L856.028,269.773h-24.891h-0.004h-5.896v2.349   c0,0.483,0.401,0.878,0.893,0.878h29.898c0.819,0,1.488-0.659,1.488-1.464v-0.3C857.516,270.432,856.846,269.773,856.028,269.773   L856.028,269.773z M856.028,223L856.028,223h-29.898c-0.491,0-0.893,0.395-0.893,0.878v2.349h5.9h24.891   c0.819,0,1.488-0.659,1.488-1.464v-0.3C857.516,223.659,856.846,223,856.028,223L856.028,223z M831.137,226.227L831.137,226.227   h-6.88c-0.691,0-1.257,0.556-1.257,1.236v41.086c0,0.68,0.566,1.236,1.257,1.236h6.88v-0.011h-0.004   c-0.952-2.547-1.735-5.094-2.353-7.641c-2.282-9.418-2.282-18.835,0-28.253C829.398,231.329,830.184,228.778,831.137,226.227z"></path>
	<path id="Seat27" class="st2 seat" d="M1000.867,319.773h-0.004h-29.712c-5.583,0-10.151-3.952-10.151-8.781v-25.984   c0-4.829,4.568-8.781,10.151-8.781h29.712c0.953,2.551,1.739,5.102,2.357,7.652c2.282,9.418,2.282,18.835,0,28.253   C1002.603,314.679,1001.819,317.226,1000.867,319.773L1000.867,319.773z M974.484,321.237L974.484,321.237v0.3   c0,0.805,0.67,1.464,1.488,1.464h29.898c0.491,0,0.893-0.395,0.893-0.878v-2.349h-5.896h-0.004h-24.891   C975.154,319.773,974.484,320.432,974.484,321.237L974.484,321.237z M974.484,274.464L974.484,274.464v0.3   c0,0.805,0.67,1.464,1.488,1.464h24.891h5.9v-2.349c0-0.483-0.401-0.878-0.893-0.878h-29.898   C975.154,273,974.484,273.659,974.484,274.464L974.484,274.464z M1003.22,283.879L1003.22,283.879   c2.282,9.418,2.282,18.835,0,28.253c-0.617,2.547-1.401,5.094-2.353,7.641h-0.004v0.011h6.88c0.692,0,1.257-0.556,1.257-1.236   v-41.086c0-0.68-0.565-1.236-1.257-1.236h-6.88C1001.816,278.778,1002.602,281.329,1003.22,283.879z"></path>
	<path id="Seat28" class="st2 seat" d="M1000.867,269.773h-0.004h-29.712c-5.583,0-10.151-3.952-10.151-8.781v-25.984   c0-4.829,4.568-8.781,10.151-8.781h29.712c0.953,2.551,1.739,5.102,2.357,7.652c2.282,9.418,2.282,18.835,0,28.253   C1002.603,264.679,1001.819,267.226,1000.867,269.773L1000.867,269.773z M974.484,271.237L974.484,271.237v0.3   c0,0.805,0.67,1.464,1.488,1.464h29.898c0.491,0,0.893-0.395,0.893-0.878v-2.349h-5.896h-0.004h-24.891   C975.154,269.773,974.484,270.432,974.484,271.237L974.484,271.237z M974.484,224.464L974.484,224.464v0.3   c0,0.805,0.67,1.464,1.488,1.464h24.891h5.9v-2.349c0-0.483-0.401-0.878-0.893-0.878h-29.898   C975.154,223,974.484,223.659,974.484,224.464L974.484,224.464z M1003.22,233.879L1003.22,233.879   c2.282,9.418,2.282,18.835,0,28.253c-0.617,2.547-1.401,5.094-2.353,7.641h-0.004v0.011h6.88c0.692,0,1.257-0.556,1.257-1.236   v-41.086c0-0.68-0.565-1.236-1.257-1.236h-6.88C1001.816,228.778,1002.602,231.329,1003.22,233.879z"></path>
	<path id="Seat29" class="st2 seat" d="M828.78,52.132c-2.282-9.418-2.282-18.835,0-28.253c0.618-2.551,1.404-5.102,2.357-7.652h29.712   c5.583,0,10.151,3.952,10.151,8.781v25.984c0,4.829-4.568,8.781-10.151,8.781h-29.712h-0.004   C830.182,57.226,829.398,54.679,828.78,52.132L828.78,52.132z M856.028,59.773L856.028,59.773h-24.891h-0.004h-5.896v2.349   c0,0.483,0.401,0.878,0.893,0.878h29.898c0.819,0,1.488-0.659,1.488-1.463v-0.3C857.516,60.432,856.846,59.773,856.028,59.773   L856.028,59.773z M856.028,13L856.028,13h-29.898c-0.491,0-0.893,0.395-0.893,0.878v2.349h5.9h24.891   c0.819,0,1.488-0.659,1.488-1.463v-0.3C857.516,13.659,856.846,13,856.028,13L856.028,13z M831.137,16.227L831.137,16.227h-6.88   c-0.691,0-1.257,0.556-1.257,1.236v41.086c0,0.68,0.566,1.236,1.257,1.236h6.88v-0.011h-0.004   c-0.952-2.547-1.735-5.094-2.353-7.641c-2.282-9.418-2.282-18.835,0-28.253C829.398,21.329,830.184,18.778,831.137,16.227z"></path>
	<path id="Seat30" class="st2 seat" d="M828.78,102.132c-2.282-9.418-2.282-18.835,0-28.253c0.618-2.551,1.404-5.102,2.357-7.652h29.712   c5.583,0,10.151,3.952,10.151,8.781v25.984c0,4.829-4.568,8.781-10.151,8.781h-29.712h-0.004   C830.182,107.226,829.398,104.679,828.78,102.132L828.78,102.132z M856.028,109.773L856.028,109.773h-24.891h-0.004h-5.896v2.349   c0,0.483,0.401,0.878,0.893,0.878h29.898c0.819,0,1.488-0.659,1.488-1.463v-0.3C857.516,110.432,856.846,109.773,856.028,109.773   L856.028,109.773z M856.028,63L856.028,63h-29.898c-0.491,0-0.893,0.395-0.893,0.878v2.349h5.9h24.891   c0.819,0,1.488-0.659,1.488-1.463v-0.3C857.516,63.659,856.846,63,856.028,63L856.028,63z M831.137,66.227L831.137,66.227h-6.88   c-0.691,0-1.257,0.556-1.257,1.236v41.086c0,0.68,0.566,1.236,1.257,1.236h6.88v-0.011h-0.004   c-0.952-2.547-1.735-5.094-2.353-7.641c-2.282-9.418-2.282-18.835,0-28.253C829.398,71.329,830.184,68.778,831.137,66.227z"></path>
	<path id="Seat31" class="st2 seat" d="M1000.867,59.773h-0.004h-29.712c-5.583,0-10.151-3.952-10.151-8.781V25.008   c0-4.829,4.568-8.781,10.151-8.781h29.712c0.953,2.551,1.739,5.102,2.357,7.652c2.282,9.418,2.282,18.835,0,28.253   C1002.603,54.679,1001.819,57.226,1000.867,59.773L1000.867,59.773z M974.484,61.237L974.484,61.237v0.3   c0,0.805,0.67,1.463,1.488,1.463h29.898c0.491,0,0.893-0.395,0.893-0.878v-2.349h-5.896h-0.004h-24.891   C975.154,59.773,974.484,60.432,974.484,61.237L974.484,61.237z M974.484,14.463L974.484,14.463v0.3   c0,0.805,0.67,1.463,1.488,1.463h24.891h5.9v-2.349c0-0.483-0.401-0.878-0.893-0.878h-29.898   C975.154,13,974.484,13.659,974.484,14.463L974.484,14.463z M1003.22,23.879L1003.22,23.879c2.282,9.418,2.282,18.835,0,28.253   c-0.617,2.547-1.401,5.094-2.353,7.641h-0.004v0.011h6.88c0.692,0,1.257-0.556,1.257-1.236V17.463c0-0.68-0.565-1.236-1.257-1.236   h-6.88C1001.816,18.778,1002.602,21.329,1003.22,23.879z"></path>
	<path id="Seat32" class="st2 seat" d="M1000.867,109.773h-0.004h-29.712c-5.583,0-10.151-3.952-10.151-8.781V75.008   c0-4.829,4.568-8.781,10.151-8.781h29.712c0.953,2.551,1.739,5.102,2.357,7.652c2.282,9.418,2.282,18.835,0,28.253   C1002.603,104.679,1001.819,107.226,1000.867,109.773L1000.867,109.773z M974.484,111.237L974.484,111.237v0.3   c0,0.805,0.67,1.463,1.488,1.463h29.898c0.491,0,0.893-0.395,0.893-0.878v-2.349h-5.896h-0.004h-24.891   C975.154,109.773,974.484,110.432,974.484,111.237L974.484,111.237z M974.484,64.463L974.484,64.463v0.3   c0,0.805,0.67,1.463,1.488,1.463h24.891h5.9v-2.349c0-0.483-0.401-0.878-0.893-0.878h-29.898   C975.154,63,974.484,63.659,974.484,64.463L974.484,64.463z M1003.22,73.879L1003.22,73.879c2.282,9.418,2.282,18.835,0,28.253   c-0.617,2.547-1.401,5.094-2.353,7.641h-0.004v0.011h6.88c0.692,0,1.257-0.556,1.257-1.236V67.463c0-0.68-0.565-1.236-1.257-1.236   h-6.88C1001.816,68.778,1002.602,71.329,1003.22,73.879z"></path>
	<path id="Seat33" class="st2 seat" d="M1037.78,312.132c-2.282-9.418-2.282-18.835,0-28.253c0.618-2.551,1.404-5.102,2.356-7.652h29.712   c5.583,0,10.151,3.952,10.151,8.781v25.984c0,4.829-4.568,8.781-10.151,8.781h-29.712h-0.004   C1039.181,317.226,1038.397,314.679,1037.78,312.132L1037.78,312.132z M1065.027,319.773L1065.027,319.773h-24.891h-0.004h-5.896   v2.349c0,0.483,0.401,0.878,0.893,0.878h29.898c0.818,0,1.488-0.659,1.488-1.464v-0.3   C1066.516,320.432,1065.846,319.773,1065.027,319.773L1065.027,319.773z M1065.027,273L1065.027,273h-29.898   c-0.491,0-0.893,0.395-0.893,0.878v2.349h5.9h24.891c0.818,0,1.488-0.659,1.488-1.464v-0.3   C1066.516,273.659,1065.846,273,1065.027,273L1065.027,273z M1040.137,276.227L1040.137,276.227h-6.88   c-0.691,0-1.257,0.556-1.257,1.236v41.086c0,0.68,0.566,1.236,1.257,1.236h6.88v-0.011h-0.004   c-0.951-2.547-1.735-5.094-2.353-7.641c-2.282-9.418-2.282-18.835,0-28.253C1038.398,281.329,1039.184,278.778,1040.137,276.227z"></path>
	<path id="Seat34" class="st2 seat" d="M1037.78,262.132c-2.282-9.418-2.282-18.835,0-28.253c0.618-2.551,1.404-5.102,2.356-7.652h29.712   c5.583,0,10.151,3.952,10.151,8.781v25.984c0,4.829-4.568,8.781-10.151,8.781h-29.712h-0.004   C1039.181,267.226,1038.397,264.679,1037.78,262.132L1037.78,262.132z M1065.027,269.773L1065.027,269.773h-24.891h-0.004h-5.896   v2.349c0,0.483,0.401,0.878,0.893,0.878h29.898c0.818,0,1.488-0.659,1.488-1.464v-0.3   C1066.516,270.432,1065.846,269.773,1065.027,269.773L1065.027,269.773z M1065.027,223L1065.027,223h-29.898   c-0.491,0-0.893,0.395-0.893,0.878v2.349h5.9h24.891c0.818,0,1.488-0.659,1.488-1.464v-0.3   C1066.516,223.659,1065.846,223,1065.027,223L1065.027,223z M1040.137,226.227L1040.137,226.227h-6.88   c-0.691,0-1.257,0.556-1.257,1.236v41.086c0,0.68,0.566,1.236,1.257,1.236h6.88v-0.011h-0.004   c-0.951-2.547-1.735-5.094-2.353-7.641c-2.282-9.418-2.282-18.835,0-28.253C1038.398,231.329,1039.184,228.778,1040.137,226.227z"></path>
	<path id="Seat35" class="st2 seat" d="M1209.867,319.773h-0.004h-29.712c-5.583,0-10.151-3.952-10.151-8.781v-25.984   c0-4.829,4.568-8.781,10.151-8.781h29.712c0.953,2.551,1.739,5.102,2.357,7.652c2.282,9.418,2.282,18.835,0,28.253   C1211.602,314.679,1210.818,317.226,1209.867,319.773L1209.867,319.773z M1183.484,321.237L1183.484,321.237v0.3   c0,0.805,0.67,1.464,1.488,1.464h29.898c0.491,0,0.892-0.395,0.892-0.878v-2.349h-5.896h-0.004h-24.891   C1184.153,319.773,1183.484,320.432,1183.484,321.237L1183.484,321.237z M1183.484,274.464L1183.484,274.464v0.3   c0,0.805,0.67,1.464,1.488,1.464h24.891h5.9v-2.349c0-0.483-0.401-0.878-0.892-0.878h-29.898   C1184.153,273,1183.484,273.659,1183.484,274.464L1183.484,274.464z M1212.22,283.879L1212.22,283.879   c2.282,9.418,2.282,18.835,0,28.253c-0.617,2.547-1.401,5.094-2.353,7.641h-0.004v0.011h6.88c0.692,0,1.257-0.556,1.257-1.236   v-41.086c0-0.68-0.566-1.236-1.257-1.236h-6.88C1210.816,278.778,1211.602,281.329,1212.22,283.879z"></path>
	<path id="Seat36" class="st2 seat" d="M1209.867,269.773h-0.004h-29.712c-5.583,0-10.151-3.952-10.151-8.781v-25.984   c0-4.829,4.568-8.781,10.151-8.781h29.712c0.953,2.551,1.739,5.102,2.357,7.652c2.282,9.418,2.282,18.835,0,28.253   C1211.602,264.679,1210.818,267.226,1209.867,269.773L1209.867,269.773z M1183.484,271.237L1183.484,271.237v0.3   c0,0.805,0.67,1.464,1.488,1.464h29.898c0.491,0,0.892-0.395,0.892-0.878v-2.349h-5.896h-0.004h-24.891   C1184.153,269.773,1183.484,270.432,1183.484,271.237L1183.484,271.237z M1183.484,224.464L1183.484,224.464v0.3   c0,0.805,0.67,1.464,1.488,1.464h24.891h5.9v-2.349c0-0.483-0.401-0.878-0.892-0.878h-29.898   C1184.153,223,1183.484,223.659,1183.484,224.464L1183.484,224.464z M1212.22,233.879L1212.22,233.879   c2.282,9.418,2.282,18.835,0,28.253c-0.617,2.547-1.401,5.094-2.353,7.641h-0.004v0.011h6.88c0.692,0,1.257-0.556,1.257-1.236   v-41.086c0-0.68-0.566-1.236-1.257-1.236h-6.88C1210.816,228.778,1211.602,231.329,1212.22,233.879z"></path>
	<path id="Seat37" class="st2 seat" d="M1037.78,52.132c-2.282-9.418-2.282-18.835,0-28.253c0.618-2.551,1.404-5.102,2.356-7.652h29.712   c5.583,0,10.151,3.952,10.151,8.781v25.984c0,4.829-4.568,8.781-10.151,8.781h-29.712h-0.004   C1039.181,57.226,1038.397,54.679,1037.78,52.132L1037.78,52.132z M1065.027,59.773L1065.027,59.773h-24.891h-0.004h-5.896v2.349   c0,0.483,0.401,0.878,0.893,0.878h29.898c0.818,0,1.488-0.659,1.488-1.463v-0.3C1066.516,60.432,1065.846,59.773,1065.027,59.773   L1065.027,59.773z M1065.027,13L1065.027,13h-29.898c-0.491,0-0.893,0.395-0.893,0.878v2.349h5.9h24.891   c0.818,0,1.488-0.659,1.488-1.463v-0.3C1066.516,13.659,1065.846,13,1065.027,13L1065.027,13z M1040.137,16.227L1040.137,16.227   h-6.88c-0.691,0-1.257,0.556-1.257,1.236v41.086c0,0.68,0.566,1.236,1.257,1.236h6.88v-0.011h-0.004   c-0.951-2.547-1.735-5.094-2.353-7.641c-2.282-9.418-2.282-18.835,0-28.253C1038.398,21.329,1039.184,18.778,1040.137,16.227z"></path>
	<path id="Seat38" class="st2 seat" d="M1037.78,102.132c-2.282-9.418-2.282-18.835,0-28.253c0.618-2.551,1.404-5.102,2.356-7.652h29.712   c5.583,0,10.151,3.952,10.151,8.781v25.984c0,4.829-4.568,8.781-10.151,8.781h-29.712h-0.004   C1039.181,107.226,1038.397,104.679,1037.78,102.132L1037.78,102.132z M1065.027,109.773L1065.027,109.773h-24.891h-0.004h-5.896   v2.349c0,0.483,0.401,0.878,0.893,0.878h29.898c0.818,0,1.488-0.659,1.488-1.463v-0.3   C1066.516,110.432,1065.846,109.773,1065.027,109.773L1065.027,109.773z M1065.027,63L1065.027,63h-29.898   c-0.491,0-0.893,0.395-0.893,0.878v2.349h5.9h24.891c0.818,0,1.488-0.659,1.488-1.463v-0.3   C1066.516,63.659,1065.846,63,1065.027,63L1065.027,63z M1040.137,66.227L1040.137,66.227h-6.88c-0.691,0-1.257,0.556-1.257,1.236   v41.086c0,0.68,0.566,1.236,1.257,1.236h6.88v-0.011h-0.004c-0.951-2.547-1.735-5.094-2.353-7.641   c-2.282-9.418-2.282-18.835,0-28.253C1038.398,71.329,1039.184,68.778,1040.137,66.227z"></path>
	<path id="Seat39" class="st2 seat" d="M1209.867,59.773h-0.004h-29.712c-5.583,0-10.151-3.952-10.151-8.781V25.008   c0-4.829,4.568-8.781,10.151-8.781h29.712c0.953,2.551,1.739,5.102,2.357,7.652c2.282,9.418,2.282,18.835,0,28.253   C1211.602,54.679,1210.818,57.226,1209.867,59.773L1209.867,59.773z M1183.484,61.237L1183.484,61.237v0.3   c0,0.805,0.67,1.463,1.488,1.463h29.898c0.491,0,0.892-0.395,0.892-0.878v-2.349h-5.896h-0.004h-24.891   C1184.153,59.773,1183.484,60.432,1183.484,61.237L1183.484,61.237z M1183.484,14.463L1183.484,14.463v0.3   c0,0.805,0.67,1.463,1.488,1.463h24.891h5.9v-2.349c0-0.483-0.401-0.878-0.892-0.878h-29.898   C1184.153,13,1183.484,13.659,1183.484,14.463L1183.484,14.463z M1212.22,23.879L1212.22,23.879c2.282,9.418,2.282,18.835,0,28.253   c-0.617,2.547-1.401,5.094-2.353,7.641h-0.004v0.011h6.88c0.692,0,1.257-0.556,1.257-1.236V17.463c0-0.68-0.566-1.236-1.257-1.236   h-6.88C1210.816,18.778,1211.602,21.329,1212.22,23.879z"></path>
	<path id="Seat40" class="st2 seat" d="M1209.867,109.773h-0.004h-29.712c-5.583,0-10.151-3.952-10.151-8.781V75.008   c0-4.829,4.568-8.781,10.151-8.781h29.712c0.953,2.551,1.739,5.102,2.357,7.652c2.282,9.418,2.282,18.835,0,28.253   C1211.602,104.679,1210.818,107.226,1209.867,109.773L1209.867,109.773z M1183.484,111.237L1183.484,111.237v0.3   c0,0.805,0.67,1.463,1.488,1.463h29.898c0.491,0,0.892-0.395,0.892-0.878v-2.349h-5.896h-0.004h-24.891   C1184.153,109.773,1183.484,110.432,1183.484,111.237L1183.484,111.237z M1183.484,64.463L1183.484,64.463v0.3   c0,0.805,0.67,1.463,1.488,1.463h24.891h5.9v-2.349c0-0.483-0.401-0.878-0.892-0.878h-29.898   C1184.153,63,1183.484,63.659,1183.484,64.463L1183.484,64.463z M1212.22,73.879L1212.22,73.879c2.282,9.418,2.282,18.835,0,28.253   c-0.617,2.547-1.401,5.094-2.353,7.641h-0.004v0.011h6.88c0.692,0,1.257-0.556,1.257-1.236V67.463c0-0.68-0.566-1.236-1.257-1.236   h-6.88C1210.816,68.778,1211.602,71.329,1212.22,73.879z"></path>
</g>
<g id="Numbers" pointer-events="none">
	<text transform="matrix(1.0003 0 0 1 214.3838 303.8433)" class="st3 st4 st5">1</text>
	<text transform="matrix(1.0003 0 0 1 214.3838 253.8433)" class="st3 st4 st5">2</text>
	<text transform="matrix(1.0003 0 0 1 352.3828 303.8433)" class="st3 st4 st5">3</text>
	<text transform="matrix(1.0003 0 0 1 352.3838 253.8433)" class="st3 st4 st5">4</text>
	<text transform="matrix(1.0003 0 0 1 214.3828 43.8447)" class="st3 st4 st5">5</text>
	<text transform="matrix(1.0003 0 0 1 214.3838 93.8447)" class="st3 st4 st5">6</text>
	<text transform="matrix(1.0003 0 0 1 352.3828 43.8447)" class="st3 st4 st5">7</text>
	<text transform="matrix(1.0003 0 0 1 352.3838 93.8447)" class="st3 st4 st5">8</text>
	<text transform="matrix(1.0003 0 0 1 423.3838 303.8433)" class="st3 st4 st5">9</text>
	<text transform="matrix(1.0003 0 0 1 417.7666 253.8433)" class="st3 st4 st5">10</text>
	<text transform="matrix(1.0003 0 0 1 555.7676 303.8433)" class="st3 st4 st5">11</text>
	<text transform="matrix(1.0003 0 0 1 555.7676 253.8433)" class="st3 st4 st5">12</text>
	<text transform="matrix(1.0003 0 0 1 417.7666 43.8442)" class="st3 st4 st5">13</text>
	<text transform="matrix(1.0003 0 0 1 417.7666 93.8442)" class="st3 st4 st5">14</text>
	<text transform="matrix(1.0003 0 0 1 555.7676 43.8442)" class="st3 st4 st5">15</text>
	<text transform="matrix(1.0003 0 0 1 555.7676 93.8442)" class="st3 st4 st5">16</text>
	<text transform="matrix(1.0003 0 0 1 626.7676 303.8433)" class="st3 st4 st5">17</text>
	<text transform="matrix(1.0003 0 0 1 626.7676 253.8433)" class="st3 st4 st5">18</text>
	<text transform="matrix(1.0003 0 0 1 764.7676 303.8433)" class="st3 st4 st5">19</text>
	<text transform="matrix(1.0003 0 0 1 764.7676 253.8433)" class="st3 st4 st5">20</text>
	<text transform="matrix(1.0003 0 0 1 626.7666 43.8447)" class="st3 st4 st5">21</text>
	<text transform="matrix(1.0003 0 0 1 626.7676 93.8447)" class="st3 st4 st5">22</text>
	<text transform="matrix(1.0003 0 0 1 764.7657 43.8447)" class="st3 st4 st5">23</text>
	<text transform="matrix(1.0003 0 0 1 764.7667 93.8447)" class="st3 st4 st5">24</text>
	<text transform="matrix(1.0003 0 0 1 835.7657 303.8433)" class="st3 st4 st5">25</text>
	<text transform="matrix(1.0003 0 0 1 835.7667 253.8433)" class="st3 st4 st5">26</text>
	<text transform="matrix(1.0003 0 0 1 973.7667 303.8433)" class="st3 st4 st5">27</text>
	<text transform="matrix(1.0003 0 0 1 973.7667 253.8433)" class="st3 st4 st5">28</text>
	<text transform="matrix(1.0003 0 0 1 835.7667 43.8447)" class="st3 st4 st5">29</text>
	<text transform="matrix(1.0003 0 0 1 835.7657 93.8447)" class="st3 st4 st5">30</text>
	<text transform="matrix(1.0003 0 0 1 973.7667 43.8447)" class="st3 st4 st5">31</text>
	<text transform="matrix(1.0003 0 0 1 973.7657 93.8447)" class="st3 st4 st5">32</text>
	<text transform="matrix(1.0003 0 0 1 1044.7666 303.8433)" class="st3 st4 st5">33</text>
	<text transform="matrix(1.0003 0 0 1 1044.7676 253.8433)" class="st3 st4 st5">34</text>
	<text transform="matrix(1.0003 0 0 1 1182.7656 303.8433)" class="st3 st4 st5">35</text>
	<text transform="matrix(1.0003 0 0 1 1182.7666 253.8433)" class="st3 st4 st5">36</text>
	<text transform="matrix(1.0003 0 0 1 1044.7676 43.8447)" class="st3 st4 st5">37</text>
	<text transform="matrix(1.0003 0 0 1 1044.7666 93.8447)" class="st3 st4 st5">38</text>
	<text transform="matrix(1.0003 0 0 1 1182.7666 43.8447)" class="st3 st4 st5">39</text>
	<text transform="matrix(1.0003 0 0 1 1182.7656 93.8447)" class="st3 st4 st5">40</text>
</g>
<g id="Tables">
	<path class="st6" d="M313,323h-48v-72c0-8.8,7.2-16,16-16h16c8.8,0,16,7.2,16,16V323z"></path>
	<path class="st6" d="M313,13h-48v72c0,8.8,7.2,16,16,16h16c8.8,0,16-7.2,16-16V13z"></path>
	<path class="st6" d="M522.001,13h-48v72c0,8.8,7.2,16,16,16h16c8.8,0,16-7.2,16-16V13z"></path>
	<path class="st6" d="M522.001,323h-48v-72c0-8.8,7.2-16,16-16h16c8.8,0,16,7.2,16,16V323z"></path>
	<path class="st6" d="M731.001,13h-48v72c0,8.8,7.2,16,16,16h16c8.8,0,16-7.2,16-16V13z"></path>
	<path class="st6" d="M731.001,323h-48v-72c0-8.8,7.2-16,16-16h16c8.8,0,16,7.2,16,16V323z"></path>
	<path class="st6" d="M940,13h-48v72c0,8.8,7.2,16,16,16h16c8.8,0,16-7.2,16-16V13z"></path>
	<path class="st6" d="M940,323h-48v-72c0-8.8,7.2-16,16-16h16c8.8,0,16,7.2,16,16V323z"></path>
	<path class="st6" d="M1149,13h-48v72c0,8.8,7.2,16,16,16h16c8.8,0,16-7.2,16-16V13z"></path>
	<path class="st6" d="M1149,323h-48v-72c0-8.8,7.2-16,16-16h16c8.8,0,16,7.2,16,16V323z"></path>
	<ellipse class="st6" cx="1814.835" cy="265.916" rx="40" ry="27.35"></ellipse>
	<ellipse class="st6" cx="1750.933" cy="70.933" rx="40" ry="27.35"></ellipse>
	<path class="st6" d="M1357.675,240.001h264.9c66.066-55.05,79.467-117.718,40.2-188.001V8H1234v128   C1320.937,136,1326.862,240.001,1357.675,240.001z"></path>
</g>
<g id="Cup_for_table">
	<path class="st7" d="M299.009,286.925c0,1.148-0.929,2.075-2.079,2.075h-15.86c-1.15,0-2.078-0.927-2.078-2.075H299.009   L299.009,286.925z M294.684,282.095L294.684,282.095c0,0,0.213-0.003,0.367-0.003c1.193,0,2.16-0.965,2.16-2.159   c0-1.193-0.967-2.157-2.16-2.157h-0.367V282.095L294.684,282.095z M284.91,286.052L284.91,286.052c-0.98,0-1.771-0.795-1.771-1.775   v-7.922h11.904c1.975,0,3.582,1.604,3.582,3.577c0,1.975-1.599,3.575-3.575,3.575h-0.367c0,0.209-0.002,0.653-0.002,0.77   c0,0.98-0.795,1.775-1.775,1.775H284.91L284.91,286.052z M286.315,273.407L286.315,273.407c0,0.459-0.187,0.826-0.557,1.102   c-0.102,0.079-0.154,0.186-0.154,0.319c0,0.262,0.13,0.391,0.391,0.391c0.087,0,0.166-0.026,0.237-0.082   c0.576-0.434,0.865-1.011,0.865-1.73c0-0.528-0.212-1.022-0.634-1.48c-0.423-0.458-0.634-0.872-0.634-1.244   c0-0.396,0.146-0.73,0.439-1.008c0.079-0.078,0.118-0.173,0.118-0.285c0-0.261-0.131-0.391-0.391-0.391   c-0.103,0-0.194,0.035-0.273,0.107c-0.451,0.426-0.675,0.952-0.675,1.576c0,0.561,0.211,1.072,0.634,1.533   C286.103,272.679,286.315,273.076,286.315,273.407L286.315,273.407z M289.11,273.407L289.11,273.407   c0,0.459-0.186,0.826-0.558,1.102c-0.102,0.079-0.154,0.186-0.154,0.319c0,0.262,0.131,0.391,0.391,0.391   c0.088,0,0.165-0.026,0.237-0.082c0.577-0.434,0.864-1.011,0.864-1.73c0-0.528-0.211-1.022-0.633-1.48   c-0.422-0.458-0.633-0.872-0.633-1.244c0-0.396,0.145-0.73,0.438-1.008c0.079-0.078,0.118-0.173,0.118-0.285   c0-0.261-0.13-0.391-0.391-0.391c-0.102,0-0.193,0.035-0.272,0.107c-0.45,0.426-0.676,0.952-0.676,1.576   c0,0.561,0.211,1.072,0.634,1.533C288.9,272.679,289.11,273.076,289.11,273.407L289.11,273.407z M291.906,273.407L291.906,273.407   c0,0.459-0.185,0.826-0.556,1.102c-0.103,0.079-0.154,0.186-0.154,0.319c0,0.262,0.131,0.391,0.391,0.391   c0.087,0,0.166-0.026,0.237-0.082c0.577-0.434,0.864-1.011,0.864-1.73c0-0.528-0.211-1.022-0.634-1.48   c-0.422-0.458-0.634-0.872-0.634-1.244c0-0.396,0.147-0.73,0.438-1.008c0.079-0.078,0.118-0.173,0.118-0.285   c0-0.261-0.13-0.391-0.391-0.391c-0.103,0-0.194,0.035-0.273,0.107c-0.45,0.426-0.675,0.952-0.675,1.576   c0,0.561,0.212,1.072,0.634,1.533C291.695,272.679,291.906,273.076,291.906,273.407z"></path>
	<path class="st7" d="M299.009,64.925c0,1.148-0.929,2.075-2.079,2.075h-15.86c-1.15,0-2.078-0.927-2.078-2.075H299.009   L299.009,64.925z M294.684,60.095L294.684,60.095c0,0,0.213-0.003,0.367-0.003c1.193,0,2.16-0.965,2.16-2.159   c0-1.192-0.967-2.157-2.16-2.157h-0.367V60.095L294.684,60.095z M284.91,64.053L284.91,64.053c-0.98,0-1.771-0.795-1.771-1.775   v-7.922h11.904c1.975,0,3.582,1.603,3.582,3.577c0,1.976-1.599,3.575-3.575,3.575h-0.367c0,0.209-0.002,0.653-0.002,0.77   c0,0.979-0.795,1.775-1.775,1.775H284.91L284.91,64.053z M286.315,51.408L286.315,51.408c0,0.459-0.187,0.825-0.557,1.103   c-0.102,0.079-0.154,0.186-0.154,0.319c0,0.262,0.13,0.391,0.391,0.391c0.087,0,0.166-0.026,0.237-0.083   c0.576-0.434,0.865-1.011,0.865-1.73c0-0.528-0.212-1.022-0.634-1.48c-0.423-0.458-0.634-0.872-0.634-1.244   c0-0.396,0.146-0.73,0.439-1.008c0.079-0.078,0.118-0.173,0.118-0.284c0-0.261-0.131-0.391-0.391-0.391   c-0.103,0-0.194,0.035-0.273,0.107c-0.451,0.426-0.675,0.952-0.675,1.577c0,0.56,0.211,1.071,0.634,1.533   C286.103,50.679,286.315,51.076,286.315,51.408L286.315,51.408z M289.11,51.408L289.11,51.408c0,0.459-0.186,0.825-0.558,1.103   c-0.102,0.079-0.154,0.186-0.154,0.319c0,0.262,0.131,0.391,0.391,0.391c0.088,0,0.165-0.026,0.237-0.083   c0.577-0.434,0.864-1.011,0.864-1.73c0-0.528-0.211-1.022-0.633-1.48c-0.422-0.458-0.633-0.872-0.633-1.244   c0-0.396,0.145-0.73,0.438-1.008c0.079-0.078,0.118-0.173,0.118-0.284c0-0.261-0.13-0.391-0.391-0.391   c-0.102,0-0.193,0.035-0.272,0.107c-0.45,0.426-0.676,0.952-0.676,1.577c0,0.56,0.211,1.071,0.634,1.533   C288.9,50.679,289.11,51.076,289.11,51.408L289.11,51.408z M291.906,51.408L291.906,51.408c0,0.459-0.185,0.825-0.557,1.103   c-0.103,0.079-0.154,0.186-0.154,0.319c0,0.262,0.131,0.391,0.391,0.391c0.087,0,0.166-0.026,0.237-0.083   c0.577-0.434,0.864-1.011,0.864-1.73c0-0.528-0.211-1.022-0.634-1.48c-0.422-0.458-0.634-0.872-0.634-1.244   c0-0.396,0.147-0.73,0.438-1.008c0.079-0.078,0.118-0.173,0.118-0.284c0-0.261-0.13-0.391-0.391-0.391   c-0.103,0-0.194,0.035-0.273,0.107c-0.45,0.426-0.675,0.952-0.675,1.577c0,0.56,0.212,1.071,0.634,1.533   C291.695,50.679,291.906,51.076,291.906,51.408z"></path>
	<path class="st7" d="M508.009,59.925c0,1.148-0.928,2.075-2.079,2.075h-15.86c-1.15,0-2.078-0.927-2.078-2.075H508.009   L508.009,59.925z M503.685,55.095L503.685,55.095c0,0,0.213-0.003,0.366-0.003c1.193,0,2.16-0.965,2.16-2.159   c0-1.193-0.967-2.157-2.16-2.157h-0.366V55.095L503.685,55.095z M493.911,59.053L493.911,59.053c-0.979,0-1.771-0.795-1.771-1.775   v-7.922h11.904c1.975,0,3.582,1.604,3.582,3.577c0,1.976-1.599,3.575-3.575,3.575h-0.366c0,0.209-0.002,0.653-0.002,0.77   c0,0.979-0.795,1.775-1.775,1.775H493.911L493.911,59.053z M495.315,46.407L495.315,46.407c0,0.459-0.186,0.825-0.557,1.103   c-0.102,0.078-0.154,0.186-0.154,0.319c0,0.262,0.131,0.391,0.391,0.391c0.087,0,0.166-0.026,0.237-0.083   c0.576-0.434,0.865-1.011,0.865-1.73c0-0.528-0.212-1.023-0.634-1.48c-0.423-0.458-0.634-0.872-0.634-1.243   c0-0.396,0.146-0.73,0.438-1.008c0.079-0.078,0.118-0.173,0.118-0.284c0-0.261-0.131-0.391-0.391-0.391   c-0.102,0-0.194,0.035-0.273,0.107c-0.45,0.426-0.675,0.952-0.675,1.577c0,0.56,0.211,1.071,0.634,1.533   C495.103,45.679,495.315,46.076,495.315,46.407L495.315,46.407z M498.111,46.407L498.111,46.407c0,0.459-0.185,0.825-0.557,1.103   c-0.102,0.078-0.154,0.186-0.154,0.319c0,0.262,0.131,0.391,0.391,0.391c0.088,0,0.166-0.026,0.237-0.083   c0.577-0.434,0.864-1.011,0.864-1.73c0-0.528-0.211-1.023-0.633-1.48c-0.423-0.458-0.633-0.872-0.633-1.243   c0-0.396,0.145-0.73,0.437-1.008c0.079-0.078,0.118-0.173,0.118-0.284c0-0.261-0.13-0.391-0.391-0.391   c-0.102,0-0.193,0.035-0.272,0.107c-0.45,0.426-0.676,0.952-0.676,1.577c0,0.56,0.211,1.071,0.634,1.533   C497.9,45.679,498.111,46.076,498.111,46.407L498.111,46.407z M500.907,46.407L500.907,46.407c0,0.459-0.185,0.825-0.557,1.103   c-0.102,0.078-0.154,0.186-0.154,0.319c0,0.262,0.131,0.391,0.391,0.391c0.087,0,0.167-0.026,0.237-0.083   c0.577-0.434,0.864-1.011,0.864-1.73c0-0.528-0.211-1.023-0.634-1.48c-0.422-0.458-0.634-0.872-0.634-1.243   c0-0.396,0.147-0.73,0.438-1.008c0.079-0.078,0.118-0.173,0.118-0.284c0-0.261-0.13-0.391-0.391-0.391   c-0.103,0-0.193,0.035-0.272,0.107c-0.45,0.426-0.675,0.952-0.675,1.577c0,0.56,0.212,1.071,0.634,1.533   C500.696,45.679,500.907,46.076,500.907,46.407z"></path>
	<path class="st7" d="M508.009,286.925c0,1.148-0.928,2.075-2.079,2.075h-15.86c-1.15,0-2.078-0.927-2.078-2.075H508.009   L508.009,286.925z M503.685,282.095L503.685,282.095c0,0,0.213-0.003,0.366-0.003c1.193,0,2.16-0.965,2.16-2.159   c0-1.193-0.967-2.157-2.16-2.157h-0.366V282.095L503.685,282.095z M493.911,286.052L493.911,286.052   c-0.979,0-1.771-0.795-1.771-1.775v-7.922h11.904c1.975,0,3.582,1.604,3.582,3.577c0,1.975-1.599,3.575-3.575,3.575h-0.366   c0,0.209-0.002,0.653-0.002,0.77c0,0.98-0.795,1.775-1.775,1.775H493.911L493.911,286.052z M495.315,273.407L495.315,273.407   c0,0.459-0.186,0.826-0.557,1.102c-0.102,0.079-0.154,0.186-0.154,0.319c0,0.262,0.131,0.391,0.391,0.391   c0.087,0,0.166-0.026,0.237-0.082c0.576-0.434,0.865-1.011,0.865-1.73c0-0.528-0.212-1.022-0.634-1.48   c-0.423-0.458-0.634-0.872-0.634-1.244c0-0.396,0.146-0.73,0.438-1.008c0.079-0.078,0.118-0.173,0.118-0.285   c0-0.261-0.131-0.391-0.391-0.391c-0.102,0-0.194,0.035-0.273,0.107c-0.45,0.426-0.675,0.952-0.675,1.576   c0,0.561,0.211,1.072,0.634,1.533C495.103,272.679,495.315,273.076,495.315,273.407L495.315,273.407z M498.111,273.407   L498.111,273.407c0,0.459-0.185,0.826-0.557,1.102c-0.102,0.079-0.154,0.186-0.154,0.319c0,0.262,0.131,0.391,0.391,0.391   c0.088,0,0.166-0.026,0.237-0.082c0.577-0.434,0.864-1.011,0.864-1.73c0-0.528-0.211-1.022-0.633-1.48   c-0.423-0.458-0.633-0.872-0.633-1.244c0-0.396,0.145-0.73,0.437-1.008c0.079-0.078,0.118-0.173,0.118-0.285   c0-0.261-0.13-0.391-0.391-0.391c-0.102,0-0.193,0.035-0.272,0.107c-0.45,0.426-0.676,0.952-0.676,1.576   c0,0.561,0.211,1.072,0.634,1.533C497.9,272.679,498.111,273.076,498.111,273.407L498.111,273.407z M500.907,273.407   L500.907,273.407c0,0.459-0.185,0.826-0.557,1.102c-0.102,0.079-0.154,0.186-0.154,0.319c0,0.262,0.131,0.391,0.391,0.391   c0.087,0,0.167-0.026,0.237-0.082c0.577-0.434,0.864-1.011,0.864-1.73c0-0.528-0.211-1.022-0.634-1.48   c-0.422-0.458-0.634-0.872-0.634-1.244c0-0.396,0.147-0.73,0.438-1.008c0.079-0.078,0.118-0.173,0.118-0.285   c0-0.261-0.13-0.391-0.391-0.391c-0.103,0-0.193,0.035-0.272,0.107c-0.45,0.426-0.675,0.952-0.675,1.576   c0,0.561,0.212,1.072,0.634,1.533C500.696,272.679,500.907,273.076,500.907,273.407z"></path>
	<path class="st7" d="M717.009,59.925c0,1.148-0.928,2.075-2.079,2.075h-15.86c-1.15,0-2.078-0.927-2.078-2.075H717.009   L717.009,59.925z M712.684,55.095L712.684,55.095c0,0,0.213-0.003,0.366-0.003c1.193,0,2.16-0.965,2.16-2.159   c0-1.193-0.967-2.157-2.16-2.157h-0.366V55.095L712.684,55.095z M702.91,59.053L702.91,59.053c-0.979,0-1.771-0.795-1.771-1.775   v-7.922h11.904c1.975,0,3.582,1.604,3.582,3.577c0,1.976-1.599,3.575-3.575,3.575h-0.366c0,0.209-0.002,0.653-0.002,0.77   c0,0.979-0.795,1.775-1.775,1.775H702.91L702.91,59.053z M704.315,46.407L704.315,46.407c0,0.459-0.186,0.825-0.557,1.103   c-0.102,0.078-0.154,0.186-0.154,0.319c0,0.262,0.131,0.391,0.391,0.391c0.087,0,0.166-0.026,0.237-0.083   c0.576-0.434,0.865-1.011,0.865-1.73c0-0.528-0.212-1.023-0.634-1.48c-0.423-0.458-0.633-0.872-0.633-1.243   c0-0.396,0.146-0.73,0.438-1.008c0.079-0.078,0.118-0.173,0.118-0.284c0-0.261-0.131-0.391-0.391-0.391   c-0.102,0-0.194,0.035-0.273,0.107c-0.45,0.426-0.675,0.952-0.675,1.577c0,0.56,0.211,1.071,0.633,1.533   C704.103,45.679,704.315,46.076,704.315,46.407L704.315,46.407z M707.11,46.407L707.11,46.407c0,0.459-0.185,0.825-0.557,1.103   c-0.101,0.078-0.154,0.186-0.154,0.319c0,0.262,0.131,0.391,0.391,0.391c0.088,0,0.166-0.026,0.237-0.083   c0.577-0.434,0.864-1.011,0.864-1.73c0-0.528-0.211-1.023-0.633-1.48c-0.423-0.458-0.634-0.872-0.634-1.243   c0-0.396,0.145-0.73,0.437-1.008c0.079-0.078,0.118-0.173,0.118-0.284c0-0.261-0.13-0.391-0.391-0.391   c-0.102,0-0.193,0.035-0.272,0.107c-0.45,0.426-0.676,0.952-0.676,1.577c0,0.56,0.211,1.071,0.634,1.533   C706.899,45.679,707.11,46.076,707.11,46.407L707.11,46.407z M709.906,46.407L709.906,46.407c0,0.459-0.185,0.825-0.557,1.103   c-0.102,0.078-0.154,0.186-0.154,0.319c0,0.262,0.131,0.391,0.391,0.391c0.087,0,0.167-0.026,0.237-0.083   c0.577-0.434,0.864-1.011,0.864-1.73c0-0.528-0.211-1.023-0.634-1.48c-0.422-0.458-0.633-0.872-0.633-1.243   c0-0.396,0.147-0.73,0.438-1.008c0.079-0.078,0.119-0.173,0.119-0.284c0-0.261-0.13-0.391-0.391-0.391   c-0.103,0-0.193,0.035-0.272,0.107c-0.45,0.426-0.675,0.952-0.675,1.577c0,0.56,0.212,1.071,0.633,1.533   C709.695,45.679,709.906,46.076,709.906,46.407z"></path>
	<path class="st7" d="M717.009,286.925c0,1.148-0.928,2.075-2.079,2.075h-15.86c-1.15,0-2.078-0.927-2.078-2.075H717.009   L717.009,286.925z M712.684,282.095L712.684,282.095c0,0,0.213-0.003,0.366-0.003c1.193,0,2.16-0.965,2.16-2.159   c0-1.193-0.967-2.157-2.16-2.157h-0.366V282.095L712.684,282.095z M702.91,286.052L702.91,286.052   c-0.979,0-1.771-0.795-1.771-1.775v-7.922h11.904c1.975,0,3.582,1.604,3.582,3.577c0,1.975-1.599,3.575-3.575,3.575h-0.366   c0,0.209-0.002,0.653-0.002,0.77c0,0.98-0.795,1.775-1.775,1.775H702.91L702.91,286.052z M704.315,273.407L704.315,273.407   c0,0.459-0.186,0.826-0.557,1.102c-0.102,0.079-0.154,0.186-0.154,0.319c0,0.262,0.131,0.391,0.391,0.391   c0.087,0,0.166-0.026,0.237-0.082c0.576-0.434,0.865-1.011,0.865-1.73c0-0.528-0.212-1.022-0.634-1.48   c-0.423-0.458-0.633-0.872-0.633-1.244c0-0.396,0.146-0.73,0.438-1.008c0.079-0.078,0.118-0.173,0.118-0.285   c0-0.261-0.131-0.391-0.391-0.391c-0.102,0-0.194,0.035-0.273,0.107c-0.45,0.426-0.675,0.952-0.675,1.576   c0,0.561,0.211,1.072,0.633,1.533C704.103,272.679,704.315,273.076,704.315,273.407L704.315,273.407z M707.11,273.407   L707.11,273.407c0,0.459-0.185,0.826-0.557,1.102c-0.101,0.079-0.154,0.186-0.154,0.319c0,0.262,0.131,0.391,0.391,0.391   c0.088,0,0.166-0.026,0.237-0.082c0.577-0.434,0.864-1.011,0.864-1.73c0-0.528-0.211-1.022-0.633-1.48   c-0.423-0.458-0.634-0.872-0.634-1.244c0-0.396,0.145-0.73,0.437-1.008c0.079-0.078,0.118-0.173,0.118-0.285   c0-0.261-0.13-0.391-0.391-0.391c-0.102,0-0.193,0.035-0.272,0.107c-0.45,0.426-0.676,0.952-0.676,1.576   c0,0.561,0.211,1.072,0.634,1.533C706.899,272.679,707.11,273.076,707.11,273.407L707.11,273.407z M709.906,273.407   L709.906,273.407c0,0.459-0.185,0.826-0.557,1.102c-0.102,0.079-0.154,0.186-0.154,0.319c0,0.262,0.131,0.391,0.391,0.391   c0.087,0,0.167-0.026,0.237-0.082c0.577-0.434,0.864-1.011,0.864-1.73c0-0.528-0.211-1.022-0.634-1.48   c-0.422-0.458-0.633-0.872-0.633-1.244c0-0.396,0.147-0.73,0.438-1.008c0.079-0.078,0.119-0.173,0.119-0.285   c0-0.261-0.13-0.391-0.391-0.391c-0.103,0-0.193,0.035-0.272,0.107c-0.45,0.426-0.675,0.952-0.675,1.576   c0,0.561,0.212,1.072,0.633,1.533C709.695,272.679,709.906,273.076,709.906,273.407z"></path>
	<path class="st7" d="M926.009,59.925c0,1.148-0.928,2.075-2.079,2.075h-15.86c-1.15,0-2.078-0.927-2.078-2.075H926.009   L926.009,59.925z M921.684,55.095L921.684,55.095c0,0,0.213-0.003,0.366-0.003c1.193,0,2.16-0.965,2.16-2.159   c0-1.193-0.967-2.157-2.16-2.157h-0.366V55.095L921.684,55.095z M911.91,59.053L911.91,59.053c-0.979,0-1.771-0.795-1.771-1.775   v-7.922h11.904c1.975,0,3.582,1.604,3.582,3.577c0,1.976-1.599,3.575-3.575,3.575h-0.366c0,0.209-0.002,0.653-0.002,0.77   c0,0.979-0.795,1.775-1.775,1.775H911.91L911.91,59.053z M913.314,46.407L913.314,46.407c0,0.459-0.186,0.825-0.557,1.103   c-0.102,0.078-0.154,0.186-0.154,0.319c0,0.262,0.131,0.391,0.391,0.391c0.087,0,0.166-0.026,0.237-0.083   c0.576-0.434,0.865-1.011,0.865-1.73c0-0.528-0.212-1.023-0.634-1.48c-0.423-0.458-0.634-0.872-0.634-1.243   c0-0.396,0.146-0.73,0.438-1.008c0.079-0.078,0.118-0.173,0.118-0.284c0-0.261-0.131-0.391-0.391-0.391   c-0.102,0-0.194,0.035-0.273,0.107c-0.45,0.426-0.675,0.952-0.675,1.577c0,0.56,0.211,1.071,0.634,1.533   C913.103,45.679,913.314,46.076,913.314,46.407L913.314,46.407z M916.11,46.407L916.11,46.407c0,0.459-0.185,0.825-0.557,1.103   c-0.102,0.078-0.154,0.186-0.154,0.319c0,0.262,0.131,0.391,0.391,0.391c0.088,0,0.166-0.026,0.237-0.083   c0.577-0.434,0.864-1.011,0.864-1.73c0-0.528-0.211-1.023-0.633-1.48c-0.423-0.458-0.633-0.872-0.633-1.243   c0-0.396,0.145-0.73,0.437-1.008c0.079-0.078,0.119-0.173,0.119-0.284c0-0.261-0.13-0.391-0.391-0.391   c-0.102,0-0.193,0.035-0.272,0.107c-0.45,0.426-0.676,0.952-0.676,1.577c0,0.56,0.211,1.071,0.634,1.533   C915.899,45.679,916.11,46.076,916.11,46.407L916.11,46.407z M918.906,46.407L918.906,46.407c0,0.459-0.185,0.825-0.557,1.103   c-0.102,0.078-0.154,0.186-0.154,0.319c0,0.262,0.131,0.391,0.391,0.391c0.087,0,0.167-0.026,0.237-0.083   c0.577-0.434,0.864-1.011,0.864-1.73c0-0.528-0.211-1.023-0.634-1.48c-0.422-0.458-0.634-0.872-0.634-1.243   c0-0.396,0.147-0.73,0.438-1.008c0.079-0.078,0.118-0.173,0.118-0.284c0-0.261-0.13-0.391-0.391-0.391   c-0.103,0-0.193,0.035-0.272,0.107c-0.45,0.426-0.675,0.952-0.675,1.577c0,0.56,0.212,1.071,0.634,1.533   C918.695,45.679,918.906,46.076,918.906,46.407z"></path>
	<path class="st7" d="M926.009,286.925c0,1.148-0.928,2.075-2.079,2.075h-15.86c-1.15,0-2.078-0.927-2.078-2.075H926.009   L926.009,286.925z M921.684,282.095L921.684,282.095c0,0,0.213-0.003,0.366-0.003c1.193,0,2.16-0.965,2.16-2.159   c0-1.193-0.967-2.157-2.16-2.157h-0.366V282.095L921.684,282.095z M911.91,286.052L911.91,286.052   c-0.979,0-1.771-0.795-1.771-1.775v-7.922h11.904c1.975,0,3.582,1.604,3.582,3.577c0,1.975-1.599,3.575-3.575,3.575h-0.366   c0,0.209-0.002,0.653-0.002,0.77c0,0.98-0.795,1.775-1.775,1.775H911.91L911.91,286.052z M913.314,273.407L913.314,273.407   c0,0.459-0.186,0.826-0.557,1.102c-0.102,0.079-0.154,0.186-0.154,0.319c0,0.262,0.131,0.391,0.391,0.391   c0.087,0,0.166-0.026,0.237-0.082c0.576-0.434,0.865-1.011,0.865-1.73c0-0.528-0.212-1.022-0.634-1.48   c-0.423-0.458-0.634-0.872-0.634-1.244c0-0.396,0.146-0.73,0.438-1.008c0.079-0.078,0.118-0.173,0.118-0.285   c0-0.261-0.131-0.391-0.391-0.391c-0.102,0-0.194,0.035-0.273,0.107c-0.45,0.426-0.675,0.952-0.675,1.576   c0,0.561,0.211,1.072,0.634,1.533C913.103,272.679,913.314,273.076,913.314,273.407L913.314,273.407z M916.11,273.407   L916.11,273.407c0,0.459-0.185,0.826-0.557,1.102c-0.102,0.079-0.154,0.186-0.154,0.319c0,0.262,0.131,0.391,0.391,0.391   c0.088,0,0.166-0.026,0.237-0.082c0.577-0.434,0.864-1.011,0.864-1.73c0-0.528-0.211-1.022-0.633-1.48   c-0.423-0.458-0.633-0.872-0.633-1.244c0-0.396,0.145-0.73,0.437-1.008c0.079-0.078,0.119-0.173,0.119-0.285   c0-0.261-0.13-0.391-0.391-0.391c-0.102,0-0.193,0.035-0.272,0.107c-0.45,0.426-0.676,0.952-0.676,1.576   c0,0.561,0.211,1.072,0.634,1.533C915.899,272.679,916.11,273.076,916.11,273.407L916.11,273.407z M918.906,273.407   L918.906,273.407c0,0.459-0.185,0.826-0.557,1.102c-0.102,0.079-0.154,0.186-0.154,0.319c0,0.262,0.131,0.391,0.391,0.391   c0.087,0,0.167-0.026,0.237-0.082c0.577-0.434,0.864-1.011,0.864-1.73c0-0.528-0.211-1.022-0.634-1.48   c-0.422-0.458-0.634-0.872-0.634-1.244c0-0.396,0.147-0.73,0.438-1.008c0.079-0.078,0.118-0.173,0.118-0.285   c0-0.261-0.13-0.391-0.391-0.391c-0.103,0-0.193,0.035-0.272,0.107c-0.45,0.426-0.675,0.952-0.675,1.576   c0,0.561,0.212,1.072,0.634,1.533C918.695,272.679,918.906,273.076,918.906,273.407z"></path>
	<path class="st7" d="M1135.009,59.925c0,1.148-0.928,2.075-2.079,2.075h-15.86c-1.15,0-2.078-0.927-2.078-2.075H1135.009   L1135.009,59.925z M1130.684,55.095L1130.684,55.095c0,0,0.213-0.003,0.366-0.003c1.193,0,2.16-0.965,2.16-2.159   c0-1.193-0.967-2.157-2.16-2.157h-0.366V55.095L1130.684,55.095z M1120.91,59.053L1120.91,59.053c-0.979,0-1.771-0.795-1.771-1.775   v-7.922h11.904c1.975,0,3.582,1.604,3.582,3.577c0,1.976-1.599,3.575-3.575,3.575h-0.366c0,0.209-0.002,0.653-0.002,0.77   c0,0.979-0.795,1.775-1.775,1.775H1120.91L1120.91,59.053z M1122.314,46.407L1122.314,46.407c0,0.459-0.186,0.825-0.557,1.103   c-0.102,0.078-0.154,0.186-0.154,0.319c0,0.262,0.131,0.391,0.391,0.391c0.087,0,0.166-0.026,0.237-0.083   c0.576-0.434,0.865-1.011,0.865-1.73c0-0.528-0.212-1.023-0.634-1.48c-0.423-0.458-0.634-0.872-0.634-1.243   c0-0.396,0.146-0.73,0.438-1.008c0.079-0.078,0.119-0.173,0.119-0.284c0-0.261-0.131-0.391-0.391-0.391   c-0.102,0-0.194,0.035-0.273,0.107c-0.45,0.426-0.675,0.952-0.675,1.577c0,0.56,0.211,1.071,0.633,1.533   C1122.103,45.679,1122.314,46.076,1122.314,46.407L1122.314,46.407z M1125.11,46.407L1125.11,46.407   c0,0.459-0.185,0.825-0.557,1.103c-0.101,0.078-0.154,0.186-0.154,0.319c0,0.262,0.131,0.391,0.391,0.391   c0.088,0,0.166-0.026,0.237-0.083c0.577-0.434,0.864-1.011,0.864-1.73c0-0.528-0.211-1.023-0.633-1.48   c-0.423-0.458-0.634-0.872-0.634-1.243c0-0.396,0.146-0.73,0.437-1.008c0.079-0.078,0.119-0.173,0.119-0.284   c0-0.261-0.13-0.391-0.391-0.391c-0.102,0-0.193,0.035-0.272,0.107c-0.45,0.426-0.676,0.952-0.676,1.577   c0,0.56,0.211,1.071,0.634,1.533C1124.899,45.679,1125.11,46.076,1125.11,46.407L1125.11,46.407z M1127.906,46.407L1127.906,46.407   c0,0.459-0.185,0.825-0.557,1.103c-0.102,0.078-0.154,0.186-0.154,0.319c0,0.262,0.131,0.391,0.391,0.391   c0.087,0,0.167-0.026,0.237-0.083c0.577-0.434,0.864-1.011,0.864-1.73c0-0.528-0.211-1.023-0.634-1.48   c-0.422-0.458-0.634-0.872-0.634-1.243c0-0.396,0.147-0.73,0.438-1.008c0.079-0.078,0.119-0.173,0.119-0.284   c0-0.261-0.13-0.391-0.391-0.391c-0.103,0-0.193,0.035-0.272,0.107c-0.45,0.426-0.675,0.952-0.675,1.577   c0,0.56,0.212,1.071,0.634,1.533C1127.695,45.679,1127.906,46.076,1127.906,46.407z"></path>
	<path class="st7" d="M1135.009,286.925c0,1.148-0.928,2.075-2.079,2.075h-15.86c-1.15,0-2.078-0.927-2.078-2.075H1135.009   L1135.009,286.925z M1130.684,282.095L1130.684,282.095c0,0,0.213-0.003,0.366-0.003c1.193,0,2.16-0.965,2.16-2.159   c0-1.193-0.967-2.157-2.16-2.157h-0.366V282.095L1130.684,282.095z M1120.91,286.052L1120.91,286.052   c-0.979,0-1.771-0.795-1.771-1.775v-7.922h11.904c1.975,0,3.582,1.604,3.582,3.577c0,1.975-1.599,3.575-3.575,3.575h-0.366   c0,0.209-0.002,0.653-0.002,0.77c0,0.98-0.795,1.775-1.775,1.775H1120.91L1120.91,286.052z M1122.314,273.407L1122.314,273.407   c0,0.459-0.186,0.826-0.557,1.102c-0.102,0.079-0.154,0.186-0.154,0.319c0,0.262,0.131,0.391,0.391,0.391   c0.087,0,0.166-0.026,0.237-0.082c0.576-0.434,0.865-1.011,0.865-1.73c0-0.528-0.212-1.022-0.634-1.48   c-0.423-0.458-0.634-0.872-0.634-1.244c0-0.396,0.146-0.73,0.438-1.008c0.079-0.078,0.119-0.173,0.119-0.285   c0-0.261-0.131-0.391-0.391-0.391c-0.102,0-0.194,0.035-0.273,0.107c-0.45,0.426-0.675,0.952-0.675,1.576   c0,0.561,0.211,1.072,0.633,1.533C1122.103,272.679,1122.314,273.076,1122.314,273.407L1122.314,273.407z M1125.11,273.407   L1125.11,273.407c0,0.459-0.185,0.826-0.557,1.102c-0.101,0.079-0.154,0.186-0.154,0.319c0,0.262,0.131,0.391,0.391,0.391   c0.088,0,0.166-0.026,0.237-0.082c0.577-0.434,0.864-1.011,0.864-1.73c0-0.528-0.211-1.022-0.633-1.48   c-0.423-0.458-0.634-0.872-0.634-1.244c0-0.396,0.146-0.73,0.437-1.008c0.079-0.078,0.119-0.173,0.119-0.285   c0-0.261-0.13-0.391-0.391-0.391c-0.102,0-0.193,0.035-0.272,0.107c-0.45,0.426-0.676,0.952-0.676,1.576   c0,0.561,0.211,1.072,0.634,1.533C1124.899,272.679,1125.11,273.076,1125.11,273.407L1125.11,273.407z M1127.906,273.407   L1127.906,273.407c0,0.459-0.185,0.826-0.557,1.102c-0.102,0.079-0.154,0.186-0.154,0.319c0,0.262,0.131,0.391,0.391,0.391   c0.087,0,0.167-0.026,0.237-0.082c0.577-0.434,0.864-1.011,0.864-1.73c0-0.528-0.211-1.022-0.634-1.48   c-0.422-0.458-0.634-0.872-0.634-1.244c0-0.396,0.147-0.73,0.438-1.008c0.079-0.078,0.119-0.173,0.119-0.285   c0-0.261-0.13-0.391-0.391-0.391c-0.103,0-0.193,0.035-0.272,0.107c-0.45,0.426-0.675,0.952-0.675,1.576   c0,0.561,0.212,1.072,0.634,1.533C1127.695,272.679,1127.906,273.076,1127.906,273.407z"></path>
	<path class="st7" d="M1760.942,78.858c0,1.148-0.929,2.075-2.079,2.075h-15.86c-1.15,0-2.078-0.927-2.078-2.075H1760.942   L1760.942,78.858z M1756.617,74.028L1756.617,74.028c0,0,0.213-0.003,0.366-0.003c1.193,0,2.159-0.965,2.159-2.159   c0-1.192-0.966-2.157-2.159-2.157h-0.366V74.028L1756.617,74.028z M1746.843,77.985L1746.843,77.985   c-0.979,0-1.77-0.795-1.77-1.775v-7.922h11.904c1.975,0,3.582,1.604,3.582,3.577c0,1.976-1.599,3.575-3.575,3.575h-0.366   c0,0.209-0.002,0.653-0.002,0.77c0,0.979-0.795,1.775-1.776,1.775H1746.843L1746.843,77.985z M1748.247,65.34L1748.247,65.34   c0,0.459-0.186,0.825-0.557,1.103c-0.102,0.078-0.154,0.186-0.154,0.318c0,0.262,0.13,0.392,0.391,0.392   c0.086,0,0.166-0.027,0.237-0.082c0.576-0.434,0.865-1.011,0.865-1.73c0-0.528-0.212-1.022-0.635-1.48   c-0.423-0.458-0.633-0.872-0.633-1.244c0-0.396,0.146-0.731,0.438-1.008c0.078-0.078,0.119-0.174,0.119-0.284   c0-0.261-0.131-0.391-0.391-0.391c-0.103,0-0.194,0.035-0.273,0.107c-0.45,0.426-0.675,0.952-0.675,1.576   c0,0.561,0.211,1.072,0.634,1.533C1748.035,64.611,1748.247,65.008,1748.247,65.34L1748.247,65.34z M1751.043,65.34L1751.043,65.34   c0,0.459-0.186,0.825-0.558,1.103c-0.101,0.078-0.154,0.186-0.154,0.318c0,0.262,0.131,0.392,0.391,0.392   c0.088,0,0.165-0.027,0.237-0.082c0.578-0.434,0.864-1.011,0.864-1.73c0-0.528-0.211-1.022-0.633-1.48   c-0.423-0.458-0.634-0.872-0.634-1.244c0-0.396,0.146-0.731,0.438-1.008c0.079-0.078,0.119-0.174,0.119-0.284   c0-0.261-0.13-0.391-0.391-0.391c-0.102,0-0.193,0.035-0.272,0.107c-0.45,0.426-0.676,0.952-0.676,1.576   c0,0.561,0.211,1.072,0.633,1.533C1750.832,64.611,1751.043,65.008,1751.043,65.34L1751.043,65.34z M1753.839,65.34L1753.839,65.34   c0,0.459-0.185,0.825-0.556,1.103c-0.102,0.078-0.154,0.186-0.154,0.318c0,0.262,0.131,0.392,0.391,0.392   c0.086,0,0.166-0.027,0.237-0.082c0.578-0.434,0.865-1.011,0.865-1.73c0-0.528-0.211-1.022-0.634-1.48   c-0.422-0.458-0.634-0.872-0.634-1.244c0-0.396,0.147-0.731,0.439-1.008c0.079-0.078,0.118-0.174,0.118-0.284   c0-0.261-0.13-0.391-0.391-0.391c-0.103,0-0.194,0.035-0.273,0.107c-0.451,0.426-0.675,0.952-0.675,1.576   c0,0.561,0.212,1.072,0.634,1.533C1753.628,64.611,1753.839,65.008,1753.839,65.34z"></path>
	<path class="st7" d="M1824.844,273.841c0,1.148-0.929,2.075-2.079,2.075h-15.861c-1.15,0-2.078-0.927-2.078-2.075H1824.844   L1824.844,273.841z M1820.519,269.011L1820.519,269.011c0,0,0.213-0.003,0.366-0.003c1.193,0,2.159-0.965,2.159-2.159   c0-1.192-0.966-2.157-2.159-2.157h-0.366V269.011L1820.519,269.011z M1810.745,272.969L1810.745,272.969   c-0.979,0-1.77-0.795-1.77-1.774v-7.922h11.904c1.975,0,3.582,1.604,3.582,3.577c0,1.976-1.599,3.575-3.575,3.575h-0.366   c0,0.209-0.002,0.653-0.002,0.77c0,0.979-0.795,1.774-1.776,1.774H1810.745L1810.745,272.969z M1812.15,260.323L1812.15,260.323   c0,0.459-0.187,0.826-0.558,1.103c-0.102,0.078-0.154,0.186-0.154,0.318c0,0.262,0.13,0.392,0.391,0.392   c0.086,0,0.166-0.027,0.237-0.083c0.576-0.434,0.865-1.011,0.865-1.73c0-0.528-0.212-1.022-0.635-1.48   c-0.423-0.458-0.634-0.872-0.634-1.244c0-0.396,0.146-0.731,0.439-1.008c0.079-0.078,0.118-0.173,0.118-0.284   c0-0.261-0.131-0.391-0.391-0.391c-0.103,0-0.194,0.035-0.273,0.107c-0.45,0.426-0.675,0.952-0.675,1.576   c0,0.561,0.211,1.072,0.633,1.533C1811.938,259.595,1812.15,259.992,1812.15,260.323L1812.15,260.323z M1814.945,260.323   L1814.945,260.323c0,0.459-0.186,0.826-0.557,1.103c-0.102,0.078-0.153,0.186-0.153,0.318c0,0.262,0.131,0.392,0.391,0.392   c0.088,0,0.165-0.027,0.237-0.083c0.577-0.434,0.864-1.011,0.864-1.73c0-0.528-0.211-1.022-0.633-1.48   c-0.423-0.458-0.634-0.872-0.634-1.244c0-0.396,0.146-0.731,0.438-1.008c0.079-0.078,0.119-0.173,0.119-0.284   c0-0.261-0.13-0.391-0.391-0.391c-0.102,0-0.193,0.035-0.272,0.107c-0.45,0.426-0.675,0.952-0.675,1.576   c0,0.561,0.211,1.072,0.634,1.533C1814.734,259.595,1814.945,259.992,1814.945,260.323L1814.945,260.323z M1817.741,260.323   L1817.741,260.323c0,0.459-0.185,0.826-0.556,1.103c-0.103,0.078-0.154,0.186-0.154,0.318c0,0.262,0.131,0.392,0.391,0.392   c0.086,0,0.167-0.027,0.237-0.083c0.577-0.434,0.865-1.011,0.865-1.73c0-0.528-0.211-1.022-0.633-1.48   c-0.422-0.458-0.634-0.872-0.634-1.244c0-0.396,0.147-0.731,0.438-1.008c0.079-0.078,0.119-0.173,0.119-0.284   c0-0.261-0.13-0.391-0.391-0.391c-0.103,0-0.194,0.035-0.273,0.107c-0.45,0.426-0.675,0.952-0.675,1.576   c0,0.561,0.212,1.072,0.634,1.533C1817.53,259.595,1817.741,259.992,1817.741,260.323z"></path>
</g>
<g id="Window">
	<line class="st8" x1="1948" y1="332" x2="2070" y2="332"></line>
	<line class="st8" x1="1720" y1="332" x2="1866" y2="332"></line>
	<line class="st8" x1="1465" y1="332" x2="1611" y2="332"></line>
	<line class="st8" x1="1052" y1="332" x2="1198" y2="332"></line>
	<line class="st8" x1="1253" y1="332" x2="1399" y2="332"></line>
	<line class="st8" x1="843" y1="332" x2="989" y2="332"></line>
	<line class="st8" x1="634.001" y1="332" x2="780" y2="332"></line>
	<line class="st8" x1="425.001" y1="332" x2="571.001" y2="332"></line>
	<line class="st8" x1="216" y1="332" x2="362" y2="332"></line>
	<line class="st8" x1="1993" y1="4" x2="2115" y2="4"></line>
	<line class="st8" x1="1720" y1="4" x2="1866" y2="4"></line>
	<line class="st8" x1="1052" y1="4" x2="1198" y2="4"></line>
	<line class="st8" x1="843" y1="4" x2="989" y2="4"></line>
	<line class="st8" x1="634.001" y1="4" x2="780" y2="4"></line>
	<line class="st8" x1="425.001" y1="4" x2="571.001" y2="4"></line>
	<line class="st8" x1="216" y1="4" x2="362" y2="4"></line>
</g>
<g id="Icons">
	<path id="Exit" class="st7" d="M2393.271,157.861v19.712L2402,183v-29.692L2393.271,157.861L2393.271,157.861z M2382.885,157.656   L2382.885,157.656c1.282-0.031,2.302-1.097,2.271-2.381c-0.032-1.288-1.101-2.304-2.384-2.274c-1.283,0.031-2.301,1.097-2.27,2.385   C2380.534,156.67,2381.601,157.687,2382.885,157.656L2382.885,157.656z M2376.491,161.804L2376.491,161.804l-2.235,5.53   c-0.406,0.922-0.139,1.841,0.948,2.185l0.586,0.129l2.66-6.449h0.003c0.237-0.496,0.614-0.908,1.068-1.232l-0.495,6.886   l-0.007,0.003l-1.016,7.028l-3.026,4.293c0,0-0.374,0.587-0.004,1.303c0.254,0.49,1.285,1.222,1.285,1.222l4.686-6.262l1.107-6.596   c0.063-0.004,0.127-0.008,0.196-0.014l-0.01,0.009l3.272,11.575c0,0,0.123,0.728,0.508,1.071c0.435,0.397,1.082,0.408,1.082,0.408   l1.404-0.211l-3.576-14.272c0-1.499,0.009-4.972,0.009-6.506c0-2.055-0.54-3.172-3.09-3.39   C2381.243,158.468,2378.122,157.866,2376.491,161.804L2376.491,161.804z M2389.738,168.234L2389.738,168.234l0.146-0.296   l-3.995-2.758l-0.103,2.58l1.995,1.184C2388.617,169.328,2389.252,169.214,2389.738,168.234z"></path>
	<path id="Exit_1_" class="st7" d="M37.194,157.861v19.712l8.73,5.427v-29.692L37.194,157.861L37.194,157.861z M26.809,157.656   L26.809,157.656c1.282-0.031,2.302-1.097,2.271-2.381c-0.032-1.288-1.101-2.304-2.384-2.274c-1.283,0.031-2.301,1.097-2.27,2.385   C24.457,156.67,25.524,157.687,26.809,157.656L26.809,157.656z M20.415,161.804L20.415,161.804l-2.235,5.53   c-0.406,0.922-0.14,1.841,0.948,2.185l0.586,0.129l2.66-6.449h0.003c0.237-0.496,0.614-0.908,1.068-1.232l-0.495,6.886   l-0.007,0.003l-1.016,7.028l-3.026,4.293c0,0-0.374,0.587-0.004,1.303c0.254,0.49,1.285,1.222,1.285,1.222l4.686-6.262l1.108-6.596   c0.063-0.004,0.127-0.008,0.195-0.014l-0.01,0.009l3.272,11.575c0,0,0.123,0.728,0.508,1.071c0.435,0.397,1.082,0.408,1.082,0.408   l1.404-0.211L28.85,168.41c0-1.499,0.009-4.972,0.009-6.506c0-2.055-0.54-3.172-3.09-3.39   C25.166,158.468,22.045,157.866,20.415,161.804L20.415,161.804z M33.661,168.234L33.661,168.234l0.147-0.296l-3.995-2.758   l-0.103,2.58l1.995,1.184C32.54,169.328,33.175,169.214,33.661,168.234z"></path>
	<path id="Bar" class="st7" d="M1444.887,116.612c-0.039-0.03-0.082-0.061-0.123-0.091v-5.997c0.067-0.141,0.101-0.295,0.101-0.456   c0-0.589-0.481-1.068-1.073-1.068h-1.922c-0.592,0-1.074,0.479-1.074,1.068c0,0.153,0.033,0.301,0.094,0.438v6   c-0.036,0.028-0.075,0.055-0.111,0.081c-0.743,0.541-2.484,1.808-2.484,4.248v18.145h0.022v0.02l8.98,0v-0.02h0.02v-18.144   C1447.32,118.402,1445.677,117.193,1444.887,116.612L1444.887,116.612z M1436.054,127.796L1436.054,127.796   c-0.045-0.199-0.088-0.393-0.129-0.586l-0.175-0.839h-7.255l-0.175,0.839c-0.033,0.161-0.071,0.326-0.107,0.487l-0.025,0.107   c-0.175,0.774-0.357,1.574-0.357,2.437c0,0.543,0.098,1.074,0.289,1.577c0.187,0.488,0.455,0.934,0.797,1.327   c0.708,0.815,1.501,1.294,2.423,1.461v2.899h-1.441c-0.41,0-0.744,0.334-0.744,0.744c0,0.411,0.334,0.745,0.744,0.745h4.464   c0.411,0,0.745-0.334,0.745-0.745c0-0.41-0.334-0.744-0.745-0.744h-1.535v-2.892c0.454-0.089,0.895-0.248,1.312-0.476   c0.434-0.235,0.702-0.531,0.985-0.844l0.117-0.128c0.365-0.398,0.652-0.846,0.854-1.333c0.211-0.512,0.318-1.047,0.318-1.592   C1436.414,129.376,1436.232,128.577,1436.054,127.796z"></path>
	<path id="Cafe" class="st7" d="M1492.588,135.888c0,1.722-1.393,3.113-3.118,3.113l-23.791,0c-1.725,0-3.116-1.391-3.116-3.113   L1492.588,135.888L1492.588,135.888z M1486.101,128.642L1486.101,128.642c0,0,0.32-0.004,0.55-0.004   c1.79,0,3.239-1.448,3.239-3.239c0-1.788-1.45-3.235-3.239-3.235h-0.55V128.642L1486.101,128.642z M1471.44,134.579   L1471.44,134.579c-1.469,0-2.656-1.192-2.656-2.661v-11.883l17.856,0c2.962,0,5.373,2.406,5.373,5.366   c0,2.964-2.399,5.363-5.362,5.363h-0.55c0,0.313-0.003,0.98-0.003,1.155c0,1.469-1.192,2.661-2.663,2.661H1471.44L1471.44,134.579z    M1473.547,115.611L1473.547,115.611c0,0.688-0.28,1.238-0.836,1.654c-0.153,0.118-0.231,0.278-0.231,0.478   c0,0.393,0.196,0.587,0.586,0.587c0.13,0,0.249-0.04,0.356-0.124c0.864-0.651,1.297-1.517,1.297-2.595   c0-0.792-0.319-1.534-0.952-2.22c-0.634-0.687-0.95-1.308-0.95-1.866c0-0.594,0.219-1.096,0.657-1.512   c0.118-0.117,0.178-0.26,0.178-0.426c0-0.392-0.196-0.586-0.587-0.586c-0.153,0-0.291,0.052-0.409,0.16   c-0.675,0.639-1.012,1.429-1.012,2.364c0,0.841,0.317,1.607,0.95,2.299C1473.229,114.518,1473.547,115.114,1473.547,115.611   L1473.547,115.611z M1477.74,115.611L1477.74,115.611c0,0.688-0.278,1.238-0.836,1.654c-0.152,0.118-0.231,0.278-0.231,0.478   c0,0.393,0.197,0.587,0.587,0.587c0.131,0,0.249-0.04,0.356-0.124c0.866-0.651,1.296-1.517,1.296-2.595   c0-0.792-0.317-1.534-0.95-2.22c-0.634-0.687-0.95-1.308-0.95-1.866c0-0.594,0.218-1.096,0.656-1.512   c0.119-0.117,0.177-0.26,0.177-0.427c0-0.392-0.195-0.586-0.586-0.586c-0.153,0-0.29,0.052-0.407,0.16   c-0.675,0.639-1.014,1.429-1.014,2.364c0,0.841,0.316,1.607,0.95,2.299C1477.424,114.518,1477.74,115.114,1477.74,115.611   L1477.74,115.611z M1481.934,115.611L1481.934,115.611c0,0.688-0.278,1.238-0.835,1.654c-0.154,0.118-0.231,0.278-0.231,0.478   c0,0.393,0.197,0.587,0.586,0.587c0.13,0,0.25-0.04,0.356-0.124c0.865-0.651,1.297-1.517,1.297-2.595   c0-0.792-0.317-1.534-0.951-2.22c-0.633-0.687-0.95-1.308-0.95-1.866c0-0.594,0.22-1.096,0.657-1.512   c0.119-0.117,0.178-0.26,0.178-0.426c0-0.392-0.195-0.586-0.586-0.586c-0.155,0-0.29,0.052-0.409,0.16   c-0.675,0.639-1.013,1.429-1.013,2.364c0,0.841,0.318,1.607,0.95,2.299C1481.618,114.518,1481.934,115.114,1481.934,115.611z"></path>
	<path id="Plugs" class="st7" d="M155.001,249.5c-1.38,0-2.5,1.12-2.5,2.5v16c0,1.38,1.12,2.5,2.5,2.5h16c1.38,0,2.5-1.12,2.5-2.5   v-16c0-1.38-1.12-2.5-2.5-2.5H155.001z M153.501,252c0-0.828,0.672-1.5,1.5-1.5h16c0.828,0,1.5,0.672,1.5,1.5v16   c0,0.828-0.672,1.5-1.5,1.5h-16c-0.828,0-1.5-0.672-1.5-1.5V252z M166.521,254.888c0.841,0.578,1.528,1.355,2,2.262v5.7   c-0.472,0.906-1.159,1.683-2,2.262c-0.843,0.58-1.815,0.942-2.83,1.058v-1.34h-1.38v1.34c-1.015-0.116-1.987-0.479-2.829-1.058   c-0.842-0.579-1.53-1.355-2.001-2.262v-5.7c0.472-0.907,1.159-1.684,2.001-2.262c0.842-0.58,1.814-0.943,2.829-1.058v1.34h1.38   v-1.34C164.706,253.945,165.678,254.309,166.521,254.888z M158.783,266.31c1.248,0.834,2.716,1.279,4.217,1.279   c0.997,0,1.984-0.196,2.905-0.578c0.92-0.381,1.757-0.94,2.462-1.645c0.705-0.705,1.264-1.542,1.645-2.463   c0.382-0.92,0.578-1.907,0.578-2.904c0-1.501-0.445-2.969-1.28-4.217c-0.833-1.248-2.018-2.22-3.405-2.795   c-1.387-0.575-2.913-0.725-4.386-0.432c-1.472,0.293-2.824,1.016-3.886,2.077c-1.061,1.062-1.784,2.414-2.077,3.886   c-0.293,1.473-0.143,2.999,0.432,4.385C156.562,264.29,157.535,265.476,158.783,266.31z M159.473,261.146   c0.227,0.152,0.494,0.233,0.767,0.233c0.366,0,0.717-0.145,0.976-0.404c0.259-0.26,0.404-0.61,0.404-0.976   c0-0.273-0.08-0.54-0.232-0.767c-0.152-0.227-0.368-0.404-0.62-0.508s-0.53-0.132-0.797-0.079   c-0.268,0.054-0.514,0.185-0.707,0.378c-0.193,0.193-0.324,0.439-0.377,0.707c-0.054,0.267-0.026,0.545,0.078,0.797   c0.104,0.252,0.281,0.468,0.508,0.62L159.473,261.146z M164.993,261.146c0.227,0.152,0.494,0.233,0.767,0.233   c0.366,0,0.717-0.145,0.976-0.404c0.259-0.26,0.404-0.61,0.404-0.976c0-0.273-0.08-0.54-0.233-0.767   c-0.151-0.227-0.367-0.404-0.619-0.508s-0.53-0.132-0.797-0.079c-0.268,0.054-0.514,0.185-0.707,0.378   c-0.193,0.193-0.324,0.439-0.377,0.707c-0.054,0.267-0.026,0.545,0.078,0.797c0.105,0.252,0.281,0.468,0.508,0.62V261.146z"></path>
	<path id="RoomService" class="st7" d="M2029.401,231.455c0.06-0.48,0.105-0.96,0.105-1.455c0-0.495-0.045-0.99-0.105-1.5   l3.165-2.445c0.285-0.225,0.36-0.63,0.18-0.96l-3-5.19c-0.18-0.33-0.585-0.465-0.915-0.33l-3.735,1.5   c-0.78-0.585-1.59-1.095-2.535-1.47l-0.555-3.975c-0.06-0.36-0.375-0.63-0.75-0.63h-6c-0.375,0-0.69,0.27-0.75,0.63l-0.555,3.975   c-0.945,0.375-1.755,0.885-2.535,1.47l-3.735-1.5c-0.33-0.135-0.735,0-0.915,0.33l-3,5.19c-0.195,0.33-0.105,0.735,0.18,0.96   l3.165,2.445c-0.06,0.51-0.105,1.005-0.105,1.5c0,0.495,0.045,0.975,0.105,1.455l-3.165,2.49c-0.285,0.225-0.375,0.63-0.18,0.96   l3,5.19c0.18,0.33,0.585,0.45,0.915,0.33l3.735-1.515c0.78,0.6,1.59,1.11,2.535,1.485l0.555,3.975c0.06,0.36,0.375,0.63,0.75,0.63   h6c0.375,0,0.69-0.27,0.75-0.63l0.555-3.975c0.945-0.39,1.755-0.885,2.535-1.485l3.735,1.515c0.33,0.12,0.735,0,0.915-0.33l3-5.19   c0.18-0.33,0.105-0.735-0.18-0.96L2029.401,231.455z M2018.256,235.25c-2.899,0-5.25-2.351-5.25-5.25s2.351-5.25,5.25-5.25   c2.9,0,5.25,2.351,5.25,5.25S2021.156,235.25,2018.256,235.25z"></path>
	<path id="RoomService_1_" class="st7" d="M2326.648,56.455c0.06-0.48,0.105-0.96,0.105-1.455c0-0.495-0.045-0.99-0.105-1.5   l3.165-2.445c0.285-0.225,0.36-0.63,0.18-0.96l-3-5.19c-0.18-0.33-0.585-0.465-0.915-0.33l-3.735,1.5   c-0.78-0.585-1.59-1.095-2.535-1.47l-0.555-3.975c-0.06-0.36-0.375-0.63-0.75-0.63h-6c-0.375,0-0.69,0.27-0.75,0.63l-0.555,3.975   c-0.945,0.375-1.755,0.885-2.535,1.47l-3.735-1.5c-0.33-0.135-0.735,0-0.915,0.33l-3,5.19c-0.195,0.33-0.105,0.735,0.18,0.96   l3.165,2.445c-0.06,0.51-0.105,1.005-0.105,1.5c0,0.495,0.045,0.975,0.105,1.455l-3.165,2.49c-0.285,0.225-0.375,0.63-0.18,0.96   l3,5.19c0.18,0.33,0.585,0.45,0.915,0.33l3.735-1.515c0.78,0.6,1.59,1.11,2.535,1.485l0.555,3.975c0.06,0.36,0.375,0.63,0.75,0.63   h6c0.375,0,0.69-0.27,0.75-0.63l0.555-3.975c0.945-0.39,1.755-0.885,2.535-1.485l3.735,1.515c0.33,0.12,0.735,0,0.915-0.33l3-5.19   c0.18-0.33,0.105-0.735-0.18-0.96L2326.648,56.455z M2315.503,60.25c-2.899,0-5.25-2.351-5.25-5.25s2.351-5.25,5.25-5.25   c2.9,0,5.25,2.351,5.25,5.25S2318.403,60.25,2315.503,60.25z"></path>
	<path id="RoomService_2_" class="st7" d="M104.148,50.955c0.06-0.48,0.105-0.96,0.105-1.455c0-0.495-0.045-0.99-0.105-1.5   l3.165-2.445c0.285-0.225,0.36-0.63,0.18-0.96l-3-5.19c-0.18-0.33-0.585-0.465-0.915-0.33l-3.735,1.5   c-0.78-0.585-1.59-1.095-2.535-1.47l-0.555-3.975c-0.06-0.36-0.375-0.63-0.75-0.63h-6c-0.375,0-0.69,0.27-0.75,0.63l-0.555,3.975   c-0.945,0.375-1.755,0.885-2.535,1.47l-3.735-1.5c-0.33-0.135-0.735,0-0.915,0.33l-3,5.19c-0.195,0.33-0.105,0.735,0.18,0.96   L81.858,48c-0.06,0.51-0.105,1.005-0.105,1.5c0,0.495,0.045,0.975,0.105,1.455l-3.165,2.49c-0.285,0.225-0.375,0.63-0.18,0.96   l3,5.19c0.18,0.33,0.585,0.45,0.915,0.33l3.735-1.515c0.78,0.6,1.59,1.11,2.535,1.485l0.555,3.975c0.06,0.36,0.375,0.63,0.75,0.63   h6c0.375,0,0.69-0.27,0.75-0.63l0.555-3.975c0.945-0.39,1.755-0.885,2.535-1.485l3.735,1.515c0.33,0.12,0.735,0,0.915-0.33l3-5.19   c0.18-0.33,0.105-0.735-0.18-0.96L104.148,50.955z M93.003,54.75c-2.899,0-5.25-2.351-5.25-5.25s2.351-5.25,5.25-5.25   s5.25,2.351,5.25,5.25S95.903,54.75,93.003,54.75z"></path>
	<path id="RoomService_3_" class="st7" d="M104.148,287.955c0.06-0.48,0.105-0.96,0.105-1.455c0-0.495-0.045-0.99-0.105-1.5   l3.165-2.445c0.285-0.225,0.36-0.63,0.18-0.96l-3-5.19c-0.18-0.33-0.585-0.465-0.915-0.33l-3.735,1.5   c-0.78-0.585-1.59-1.095-2.535-1.47l-0.555-3.975c-0.06-0.36-0.375-0.63-0.75-0.63h-6c-0.375,0-0.69,0.27-0.75,0.63l-0.555,3.975   c-0.945,0.375-1.755,0.885-2.535,1.47l-3.735-1.5c-0.33-0.135-0.735,0-0.915,0.33l-3,5.19c-0.195,0.33-0.105,0.735,0.18,0.96   L81.858,285c-0.06,0.51-0.105,1.005-0.105,1.5c0,0.495,0.045,0.975,0.105,1.455l-3.165,2.49c-0.285,0.225-0.375,0.63-0.18,0.96   l3,5.19c0.18,0.33,0.585,0.45,0.915,0.33l3.735-1.515c0.78,0.6,1.59,1.11,2.535,1.485l0.555,3.975c0.06,0.36,0.375,0.63,0.75,0.63   h6c0.375,0,0.69-0.27,0.75-0.63l0.555-3.975c0.945-0.39,1.755-0.885,2.535-1.485l3.735,1.515c0.33,0.12,0.735,0,0.915-0.33l3-5.19   c0.18-0.33,0.105-0.735-0.18-0.96L104.148,287.955z M93.003,291.75c-2.899,0-5.25-2.351-5.25-5.25s2.351-5.25,5.25-5.25   s5.25,2.351,5.25,5.25S95.903,291.75,93.003,291.75z"></path>
</g>
</svg>