<svg xmlns="http://www.w3.org/2000/svg" xmlns:xlink="http://www.w3.org/1999/xlink" version="1.1" x="0px" y="0px" width="2420px" height="336px" viewBox="0 0 2420 336" style="enable-background:new 0 0 2420 336;" xml:space="preserve">
<style type="text/css">
	.st0{fill-rule:evenodd;clip-rule:evenodd;fill:#FFFFFF;}
	.st1{fill-rule:evenodd;clip-rule:evenodd;fill:#A9AEBA;}
	.st2{fill-rule:evenodd;clip-rule:evenodd;fill:#E2E4E7;stroke:#D2D7DB;stroke-miterlimit:22.9256;}
	.st3{fill:#FFFFFF;}
	.st4{font-family:'Roboto','Helvetica Neue',sans-serif;}
	.st5{font-size:20px;}
	.st6{fill-rule:evenodd;clip-rule:evenodd;fill:#E6E6E6;}
	.st7{fill-rule:evenodd;clip-rule:evenodd;fill:#868D98;}
	.st8{fill-rule:evenodd;clip-rule:evenodd;fill:none;stroke:#BBDDFF;stroke-width:6;stroke-miterlimit:22.9256;}
</style>
<g id="Fon">
	<path class="st0" d="M9.301,326.753C10.106,327.546,11.165,328,12.3,328H2407.7c1.143,0,2.21-0.459,3.017-1.265l0.017-0.016   c0.806-0.806,1.266-1.872,1.266-3.014V12.296c0-1.143-0.46-2.208-1.266-3.014l-0.017-0.016c-0.806-0.806-1.874-1.265-3.017-1.265   H12.3c-1.145,0-2.213,0.462-2.968,1.216L9.316,9.233C8.503,10.059,8,11.128,8,12.296v311.408   C8,324.866,8.497,325.928,9.301,326.753z"></path>
</g>
<g id="Railway_carriage">
	<path class="st1" d="M2416.391,3.625l-0.017-0.016c-2.228-2.225-5.298-3.608-8.673-3.608L12.3,0C8.924,0,5.853,1.384,3.626,3.608   L3.61,3.625C1.384,5.852,0,8.921,0,12.296l0,311.408c0,3.375,1.384,6.444,3.61,8.671l0.016,0.016   C5.853,334.616,8.924,336,12.299,336H2407.7c3.376,0,6.446-1.384,8.674-3.609l0.017-0.016c2.225-2.227,3.609-5.297,3.609-8.671   V12.296C2420,8.921,2418.616,5.852,2416.391,3.625z M2412,323.704c0,1.143-0.46,2.208-1.266,3.014l-0.016,0.016   c-0.806,0.806-1.874,1.265-3.017,1.265H12.299c-1.135,0-2.193-0.454-2.999-1.247C8.497,325.928,8,324.865,8,323.704V12.296   c0-1.169,0.503-2.237,1.316-3.064l0.016-0.016C10.087,8.462,11.155,8,12.3,8l2395.401,0c1.143,0,2.21,0.459,3.017,1.265   l0.016,0.016c0.806,0.806,1.266,1.872,1.266,3.014V323.704z"></path>
</g>
<g id="Compartment">
	<path class="st1" d="M328.483,199.595l-1.982,5.655c-9.598-1.77-20.895-2.82-30.501-3.132V328h-6V202.027   c-9.686,0.087-20.929,1.329-30.628,2.858l-2.139-6.103c10.629-1.752,21.218-2.669,31.768-2.759v-0.013l8-0.01v0.113l0,0   C307.534,196.443,318.028,197.601,328.483,199.595z M186.927,216.188L186.927,216.188c-12.254,5.381-24.558,11.837-36.913,19.371   H150V328h6v-88.75c10.54-6.238,22.401-12.742,32.916-17.389L186.927,216.188z M606,8.001v110H156v-110h-6v108v8h8h446h8v-8v-108   H606z M2264,8v114h-152V8H2106v112v7.999V128h164v-0.001V120V8H2264z M2264,328h6V208h-6V328z M404.518,224.463   c8.057,3.968,15.425,8.432,23.482,13.479V328v0h8l-2,0V216h172v112h6V218v-8h-8H436h-8v8v12.559   c-7.149-4.314-14.318-8.226-21.506-11.733L404.518,224.463z"></path>
</g>
<g id="Seats">
	<path id="Seat1" class="st2 seat" d="M2092.867,319.773h-0.004h-29.712c-5.583,0-10.151-3.952-10.151-8.781v-25.984   c0-4.829,4.568-8.781,10.151-8.781h29.712c0.953,2.551,1.739,5.102,2.357,7.652c2.282,9.418,2.282,18.835,0,28.253   C2094.603,314.679,2093.818,317.226,2092.867,319.773z M2066.484,321.237v0.3c0,0.805,0.67,1.464,1.488,1.464h29.899   c0.491,0,0.893-0.395,0.893-0.878v-2.349h-5.896h-0.004h-24.891C2067.154,319.773,2066.484,320.432,2066.484,321.237z    M2066.484,274.464v0.3c0,0.805,0.67,1.464,1.488,1.464h24.891h5.9v-2.349c0-0.483-0.402-0.878-0.893-0.878h-29.899   C2067.154,273,2066.484,273.659,2066.484,274.464z M2095.22,283.879c2.282,9.418,2.282,18.835,0,28.253   c-0.617,2.547-1.402,5.094-2.353,7.641h-0.004v0.011h6.88c0.691,0,1.257-0.556,1.257-1.236v-41.086c0-0.68-0.565-1.236-1.257-1.236   h-6.88C2093.816,278.778,2094.602,281.329,2095.22,283.879z"></path>
	<path id="Seat2" class="st2 seat" d="M2092.867,269.773h-0.004h-29.712c-5.583,0-10.151-3.952-10.151-8.781v-25.984   c0-4.829,4.568-8.781,10.151-8.781h29.712c0.953,2.551,1.739,5.102,2.357,7.652c2.282,9.418,2.282,18.835,0,28.253   C2094.603,264.679,2093.818,267.226,2092.867,269.773z M2066.484,271.237v0.3c0,0.805,0.67,1.464,1.488,1.464h29.899   c0.491,0,0.893-0.395,0.893-0.878v-2.349h-5.896h-0.004h-24.891C2067.154,269.773,2066.484,270.432,2066.484,271.237z    M2066.484,224.464v0.3c0,0.805,0.67,1.464,1.488,1.464h24.891h5.9v-2.349c0-0.483-0.402-0.878-0.893-0.878h-29.899   C2067.154,223,2066.484,223.659,2066.484,224.464z M2095.22,233.879c2.282,9.418,2.282,18.835,0,28.253   c-0.617,2.547-1.402,5.094-2.353,7.641h-0.004v0.011h6.88c0.691,0,1.257-0.556,1.257-1.236v-41.086c0-0.68-0.565-1.236-1.257-1.236   h-6.88C2093.816,228.778,2094.602,231.329,2095.22,233.879z"></path>
	<path id="Seat3" class="st2 seat" d="M2092.867,59.773h-0.004h-29.712c-5.583,0-10.151-3.952-10.151-8.781V25.008   c0-4.829,4.568-8.781,10.151-8.781h29.712c0.953,2.551,1.739,5.102,2.357,7.652c2.282,9.418,2.282,18.835,0,28.253   C2094.603,54.679,2093.818,57.226,2092.867,59.773z M2066.484,61.237v0.3c0,0.805,0.67,1.463,1.488,1.463h29.899   c0.491,0,0.893-0.395,0.893-0.878v-2.349h-5.896h-0.004h-24.891C2067.154,59.773,2066.484,60.432,2066.484,61.237z    M2066.484,14.463v0.3c0,0.805,0.67,1.463,1.488,1.463h24.891h5.9v-2.349c0-0.483-0.402-0.878-0.893-0.878h-29.899   C2067.154,13,2066.484,13.659,2066.484,14.463z M2095.22,23.879c2.282,9.418,2.282,18.835,0,28.253   c-0.617,2.547-1.402,5.094-2.353,7.641h-0.004v0.011h6.88c0.691,0,1.257-0.556,1.257-1.236V17.463c0-0.68-0.565-1.236-1.257-1.236   h-6.88C2093.816,18.778,2094.602,21.329,2095.22,23.879z"></path>
	<path id="Seat4" class="st2 seat seat--available compartment-2" d="M2092.867,109.773h-0.004h-29.712c-5.583,0-10.151-3.952-10.151-8.781V75.008   c0-4.829,4.568-8.781,10.151-8.781h29.712c0.953,2.551,1.739,5.102,2.357,7.652c2.282,9.418,2.282,18.835,0,28.253   C2094.603,104.679,2093.818,107.226,2092.867,109.773z M2066.484,111.237v0.3c0,0.805,0.67,1.464,1.488,1.464h29.899   c0.491,0,0.893-0.395,0.893-0.878v-2.349h-5.896h-0.004h-24.891C2067.154,109.773,2066.484,110.432,2066.484,111.237z    M2066.484,64.463v0.3c0,0.805,0.67,1.464,1.488,1.464h24.891h5.9v-2.349c0-0.483-0.402-0.878-0.893-0.878h-29.899   C2067.154,63,2066.484,63.659,2066.484,64.463z M2095.22,73.879c2.282,9.418,2.282,18.835,0,28.253   c-0.617,2.547-1.402,5.094-2.353,7.641h-0.004v0.011h6.88c0.691,0,1.257-0.556,1.257-1.236V67.463c0-0.68-0.565-1.236-1.257-1.236   h-6.88C2093.816,68.778,2094.602,71.329,2095.22,73.879z"></path>
	<path id="Seat5" class="st2 seat" d="M1986.366,319.773h-0.004h-29.712c-5.583,0-10.151-3.952-10.151-8.781v-25.984   c0-4.829,4.568-8.781,10.151-8.781h29.712c0.953,2.551,1.739,5.102,2.357,7.652c2.282,9.418,2.282,18.835,0,28.253   C1988.102,314.679,1987.318,317.226,1986.366,319.773z M1959.983,321.237v0.3c0,0.805,0.67,1.464,1.488,1.464h29.899   c0.491,0,0.893-0.395,0.893-0.878v-2.349h-5.896h-0.004h-24.891C1960.653,319.773,1959.983,320.432,1959.983,321.237z    M1959.983,274.464v0.3c0,0.805,0.67,1.464,1.488,1.464h24.891h5.9v-2.349c0-0.483-0.401-0.878-0.893-0.878h-29.899   C1960.653,273,1959.983,273.659,1959.983,274.464z M1988.719,283.879c2.282,9.418,2.282,18.835,0,28.253   c-0.617,2.547-1.401,5.094-2.353,7.641h-0.004v0.011h6.88c0.691,0,1.257-0.556,1.257-1.236v-41.086c0-0.68-0.566-1.236-1.257-1.236   h-6.88C1987.315,278.778,1988.101,281.329,1988.719,283.879z"></path>
	<path id="Seat6" class="st2 seat" d="M1986.366,269.773h-0.004h-29.712c-5.583,0-10.151-3.952-10.151-8.781v-25.984   c0-4.829,4.568-8.781,10.151-8.781h29.712c0.953,2.551,1.739,5.102,2.357,7.652c2.282,9.418,2.282,18.835,0,28.253   C1988.102,264.679,1987.318,267.226,1986.366,269.773z M1959.983,271.237v0.3c0,0.805,0.67,1.464,1.488,1.464h29.899   c0.491,0,0.893-0.395,0.893-0.878v-2.349h-5.896h-0.004h-24.891C1960.653,269.773,1959.983,270.432,1959.983,271.237z    M1959.983,224.464v0.3c0,0.805,0.67,1.464,1.488,1.464h24.891h5.9v-2.349c0-0.483-0.401-0.878-0.893-0.878h-29.899   C1960.653,223,1959.983,223.659,1959.983,224.464z M1988.719,233.879c2.282,9.418,2.282,18.835,0,28.253   c-0.617,2.547-1.401,5.094-2.353,7.641h-0.004v0.011h6.88c0.691,0,1.257-0.556,1.257-1.236v-41.086c0-0.68-0.566-1.236-1.257-1.236   h-6.88C1987.315,228.778,1988.101,231.329,1988.719,233.879z"></path>
	<path id="Seat7" class="st2 seat" d="M1986.366,59.773h-0.004h-29.712c-5.583,0-10.151-3.952-10.151-8.781V25.008   c0-4.829,4.568-8.781,10.151-8.781h29.712c0.953,2.551,1.739,5.102,2.357,7.652c2.282,9.418,2.282,18.835,0,28.253   C1988.102,54.679,1987.318,57.226,1986.366,59.773z M1959.983,61.237v0.3c0,0.805,0.67,1.463,1.488,1.463h29.899   c0.491,0,0.893-0.395,0.893-0.878v-2.349h-5.896h-0.004h-24.891C1960.653,59.773,1959.983,60.432,1959.983,61.237z    M1959.983,14.463v0.3c0,0.805,0.67,1.463,1.488,1.463h24.891h5.9v-2.349c0-0.483-0.401-0.878-0.893-0.878h-29.899   C1960.653,13,1959.983,13.659,1959.983,14.463z M1988.719,23.879c2.282,9.418,2.282,18.835,0,28.253   c-0.617,2.547-1.401,5.094-2.353,7.641h-0.004v0.011h6.88c0.691,0,1.257-0.556,1.257-1.236V17.463c0-0.68-0.566-1.236-1.257-1.236   h-6.88C1987.315,18.778,1988.101,21.329,1988.719,23.879z"></path>
	<path id="Seat8" class="st2 seat" d="M1986.366,109.773h-0.004h-29.712c-5.583,0-10.151-3.952-10.151-8.781V75.008   c0-4.829,4.568-8.781,10.151-8.781h29.712c0.953,2.551,1.739,5.102,2.357,7.652c2.282,9.418,2.282,18.835,0,28.253   C1988.102,104.679,1987.318,107.226,1986.366,109.773z M1959.983,111.237v0.3c0,0.805,0.67,1.464,1.488,1.464h29.899   c0.491,0,0.893-0.395,0.893-0.878v-2.349h-5.896h-0.004h-24.891C1960.653,109.773,1959.983,110.432,1959.983,111.237z    M1959.983,64.463v0.3c0,0.805,0.67,1.464,1.488,1.464h24.891h5.9v-2.349c0-0.483-0.401-0.878-0.893-0.878h-29.899   C1960.653,63,1959.983,63.659,1959.983,64.463z M1988.719,73.879c2.282,9.418,2.282,18.835,0,28.253   c-0.617,2.547-1.401,5.094-2.353,7.641h-0.004v0.011h6.88c0.691,0,1.257-0.556,1.257-1.236V67.463c0-0.68-0.566-1.236-1.257-1.236   h-6.88C1987.315,68.778,1988.101,71.329,1988.719,73.879z"></path>
	<path id="Seat9" class="st2 seat" d="M1879.867,319.773h-0.004h-29.712c-5.583,0-10.151-3.952-10.151-8.781v-25.984   c0-4.829,4.568-8.781,10.151-8.781h29.712c0.953,2.551,1.739,5.102,2.357,7.652c2.282,9.418,2.282,18.835,0,28.253   C1881.602,314.679,1880.818,317.226,1879.867,319.773z M1853.483,321.237v0.3c0,0.805,0.67,1.464,1.488,1.464h29.899   c0.491,0,0.893-0.395,0.893-0.878v-2.349h-5.896h-0.004h-24.891C1854.153,319.773,1853.483,320.432,1853.483,321.237z    M1853.483,274.464v0.3c0,0.805,0.67,1.464,1.488,1.464h24.891h5.9v-2.349c0-0.483-0.401-0.878-0.893-0.878h-29.899   C1854.153,273,1853.483,273.659,1853.483,274.464z M1882.219,283.879c2.282,9.418,2.282,18.835,0,28.253   c-0.617,2.547-1.402,5.094-2.353,7.641h-0.004v0.011h6.88c0.691,0,1.257-0.556,1.257-1.236v-41.086c0-0.68-0.566-1.236-1.257-1.236   h-6.88C1880.815,278.778,1881.601,281.329,1882.219,283.879z"></path>
	<path id="Seat10" class="st2 seat" d="M1879.867,269.773h-0.004h-29.712c-5.583,0-10.151-3.952-10.151-8.781v-25.984   c0-4.829,4.568-8.781,10.151-8.781h29.712c0.953,2.551,1.739,5.102,2.357,7.652c2.282,9.418,2.282,18.835,0,28.253   C1881.602,264.679,1880.818,267.226,1879.867,269.773z M1853.483,271.237v0.3c0,0.805,0.67,1.464,1.488,1.464h29.899   c0.491,0,0.893-0.395,0.893-0.878v-2.349h-5.896h-0.004h-24.891C1854.153,269.773,1853.483,270.432,1853.483,271.237z    M1853.483,224.464v0.3c0,0.805,0.67,1.464,1.488,1.464h24.891h5.9v-2.349c0-0.483-0.401-0.878-0.893-0.878h-29.899   C1854.153,223,1853.483,223.659,1853.483,224.464z M1882.219,233.879c2.282,9.418,2.282,18.835,0,28.253   c-0.617,2.547-1.402,5.094-2.353,7.641h-0.004v0.011h6.88c0.691,0,1.257-0.556,1.257-1.236v-41.086c0-0.68-0.566-1.236-1.257-1.236   h-6.88C1880.815,228.778,1881.601,231.329,1882.219,233.879z"></path>
	<path id="Seat11" class="st2 seat" d="M1879.867,59.773h-0.004h-29.712c-5.583,0-10.151-3.952-10.151-8.781V25.008   c0-4.829,4.568-8.781,10.151-8.781h29.712c0.953,2.551,1.739,5.102,2.357,7.652c2.282,9.418,2.282,18.835,0,28.253   C1881.602,54.679,1880.818,57.226,1879.867,59.773z M1853.483,61.237v0.3c0,0.805,0.67,1.463,1.488,1.463h29.899   c0.491,0,0.893-0.395,0.893-0.878v-2.349h-5.896h-0.004h-24.891C1854.153,59.773,1853.483,60.432,1853.483,61.237z    M1853.483,14.463v0.3c0,0.805,0.67,1.463,1.488,1.463h24.891h5.9v-2.349c0-0.483-0.401-0.878-0.893-0.878h-29.899   C1854.153,13,1853.483,13.659,1853.483,14.463z M1882.219,23.879c2.282,9.418,2.282,18.835,0,28.253   c-0.617,2.547-1.402,5.094-2.353,7.641h-0.004v0.011h6.88c0.691,0,1.257-0.556,1.257-1.236V17.463c0-0.68-0.566-1.236-1.257-1.236   h-6.88C1880.815,18.778,1881.601,21.329,1882.219,23.879z"></path>
	<path id="Seat12" class="st2 seat" d="M1879.867,109.773h-0.004h-29.712c-5.583,0-10.151-3.952-10.151-8.781V75.008   c0-4.829,4.568-8.781,10.151-8.781h29.712c0.953,2.551,1.739,5.102,2.357,7.652c2.282,9.418,2.282,18.835,0,28.253   C1881.602,104.679,1880.818,107.226,1879.867,109.773z M1853.483,111.237v0.3c0,0.805,0.67,1.464,1.488,1.464h29.899   c0.491,0,0.893-0.395,0.893-0.878v-2.349h-5.896h-0.004h-24.891C1854.153,109.773,1853.483,110.432,1853.483,111.237z    M1853.483,64.463v0.3c0,0.805,0.67,1.464,1.488,1.464h24.891h5.9v-2.349c0-0.483-0.401-0.878-0.893-0.878h-29.899   C1854.153,63,1853.483,63.659,1853.483,64.463z M1882.219,73.879c2.282,9.418,2.282,18.835,0,28.253   c-0.617,2.547-1.402,5.094-2.353,7.641h-0.004v0.011h6.88c0.691,0,1.257-0.556,1.257-1.236V67.463c0-0.68-0.566-1.236-1.257-1.236   h-6.88C1880.815,68.778,1881.601,71.329,1882.219,73.879z"></path>
	<path id="Seat13" class="st2 seat seat--available compartment-7" d="M1773.367,319.773h-0.004h-29.712c-5.583,0-10.151-3.952-10.151-8.781v-25.984   c0-4.829,4.568-8.781,10.151-8.781h29.712c0.953,2.551,1.739,5.102,2.357,7.652c2.282,9.418,2.282,18.835,0,28.253   C1775.102,314.679,1774.318,317.226,1773.367,319.773z M1746.984,321.237v0.3c0,0.805,0.67,1.464,1.488,1.464h29.899   c0.491,0,0.892-0.395,0.892-0.878v-2.349h-5.896h-0.004h-24.891C1747.653,319.773,1746.984,320.432,1746.984,321.237z    M1746.984,274.464v0.3c0,0.805,0.67,1.464,1.488,1.464h24.891h5.9v-2.349c0-0.483-0.401-0.878-0.892-0.878h-29.899   C1747.653,273,1746.984,273.659,1746.984,274.464z M1775.719,283.879c2.282,9.418,2.282,18.835,0,28.253   c-0.617,2.547-1.402,5.094-2.353,7.641h-0.004v0.011h6.88c0.691,0,1.257-0.556,1.257-1.236v-41.086c0-0.68-0.566-1.236-1.257-1.236   h-6.88C1774.316,278.778,1775.101,281.329,1775.719,283.879z"></path>
	<path id="Seat14" class="st2 seat seat--available compartment-7" d="M1773.367,269.773h-0.004h-29.712c-5.583,0-10.151-3.952-10.151-8.781v-25.984   c0-4.829,4.568-8.781,10.151-8.781h29.712c0.953,2.551,1.739,5.102,2.357,7.652c2.282,9.418,2.282,18.835,0,28.253   C1775.102,264.679,1774.318,267.226,1773.367,269.773z M1746.984,271.237v0.3c0,0.805,0.67,1.464,1.488,1.464h29.899   c0.491,0,0.892-0.395,0.892-0.878v-2.349h-5.896h-0.004h-24.891C1747.653,269.773,1746.984,270.432,1746.984,271.237z    M1746.984,224.464v0.3c0,0.805,0.67,1.464,1.488,1.464h24.891h5.9v-2.349c0-0.483-0.401-0.878-0.892-0.878h-29.899   C1747.653,223,1746.984,223.659,1746.984,224.464z M1775.719,233.879c2.282,9.418,2.282,18.835,0,28.253   c-0.617,2.547-1.402,5.094-2.353,7.641h-0.004v0.011h6.88c0.691,0,1.257-0.556,1.257-1.236v-41.086c0-0.68-0.566-1.236-1.257-1.236   h-6.88C1774.316,228.778,1775.101,231.329,1775.719,233.879z"></path>
	<path id="Seat15" class="st2 seat" d="M1773.367,59.773h-0.004h-29.712c-5.583,0-10.151-3.952-10.151-8.781V25.008   c0-4.829,4.568-8.781,10.151-8.781h29.712c0.953,2.551,1.739,5.102,2.357,7.652c2.282,9.418,2.282,18.835,0,28.253   C1775.102,54.679,1774.318,57.226,1773.367,59.773z M1746.984,61.237v0.3c0,0.805,0.67,1.463,1.488,1.463h29.899   c0.491,0,0.892-0.395,0.892-0.878v-2.349h-5.896h-0.004h-24.891C1747.653,59.773,1746.984,60.432,1746.984,61.237z    M1746.984,14.463v0.3c0,0.805,0.67,1.463,1.488,1.463h24.891h5.9v-2.349c0-0.483-0.401-0.878-0.892-0.878h-29.899   C1747.653,13,1746.984,13.659,1746.984,14.463z M1775.719,23.879c2.282,9.418,2.282,18.835,0,28.253   c-0.617,2.547-1.402,5.094-2.353,7.641h-0.004v0.011h6.88c0.691,0,1.257-0.556,1.257-1.236V17.463c0-0.68-0.566-1.236-1.257-1.236   h-6.88C1774.316,18.778,1775.101,21.329,1775.719,23.879z"></path>
	<path id="Seat16" class="st2 seat" d="M1773.367,109.773h-0.004h-29.712c-5.583,0-10.151-3.952-10.151-8.781V75.008   c0-4.829,4.568-8.781,10.151-8.781h29.712c0.953,2.551,1.739,5.102,2.357,7.652c2.282,9.418,2.282,18.835,0,28.253   C1775.102,104.679,1774.318,107.226,1773.367,109.773z M1746.984,111.237v0.3c0,0.805,0.67,1.464,1.488,1.464h29.899   c0.491,0,0.892-0.395,0.892-0.878v-2.349h-5.896h-0.004h-24.891C1747.653,109.773,1746.984,110.432,1746.984,111.237z    M1746.984,64.463v0.3c0,0.805,0.67,1.464,1.488,1.464h24.891h5.9v-2.349c0-0.483-0.401-0.878-0.892-0.878h-29.899   C1747.653,63,1746.984,63.659,1746.984,64.463z M1775.719,73.879c2.282,9.418,2.282,18.835,0,28.253   c-0.617,2.547-1.402,5.094-2.353,7.641h-0.004v0.011h6.88c0.691,0,1.257-0.556,1.257-1.236V67.463c0-0.68-0.566-1.236-1.257-1.236   h-6.88C1774.316,68.778,1775.101,71.329,1775.719,73.879z"></path>
	<path id="Seat17" class="st2 seat" d="M1666.867,319.773h-0.004h-29.712c-5.583,0-10.151-3.952-10.151-8.781v-25.984   c0-4.829,4.568-8.781,10.151-8.781h29.712c0.953,2.551,1.739,5.102,2.357,7.652c2.282,9.418,2.282,18.835,0,28.253   C1668.602,314.679,1667.818,317.226,1666.867,319.773z M1640.484,321.237v0.3c0,0.805,0.67,1.464,1.488,1.464h29.899   c0.491,0,0.893-0.395,0.893-0.878v-2.349h-5.896h-0.004h-24.891C1641.153,319.773,1640.484,320.432,1640.484,321.237z    M1640.484,274.464v0.3c0,0.805,0.67,1.464,1.488,1.464h24.891h5.9v-2.349c0-0.483-0.401-0.878-0.893-0.878h-29.899   C1641.153,273,1640.484,273.659,1640.484,274.464z M1669.22,283.879c2.282,9.418,2.282,18.835,0,28.253   c-0.617,2.547-1.401,5.094-2.353,7.641h-0.004v0.011h6.88c0.691,0,1.257-0.556,1.257-1.236v-41.086c0-0.68-0.566-1.236-1.257-1.236   h-6.88C1667.816,278.778,1668.602,281.329,1669.22,283.879z"></path>
	<path id="Seat18" class="st2 seat seat--available compartment-9" d="M1666.867,269.773h-0.004h-29.712c-5.583,0-10.151-3.952-10.151-8.781v-25.984   c0-4.829,4.568-8.781,10.151-8.781h29.712c0.953,2.551,1.739,5.102,2.357,7.652c2.282,9.418,2.282,18.835,0,28.253   C1668.602,264.679,1667.818,267.226,1666.867,269.773z M1640.484,271.237v0.3c0,0.805,0.67,1.464,1.488,1.464h29.899   c0.491,0,0.893-0.395,0.893-0.878v-2.349h-5.896h-0.004h-24.891C1641.153,269.773,1640.484,270.432,1640.484,271.237z    M1640.484,224.464v0.3c0,0.805,0.67,1.464,1.488,1.464h24.891h5.9v-2.349c0-0.483-0.401-0.878-0.893-0.878h-29.899   C1641.153,223,1640.484,223.659,1640.484,224.464z M1669.22,233.879c2.282,9.418,2.282,18.835,0,28.253   c-0.617,2.547-1.401,5.094-2.353,7.641h-0.004v0.011h6.88c0.691,0,1.257-0.556,1.257-1.236v-41.086c0-0.68-0.566-1.236-1.257-1.236   h-6.88C1667.816,228.778,1668.602,231.329,1669.22,233.879z"></path>
	<path id="Seat19" class="st2 seat seat--available compartment-9" d="M1493.134,276.227h0.004h29.712c5.583,0,10.151,3.952,10.151,8.781v25.984   c0,4.829-4.568,8.781-10.151,8.781h-29.712c-0.953-2.551-1.739-5.102-2.357-7.652c-2.282-9.418-2.282-18.835,0-28.253   C1491.398,281.321,1492.182,278.774,1493.134,276.227z M1519.517,274.763v-0.3c0-0.805-0.67-1.464-1.488-1.464h-29.899   c-0.491,0-0.893,0.395-0.893,0.878v2.349h5.896h0.004h24.891C1518.847,276.227,1519.517,275.568,1519.517,274.763z    M1519.517,321.536v-0.3c0-0.805-0.67-1.464-1.488-1.464h-24.891h-5.9v2.349c0,0.483,0.401,0.878,0.893,0.878h29.899   C1518.847,323,1519.517,322.341,1519.517,321.536z M1490.781,312.121c-2.282-9.418-2.282-18.835,0-28.253   c0.617-2.547,1.402-5.094,2.353-7.641h0.004v-0.011h-6.88c-0.691,0-1.257,0.556-1.257,1.236v41.086c0,0.68,0.566,1.236,1.257,1.236   h6.88C1492.185,317.222,1491.399,314.671,1490.781,312.121z"></path>
	<path id="Seat20" class="st2 seat seat--available compartment-9" d="M1493.134,226.227h0.004h29.712c5.583,0,10.151,3.952,10.151,8.781v25.984   c0,4.829-4.568,8.781-10.151,8.781h-29.712c-0.953-2.551-1.739-5.102-2.357-7.652c-2.282-9.418-2.282-18.835,0-28.253   C1491.398,231.321,1492.182,228.774,1493.134,226.227z M1519.517,224.763v-0.3c0-0.805-0.67-1.464-1.488-1.464h-29.899   c-0.491,0-0.893,0.395-0.893,0.878v2.349h5.896h0.004h24.891C1518.847,226.227,1519.517,225.568,1519.517,224.763z    M1519.517,271.536v-0.3c0-0.805-0.67-1.464-1.488-1.464h-24.891h-5.9v2.349c0,0.483,0.401,0.878,0.893,0.878h29.899   C1518.847,273,1519.517,272.341,1519.517,271.536z M1490.781,262.121c-2.282-9.418-2.282-18.835,0-28.253   c0.617-2.547,1.402-5.094,2.353-7.641h0.004v-0.011h-6.88c-0.691,0-1.257,0.556-1.257,1.236v41.086c0,0.68,0.566,1.236,1.257,1.236   h6.88C1492.185,267.222,1491.399,264.671,1490.781,262.121z"></path>
	<path id="Seat21" class="st2 seat" d="M1666.867,59.773h-0.004h-29.712c-5.583,0-10.151-3.952-10.151-8.781V25.008   c0-4.829,4.568-8.781,10.151-8.781h29.712c0.953,2.551,1.739,5.102,2.357,7.652c2.282,9.418,2.282,18.835,0,28.253   C1668.602,54.679,1667.818,57.226,1666.867,59.773z M1640.484,61.237v0.3c0,0.805,0.67,1.463,1.488,1.463h29.899   c0.491,0,0.893-0.395,0.893-0.878v-2.349h-5.896h-0.004h-24.891C1641.153,59.773,1640.484,60.432,1640.484,61.237z    M1640.484,14.463v0.3c0,0.805,0.67,1.463,1.488,1.463h24.891h5.9v-2.349c0-0.483-0.401-0.878-0.893-0.878h-29.899   C1641.153,13,1640.484,13.659,1640.484,14.463z M1669.22,23.879c2.282,9.418,2.282,18.835,0,28.253   c-0.617,2.547-1.401,5.094-2.353,7.641h-0.004v0.011h6.88c0.691,0,1.257-0.556,1.257-1.236V17.463c0-0.68-0.566-1.236-1.257-1.236   h-6.88C1667.816,18.778,1668.602,21.329,1669.22,23.879z"></path>
	<path id="Seat22" class="st2 seat" d="M1666.867,109.773h-0.004h-29.712c-5.583,0-10.151-3.952-10.151-8.781V75.008   c0-4.829,4.568-8.781,10.151-8.781h29.712c0.953,2.551,1.739,5.102,2.357,7.652c2.282,9.418,2.282,18.835,0,28.253   C1668.602,104.679,1667.818,107.226,1666.867,109.773z M1640.484,111.237v0.3c0,0.805,0.67,1.464,1.488,1.464h29.899   c0.491,0,0.893-0.395,0.893-0.878v-2.349h-5.896h-0.004h-24.891C1641.153,109.773,1640.484,110.432,1640.484,111.237z    M1640.484,64.463v0.3c0,0.805,0.67,1.464,1.488,1.464h24.891h5.9v-2.349c0-0.483-0.401-0.878-0.893-0.878h-29.899   C1641.153,63,1640.484,63.659,1640.484,64.463z M1669.22,73.879c2.282,9.418,2.282,18.835,0,28.253   c-0.617,2.547-1.401,5.094-2.353,7.641h-0.004v0.011h6.88c0.691,0,1.257-0.556,1.257-1.236V67.463c0-0.68-0.566-1.236-1.257-1.236   h-6.88C1667.816,68.778,1668.602,71.329,1669.22,73.879z"></path>
	<path id="Seat23" class="st2 seat" d="M1493.134,16.227h0.004h29.712c5.583,0,10.151,3.952,10.151,8.781v25.984   c0,4.829-4.568,8.781-10.151,8.781h-29.712c-0.953-2.551-1.739-5.102-2.357-7.652c-2.282-9.418-2.282-18.835,0-28.253   C1491.398,21.321,1492.182,18.774,1493.134,16.227z M1519.517,14.763v-0.3c0-0.805-0.67-1.463-1.488-1.463h-29.899   c-0.491,0-0.893,0.395-0.893,0.878v2.349h5.896h0.004h24.891C1518.847,16.227,1519.517,15.568,1519.517,14.763z M1519.517,61.537   v-0.3c0-0.805-0.67-1.463-1.488-1.463h-24.891h-5.9v2.349c0,0.483,0.401,0.878,0.893,0.878h29.899   C1518.847,63,1519.517,62.341,1519.517,61.537z M1490.781,52.121c-2.282-9.418-2.282-18.835,0-28.253   c0.617-2.547,1.402-5.094,2.353-7.641h0.004v-0.011h-6.88c-0.691,0-1.257,0.556-1.257,1.236v41.086c0,0.68,0.566,1.236,1.257,1.236   h6.88C1492.185,57.222,1491.399,54.671,1490.781,52.121z"></path>
	<path id="Seat24" class="st2 seat" d="M1493.134,66.227h0.004h29.712c5.583,0,10.151,3.952,10.151,8.781v25.984   c0,4.829-4.568,8.781-10.151,8.781h-29.712c-0.953-2.551-1.739-5.102-2.357-7.652c-2.282-9.418-2.282-18.835,0-28.253   C1491.398,71.321,1492.182,68.774,1493.134,66.227z M1519.517,64.763v-0.3c0-0.805-0.67-1.463-1.488-1.463h-29.899   c-0.491,0-0.893,0.395-0.893,0.878v2.349h5.896h0.004h24.891C1518.847,66.227,1519.517,65.568,1519.517,64.763z M1519.517,111.536   v-0.3c0-0.805-0.67-1.464-1.488-1.464h-24.891h-5.9v2.349c0,0.483,0.401,0.878,0.893,0.878h29.899   C1518.847,113,1519.517,112.341,1519.517,111.536z M1490.781,102.121c-2.282-9.418-2.282-18.835,0-28.253   c0.617-2.547,1.402-5.094,2.353-7.641h0.004v-0.011h-6.88c-0.691,0-1.257,0.556-1.257,1.236v41.086c0,0.68,0.566,1.236,1.257,1.236   h6.88C1492.185,107.222,1491.399,104.671,1490.781,102.121z"></path>
	<path id="Seat25" class="st2 seat seat--available compartment-11" d="M1387.633,276.227h0.004h29.712c5.583,0,10.151,3.952,10.151,8.781v25.984   c0,4.829-4.568,8.781-10.151,8.781h-29.712c-0.953-2.551-1.739-5.102-2.357-7.652c-2.282-9.418-2.282-18.835,0-28.253   C1385.898,281.321,1386.682,278.774,1387.633,276.227z M1414.017,274.763v-0.3c0-0.805-0.67-1.464-1.488-1.464h-29.899   c-0.491,0-0.893,0.395-0.893,0.878v2.349h5.896h0.004h24.891C1413.347,276.227,1414.017,275.568,1414.017,274.763z    M1414.017,321.536v-0.3c0-0.805-0.67-1.464-1.488-1.464h-24.891h-5.9v2.349c0,0.483,0.401,0.878,0.893,0.878h29.899   C1413.347,323,1414.017,322.341,1414.017,321.536z M1385.281,312.121c-2.282-9.418-2.282-18.835,0-28.253   c0.617-2.547,1.402-5.094,2.353-7.641h0.004v-0.011h-6.88c-0.691,0-1.257,0.556-1.257,1.236v41.086c0,0.68,0.566,1.236,1.257,1.236   h6.88C1386.685,317.222,1385.899,314.671,1385.281,312.121z"></path>
	<path id="Seat26" class="st2 seat seat--available compartment-11" d="M1387.633,226.227h0.004h29.712c5.583,0,10.151,3.952,10.151,8.781v25.984   c0,4.829-4.568,8.781-10.151,8.781h-29.712c-0.953-2.551-1.739-5.102-2.357-7.652c-2.282-9.418-2.282-18.835,0-28.253   C1385.898,231.321,1386.682,228.774,1387.633,226.227z M1414.017,224.763v-0.3c0-0.805-0.67-1.464-1.488-1.464h-29.899   c-0.491,0-0.893,0.395-0.893,0.878v2.349h5.896h0.004h24.891C1413.347,226.227,1414.017,225.568,1414.017,224.763z    M1414.017,271.536v-0.3c0-0.805-0.67-1.464-1.488-1.464h-24.891h-5.9v2.349c0,0.483,0.401,0.878,0.893,0.878h29.899   C1413.347,273,1414.017,272.341,1414.017,271.536z M1385.281,262.121c-2.282-9.418-2.282-18.835,0-28.253   c0.617-2.547,1.402-5.094,2.353-7.641h0.004v-0.011h-6.88c-0.691,0-1.257,0.556-1.257,1.236v41.086c0,0.68,0.566,1.236,1.257,1.236   h6.88C1386.685,267.222,1385.899,264.671,1385.281,262.121z"></path>
	<path id="Seat27" class="st2 seat seat--available compartment-12" d="M1387.633,16.227h0.004h29.712c5.583,0,10.151,3.952,10.151,8.781v25.984   c0,4.829-4.568,8.781-10.151,8.781h-29.712c-0.953-2.551-1.739-5.102-2.357-7.652c-2.282-9.418-2.282-18.835,0-28.253   C1385.898,21.321,1386.682,18.774,1387.633,16.227z M1414.017,14.763v-0.3c0-0.805-0.67-1.463-1.488-1.463h-29.899   c-0.491,0-0.893,0.395-0.893,0.878v2.349h5.896h0.004h24.891C1413.347,16.227,1414.017,15.568,1414.017,14.763z M1414.017,61.537   v-0.3c0-0.805-0.67-1.463-1.488-1.463h-24.891h-5.9v2.349c0,0.483,0.401,0.878,0.893,0.878h29.899   C1413.347,63,1414.017,62.341,1414.017,61.537z M1385.281,52.121c-2.282-9.418-2.282-18.835,0-28.253   c0.617-2.547,1.402-5.094,2.353-7.641h0.004v-0.011h-6.88c-0.691,0-1.257,0.556-1.257,1.236v41.086c0,0.68,0.566,1.236,1.257,1.236   h6.88C1386.685,57.222,1385.899,54.671,1385.281,52.121z"></path>
	<path id="Seat28" class="st2 seat seat--available compartment-12" d="M1387.633,66.227h0.004h29.712c5.583,0,10.151,3.952,10.151,8.781v25.984   c0,4.829-4.568,8.781-10.151,8.781h-29.712c-0.953-2.551-1.739-5.102-2.357-7.652c-2.282-9.418-2.282-18.835,0-28.253   C1385.898,71.321,1386.682,68.774,1387.633,66.227z M1414.017,64.763v-0.3c0-0.805-0.67-1.463-1.488-1.463h-29.899   c-0.491,0-0.893,0.395-0.893,0.878v2.349h5.896h0.004h24.891C1413.347,66.227,1414.017,65.568,1414.017,64.763z M1414.017,111.536   v-0.3c0-0.805-0.67-1.464-1.488-1.464h-24.891h-5.9v2.349c0,0.483,0.401,0.878,0.893,0.878h29.899   C1413.347,113,1414.017,112.341,1414.017,111.536z M1385.281,102.121c-2.282-9.418-2.282-18.835,0-28.253   c0.617-2.547,1.402-5.094,2.353-7.641h0.004v-0.011h-6.88c-0.691,0-1.257,0.556-1.257,1.236v41.086c0,0.68,0.566,1.236,1.257,1.236   h6.88C1386.685,107.222,1385.899,104.671,1385.281,102.121z"></path>
	<path id="Seat29" class="st2 seat seat--available compartment-13" d="M1282.133,276.227h0.004h29.712c5.583,0,10.151,3.952,10.151,8.781v25.984   c0,4.829-4.568,8.781-10.151,8.781h-29.712c-0.953-2.551-1.739-5.102-2.357-7.652c-2.282-9.418-2.282-18.835,0-28.253   C1280.398,281.321,1281.182,278.774,1282.133,276.227z M1308.516,274.763v-0.3c0-0.805-0.67-1.464-1.488-1.464h-29.899   c-0.491,0-0.893,0.395-0.893,0.878v2.349h5.896h0.004h24.891C1307.847,276.227,1308.516,275.568,1308.516,274.763z    M1308.516,321.536v-0.3c0-0.805-0.67-1.464-1.488-1.464h-24.891h-5.9v2.349c0,0.483,0.402,0.878,0.893,0.878h29.899   C1307.847,323,1308.516,322.341,1308.516,321.536z M1279.781,312.121c-2.282-9.418-2.282-18.835,0-28.253   c0.617-2.547,1.402-5.094,2.353-7.641h0.004v-0.011h-6.88c-0.691,0-1.257,0.556-1.257,1.236v41.086c0,0.68,0.566,1.236,1.257,1.236   h6.88C1281.184,317.222,1280.399,314.671,1279.781,312.121z"></path>
	<path id="Seat30" class="st2 seat seat--available compartment-13" d="M1282.133,226.227h0.004h29.712c5.583,0,10.151,3.952,10.151,8.781v25.984   c0,4.829-4.568,8.781-10.151,8.781h-29.712c-0.953-2.551-1.739-5.102-2.357-7.652c-2.282-9.418-2.282-18.835,0-28.253   C1280.398,231.321,1281.182,228.774,1282.133,226.227z M1308.516,224.763v-0.3c0-0.805-0.67-1.464-1.488-1.464h-29.899   c-0.491,0-0.893,0.395-0.893,0.878v2.349h5.896h0.004h24.891C1307.847,226.227,1308.516,225.568,1308.516,224.763z    M1308.516,271.536v-0.3c0-0.805-0.67-1.464-1.488-1.464h-24.891h-5.9v2.349c0,0.483,0.402,0.878,0.893,0.878h29.899   C1307.847,273,1308.516,272.341,1308.516,271.536z M1279.781,262.121c-2.282-9.418-2.282-18.835,0-28.253   c0.617-2.547,1.402-5.094,2.353-7.641h0.004v-0.011h-6.88c-0.691,0-1.257,0.556-1.257,1.236v41.086c0,0.68,0.566,1.236,1.257,1.236   h6.88C1281.184,267.222,1280.399,264.671,1279.781,262.121z"></path>
	<path id="Seat31" class="st2 seat seat--available compartment-14" d="M1282.133,16.227h0.004h29.712c5.583,0,10.151,3.952,10.151,8.781v25.984   c0,4.829-4.568,8.781-10.151,8.781h-29.712c-0.953-2.551-1.739-5.102-2.357-7.652c-2.282-9.418-2.282-18.835,0-28.253   C1280.398,21.321,1281.182,18.774,1282.133,16.227z M1308.516,14.763v-0.3c0-0.805-0.67-1.463-1.488-1.463h-29.899   c-0.491,0-0.893,0.395-0.893,0.878v2.349h5.896h0.004h24.891C1307.847,16.227,1308.516,15.568,1308.516,14.763z M1308.516,61.537   v-0.3c0-0.805-0.67-1.463-1.488-1.463h-24.891h-5.9v2.349c0,0.483,0.402,0.878,0.893,0.878h29.899   C1307.847,63,1308.516,62.341,1308.516,61.537z M1279.781,52.121c-2.282-9.418-2.282-18.835,0-28.253   c0.617-2.547,1.402-5.094,2.353-7.641h0.004v-0.011h-6.88c-0.691,0-1.257,0.556-1.257,1.236v41.086c0,0.68,0.566,1.236,1.257,1.236   h6.88C1281.184,57.222,1280.399,54.671,1279.781,52.121z"></path>
	<path id="Seat32" class="st2 seat seat--available compartment-14" d="M1282.133,66.227h0.004h29.712c5.583,0,10.151,3.952,10.151,8.781v25.984   c0,4.829-4.568,8.781-10.151,8.781h-29.712c-0.953-2.551-1.739-5.102-2.357-7.652c-2.282-9.418-2.282-18.835,0-28.253   C1280.398,71.321,1281.182,68.774,1282.133,66.227z M1308.516,64.763v-0.3c0-0.805-0.67-1.463-1.488-1.463h-29.899   c-0.491,0-0.893,0.395-0.893,0.878v2.349h5.896h0.004h24.891C1307.847,66.227,1308.516,65.568,1308.516,64.763z M1308.516,111.536   v-0.3c0-0.805-0.67-1.464-1.488-1.464h-24.891h-5.9v2.349c0,0.483,0.402,0.878,0.893,0.878h29.899   C1307.847,113,1308.516,112.341,1308.516,111.536z M1279.781,102.121c-2.282-9.418-2.282-18.835,0-28.253   c0.617-2.547,1.402-5.094,2.353-7.641h0.004v-0.011h-6.88c-0.691,0-1.257,0.556-1.257,1.236v41.086c0,0.68,0.566,1.236,1.257,1.236   h6.88C1281.184,107.222,1280.399,104.671,1279.781,102.121z"></path>
	<path id="Seat33" class="st2 seat seat--available compartment-15" d="M1176.633,276.227h0.004h29.712c5.583,0,10.151,3.952,10.151,8.781v25.984   c0,4.829-4.568,8.781-10.151,8.781h-29.712c-0.953-2.551-1.739-5.102-2.357-7.652c-2.282-9.418-2.282-18.835,0-28.253   C1174.898,281.321,1175.682,278.774,1176.633,276.227z M1203.016,274.763v-0.3c0-0.805-0.67-1.464-1.488-1.464h-29.899   c-0.491,0-0.893,0.395-0.893,0.878v2.349h5.896h0.004h24.891C1202.347,276.227,1203.016,275.568,1203.016,274.763z    M1203.016,321.536v-0.3c0-0.805-0.67-1.464-1.488-1.464h-24.891h-5.9v2.349c0,0.483,0.401,0.878,0.893,0.878h29.899   C1202.347,323,1203.016,322.341,1203.016,321.536z M1174.281,312.121c-2.282-9.418-2.282-18.835,0-28.253   c0.617-2.547,1.401-5.094,2.353-7.641h0.004v-0.011h-6.88c-0.691,0-1.257,0.556-1.257,1.236v41.086c0,0.68,0.565,1.236,1.257,1.236   h6.88C1175.684,317.222,1174.899,314.671,1174.281,312.121z"></path>
	<path id="Seat34" class="st2 seat seat--available compartment-15" d="M1176.633,226.227h0.004h29.712c5.583,0,10.151,3.952,10.151,8.781v25.984   c0,4.829-4.568,8.781-10.151,8.781h-29.712c-0.953-2.551-1.739-5.102-2.357-7.652c-2.282-9.418-2.282-18.835,0-28.253   C1174.898,231.321,1175.682,228.774,1176.633,226.227z M1203.016,224.763v-0.3c0-0.805-0.67-1.464-1.488-1.464h-29.899   c-0.491,0-0.893,0.395-0.893,0.878v2.349h5.896h0.004h24.891C1202.347,226.227,1203.016,225.568,1203.016,224.763z    M1203.016,271.536v-0.3c0-0.805-0.67-1.464-1.488-1.464h-24.891h-5.9v2.349c0,0.483,0.401,0.878,0.893,0.878h29.899   C1202.347,273,1203.016,272.341,1203.016,271.536z M1174.281,262.121c-2.282-9.418-2.282-18.835,0-28.253   c0.617-2.547,1.401-5.094,2.353-7.641h0.004v-0.011h-6.88c-0.691,0-1.257,0.556-1.257,1.236v41.086c0,0.68,0.565,1.236,1.257,1.236   h6.88C1175.684,267.222,1174.899,264.671,1174.281,262.121z"></path>
	<path id="Seat35" class="st2 seat seat--available compartment-16" d="M1176.633,16.227h0.004h29.712c5.583,0,10.151,3.952,10.151,8.781v25.984   c0,4.829-4.568,8.781-10.151,8.781h-29.712c-0.953-2.551-1.739-5.102-2.357-7.652c-2.282-9.418-2.282-18.835,0-28.253   C1174.898,21.321,1175.682,18.774,1176.633,16.227z M1203.016,14.763v-0.3c0-0.805-0.67-1.463-1.488-1.463h-29.899   c-0.491,0-0.893,0.395-0.893,0.878v2.349h5.896h0.004h24.891C1202.347,16.227,1203.016,15.568,1203.016,14.763z M1203.016,61.537   v-0.3c0-0.805-0.67-1.463-1.488-1.463h-24.891h-5.9v2.349c0,0.483,0.401,0.878,0.893,0.878h29.899   C1202.347,63,1203.016,62.341,1203.016,61.537z M1174.281,52.121c-2.282-9.418-2.282-18.835,0-28.253   c0.617-2.547,1.401-5.094,2.353-7.641h0.004v-0.011h-6.88c-0.691,0-1.257,0.556-1.257,1.236v41.086c0,0.68,0.565,1.236,1.257,1.236   h6.88C1175.684,57.222,1174.899,54.671,1174.281,52.121z"></path>
	<path id="Seat36" class="st2 seat seat--available compartment-16" d="M1176.633,66.227h0.004h29.712c5.583,0,10.151,3.952,10.151,8.781v25.984   c0,4.829-4.568,8.781-10.151,8.781h-29.712c-0.953-2.551-1.739-5.102-2.357-7.652c-2.282-9.418-2.282-18.835,0-28.253   C1174.898,71.321,1175.682,68.774,1176.633,66.227z M1203.016,64.763v-0.3c0-0.805-0.67-1.463-1.488-1.463h-29.899   c-0.491,0-0.893,0.395-0.893,0.878v2.349h5.896h0.004h24.891C1202.347,66.227,1203.016,65.568,1203.016,64.763z M1203.016,111.536   v-0.3c0-0.805-0.67-1.464-1.488-1.464h-24.891h-5.9v2.349c0,0.483,0.401,0.878,0.893,0.878h29.899   C1202.347,113,1203.016,112.341,1203.016,111.536z M1174.281,102.121c-2.282-9.418-2.282-18.835,0-28.253   c0.617-2.547,1.401-5.094,2.353-7.641h0.004v-0.011h-6.88c-0.691,0-1.257,0.556-1.257,1.236v41.086c0,0.68,0.565,1.236,1.257,1.236   h6.88C1175.684,107.222,1174.899,104.671,1174.281,102.121z"></path>
	<path id="Seat37" class="st2 seat seat--available compartment-17" d="M1071.133,276.227h0.004h29.712c5.583,0,10.151,3.952,10.151,8.781v25.984   c0,4.829-4.568,8.781-10.151,8.781h-29.712c-0.953-2.551-1.739-5.102-2.357-7.652c-2.282-9.418-2.282-18.835,0-28.253   C1069.397,281.321,1070.182,278.774,1071.133,276.227z M1097.516,274.763v-0.3c0-0.805-0.67-1.464-1.488-1.464h-29.899   c-0.491,0-0.892,0.395-0.892,0.878v2.349h5.896h0.004h24.891C1096.846,276.227,1097.516,275.568,1097.516,274.763z    M1097.516,321.536v-0.3c0-0.805-0.67-1.464-1.488-1.464h-24.891h-5.9v2.349c0,0.483,0.401,0.878,0.892,0.878h29.899   C1096.846,323,1097.516,322.341,1097.516,321.536z M1068.78,312.121c-2.282-9.418-2.282-18.835,0-28.253   c0.617-2.547,1.401-5.094,2.353-7.641h0.004v-0.011h-6.88c-0.691,0-1.257,0.556-1.257,1.236v41.086c0,0.68,0.566,1.236,1.257,1.236   h6.88C1070.184,317.222,1069.398,314.671,1068.78,312.121z"></path>
	<path id="Seat38" class="st2 seat seat--available compartment-17" d="M1071.133,226.227h0.004h29.712c5.583,0,10.151,3.952,10.151,8.781v25.984   c0,4.829-4.568,8.781-10.151,8.781h-29.712c-0.953-2.551-1.739-5.102-2.357-7.652c-2.282-9.418-2.282-18.835,0-28.253   C1069.397,231.321,1070.182,228.774,1071.133,226.227z M1097.516,224.763v-0.3c0-0.805-0.67-1.464-1.488-1.464h-29.899   c-0.491,0-0.892,0.395-0.892,0.878v2.349h5.896h0.004h24.891C1096.846,226.227,1097.516,225.568,1097.516,224.763z    M1097.516,271.536v-0.3c0-0.805-0.67-1.464-1.488-1.464h-24.891h-5.9v2.349c0,0.483,0.401,0.878,0.892,0.878h29.899   C1096.846,273,1097.516,272.341,1097.516,271.536z M1068.78,262.121c-2.282-9.418-2.282-18.835,0-28.253   c0.617-2.547,1.401-5.094,2.353-7.641h0.004v-0.011h-6.88c-0.691,0-1.257,0.556-1.257,1.236v41.086c0,0.68,0.566,1.236,1.257,1.236   h6.88C1070.184,267.222,1069.398,264.671,1068.78,262.121z"></path>
	<path id="Seat39" class="st2 seat seat--available compartment-18" d="M1071.133,16.227h0.004h29.712c5.583,0,10.151,3.952,10.151,8.781v25.984   c0,4.829-4.568,8.781-10.151,8.781h-29.712c-0.953-2.551-1.739-5.102-2.357-7.652c-2.282-9.418-2.282-18.835,0-28.253   C1069.397,21.321,1070.182,18.774,1071.133,16.227z M1097.516,14.763v-0.3c0-0.805-0.67-1.463-1.488-1.463h-29.899   c-0.491,0-0.892,0.395-0.892,0.878v2.349h5.896h0.004h24.891C1096.846,16.227,1097.516,15.568,1097.516,14.763z M1097.516,61.537   v-0.3c0-0.805-0.67-1.463-1.488-1.463h-24.891h-5.9v2.349c0,0.483,0.401,0.878,0.892,0.878h29.899   C1096.846,63,1097.516,62.341,1097.516,61.537z M1068.78,52.121c-2.282-9.418-2.282-18.835,0-28.253   c0.617-2.547,1.401-5.094,2.353-7.641h0.004v-0.011h-6.88c-0.691,0-1.257,0.556-1.257,1.236v41.086c0,0.68,0.566,1.236,1.257,1.236   h6.88C1070.184,57.222,1069.398,54.671,1068.78,52.121z"></path>
	<path id="Seat40" class="st2 seat seat--available compartment-18" d="M1071.133,66.227h0.004h29.712c5.583,0,10.151,3.952,10.151,8.781v25.984   c0,4.829-4.568,8.781-10.151,8.781h-29.712c-0.953-2.551-1.739-5.102-2.357-7.652c-2.282-9.418-2.282-18.835,0-28.253   C1069.397,71.321,1070.182,68.774,1071.133,66.227z M1097.516,64.763v-0.3c0-0.805-0.67-1.463-1.488-1.463h-29.899   c-0.491,0-0.892,0.395-0.892,0.878v2.349h5.896h0.004h24.891C1096.846,66.227,1097.516,65.568,1097.516,64.763z M1097.516,111.536   v-0.3c0-0.805-0.67-1.464-1.488-1.464h-24.891h-5.9v2.349c0,0.483,0.401,0.878,0.892,0.878h29.899   C1096.846,113,1097.516,112.341,1097.516,111.536z M1068.78,102.121c-2.282-9.418-2.282-18.835,0-28.253   c0.617-2.547,1.401-5.094,2.353-7.641h0.004v-0.011h-6.88c-0.691,0-1.257,0.556-1.257,1.236v41.086c0,0.68,0.566,1.236,1.257,1.236   h6.88C1070.184,107.222,1069.398,104.671,1068.78,102.121z"></path>
	<path id="Seat41" class="st2 seat seat--available compartment-19" d="M979.633,16.227h0.004h29.712c5.583,0,10.151,3.952,10.151,8.781v25.984   c0,4.829-4.568,8.781-10.151,8.781h-29.712c-0.953-2.551-1.739-5.102-2.357-7.652c-2.282-9.418-2.282-18.835,0-28.253   C977.898,21.321,978.682,18.774,979.633,16.227z M1006.016,14.763v-0.3c0-0.805-0.67-1.463-1.488-1.463h-29.899   c-0.491,0-0.893,0.395-0.893,0.878v2.349h5.896h0.004h24.891C1005.346,16.227,1006.016,15.568,1006.016,14.763z M1006.016,61.537   v-0.3c0-0.805-0.67-1.463-1.488-1.463h-24.891h-5.9v2.349c0,0.483,0.402,0.878,0.893,0.878h29.899   C1005.346,63,1006.016,62.341,1006.016,61.537z M977.28,52.121c-2.282-9.418-2.282-18.835,0-28.253   c0.617-2.547,1.401-5.094,2.353-7.641h0.004v-0.011h-6.88c-0.691,0-1.257,0.556-1.257,1.236v41.086c0,0.68,0.565,1.236,1.257,1.236   h6.88C978.684,57.222,977.898,54.671,977.28,52.121z"></path>
	<path id="Seat42" class="st2 seat seat--available compartment-19" d="M979.633,66.227h0.004h29.712c5.583,0,10.151,3.952,10.151,8.781v25.984   c0,4.829-4.568,8.781-10.151,8.781h-29.712c-0.953-2.551-1.739-5.102-2.357-7.652c-2.282-9.418-2.282-18.835,0-28.253   C977.898,71.321,978.682,68.774,979.633,66.227z M1006.016,64.763v-0.3c0-0.805-0.67-1.463-1.488-1.463h-29.899   c-0.491,0-0.893,0.395-0.893,0.878v2.349h5.896h0.004h24.891C1005.346,66.227,1006.016,65.568,1006.016,64.763z M1006.016,111.536   v-0.3c0-0.805-0.67-1.464-1.488-1.464h-24.891h-5.9v2.349c0,0.483,0.402,0.878,0.893,0.878h29.899   C1005.346,113,1006.016,112.341,1006.016,111.536z M977.28,102.121c-2.282-9.418-2.282-18.835,0-28.253   c0.617-2.547,1.401-5.094,2.353-7.641h0.004v-0.011h-6.88c-0.691,0-1.257,0.556-1.257,1.236v41.086c0,0.68,0.565,1.236,1.257,1.236   h6.88C978.684,107.222,977.898,104.671,977.28,102.121z"></path>
	<path id="Seat43" class="st2 seat" d="M888.133,16.227h0.004h29.712c5.583,0,10.151,3.952,10.151,8.781v25.984   c0,4.829-4.568,8.781-10.151,8.781h-29.712c-0.953-2.551-1.739-5.102-2.357-7.652c-2.282-9.418-2.282-18.835,0-28.253   C886.397,21.321,887.181,18.774,888.133,16.227z M914.516,14.763v-0.3c0-0.805-0.67-1.463-1.488-1.463h-29.899   c-0.491,0-0.893,0.395-0.893,0.878v2.349h5.896h0.004h24.891C913.846,16.227,914.516,15.568,914.516,14.763z M914.516,61.537v-0.3   c0-0.805-0.67-1.463-1.488-1.463h-24.891h-5.9v2.349c0,0.483,0.402,0.878,0.893,0.878h29.899   C913.846,63,914.516,62.341,914.516,61.537z M885.78,52.121c-2.282-9.418-2.282-18.835,0-28.253   c0.617-2.547,1.401-5.094,2.353-7.641h0.004v-0.011h-6.88c-0.691,0-1.257,0.556-1.257,1.236v41.086c0,0.68,0.565,1.236,1.257,1.236   h6.88C887.184,57.222,886.398,54.671,885.78,52.121z"></path>
	<path id="Seat44" class="st2 seat seat--available compartment-20" d="M888.133,66.227h0.004h29.712c5.583,0,10.151,3.952,10.151,8.781v25.984   c0,4.829-4.568,8.781-10.151,8.781h-29.712c-0.953-2.551-1.739-5.102-2.357-7.652c-2.282-9.418-2.282-18.835,0-28.253   C886.397,71.321,887.181,68.774,888.133,66.227z M914.516,64.763v-0.3c0-0.805-0.67-1.463-1.488-1.463h-29.899   c-0.491,0-0.893,0.395-0.893,0.878v2.349h5.896h0.004h24.891C913.846,66.227,914.516,65.568,914.516,64.763z M914.516,111.536v-0.3   c0-0.805-0.67-1.464-1.488-1.464h-24.891h-5.9v2.349c0,0.483,0.402,0.878,0.893,0.878h29.899   C913.846,113,914.516,112.341,914.516,111.536z M885.78,102.121c-2.282-9.418-2.282-18.835,0-28.253   c0.617-2.547,1.401-5.094,2.353-7.641h0.004v-0.011h-6.88c-0.691,0-1.257,0.556-1.257,1.236v41.086c0,0.68,0.565,1.236,1.257,1.236   h6.88C887.184,107.222,886.398,104.671,885.78,102.121z"></path>
	<path id="Seat45" class="st2 seat seat--available compartment-21" d="M866.867,319.773h-0.004h-29.712c-5.583,0-10.151-3.952-10.151-8.781v-25.984   c0-4.829,4.568-8.781,10.151-8.781h29.712c0.953,2.551,1.739,5.102,2.357,7.652c2.282,9.418,2.282,18.835,0,28.253   C868.603,314.679,867.819,317.226,866.867,319.773z M840.484,321.237v0.3c0,0.805,0.67,1.464,1.488,1.464h29.899   c0.491,0,0.893-0.395,0.893-0.878v-2.349h-5.896h-0.004h-24.891C841.154,319.773,840.484,320.432,840.484,321.237z    M840.484,274.464v0.3c0,0.805,0.67,1.464,1.488,1.464h24.891h5.9v-2.349c0-0.483-0.401-0.878-0.893-0.878h-29.899   C841.154,273,840.484,273.659,840.484,274.464z M869.22,283.879c2.282,9.418,2.282,18.835,0,28.253   c-0.617,2.547-1.402,5.094-2.353,7.641h-0.004v0.011h6.88c0.691,0,1.257-0.556,1.257-1.236v-41.086c0-0.68-0.565-1.236-1.257-1.236   h-6.88C867.816,278.778,868.602,281.329,869.22,283.879z"></path>
	<path id="Seat46" class="st2 seat seat--available compartment-21" d="M866.867,269.773h-0.004h-29.712c-5.583,0-10.151-3.952-10.151-8.781v-25.984   c0-4.829,4.568-8.781,10.151-8.781h29.712c0.953,2.551,1.739,5.102,2.357,7.652c2.282,9.418,2.282,18.835,0,28.253   C868.603,264.679,867.819,267.226,866.867,269.773z M840.484,271.237v0.3c0,0.805,0.67,1.464,1.488,1.464h29.899   c0.491,0,0.893-0.395,0.893-0.878v-2.349h-5.896h-0.004h-24.891C841.154,269.773,840.484,270.432,840.484,271.237z    M840.484,224.464v0.3c0,0.805,0.67,1.464,1.488,1.464h24.891h5.9v-2.349c0-0.483-0.401-0.878-0.893-0.878h-29.899   C841.154,223,840.484,223.659,840.484,224.464z M869.22,233.879c2.282,9.418,2.282,18.835,0,28.253   c-0.617,2.547-1.402,5.094-2.353,7.641h-0.004v0.011h6.88c0.691,0,1.257-0.556,1.257-1.236v-41.086c0-0.68-0.565-1.236-1.257-1.236   h-6.88C867.816,228.778,868.602,231.329,869.22,233.879z"></path>
	<path id="Seat47" class="st2 seat seat--available compartment-21" d="M625.133,276.227h0.004h29.712c5.583,0,10.151,3.952,10.151,8.781v25.984   c0,4.829-4.568,8.781-10.151,8.781h-29.712c-0.953-2.551-1.739-5.102-2.357-7.652c-2.282-9.418-2.282-18.835,0-28.253   C623.397,281.321,624.182,278.774,625.133,276.227z M651.516,274.763v-0.3c0-0.805-0.67-1.464-1.488-1.464h-29.899   c-0.491,0-0.893,0.395-0.893,0.878v2.349h5.896h0.004h24.891C650.846,276.227,651.516,275.568,651.516,274.763z M651.516,321.536   v-0.3c0-0.805-0.67-1.464-1.488-1.464h-24.891h-5.9v2.349c0,0.483,0.401,0.878,0.893,0.878h29.899   C650.846,323,651.516,322.341,651.516,321.536z M622.78,312.121c-2.282-9.418-2.282-18.835,0-28.253   c0.617-2.547,1.402-5.094,2.353-7.641h0.004v-0.011h-6.88c-0.691,0-1.257,0.556-1.257,1.236v41.086c0,0.68,0.565,1.236,1.257,1.236   h6.88C624.184,317.222,623.398,314.671,622.78,312.121z"></path>
	<path id="Seat48" class="st2 seat seat--available compartment-21" d="M625.133,226.227h0.004h29.712c5.583,0,10.151,3.952,10.151,8.781v25.984   c0,4.829-4.568,8.781-10.151,8.781h-29.712c-0.953-2.551-1.739-5.102-2.357-7.652c-2.282-9.418-2.282-18.835,0-28.253   C623.397,231.321,624.182,228.774,625.133,226.227z M651.516,224.763v-0.3c0-0.805-0.67-1.464-1.488-1.464h-29.899   c-0.491,0-0.893,0.395-0.893,0.878v2.349h5.896h0.004h24.891C650.846,226.227,651.516,225.568,651.516,224.763z M651.516,271.536   v-0.3c0-0.805-0.67-1.464-1.488-1.464h-24.891h-5.9v2.349c0,0.483,0.401,0.878,0.893,0.878h29.899   C650.846,273,651.516,272.341,651.516,271.536z M622.78,262.121c-2.282-9.418-2.282-18.835,0-28.253   c0.617-2.547,1.402-5.094,2.353-7.641h0.004v-0.011h-6.88c-0.691,0-1.257,0.556-1.257,1.236v41.086c0,0.68,0.565,1.236,1.257,1.236   h6.88C624.184,267.222,623.398,264.671,622.78,262.121z"></path>
	<path id="Seat49" class="st2 seat seat--available compartment-22" d="M866.867,59.773h-0.004h-29.712c-5.583,0-10.151-3.952-10.151-8.781V25.008   c0-4.829,4.568-8.781,10.151-8.781h29.712c0.953,2.551,1.739,5.102,2.357,7.652c2.282,9.418,2.282,18.835,0,28.253   C868.603,54.679,867.819,57.226,866.867,59.773z M840.484,61.237v0.3c0,0.805,0.67,1.463,1.488,1.463h29.899   c0.491,0,0.893-0.395,0.893-0.878v-2.349h-5.896h-0.004h-24.891C841.154,59.773,840.484,60.432,840.484,61.237z M840.484,14.463   v0.3c0,0.805,0.67,1.463,1.488,1.463h24.891h5.9v-2.349c0-0.483-0.401-0.878-0.893-0.878h-29.899   C841.154,13,840.484,13.659,840.484,14.463z M869.22,23.879c2.282,9.418,2.282,18.835,0,28.253   c-0.617,2.547-1.402,5.094-2.353,7.641h-0.004v0.011h6.88c0.691,0,1.257-0.556,1.257-1.236V17.463c0-0.68-0.565-1.236-1.257-1.236   h-6.88C867.816,18.778,868.602,21.329,869.22,23.879z"></path>
	<path id="Seat50" class="st2 seat seat--available compartment-22" d="M866.867,109.773h-0.004h-29.712c-5.583,0-10.151-3.952-10.151-8.781V75.008   c0-4.829,4.568-8.781,10.151-8.781h29.712c0.953,2.551,1.739,5.102,2.357,7.652c2.282,9.418,2.282,18.835,0,28.253   C868.603,104.679,867.819,107.226,866.867,109.773z M840.484,111.237v0.3c0,0.805,0.67,1.464,1.488,1.464h29.899   c0.491,0,0.893-0.395,0.893-0.878v-2.349h-5.896h-0.004h-24.891C841.154,109.773,840.484,110.432,840.484,111.237z M840.484,64.463   v0.3c0,0.805,0.67,1.464,1.488,1.464h24.891h5.9v-2.349c0-0.483-0.401-0.878-0.893-0.878h-29.899   C841.154,63,840.484,63.659,840.484,64.463z M869.22,73.879c2.282,9.418,2.282,18.835,0,28.253   c-0.617,2.547-1.402,5.094-2.353,7.641h-0.004v0.011h6.88c0.691,0,1.257-0.556,1.257-1.236V67.463c0-0.68-0.565-1.236-1.257-1.236   h-6.88C867.816,68.778,868.602,71.329,869.22,73.879z"></path>
	<path id="Seat51" class="st2 seat seat--available compartment-22" d="M625.133,16.227h0.004h29.712c5.583,0,10.151,3.952,10.151,8.781v25.984   c0,4.829-4.568,8.781-10.151,8.781h-29.712c-0.953-2.551-1.739-5.102-2.357-7.652c-2.282-9.418-2.282-18.835,0-28.253   C623.397,21.321,624.182,18.774,625.133,16.227z M651.516,14.763v-0.3c0-0.805-0.67-1.463-1.488-1.463h-29.899   c-0.491,0-0.893,0.395-0.893,0.878v2.349h5.896h0.004h24.891C650.846,16.227,651.516,15.568,651.516,14.763z M651.516,61.537v-0.3   c0-0.805-0.67-1.463-1.488-1.463h-24.891h-5.9v2.349c0,0.483,0.401,0.878,0.893,0.878h29.899   C650.846,63,651.516,62.341,651.516,61.537z M622.78,52.121c-2.282-9.418-2.282-18.835,0-28.253   c0.617-2.547,1.401-5.094,2.353-7.641h0.004v-0.011h-6.88c-0.691,0-1.257,0.556-1.257,1.236v41.086c0,0.68,0.565,1.236,1.257,1.236   h6.88C624.184,57.222,623.398,54.671,622.78,52.121z"></path>
	<path id="Seat52" class="st2 seat seat--available compartment-22" d="M625.133,66.227h0.004h29.712c5.583,0,10.151,3.952,10.151,8.781v25.984   c0,4.829-4.568,8.781-10.151,8.781h-29.712c-0.953-2.551-1.739-5.102-2.357-7.652c-2.282-9.418-2.282-18.835,0-28.253   C623.397,71.321,624.182,68.774,625.133,66.227z M651.516,64.763v-0.3c0-0.805-0.67-1.463-1.488-1.463h-29.899   c-0.491,0-0.893,0.395-0.893,0.878v2.349h5.896h0.004h24.891C650.846,66.227,651.516,65.568,651.516,64.763z M651.516,111.536v-0.3   c0-0.805-0.67-1.464-1.488-1.464h-24.891h-5.9v2.349c0,0.483,0.401,0.878,0.893,0.878h29.899   C650.846,113,651.516,112.341,651.516,111.536z M622.78,102.121c-2.282-9.418-2.282-18.835,0-28.253   c0.617-2.547,1.401-5.094,2.353-7.641h0.004v-0.011h-6.88c-0.691,0-1.257,0.556-1.257,1.236v41.086c0,0.68,0.565,1.236,1.257,1.236   h6.88C624.184,107.222,623.398,104.671,622.78,102.121z"></path>
</g>
<g id="Numbers" pointer-events="none">
	<text transform="matrix(1.0003 0 0 1 2071.3838 303.8447)" class="st3 st4 st5">1</text>
	<text transform="matrix(1.0003 0 0 1 2071.3848 253.8447)" class="st3 st4 st5">2</text>
	<text transform="matrix(1.0003 0 0 1 2071.3838 43.8457)" class="st3 st4 st5">3</text>
	<text transform="matrix(1.0003 0 0 1 2071.3838 93.8433)" class="st3 st4 st5">4</text>
	<text transform="matrix(1.0003 0 0 1 1964.8809 303.8457)" class="st3 st4 st5">5</text>
	<text transform="matrix(1.0003 0 0 1 1964.8809 253.8457)" class="st3 st4 st5">6</text>
	<text transform="matrix(1.0003 0 0 1 1964.8809 43.8457)" class="st3 st4 st5">7</text>
	<text transform="matrix(1.0003 0 0 1 1964.8809 93.8433)" class="st3 st4 st5">8</text>
	<text transform="matrix(1.0003 0 0 1 1858.3818 303.8447)" class="st3 st4 st5">9</text>
	<text transform="matrix(1.0003 0 0 1 1852.7656 253.8457)" class="st3 st4 st5">10</text>
	<text transform="matrix(1.0003 0 0 1 1852.7656 43.8457)" class="st3 st4 st5">11</text>
	<text transform="matrix(1.0003 0 0 1 1852.7656 93.8447)" class="st3 st4 st5">12</text>
	<text transform="matrix(1.0003 0 0 1 1746.2656 303.8447)" class="st3 st4 st5">13</text>
	<text transform="matrix(1.0003 0 0 1 1746.2666 253.8457)" class="st3 st4 st5">14</text>
	<text transform="matrix(1.0003 0 0 1 1746.2666 43.8462)" class="st3 st4 st5">15</text>
	<text transform="matrix(1.0003 0 0 1 1746.2656 93.8433)" class="st3 st4 st5">16</text>
	<text transform="matrix(1.0003 0 0 1 1639.7666 303.8447)" class="st3 st4 st5">17</text>
	<text transform="matrix(1.0003 0 0 1 1639.7666 253.8457)" class="st3 st4 st5">18</text>
	<text transform="matrix(1.0003 0 0 1 1497.7676 303.8447)" class="st3 st4 st5">19</text>
	<text transform="matrix(1.0003 0 0 1 1497.7666 253.8457)" class="st3 st4 st5">20</text>
	<text transform="matrix(1.0003 0 0 1 1639.7666 43.8433)" class="st3 st4 st5">21</text>
	<text transform="matrix(1.0003 0 0 1 1639.7666 93.8447)" class="st3 st4 st5">22</text>
	<text transform="matrix(1.0003 0 0 1 1497.7676 43.8457)" class="st3 st4 st5">23</text>
	<text transform="matrix(1.0003 0 0 1 1497.7666 93.8447)" class="st3 st4 st5">24</text>
	<text transform="matrix(1.0003 0 0 1 1392.2676 303.8447)" class="st3 st4 st5">25</text>
	<text transform="matrix(1.0003 0 0 1 1392.2676 253.8457)" class="st3 st4 st5">26</text>
	<text transform="matrix(1.0003 0 0 1 1392.2666 43.8457)" class="st3 st4 st5">27</text>
	<text transform="matrix(1.0003 0 0 1 1392.2666 93.8433)" class="st3 st4 st5">28</text>
	<text transform="matrix(1.0003 0 0 1 1286.7676 303.8447)" class="st3 st4 st5">29</text>
	<text transform="matrix(1.0003 0 0 1 1286.7676 253.8457)" class="st3 st4 st5">30</text>
	<text transform="matrix(1.0003 0 0 1 1286.7666 43.8457)" class="st3 st4 st5">31</text>
	<text transform="matrix(1.0003 0 0 1 1286.7666 93.8433)" class="st3 st4 st5">32</text>
	<text transform="matrix(1.0003 0 0 1 1181.2676 303.8447)" class="st3 st4 st5">33</text>
	<text transform="matrix(1.0003 0 0 1 1181.2666 253.8438)" class="st3 st4 st5">34</text>
	<text transform="matrix(1.0003 0 0 1 1181.2676 43.8457)" class="st3 st4 st5">35</text>
	<text transform="matrix(1.0003 0 0 1 1181.2676 93.8433)" class="st3 st4 st5">36</text>
	<text transform="matrix(1.0003 0 0 1 1075.7661 303.8447)" class="st3 st4 st5">37</text>
	<text transform="matrix(1.0003 0 0 1 1075.7656 253.8438)" class="st3 st4 st5">38</text>
	<text transform="matrix(1.0003 0 0 1 1075.7661 43.8457)" class="st3 st4 st5">39</text>
	<text transform="matrix(1.0003 0 0 1 1075.7661 93.8433)" class="st3 st4 st5">40</text>
	<text transform="matrix(1.0003 0 0 1 984.2661 43.8462)" class="st3 st4 st5">41</text>
	<text transform="matrix(1.0003 0 0 1 984.2666 93.8433)" class="st3 st4 st5">42</text>
	<text transform="matrix(1.0003 0 0 1 892.7656 43.8457)" class="st3 st4 st5">43</text>
	<text transform="matrix(1.0003 0 0 1 892.7661 93.8433)" class="st3 st4 st5">44</text>
	<text transform="matrix(1.0003 0 0 1 839.7666 303.8447)" class="st3 st4 st5">45</text>
	<text transform="matrix(1.0003 0 0 1 839.7661 253.8438)" class="st3 st4 st5">46</text>
	<text transform="matrix(1.0003 0 0 1 629.7662 303.8447)" class="st3 st4 st5">47</text>
	<text transform="matrix(1.0003 0 0 1 629.7657 253.8438)" class="st3 st4 st5">48</text>
	<text transform="matrix(1.0003 0 0 1 839.7666 43.8462)" class="st3 st4 st5">49</text>
	<text transform="matrix(1.0003 0 0 1 839.7666 93.8433)" class="st3 st4 st5">50</text>
	<text transform="matrix(1.0003 0 0 1 629.7657 43.8457)" class="st3 st4 st5">51</text>
	<text transform="matrix(1.0003 0 0 1 629.7657 93.8433)" class="st3 st4 st5">52</text>
</g>
<g id="Tables">
	<path class="st6" d="M722,13h48v72c0,8.8-7.2,16-16,16h-16c-8.8,0-16-7.2-16-16V13z"></path>
	<path class="st6" d="M722,323h48v-72c0-8.8-7.2-16-16-16h-16c-8.8,0-16,7.2-16,16V323z"></path>
	<path class="st6" d="M1556,323h48v-72c0-8.8-7.2-16-16-16h-16c-8.8,0-16,7.2-16,16V323z"></path>
	<path class="st6" d="M1556,13h48v72c0,8.8-7.2,16-16,16h-16c-8.8,0-16-7.2-16-16V13z"></path>
	<rect x="880" y="235" class="st6" width="178" height="88"></rect>
	<rect x="2106" y="213" class="st6" width="153" height="110"></rect>
</g>
<g id="Cup_for_table">
	<path class="st7" d="M756.009,64.925c0,1.148-0.929,2.075-2.079,2.075h-15.86c-1.15,0-2.078-0.927-2.078-2.075H756.009   L756.009,64.925z M751.684,60.095L751.684,60.095c0,0,0.213-0.003,0.367-0.003c1.193,0,2.16-0.965,2.16-2.159   c0-1.193-0.967-2.157-2.16-2.157h-0.367V60.095L751.684,60.095z M741.91,64.052L741.91,64.052c-0.98,0-1.771-0.795-1.771-1.774   v-7.922h11.904c1.975,0,3.582,1.604,3.582,3.578c0,1.975-1.599,3.575-3.575,3.575h-0.367c0,0.209-0.002,0.653-0.002,0.77   c0,0.98-0.795,1.774-1.775,1.774H741.91L741.91,64.052z M743.314,51.407L743.314,51.407c0,0.459-0.187,0.826-0.557,1.102   c-0.102,0.079-0.154,0.186-0.154,0.319c0,0.262,0.13,0.391,0.391,0.391c0.086,0,0.166-0.026,0.237-0.083   c0.576-0.434,0.865-1.011,0.865-1.73c0-0.528-0.212-1.022-0.634-1.48c-0.423-0.459-0.634-0.872-0.634-1.244   c0-0.396,0.146-0.73,0.438-1.008c0.079-0.078,0.119-0.173,0.119-0.285c0-0.261-0.131-0.391-0.391-0.391   c-0.103,0-0.194,0.035-0.273,0.107c-0.45,0.426-0.675,0.952-0.675,1.576c0,0.561,0.211,1.071,0.634,1.533   C743.102,50.679,743.314,51.076,743.314,51.407L743.314,51.407z M746.11,51.407L746.11,51.407c0,0.459-0.186,0.826-0.558,1.102   c-0.102,0.079-0.154,0.186-0.154,0.319c0,0.262,0.131,0.391,0.391,0.391c0.088,0,0.165-0.026,0.237-0.083   c0.577-0.434,0.864-1.011,0.864-1.73c0-0.528-0.211-1.022-0.633-1.48c-0.422-0.459-0.634-0.872-0.634-1.244   c0-0.396,0.145-0.73,0.438-1.008c0.079-0.078,0.118-0.173,0.118-0.285c0-0.261-0.13-0.391-0.391-0.391   c-0.102,0-0.193,0.035-0.272,0.107c-0.45,0.426-0.676,0.952-0.676,1.576c0,0.561,0.211,1.071,0.634,1.533   C745.899,50.679,746.11,51.076,746.11,51.407L746.11,51.407z M748.906,51.407L748.906,51.407c0,0.459-0.185,0.826-0.556,1.102   c-0.103,0.079-0.154,0.186-0.154,0.319c0,0.262,0.131,0.391,0.391,0.391c0.087,0,0.166-0.026,0.237-0.083   c0.577-0.434,0.864-1.011,0.864-1.73c0-0.528-0.211-1.022-0.633-1.48c-0.422-0.459-0.634-0.872-0.634-1.244   c0-0.396,0.147-0.73,0.439-1.008c0.079-0.078,0.118-0.173,0.118-0.285c0-0.261-0.13-0.391-0.391-0.391   c-0.103,0-0.194,0.035-0.273,0.107c-0.45,0.426-0.675,0.952-0.675,1.576c0,0.561,0.212,1.071,0.634,1.533   C748.695,50.679,748.906,51.076,748.906,51.407z"></path>
	<path class="st7" d="M756.009,286.925c0,1.148-0.929,2.075-2.079,2.075h-15.86c-1.15,0-2.078-0.927-2.078-2.075H756.009   L756.009,286.925z M751.684,282.095L751.684,282.095c0,0,0.213-0.003,0.367-0.003c1.193,0,2.16-0.965,2.16-2.159   c0-1.192-0.967-2.157-2.16-2.157h-0.367V282.095L751.684,282.095z M741.91,286.052L741.91,286.052c-0.98,0-1.771-0.795-1.771-1.775   v-7.922h11.904c1.975,0,3.582,1.604,3.582,3.577c0,1.976-1.599,3.575-3.575,3.575h-0.367c0,0.209-0.002,0.653-0.002,0.77   c0,0.979-0.795,1.775-1.775,1.775H741.91L741.91,286.052z M743.314,273.407L743.314,273.407c0,0.459-0.187,0.826-0.557,1.103   c-0.102,0.078-0.154,0.186-0.154,0.319c0,0.262,0.13,0.391,0.391,0.391c0.086,0,0.166-0.026,0.237-0.083   c0.576-0.434,0.865-1.011,0.865-1.73c0-0.528-0.212-1.022-0.634-1.48c-0.423-0.458-0.634-0.872-0.634-1.244   c0-0.396,0.146-0.73,0.438-1.008c0.079-0.078,0.119-0.173,0.119-0.284c0-0.261-0.131-0.391-0.391-0.391   c-0.103,0-0.194,0.035-0.273,0.107c-0.45,0.426-0.675,0.952-0.675,1.577c0,0.56,0.211,1.072,0.634,1.533   C743.102,272.678,743.314,273.075,743.314,273.407L743.314,273.407z M746.11,273.407L746.11,273.407   c0,0.459-0.186,0.826-0.558,1.103c-0.102,0.078-0.154,0.186-0.154,0.319c0,0.262,0.131,0.391,0.391,0.391   c0.088,0,0.165-0.026,0.237-0.083c0.577-0.434,0.864-1.011,0.864-1.73c0-0.528-0.211-1.022-0.633-1.48   c-0.422-0.458-0.634-0.872-0.634-1.244c0-0.396,0.145-0.73,0.438-1.008c0.079-0.078,0.118-0.173,0.118-0.284   c0-0.261-0.13-0.391-0.391-0.391c-0.102,0-0.193,0.035-0.272,0.107c-0.45,0.426-0.676,0.952-0.676,1.577   c0,0.56,0.211,1.072,0.634,1.533C745.899,272.678,746.11,273.075,746.11,273.407L746.11,273.407z M748.906,273.407L748.906,273.407   c0,0.459-0.185,0.826-0.557,1.103c-0.103,0.078-0.154,0.186-0.154,0.319c0,0.262,0.131,0.391,0.391,0.391   c0.087,0,0.166-0.026,0.237-0.083c0.577-0.434,0.864-1.011,0.864-1.73c0-0.528-0.211-1.022-0.633-1.48   c-0.422-0.458-0.634-0.872-0.634-1.244c0-0.396,0.147-0.73,0.439-1.008c0.079-0.078,0.118-0.173,0.118-0.284   c0-0.261-0.13-0.391-0.391-0.391c-0.103,0-0.194,0.035-0.273,0.107c-0.45,0.426-0.675,0.952-0.675,1.577   c0,0.56,0.212,1.072,0.634,1.533C748.695,272.678,748.906,273.075,748.906,273.407z"></path>
	<path class="st7" d="M1590.009,286.924c0,1.148-0.928,2.075-2.079,2.075h-15.86c-1.15,0-2.078-0.927-2.078-2.075H1590.009   L1590.009,286.924z M1585.684,282.094L1585.684,282.094c0,0,0.213-0.003,0.366-0.003c1.193,0,2.16-0.965,2.16-2.159   c0-1.193-0.967-2.157-2.16-2.157h-0.366V282.094L1585.684,282.094z M1575.91,286.052L1575.91,286.052   c-0.979,0-1.771-0.795-1.771-1.774v-7.922h11.904c1.975,0,3.582,1.604,3.582,3.577c0,1.975-1.599,3.575-3.575,3.575h-0.366   c0,0.209-0.002,0.653-0.002,0.77c0,0.979-0.795,1.774-1.775,1.774H1575.91L1575.91,286.052z M1577.314,273.407L1577.314,273.407   c0,0.459-0.186,0.826-0.557,1.103c-0.102,0.078-0.154,0.186-0.154,0.319c0,0.262,0.131,0.391,0.391,0.391   c0.087,0,0.166-0.026,0.237-0.083c0.576-0.434,0.865-1.011,0.865-1.73c0-0.528-0.212-1.022-0.634-1.48   c-0.423-0.458-0.634-0.872-0.634-1.244c0-0.396,0.146-0.73,0.438-1.008c0.079-0.078,0.118-0.173,0.118-0.284   c0-0.261-0.131-0.391-0.391-0.391c-0.102,0-0.194,0.035-0.273,0.107c-0.45,0.426-0.675,0.952-0.675,1.577   c0,0.56,0.211,1.072,0.634,1.533C1577.102,272.678,1577.314,273.075,1577.314,273.407L1577.314,273.407z M1580.11,273.407   L1580.11,273.407c0,0.459-0.185,0.826-0.557,1.103c-0.102,0.078-0.154,0.186-0.154,0.319c0,0.262,0.131,0.391,0.391,0.391   c0.088,0,0.166-0.026,0.237-0.083c0.577-0.434,0.864-1.011,0.864-1.73c0-0.528-0.211-1.022-0.633-1.48   c-0.423-0.458-0.634-0.872-0.634-1.244c0-0.396,0.145-0.73,0.437-1.008c0.079-0.078,0.119-0.173,0.119-0.284   c0-0.261-0.13-0.391-0.391-0.391c-0.102,0-0.193,0.035-0.272,0.107c-0.45,0.426-0.676,0.952-0.676,1.577   c0,0.56,0.211,1.072,0.634,1.533C1579.899,272.678,1580.11,273.075,1580.11,273.407L1580.11,273.407z M1582.906,273.407   L1582.906,273.407c0,0.459-0.185,0.826-0.557,1.103c-0.102,0.078-0.154,0.186-0.154,0.319c0,0.262,0.131,0.391,0.391,0.391   c0.087,0,0.167-0.026,0.237-0.083c0.577-0.434,0.864-1.011,0.864-1.73c0-0.528-0.211-1.022-0.634-1.48   c-0.422-0.458-0.634-0.872-0.634-1.244c0-0.396,0.147-0.73,0.438-1.008c0.079-0.078,0.119-0.173,0.119-0.284   c0-0.261-0.13-0.391-0.391-0.391c-0.103,0-0.193,0.035-0.272,0.107c-0.45,0.426-0.675,0.952-0.675,1.577   c0,0.56,0.212,1.072,0.634,1.533C1582.695,272.678,1582.906,273.075,1582.906,273.407z"></path>
	<path class="st7" d="M1590.009,64.925c0,1.148-0.928,2.075-2.079,2.075h-15.86c-1.15,0-2.078-0.927-2.078-2.075H1590.009   L1590.009,64.925z M1585.684,60.095L1585.684,60.095c0,0,0.213-0.003,0.366-0.003c1.193,0,2.16-0.965,2.16-2.159   c0-1.193-0.967-2.157-2.16-2.157h-0.366V60.095L1585.684,60.095z M1575.91,64.052L1575.91,64.052c-0.979,0-1.771-0.795-1.771-1.774   v-7.922h11.904c1.975,0,3.582,1.604,3.582,3.578c0,1.975-1.599,3.575-3.575,3.575h-0.366c0,0.209-0.002,0.653-0.002,0.77   c0,0.98-0.795,1.774-1.775,1.774H1575.91L1575.91,64.052z M1577.314,51.407L1577.314,51.407c0,0.459-0.186,0.826-0.557,1.102   c-0.102,0.079-0.154,0.186-0.154,0.319c0,0.262,0.131,0.391,0.391,0.391c0.087,0,0.166-0.026,0.237-0.083   c0.576-0.434,0.865-1.011,0.865-1.73c0-0.528-0.212-1.022-0.634-1.48c-0.423-0.459-0.634-0.872-0.634-1.244   c0-0.396,0.146-0.73,0.438-1.008c0.079-0.078,0.118-0.173,0.118-0.285c0-0.261-0.131-0.391-0.391-0.391   c-0.102,0-0.194,0.035-0.273,0.107c-0.45,0.426-0.675,0.952-0.675,1.576c0,0.561,0.211,1.071,0.634,1.533   C1577.102,50.679,1577.314,51.076,1577.314,51.407L1577.314,51.407z M1580.11,51.407L1580.11,51.407   c0,0.459-0.185,0.826-0.557,1.102c-0.102,0.079-0.154,0.186-0.154,0.319c0,0.262,0.131,0.391,0.391,0.391   c0.088,0,0.166-0.026,0.237-0.083c0.577-0.434,0.864-1.011,0.864-1.73c0-0.528-0.211-1.022-0.633-1.48   c-0.423-0.459-0.634-0.872-0.634-1.244c0-0.396,0.145-0.73,0.437-1.008c0.079-0.078,0.119-0.173,0.119-0.285   c0-0.261-0.13-0.391-0.391-0.391c-0.102,0-0.193,0.035-0.272,0.107c-0.45,0.426-0.676,0.952-0.676,1.576   c0,0.561,0.211,1.071,0.634,1.533C1579.899,50.679,1580.11,51.076,1580.11,51.407L1580.11,51.407z M1582.906,51.407   L1582.906,51.407c0,0.459-0.185,0.826-0.557,1.102c-0.102,0.079-0.154,0.186-0.154,0.319c0,0.262,0.131,0.391,0.391,0.391   c0.087,0,0.167-0.026,0.237-0.083c0.577-0.434,0.864-1.011,0.864-1.73c0-0.528-0.211-1.022-0.634-1.48   c-0.422-0.459-0.634-0.872-0.634-1.244c0-0.396,0.147-0.73,0.438-1.008c0.079-0.078,0.119-0.173,0.119-0.285   c0-0.261-0.13-0.391-0.391-0.391c-0.103,0-0.193,0.035-0.272,0.107c-0.45,0.426-0.675,0.952-0.675,1.576   c0,0.561,0.212,1.071,0.634,1.533C1582.695,50.679,1582.906,51.076,1582.906,51.407z"></path>
</g>
<g id="Window">
	<line class="st8" x1="2387.999" y1="4" x2="2293.999" y2="4"></line>
	<line class="st8" x1="126" y1="4" x2="32" y2="4"></line>
	<line class="st8" x1="826" y1="4" x2="680" y2="4"></line>
	<line class="st8" x1="1030" y1="4" x2="884" y2="4"></line>
	<line class="st8" x1="1223.999" y1="4" x2="1078" y2="4"></line>
	<line class="st8" x1="1659.999" y1="4" x2="1514" y2="4"></line>
	<line class="st8" x1="1439" y1="4" x2="1293" y2="4"></line>
	<line class="st8" x1="1873" y1="4" x2="1727" y2="4"></line>
	<line class="st8" x1="2088" y1="4" x2="1942" y2="4"></line>
	<line class="st8" x1="2387.999" y1="332" x2="2293.999" y2="332"></line>
	<line class="st8" x1="126" y1="332" x2="32" y2="332"></line>
	<line class="st8" x1="826" y1="332" x2="680" y2="332"></line>
	<line class="st8" x1="1223.999" y1="332" x2="1078" y2="332"></line>
	<line class="st8" x1="1659.999" y1="332" x2="1514" y2="332"></line>
	<line class="st8" x1="1439" y1="332" x2="1293" y2="332"></line>
	<line class="st8" x1="1873" y1="332" x2="1727" y2="332"></line>
	<line class="st8" x1="2088" y1="332" x2="1942" y2="332"></line>
</g>
<g id="Icons">
	<path id="Exit" class="st7" d="M2393.271,157.861v19.712L2402,183v-29.692L2393.271,157.861L2393.271,157.861z M2382.885,157.656   L2382.885,157.656c1.282-0.031,2.302-1.097,2.271-2.381c-0.032-1.288-1.101-2.304-2.384-2.274c-1.283,0.031-2.301,1.097-2.27,2.385   C2380.534,156.67,2381.601,157.687,2382.885,157.656L2382.885,157.656z M2376.491,161.804L2376.491,161.804l-2.235,5.53   c-0.406,0.922-0.139,1.841,0.948,2.185l0.586,0.129l2.66-6.449h0.003c0.237-0.496,0.614-0.908,1.068-1.232l-0.495,6.886   l-0.007,0.003l-1.016,7.028l-3.026,4.293c0,0-0.374,0.587-0.004,1.303c0.254,0.49,1.285,1.222,1.285,1.222l4.686-6.262l1.107-6.596   c0.063-0.004,0.127-0.008,0.196-0.014l-0.01,0.009l3.272,11.575c0,0,0.123,0.728,0.508,1.071c0.435,0.397,1.082,0.408,1.082,0.408   l1.404-0.211l-3.576-14.272c0-1.499,0.009-4.972,0.009-6.506c0-2.055-0.54-3.172-3.09-3.39   C2381.243,158.468,2378.122,157.866,2376.491,161.804L2376.491,161.804z M2389.738,168.234L2389.738,168.234l0.146-0.296   l-3.995-2.758l-0.103,2.58l1.995,1.184C2388.617,169.328,2389.252,169.214,2389.738,168.234z"></path>
	<path id="Exit_1_" class="st7" d="M2346.232,292.861v19.712l8.729,5.427v-29.692L2346.232,292.861L2346.232,292.861z    M2335.847,292.656L2335.847,292.656c1.282-0.031,2.302-1.097,2.271-2.381c-0.032-1.288-1.101-2.304-2.384-2.274   c-1.283,0.031-2.301,1.097-2.27,2.385C2333.495,291.67,2334.562,292.687,2335.847,292.656L2335.847,292.656z M2329.453,296.804   L2329.453,296.804l-2.235,5.53c-0.406,0.922-0.139,1.841,0.948,2.185l0.586,0.129l2.66-6.449h0.003   c0.237-0.496,0.614-0.908,1.068-1.232l-0.495,6.886l-0.007,0.003l-1.016,7.028l-3.026,4.293c0,0-0.374,0.587-0.004,1.303   c0.254,0.49,1.285,1.222,1.285,1.222l4.686-6.262l1.107-6.596c0.063-0.004,0.127-0.008,0.196-0.014l-0.01,0.009l3.272,11.575   c0,0,0.123,0.728,0.508,1.071c0.435,0.397,1.082,0.408,1.082,0.408l1.404-0.211l-3.576-14.272c0-1.499,0.009-4.972,0.009-6.506   c0-2.055-0.54-3.172-3.09-3.39C2334.204,293.468,2331.083,292.866,2329.453,296.804L2329.453,296.804z M2342.699,303.234   L2342.699,303.234l0.146-0.296l-3.995-2.758l-0.103,2.58l1.995,1.184C2341.578,304.328,2342.213,304.214,2342.699,303.234z"></path>
	<path id="Exit_2_" class="st7" d="M2346.232,22.861v19.712l8.729,5.427V18.308L2346.232,22.861L2346.232,22.861z M2335.847,22.656   L2335.847,22.656c1.282-0.031,2.302-1.097,2.271-2.381c-0.032-1.288-1.101-2.304-2.384-2.274c-1.283,0.031-2.301,1.097-2.27,2.385   C2333.495,21.67,2334.562,22.687,2335.847,22.656L2335.847,22.656z M2329.453,26.804L2329.453,26.804l-2.235,5.53   c-0.406,0.922-0.139,1.841,0.948,2.185l0.586,0.129l2.66-6.449h0.003c0.237-0.496,0.614-0.908,1.068-1.232l-0.495,6.886   l-0.007,0.003l-1.016,7.028l-3.026,4.293c0,0-0.374,0.587-0.004,1.303c0.254,0.49,1.285,1.222,1.285,1.222l4.686-6.262l1.107-6.596   c0.063-0.004,0.127-0.008,0.196-0.014l-0.01,0.009l3.272,11.575c0,0,0.123,0.728,0.508,1.071c0.435,0.397,1.082,0.408,1.082,0.408   l1.404-0.211l-3.576-14.272c0-1.499,0.009-4.972,0.009-6.506c0-2.055-0.54-3.172-3.09-3.39   C2334.204,23.468,2331.083,22.866,2329.453,26.804L2329.453,26.804z M2342.699,33.234L2342.699,33.234l0.146-0.296l-3.995-2.758   l-0.103,2.58l1.995,1.184C2341.578,34.328,2342.213,34.214,2342.699,33.234z"></path>
	<path id="Exit_3_" class="st7" d="M84.232,22.861v19.712L92.962,48V18.308L84.232,22.861L84.232,22.861z M73.847,22.656   L73.847,22.656c1.282-0.031,2.302-1.097,2.271-2.381c-0.032-1.288-1.101-2.304-2.384-2.274c-1.283,0.031-2.301,1.097-2.27,2.385   C71.496,21.67,72.563,22.687,73.847,22.656L73.847,22.656z M67.453,26.804L67.453,26.804l-2.235,5.53   c-0.406,0.922-0.14,1.841,0.948,2.185l0.586,0.129l2.66-6.449h0.003c0.237-0.496,0.614-0.908,1.068-1.232l-0.495,6.886   l-0.007,0.003l-1.016,7.028l-3.026,4.293c0,0-0.374,0.587-0.004,1.303c0.254,0.49,1.285,1.222,1.285,1.222l4.686-6.262l1.108-6.596   c0.063-0.004,0.127-0.008,0.195-0.014l-0.01,0.009l3.272,11.575c0,0,0.123,0.728,0.508,1.071c0.435,0.397,1.082,0.408,1.082,0.408   l1.404-0.211L75.888,33.41c0-1.499,0.009-4.972,0.009-6.506c0-2.055-0.54-3.172-3.09-3.39   C72.205,23.468,69.084,22.866,67.453,26.804L67.453,26.804z M80.699,33.234L80.699,33.234l0.146-0.296l-3.995-2.758l-0.103,2.58   l1.995,1.184C79.579,34.328,80.214,34.214,80.699,33.234z"></path>
	<path id="Exit_4_" class="st7" d="M84.232,292.861v19.712l8.73,5.427v-29.692L84.232,292.861L84.232,292.861z M73.847,292.656   L73.847,292.656c1.282-0.031,2.302-1.097,2.271-2.381c-0.032-1.288-1.101-2.304-2.384-2.274c-1.283,0.031-2.301,1.097-2.27,2.385   C71.496,291.67,72.563,292.687,73.847,292.656L73.847,292.656z M67.453,296.804L67.453,296.804l-2.235,5.53   c-0.406,0.922-0.14,1.841,0.948,2.185l0.586,0.129l2.66-6.449h0.003c0.237-0.496,0.614-0.908,1.068-1.232l-0.495,6.886   l-0.007,0.003l-1.016,7.028l-3.026,4.293c0,0-0.374,0.587-0.004,1.303c0.254,0.49,1.285,1.222,1.285,1.222l4.686-6.262l1.108-6.596   c0.063-0.004,0.127-0.008,0.195-0.014l-0.01,0.009l3.272,11.575c0,0,0.123,0.728,0.508,1.071c0.435,0.397,1.082,0.408,1.082,0.408   l1.404-0.211l-3.576-14.272c0-1.499,0.009-4.972,0.009-6.506c0-2.055-0.54-3.172-3.09-3.39   C72.205,293.468,69.084,292.866,67.453,296.804L67.453,296.804z M80.699,303.234L80.699,303.234l0.146-0.296l-3.995-2.758   l-0.103,2.58l1.995,1.184C79.579,304.328,80.214,304.214,80.699,303.234z"></path>
	<path id="Exit_5_" class="st7" d="M37.194,157.861v19.712l8.73,5.427v-29.692L37.194,157.861L37.194,157.861z M26.809,157.656   L26.809,157.656c1.282-0.031,2.302-1.097,2.271-2.381c-0.032-1.288-1.101-2.304-2.384-2.274c-1.283,0.031-2.301,1.097-2.27,2.385   C24.457,156.67,25.524,157.687,26.809,157.656L26.809,157.656z M20.415,161.804L20.415,161.804l-2.235,5.53   c-0.406,0.922-0.14,1.841,0.948,2.185l0.586,0.129l2.66-6.449h0.003c0.237-0.496,0.614-0.908,1.068-1.232l-0.495,6.886   l-0.007,0.003l-1.016,7.028l-3.026,4.293c0,0-0.374,0.587-0.004,1.303c0.254,0.49,1.285,1.222,1.285,1.222l4.686-6.262l1.108-6.596   c0.063-0.004,0.127-0.008,0.195-0.014l-0.01,0.009l3.272,11.575c0,0,0.123,0.728,0.508,1.071c0.435,0.397,1.082,0.408,1.082,0.408   l1.404-0.211L28.85,168.41c0-1.499,0.009-4.972,0.009-6.506c0-2.055-0.54-3.172-3.09-3.39   C25.166,158.468,22.045,157.866,20.415,161.804L20.415,161.804z M33.661,168.234L33.661,168.234l0.147-0.296l-3.995-2.758   l-0.103,2.58l1.995,1.184C32.54,169.328,33.175,169.214,33.661,168.234z"></path>
	<path id="WC" class="st7" d="M347.5,263.596h3.478l1.647,9.844h0.037l1.721-9.844h4.32l1.794,9.844h0.036l1.666-9.844h3.313   l-2.856,12.809h-4.375l-1.812-9.844h-0.036l-1.684,9.844h-4.411L347.5,263.596L347.5,263.596z M377.5,276.112   c-0.683,0.183-1.3,0.314-1.849,0.393c-0.549,0.079-1.135,0.119-1.757,0.119c-1.306,0-2.431-0.168-3.377-0.503   c-0.946-0.335-1.724-0.802-2.334-1.4c-0.61-0.598-1.065-1.296-1.364-2.095c-0.299-0.799-0.448-1.668-0.448-2.607   c0-1.135,0.201-2.132,0.604-2.992c0.403-0.86,0.921-1.558,1.556-2.095c0.622-0.512,1.376-0.9,2.261-1.162s1.852-0.393,2.901-0.393   c0.354,0,0.848,0.037,1.483,0.11c0.635,0.073,1.403,0.256,2.306,0.549l-0.274,2.763c-0.391-0.207-0.876-0.409-1.455-0.604   c-0.58-0.195-1.199-0.293-1.858-0.293c-0.683,0-1.26,0.113-1.73,0.338c-0.47,0.226-0.845,0.479-1.126,0.759   c-0.329,0.329-0.604,0.756-0.824,1.281c-0.219,0.525-0.329,1.116-0.329,1.775c0,0.622,0.104,1.189,0.311,1.702   c0.207,0.512,0.488,0.933,0.842,1.262c0.366,0.354,0.827,0.622,1.382,0.805c0.555,0.183,1.132,0.274,1.73,0.274   c0.476,0,0.995-0.058,1.556-0.174c0.561-0.116,1.104-0.277,1.629-0.485L377.5,276.112z"></path>
	<path id="WC_1_" class="st7" d="M208.5,263.596h3.478l1.647,9.844h0.037l1.721-9.844h4.32l1.794,9.844h0.037l1.666-9.844h3.313   l-2.856,12.809h-4.375l-1.812-9.844h-0.036l-1.684,9.844h-4.411L208.5,263.596L208.5,263.596z M238.5,276.112   c-0.683,0.183-1.3,0.314-1.849,0.393c-0.549,0.079-1.135,0.119-1.757,0.119c-1.306,0-2.431-0.168-3.377-0.503   c-0.946-0.335-1.724-0.802-2.334-1.4c-0.61-0.598-1.065-1.296-1.364-2.095c-0.299-0.799-0.448-1.668-0.448-2.607   c0-1.135,0.201-2.132,0.604-2.992c0.403-0.86,0.921-1.558,1.556-2.095c0.622-0.512,1.376-0.9,2.261-1.162s1.852-0.393,2.901-0.393   c0.354,0,0.848,0.037,1.483,0.11c0.635,0.073,1.403,0.256,2.306,0.549l-0.274,2.763c-0.391-0.207-0.876-0.409-1.455-0.604   c-0.58-0.195-1.199-0.293-1.858-0.293c-0.683,0-1.26,0.113-1.73,0.338c-0.47,0.226-0.845,0.479-1.126,0.759   c-0.329,0.329-0.604,0.756-0.824,1.281c-0.219,0.525-0.329,1.116-0.329,1.775c0,0.622,0.104,1.189,0.311,1.702   c0.207,0.512,0.488,0.933,0.842,1.262c0.366,0.354,0.827,0.622,1.382,0.805c0.555,0.183,1.132,0.274,1.73,0.274   c0.476,0,0.995-0.058,1.556-0.174c0.561-0.116,1.104-0.277,1.629-0.485L238.5,276.112z"></path>
	<path id="Baggage" class="st7" d="M2167.634,259.376c-0.687,0.683-0.941,1.477-1.036,2.248c-0.054,0.447-0.054,0.888-0.054,1.298   v15.438c0,0.403,0,0.844,0.054,1.297c0.095,0.765,0.349,1.56,1.036,2.244c1.085,1.099,2.451,1.099,3.544,1.099h0.639v-24.718   h-0.639C2170.084,258.282,2168.718,258.282,2167.634,259.376L2167.634,259.376z M2196.402,261.624L2196.402,261.624   c-0.095-0.77-0.346-1.565-1.033-2.248c-1.088-1.095-2.454-1.095-3.545-1.095h-0.64V283h0.64c1.091,0,2.456,0,3.545-1.099   c0.687-0.684,0.938-1.478,1.033-2.244c0.053-0.453,0.053-0.894,0.053-1.297v-15.438   C2196.455,262.512,2196.455,262.071,2196.402,261.624L2196.402,261.624z M2185.906,255.113L2185.906,255.113   c0-1.164-0.95-2.114-2.117-2.114h-4.584c-1.158,0-2.109,0.949-2.109,2.114v3.168h-3.517v24.711h15.835v-24.711h-3.508V255.113   L2185.906,255.113z M2184.033,258.285L2184.033,258.285h-5.069v-3.359h5.069V258.285z"></path>
	<path id="Hanger" class="st7" d="M981.62,285.786c-0.045,0.281-0.276,0.572-0.586,0.572h-24.068c-0.311,0-0.541-0.292-0.587-0.572   c-0.089-0.56,0.562-0.861,0.958-0.992c2.794-0.92,9.923-3.393,11.664-3.996c1.741,0.603,8.868,3.076,11.663,3.996   C981.059,284.925,981.71,285.225,981.62,285.786L981.62,285.786z M981.405,282.54L981.405,282.54   c-2.624-0.863-9.106-3.109-11.283-3.865v-1.681c0-0.139,0.198-0.575,0.813-1.041c1.983-1.507,1.758-3.556,1.359-4.426   c-0.614-1.362-1.954-2.228-3.494-2.256c-1.03-0.021-1.992,0.366-2.728,1.086c-0.746,0.729-1.17,1.747-1.17,2.788   c0,0.147,0.008,0.299,0.028,0.464c0.079,0.65,0.668,1.116,1.32,1.038c0.651-0.078,1.115-0.668,1.037-1.318   c-0.008-0.072-0.012-0.134-0.012-0.184c0-0.408,0.167-0.806,0.459-1.091c0.277-0.273,0.631-0.418,1.018-0.411   c0.299,0.006,1.027,0.1,1.376,0.847c0.058,0.163,0.262,0.897-0.628,1.573c-1.113,0.844-1.752,1.914-1.752,2.93v1.727   c-2.295,0.795-8.58,2.973-11.152,3.82c-2.201,0.723-2.755,2.402-2.56,3.621c0.236,1.464,1.495,2.569,2.93,2.569h24.068   c1.436,0,2.696-1.105,2.93-2.569C984.157,284.942,983.606,283.263,981.405,282.54z"></path>
	<path id="Plugs" class="st7" d="M2121,94.5c-1.38,0-2.5,1.12-2.5,2.5v16c0,1.38,1.12,2.5,2.5,2.5h16c1.38,0,2.5-1.12,2.5-2.5V97   c0-1.38-1.12-2.5-2.5-2.5H2121z M2119.5,97c0-0.828,0.672-1.5,1.5-1.5h16c0.828,0,1.5,0.672,1.5,1.5v16c0,0.828-0.672,1.5-1.5,1.5   h-16c-0.828,0-1.5-0.672-1.5-1.5V97z M2132.52,99.888c0.841,0.578,1.528,1.355,2,2.262v5.7c-0.472,0.906-1.159,1.683-2,2.262   c-0.843,0.58-1.815,0.942-2.83,1.058v-1.34h-1.38v1.34c-1.015-0.116-1.987-0.479-2.829-1.058c-0.842-0.579-1.53-1.355-2.001-2.262   v-5.7c0.472-0.907,1.159-1.684,2.001-2.262c0.842-0.58,1.814-0.943,2.829-1.058v1.34h1.38v-1.34   C2130.705,98.945,2131.677,99.309,2132.52,99.888z M2124.781,111.31c1.248,0.834,2.716,1.279,4.217,1.279   c0.997,0,1.984-0.196,2.905-0.578c0.92-0.381,1.757-0.94,2.462-1.645c0.705-0.705,1.264-1.542,1.645-2.463   c0.382-0.92,0.578-1.907,0.578-2.904c0-1.501-0.445-2.969-1.28-4.217c-0.833-1.248-2.018-2.22-3.405-2.795   s-2.913-0.725-4.386-0.432c-1.472,0.293-2.824,1.016-3.886,2.077c-1.061,1.062-1.784,2.414-2.077,3.886   c-0.293,1.473-0.143,2.999,0.432,4.385C2122.561,109.29,2123.533,110.476,2124.781,111.31z M2125.471,106.146   c0.227,0.152,0.494,0.233,0.767,0.233c0.366,0,0.717-0.145,0.976-0.404c0.259-0.26,0.404-0.61,0.404-0.976   c0-0.273-0.08-0.54-0.232-0.767c-0.152-0.227-0.368-0.404-0.62-0.508c-0.252-0.104-0.53-0.132-0.797-0.079   c-0.268,0.054-0.514,0.185-0.707,0.378c-0.193,0.193-0.324,0.439-0.377,0.707c-0.054,0.267-0.026,0.545,0.078,0.797   S2125.245,105.995,2125.471,106.146L2125.471,106.146z M2130.991,106.146c0.227,0.152,0.494,0.233,0.767,0.233   c0.366,0,0.717-0.145,0.976-0.404c0.259-0.26,0.404-0.61,0.404-0.976c0-0.273-0.08-0.54-0.233-0.767   c-0.151-0.227-0.367-0.404-0.619-0.508c-0.252-0.104-0.53-0.132-0.797-0.079c-0.268,0.054-0.514,0.185-0.707,0.378   c-0.193,0.193-0.324,0.439-0.377,0.707c-0.054,0.267-0.026,0.545,0.078,0.797C2130.589,105.779,2130.765,105.995,2130.991,106.146   L2130.991,106.146z"></path>
	<path id="RoomService" class="st7" d="M2199.148,65.455c0.06-0.48,0.105-0.96,0.105-1.455c0-0.495-0.045-0.99-0.105-1.5   l3.165-2.445c0.285-0.225,0.36-0.63,0.18-0.96l-3-5.19c-0.18-0.33-0.585-0.465-0.915-0.33l-3.735,1.5   c-0.78-0.585-1.59-1.095-2.535-1.47l-0.555-3.975c-0.06-0.36-0.375-0.63-0.75-0.63h-6c-0.375,0-0.69,0.27-0.75,0.63l-0.555,3.975   c-0.945,0.375-1.755,0.885-2.535,1.47l-3.735-1.5c-0.33-0.135-0.735,0-0.915,0.33l-3,5.19c-0.195,0.33-0.105,0.735,0.18,0.96   l3.165,2.445c-0.06,0.51-0.105,1.005-0.105,1.5c0,0.495,0.045,0.975,0.105,1.455l-3.165,2.49c-0.285,0.225-0.375,0.63-0.18,0.96   l3,5.19c0.18,0.33,0.585,0.45,0.915,0.33l3.735-1.515c0.78,0.6,1.59,1.11,2.535,1.485l0.555,3.975c0.06,0.36,0.375,0.63,0.75,0.63   h6c0.375,0,0.69-0.27,0.75-0.63l0.555-3.975c0.945-0.39,1.755-0.885,2.535-1.485l3.735,1.515c0.33,0.12,0.735,0,0.915-0.33l3-5.19   c0.18-0.33,0.105-0.735-0.18-0.96L2199.148,65.455z M2188.003,69.25c-2.899,0-5.25-2.351-5.25-5.25s2.351-5.25,5.25-5.25   s5.25,2.351,5.25,5.25S2190.902,69.25,2188.003,69.25z"></path>
	<path id="RoomService_1_" class="st7" d="M392.148,63.455c0.06-0.48,0.105-0.96,0.105-1.455c0-0.495-0.045-0.99-0.105-1.5   l3.165-2.445c0.285-0.225,0.36-0.63,0.18-0.96l-3-5.19c-0.18-0.33-0.585-0.465-0.915-0.33l-3.735,1.5   c-0.78-0.585-1.59-1.095-2.535-1.47l-0.555-3.975c-0.06-0.36-0.375-0.63-0.75-0.63h-6c-0.375,0-0.69,0.27-0.75,0.63l-0.555,3.975   c-0.945,0.375-1.755,0.885-2.535,1.47l-3.735-1.5c-0.33-0.135-0.735,0-0.915,0.33l-3,5.19c-0.195,0.33-0.105,0.735,0.18,0.96   l3.165,2.445c-0.06,0.51-0.105,1.005-0.105,1.5c0,0.495,0.045,0.975,0.105,1.455l-3.165,2.49c-0.285,0.225-0.375,0.63-0.18,0.96   l3,5.19c0.18,0.33,0.585,0.45,0.915,0.33l3.735-1.515c0.78,0.6,1.59,1.11,2.535,1.485l0.555,3.975c0.06,0.36,0.375,0.63,0.75,0.63   h6c0.375,0,0.69-0.27,0.75-0.63l0.555-3.975c0.945-0.39,1.755-0.885,2.535-1.485l3.735,1.515c0.33,0.12,0.735,0,0.915-0.33l3-5.19   c0.18-0.33,0.105-0.735-0.18-0.96L392.148,63.455z M381.003,67.25c-2.899,0-5.25-2.351-5.25-5.25s2.351-5.25,5.25-5.25   s5.25,2.351,5.25,5.25S383.903,67.25,381.003,67.25z"></path>
	<path id="RoomService_2_" class="st7" d="M531.148,274.455c0.06-0.48,0.105-0.96,0.105-1.455c0-0.495-0.045-0.99-0.105-1.5   l3.165-2.445c0.285-0.225,0.36-0.63,0.18-0.96l-3-5.19c-0.18-0.33-0.585-0.465-0.915-0.33l-3.735,1.5   c-0.78-0.585-1.59-1.095-2.535-1.47l-0.555-3.975c-0.06-0.36-0.375-0.63-0.75-0.63h-6c-0.375,0-0.69,0.27-0.75,0.63l-0.555,3.975   c-0.945,0.375-1.755,0.885-2.535,1.47l-3.735-1.5c-0.33-0.135-0.735,0-0.915,0.33l-3,5.19c-0.195,0.33-0.105,0.735,0.18,0.96   l3.165,2.445c-0.06,0.51-0.105,1.005-0.105,1.5c0,0.495,0.045,0.975,0.105,1.455l-3.165,2.49c-0.285,0.225-0.375,0.63-0.18,0.96   l3,5.19c0.18,0.33,0.585,0.45,0.915,0.33l3.735-1.515c0.78,0.6,1.59,1.11,2.535,1.485l0.555,3.975c0.06,0.36,0.375,0.63,0.75,0.63   h6c0.375,0,0.69-0.27,0.75-0.63l0.555-3.975c0.945-0.39,1.755-0.885,2.535-1.485l3.735,1.515c0.33,0.12,0.735,0,0.915-0.33l3-5.19   c0.18-0.33,0.105-0.735-0.18-0.96L531.148,274.455z M520.004,278.25c-2.899,0-5.25-2.351-5.25-5.25s2.351-5.25,5.25-5.25   s5.25,2.351,5.25,5.25S522.903,278.25,520.004,278.25z"></path>
</g>
</svg>