<svg xmlns="http://www.w3.org/2000/svg" xmlns:xlink="http://www.w3.org/1999/xlink" version="1.1" x="0px" y="0px" width="2420px" height="336px" viewBox="0 0 2420 336" style="enable-background:new 0 0 2420 336;" xml:space="preserve">
<style type="text/css">
	.st0{fill-rule:evenodd;clip-rule:evenodd;fill:#FFFFFF;}
	.st1{fill-rule:evenodd;clip-rule:evenodd;fill:#A9AEBA;}
	.st2{fill-rule:evenodd;clip-rule:evenodd;fill:#E2E4E7;stroke:#D2D7DB;stroke-miterlimit:22.9256;}
	.st3{fill:#FFFFFF;}
	.st4{font-family:'Roboto','Helvetica Neue',sans-serif;}
	.st5{font-size:20px;}
	.st6{fill-rule:evenodd;clip-rule:evenodd;fill:#E6E6E6;}
	.st7{fill-rule:evenodd;clip-rule:evenodd;fill:#868D98;}
	.st8{fill-rule:evenodd;clip-rule:evenodd;fill:none;stroke:#BBDDFF;stroke-width:6;stroke-miterlimit:22.9256;}
	.st9{fill:none;stroke:#D2D7DB;stroke-miterlimit:22.9256;}
	.st10{fill:#D2D7DB;}
	.st51{fill-rule:evenodd;clip-rule:evenodd;fill:#ECEFFC;}
	.st52{fill-rule:evenodd;clip-rule:evenodd;fill:#F4ECF9;}
</style>
<g id="Fon">
	<path class="st0" d="M8,12.296l0,311.407c0,2.349,1.988,4.296,4.328,4.296L1877.052,328c38.663,0,77.411-2.05,115.919-5.439   c63.866-5.621,128.006-14.911,190.865-27.547c26.24-5.275,52.428-11.176,78.296-18.056c19.415-5.164,39.135-10.9,57.928-18.029   c27.43-10.405,61.57-24.68,79.157-49.302C2408.126,197.154,2412,183.262,2412,168s-3.874-29.154-12.783-41.627   c-17.587-24.622-51.727-38.897-79.157-49.302c-18.793-7.129-38.513-12.865-57.928-18.029c-25.868-6.88-52.056-12.781-78.296-18.056   c-62.858-12.637-126.999-21.927-190.865-27.547C1954.463,10.05,1915.716,8,1877.052,8L12.328,8C9.988,8,8,9.947,8,12.296z"></path>
</g>
<g id="Color_zona">
	<path class="st51" d="M1901.119,327.742l-217.119,0V168l322.103,0v153.353c-4.378,0.419-8.755,0.822-13.132,1.208   C1962.45,325.247,1931.779,327.092,1901.119,327.742z"></path>
	<path class="st52" d="M2006.103,14.647V168L1684,168V8.249l216.659,0c30.813,0.641,61.639,2.491,92.312,5.191   C1997.348,13.825,2001.725,14.228,2006.103,14.647z"></path>
</g>
<g id="Railway_carriage">
	<path class="st1" d="M12.328,335.999L1877.052,336c167.125,0,365.682-39.182,445.845-69.591   C2372.156,247.724,2420,223.919,2420,168c0-55.919-47.844-79.723-97.103-98.409C2242.735,39.182,2044.177,0,1877.052,0L12.328,0   C5.571,0,0,5.531,0,12.296l0,155.704l0,155.704C0,330.468,5.571,335.999,12.328,335.999z M8.001,12.296   C8.001,9.947,9.989,8,12.328,8l1864.724,0c38.663,0,77.411,2.05,115.919,5.439c63.866,5.621,128.006,14.911,190.865,27.547   c26.24,5.275,52.428,11.176,78.296,18.056c19.415,5.164,39.135,10.9,57.928,18.029c27.43,10.405,61.57,24.68,79.157,49.302   C2408.126,138.846,2412,152.738,2412,168c0,15.262-3.874,29.154-12.783,41.627c-17.587,24.622-51.727,38.897-79.157,49.302   c-18.793,7.129-38.513,12.865-57.928,18.029c-25.868,6.88-52.056,12.781-78.296,18.056   c-62.858,12.636-126.999,21.926-190.865,27.547c-38.509,3.389-77.256,5.439-115.919,5.439L12.328,327.999   c-2.34,0-4.328-1.947-4.328-4.296L8.001,12.296z"></path>
</g>
<g id="Compartment">
	<path class="st1" d="M1677.914,132.996V8.001l6,0v124.995H1677.914z M1683.914,203h-6v125h6l0,0V203z M1541.921,132.996l0-124.995   l-6,0l0,124.995l0,0H1541.921z M1541.921,203h-6v125h6V203z M359.982,224l0,104h6l0-102v-8l-8,0L8,218l0,6L359.982,224z M8,118   l259.986,0h8v-8l0-102l-6,0l0,104L8,112L8,118z M2012,15.232c-2.667-0.268-3.334-0.326-6-0.582l0,306.7   c2.666-0.255,3.333-0.318,6-0.586L2012,15.232z"></path>
</g>
<g id="Seats">
	<path id="Seat1" class="st2 seat" d="M379.133,16.227h0.004l29.712,0c5.583,0,10.151,3.952,10.151,8.781v25.984   c0,4.829-4.568,8.781-10.151,8.781l-29.712,0c-0.953-2.551-1.739-5.102-2.357-7.652c-2.282-9.418-2.282-18.835,0-28.253   C377.397,21.321,378.182,18.774,379.133,16.227z M405.516,14.763v-0.3c0-0.805-0.67-1.463-1.488-1.463l-29.899,0   c-0.491,0-0.893,0.395-0.893,0.878v2.349l5.896,0h0.004l24.891,0C404.846,16.227,405.516,15.568,405.516,14.763z M405.516,61.537   v-0.3c0-0.805-0.67-1.463-1.488-1.463l-24.891,0l-5.9,0v2.349c0,0.483,0.402,0.878,0.893,0.878l29.899,0   C404.846,63,405.516,62.341,405.516,61.537z M376.78,52.121c-2.282-9.418-2.282-18.835,0-28.253   c0.617-2.547,1.402-5.094,2.353-7.641h0.004v-0.011l-6.88,0c-0.691,0-1.257,0.556-1.257,1.236v41.086   c0,0.68,0.565,1.236,1.257,1.236l6.88,0C378.184,57.222,377.398,54.671,376.78,52.121z"></path>
	<path id="Seat2" class="st2 seat" d="M379.133,66.227h0.004l29.712,0c5.583,0,10.151,3.952,10.151,8.781l0,25.984   c0,4.829-4.568,8.781-10.151,8.781l-29.712,0c-0.953-2.551-1.739-5.102-2.357-7.652c-2.282-9.418-2.282-18.835,0-28.253   C377.397,71.321,378.182,68.774,379.133,66.227z M405.516,64.763v-0.3c0-0.805-0.67-1.463-1.488-1.463l-29.899,0   c-0.491,0-0.893,0.395-0.893,0.878v2.349l5.896,0h0.004l24.891,0C404.846,66.227,405.516,65.568,405.516,64.763z M405.516,111.537   v-0.3c0-0.805-0.67-1.464-1.488-1.464l-24.891,0h-5.9v2.349c0,0.483,0.401,0.878,0.893,0.878l29.899,0   C404.846,113,405.516,112.341,405.516,111.537z M376.78,102.121c-2.282-9.418-2.282-18.835,0-28.253   c0.617-2.547,1.402-5.094,2.353-7.641h0.004v-0.011h-6.88c-0.691,0-1.257,0.556-1.257,1.236l0,41.086   c0,0.68,0.565,1.236,1.257,1.236h6.88C378.184,107.222,377.398,104.671,376.78,102.121z"></path>
	<path id="Seat3" class="st2 seat" d="M379.133,276.227h0.004h29.712c5.583,0,10.151,3.952,10.151,8.781v25.984   c0,4.829-4.568,8.781-10.151,8.781h-29.712c-0.953-2.551-1.739-5.102-2.357-7.652c-2.282-9.418-2.282-18.835,0-28.253   C377.397,281.321,378.182,278.774,379.133,276.227z M405.516,274.763v-0.3c0-0.805-0.67-1.464-1.488-1.464l-29.899,0   c-0.491,0-0.893,0.395-0.893,0.878v2.349h5.896h0.004h24.891C404.846,276.227,405.516,275.568,405.516,274.763z M405.516,321.536   v-0.3c0-0.805-0.67-1.464-1.488-1.464h-24.891h-5.9v2.349c0,0.483,0.402,0.878,0.893,0.878l29.899,0   C404.846,323,405.516,322.341,405.516,321.536z M376.78,312.121c-2.282-9.418-2.282-18.835,0-28.253   c0.617-2.547,1.402-5.094,2.353-7.641h0.004v-0.011h-6.88c-0.691,0-1.257,0.556-1.257,1.236v41.086c0,0.68,0.565,1.236,1.257,1.236   h6.88C378.184,317.222,377.398,314.671,376.78,312.121z"></path>
	<path id="Seat4" class="st2 seat" d="M379.133,226.227h0.004l29.712,0c5.583,0,10.151,3.952,10.151,8.781v25.984   c0,4.829-4.568,8.781-10.151,8.781h-29.712c-0.953-2.551-1.739-5.102-2.357-7.652c-2.282-9.418-2.282-18.835,0-28.253   C377.397,231.321,378.182,228.774,379.133,226.227z M405.516,224.763v-0.3c0-0.805-0.67-1.464-1.488-1.464l-29.899,0   c-0.491,0-0.893,0.395-0.893,0.878v2.349h5.896h0.004l24.891,0C404.846,226.227,405.516,225.568,405.516,224.763z M405.516,271.536   v-0.3c0-0.805-0.67-1.464-1.488-1.464h-24.891h-5.9v2.349c0,0.483,0.401,0.878,0.893,0.878l29.899,0   C404.846,273,405.516,272.341,405.516,271.536z M376.78,262.121c-2.282-9.418-2.282-18.835,0-28.253   c0.617-2.547,1.402-5.094,2.353-7.641h0.004v-0.011h-6.88c-0.691,0-1.257,0.556-1.257,1.236v41.086c0,0.68,0.565,1.236,1.257,1.236   h6.88C378.184,267.222,377.398,264.671,376.78,262.121z"></path>
	<path id="Seat5" class="st2 seat" d="M462.133,16.227h0.004l29.712,0c5.583,0,10.151,3.952,10.151,8.781v25.984   c0,4.829-4.568,8.781-10.151,8.781l-29.712,0c-0.953-2.551-1.739-5.102-2.357-7.652c-2.282-9.418-2.282-18.835,0-28.253   C460.397,21.321,461.182,18.774,462.133,16.227z M488.516,14.763v-0.3c0-0.805-0.67-1.463-1.488-1.463l-29.899,0   c-0.491,0-0.893,0.395-0.893,0.878v2.349l5.896,0h0.004l24.891,0C487.846,16.227,488.516,15.568,488.516,14.763z M488.516,61.537   v-0.3c0-0.805-0.67-1.463-1.488-1.463l-24.891,0h-5.9v2.349c0,0.483,0.401,0.878,0.893,0.878l29.899,0   C487.846,63,488.516,62.341,488.516,61.537z M459.78,52.121c-2.282-9.418-2.282-18.835,0-28.253   c0.617-2.547,1.401-5.094,2.353-7.641h0.004v-0.011l-6.88,0c-0.691,0-1.257,0.556-1.257,1.236v41.086   c0,0.68,0.565,1.236,1.257,1.236h6.88C461.184,57.222,460.398,54.671,459.78,52.121z"></path>
	<path id="Seat6" class="st2 seat" d="M462.133,66.227h0.004l29.712,0c5.583,0,10.151,3.952,10.151,8.781l0,25.984   c0,4.829-4.568,8.781-10.151,8.781l-29.712,0c-0.953-2.551-1.739-5.102-2.357-7.652c-2.282-9.418-2.282-18.835,0-28.253   C460.397,71.321,461.182,68.774,462.133,66.227z M488.516,64.763v-0.3c0-0.805-0.67-1.464-1.488-1.464l-29.899,0   c-0.491,0-0.893,0.395-0.893,0.878v2.349h5.896h0.004l24.891,0C487.846,66.227,488.516,65.568,488.516,64.763z M488.516,111.537   v-0.3c0-0.805-0.67-1.463-1.488-1.463l-24.891,0l-5.9,0v2.349c0,0.483,0.401,0.878,0.893,0.878l29.899,0   C487.846,113,488.516,112.341,488.516,111.537z M459.78,102.121c-2.282-9.418-2.282-18.835,0-28.253   c0.617-2.547,1.401-5.094,2.353-7.641h0.004v-0.011h-6.88c-0.691,0-1.257,0.556-1.257,1.236l0,41.086   c0,0.68,0.566,1.236,1.257,1.236l6.88,0C461.184,107.222,460.398,104.671,459.78,102.121z"></path>
	<path id="Seat7" class="st2 seat" d="M462.133,276.227h0.004h29.712c5.583,0,10.151,3.952,10.151,8.781v25.984   c0,4.829-4.568,8.781-10.151,8.781h-29.712c-0.953-2.551-1.739-5.102-2.357-7.652c-2.282-9.418-2.282-18.835,0-28.253   C460.397,281.321,461.181,278.774,462.133,276.227z M488.516,274.763v-0.3c0-0.805-0.67-1.464-1.488-1.464l-29.899,0   c-0.491,0-0.893,0.395-0.893,0.878v2.349h5.896h0.004h24.891C487.846,276.227,488.516,275.568,488.516,274.763z M488.516,321.536   v-0.3c0-0.805-0.67-1.464-1.488-1.464h-24.891h-5.9v2.349c0,0.483,0.401,0.878,0.893,0.878l29.899,0   C487.846,323,488.516,322.341,488.516,321.536z M459.78,312.121c-2.282-9.418-2.282-18.835,0-28.253   c0.617-2.547,1.401-5.094,2.353-7.641h0.004v-0.011l-6.88,0c-0.691,0-1.257,0.556-1.257,1.236v41.086   c0,0.68,0.565,1.236,1.257,1.236h6.88C461.184,317.222,460.398,314.671,459.78,312.121z"></path>
	<path id="Seat8" class="st2 seat" d="M462.133,226.227h0.004l29.712,0c5.583,0,10.151,3.952,10.151,8.781v25.984   c0,4.829-4.568,8.781-10.151,8.781h-29.712c-0.953-2.551-1.739-5.102-2.357-7.652c-2.282-9.418-2.282-18.835,0-28.253   C460.397,231.321,461.181,228.774,462.133,226.227z M488.516,224.763v-0.3c0-0.805-0.67-1.464-1.488-1.464h-29.899   c-0.491,0-0.893,0.395-0.893,0.878v2.349h5.896h0.004l24.891,0C487.846,226.227,488.516,225.568,488.516,224.763z M488.516,271.536   v-0.3c0-0.805-0.67-1.464-1.488-1.464h-24.891h-5.9v2.349c0,0.483,0.402,0.878,0.893,0.878l29.899,0   C487.846,273,488.516,272.341,488.516,271.536z M459.78,262.121c-2.282-9.418-2.282-18.835,0-28.253   c0.617-2.547,1.401-5.094,2.353-7.641h0.004v-0.011h-6.88c-0.691,0-1.257,0.556-1.257,1.236v41.086c0,0.68,0.565,1.236,1.257,1.236   h6.88C461.184,267.222,460.398,264.671,459.78,262.121z"></path>
	<path id="Seat9" class="st2 seat" d="M555.133,16.227h0.004l29.712,0c5.583,0,10.151,3.952,10.151,8.781l0,25.984   c0,4.829-4.568,8.781-10.151,8.781l-29.712,0c-0.953-2.551-1.739-5.102-2.357-7.652c-2.282-9.418-2.282-18.835,0-28.253   C553.397,21.321,554.181,18.774,555.133,16.227z M581.516,14.763v-0.3c0-0.805-0.67-1.463-1.488-1.463l-29.899,0   c-0.491,0-0.893,0.395-0.893,0.878v2.349l5.896,0h0.004l24.891,0C580.846,16.227,581.516,15.568,581.516,14.763z M581.516,61.537   v-0.3c0-0.805-0.67-1.463-1.488-1.463l-24.891,0l-5.9,0v2.349c0,0.483,0.401,0.878,0.893,0.878l29.899,0   C580.846,63,581.516,62.341,581.516,61.537z M552.78,52.121c-2.282-9.418-2.282-18.835,0-28.253   c0.617-2.547,1.401-5.094,2.353-7.641h0.004v-0.011l-6.88,0c-0.691,0-1.257,0.556-1.257,1.236l0,41.086   c0,0.68,0.565,1.236,1.257,1.236l6.88,0C554.184,57.222,553.398,54.671,552.78,52.121z"></path>
	<path id="Seat10" class="st2 seat" d="M555.133,66.227h0.004l29.712,0c5.583,0,10.151,3.952,10.151,8.781v25.984   c0,4.829-4.568,8.781-10.151,8.781l-29.712,0c-0.953-2.551-1.739-5.102-2.357-7.652c-2.282-9.418-2.282-18.835,0-28.253   C553.397,71.321,554.181,68.774,555.133,66.227z M581.516,64.763v-0.3c0-0.805-0.67-1.463-1.488-1.463l-29.899,0   c-0.491,0-0.893,0.395-0.893,0.878v2.349l5.896,0h0.004l24.891,0C580.846,66.227,581.516,65.568,581.516,64.763z M581.516,111.537   v-0.3c0-0.805-0.67-1.464-1.488-1.464l-24.891,0h-5.9v2.349c0,0.483,0.401,0.878,0.893,0.878l29.899,0   C580.846,113,581.516,112.341,581.516,111.537z M552.78,102.121c-2.282-9.418-2.282-18.835,0-28.253   c0.617-2.547,1.401-5.094,2.353-7.641h0.004v-0.011h-6.88c-0.691,0-1.257,0.556-1.257,1.236v41.086c0,0.68,0.565,1.236,1.257,1.236   h6.88C554.184,107.222,553.398,104.671,552.78,102.121z"></path>
	<path id="Seat11" class="st2 seat" d="M555.133,276.227h0.004h29.712c5.583,0,10.151,3.952,10.151,8.781v25.984   c0,4.829-4.568,8.781-10.151,8.781h-29.712c-0.953-2.551-1.739-5.102-2.357-7.652c-2.282-9.418-2.282-18.835,0-28.253   C553.397,281.321,554.181,278.774,555.133,276.227z M581.516,274.763v-0.3c0-0.805-0.67-1.464-1.488-1.464l-29.899,0   c-0.491,0-0.893,0.395-0.893,0.878v2.349h5.896h0.004h24.891C580.846,276.227,581.516,275.568,581.516,274.763z M581.516,321.536   v-0.3c0-0.805-0.67-1.464-1.488-1.464h-24.891h-5.9v2.349c0,0.483,0.401,0.878,0.893,0.878l29.899,0   C580.846,323,581.516,322.341,581.516,321.536z M552.78,312.121c-2.282-9.418-2.282-18.835,0-28.253   c0.617-2.547,1.401-5.094,2.353-7.641h0.004v-0.011h-6.88c-0.691,0-1.257,0.556-1.257,1.236v41.086c0,0.68,0.565,1.236,1.257,1.236   h6.88C554.184,317.222,553.398,314.671,552.78,312.121z"></path>
	<path id="Seat12" class="st2 seat" d="M555.133,226.227h0.004l29.712,0c5.583,0,10.151,3.952,10.151,8.781v25.984   c0,4.829-4.568,8.781-10.151,8.781h-29.712c-0.953-2.551-1.739-5.102-2.357-7.652c-2.282-9.418-2.282-18.835,0-28.253   C553.397,231.321,554.181,228.774,555.133,226.227z M581.516,224.763v-0.3c0-0.805-0.67-1.464-1.488-1.464l-29.899,0   c-0.491,0-0.893,0.395-0.893,0.878v2.349h5.896h0.004l24.891,0C580.846,226.227,581.516,225.568,581.516,224.763z M581.516,271.536   v-0.3c0-0.805-0.67-1.464-1.488-1.464h-24.891h-5.9v2.349c0,0.483,0.401,0.878,0.893,0.878l29.899,0   C580.846,273,581.516,272.341,581.516,271.536z M552.78,262.121c-2.282-9.418-2.282-18.835,0-28.253   c0.617-2.547,1.401-5.094,2.353-7.641h0.004v-0.011h-6.88c-0.691,0-1.257,0.556-1.257,1.236v41.086c0,0.68,0.565,1.236,1.257,1.236   h6.88C554.184,267.222,553.398,264.671,552.78,262.121z"></path>
	<path id="Seat13" class="st2 seat" d="M648.133,16.227h0.004l29.712,0c5.583,0,10.151,3.952,10.151,8.781v25.984   c0,4.829-4.568,8.781-10.151,8.781l-29.712,0c-0.953-2.551-1.739-5.102-2.357-7.652c-2.282-9.418-2.282-18.835,0-28.253   C646.397,21.321,647.182,18.774,648.133,16.227z M674.516,14.763v-0.3c0-0.805-0.67-1.463-1.488-1.463l-29.899,0   c-0.491,0-0.893,0.395-0.893,0.878v2.349l5.896,0h0.004l24.891,0C673.846,16.227,674.516,15.568,674.516,14.763z M674.516,61.537   v-0.3c0-0.805-0.67-1.463-1.488-1.464l-24.891,0h-5.9v2.349c0,0.483,0.401,0.878,0.893,0.878l29.899,0   C673.846,63,674.516,62.341,674.516,61.537z M645.78,52.121c-2.282-9.418-2.282-18.835,0-28.253   c0.617-2.547,1.401-5.094,2.353-7.641h0.004v-0.011l-6.88,0c-0.691,0-1.257,0.556-1.257,1.236v41.086   c0,0.68,0.565,1.236,1.257,1.236h6.88C647.184,57.222,646.398,54.671,645.78,52.121z"></path>
	<path id="Seat14" class="st2 seat" d="M648.133,66.227h0.004l29.712,0c5.583,0,10.151,3.952,10.151,8.781l0,25.984   c0,4.829-4.568,8.781-10.151,8.781l-29.712,0c-0.953-2.551-1.739-5.102-2.357-7.652c-2.282-9.418-2.282-18.835,0-28.253   C646.397,71.321,647.182,68.774,648.133,66.227z M674.516,64.763v-0.3c0-0.805-0.67-1.463-1.488-1.463l-29.899,0   c-0.491,0-0.893,0.395-0.893,0.878v2.349h5.896h0.004l24.891,0C673.846,66.227,674.516,65.568,674.516,64.763z M674.516,111.537   v-0.3c0-0.805-0.67-1.464-1.488-1.464l-24.891,0h-5.9v2.349c0,0.483,0.401,0.878,0.893,0.878l29.899,0   C673.846,113,674.516,112.341,674.516,111.537z M645.78,102.121c-2.282-9.418-2.282-18.835,0-28.253   c0.617-2.547,1.401-5.094,2.353-7.641h0.004v-0.011h-6.88c-0.691,0-1.257,0.556-1.257,1.236l0,41.086   c0,0.68,0.565,1.236,1.257,1.236h6.88C647.184,107.222,646.398,104.671,645.78,102.121z"></path>
	<path id="Seat15" class="st2 seat" d="M648.133,276.227h0.004h29.712c5.583,0,10.151,3.952,10.151,8.781v25.984   c0,4.829-4.568,8.781-10.151,8.781l-29.712,0c-0.953-2.551-1.739-5.102-2.357-7.652c-2.282-9.418-2.282-18.835,0-28.253   C646.397,281.321,647.182,278.774,648.133,276.227z M674.516,274.763v-0.3c0-0.805-0.67-1.464-1.488-1.464l-29.899,0   c-0.491,0-0.893,0.395-0.893,0.878v2.349h5.896h0.004h24.891C673.846,276.227,674.516,275.568,674.516,274.763z M674.516,321.536   v-0.3c0-0.805-0.67-1.463-1.488-1.464h-24.891h-5.9v2.349c0,0.483,0.401,0.878,0.893,0.878l29.899,0   C673.846,323,674.516,322.341,674.516,321.536z M645.78,312.121c-2.282-9.418-2.282-18.835,0-28.253   c0.617-2.547,1.401-5.094,2.353-7.641h0.004v-0.011h-6.88c-0.691,0-1.257,0.556-1.257,1.236v41.086c0,0.68,0.565,1.236,1.257,1.236   h6.88C647.184,317.222,646.398,314.671,645.78,312.121z"></path>
	<path id="Seat16" class="st2 seat" d="M648.133,226.227h0.004h29.712c5.583,0,10.151,3.952,10.151,8.781l0,25.984   c0,4.829-4.568,8.781-10.151,8.781l-29.712,0c-0.953-2.551-1.739-5.102-2.357-7.652c-2.282-9.418-2.282-18.835,0-28.253   C646.397,231.321,647.182,228.774,648.133,226.227z M674.516,224.763v-0.3c0-0.805-0.67-1.464-1.488-1.464l-29.899,0   c-0.491,0-0.893,0.395-0.893,0.878v2.349l5.896,0h0.004h24.891C673.846,226.227,674.516,225.568,674.516,224.763z M674.516,271.536   v-0.3c0-0.805-0.67-1.464-1.488-1.464h-24.891h-5.9v2.349c0,0.483,0.401,0.878,0.893,0.878l29.899,0   C673.846,273,674.516,272.341,674.516,271.536z M645.78,262.121c-2.282-9.418-2.282-18.835,0-28.253   c0.617-2.547,1.401-5.094,2.353-7.641h0.004v-0.011h-6.88c-0.691,0-1.257,0.556-1.257,1.236l0,41.086   c0,0.68,0.566,1.236,1.257,1.236h6.88C647.184,267.222,646.398,264.671,645.78,262.121z"></path>
	<path id="Seat17" class="st2 seat" d="M751.133,16.227h0.004l29.712,0c5.583,0,10.151,3.952,10.151,8.781l0,25.984   c0,4.829-4.568,8.781-10.151,8.781l-29.712,0c-0.953-2.551-1.739-5.102-2.357-7.652c-2.282-9.418-2.282-18.835,0-28.253   C749.397,21.321,750.182,18.774,751.133,16.227z M777.516,14.763v-0.3c0-0.805-0.67-1.463-1.488-1.463l-29.899,0   c-0.491,0-0.893,0.395-0.893,0.878v2.349l5.896,0h0.004l24.891,0C776.846,16.227,777.516,15.568,777.516,14.763z M777.516,61.537   v-0.3c0-0.805-0.67-1.463-1.488-1.463l-24.891,0l-5.9,0v2.349c0,0.483,0.401,0.878,0.893,0.878l29.899,0   C776.846,63,777.516,62.341,777.516,61.537z M748.78,52.121c-2.282-9.418-2.282-18.835,0-28.253   c0.617-2.547,1.401-5.094,2.353-7.641h0.004v-0.011l-6.88,0c-0.691,0-1.257,0.556-1.257,1.236l0,41.086   c0,0.68,0.566,1.236,1.257,1.236l6.88,0C750.184,57.222,749.398,54.671,748.78,52.121z"></path>
	<path id="Seat18" class="st2 seat" d="M751.133,66.227h0.004l29.712,0c5.583,0,10.151,3.952,10.151,8.781v25.984   c0,4.829-4.568,8.781-10.151,8.781l-29.712,0c-0.953-2.551-1.739-5.102-2.357-7.652c-2.282-9.418-2.282-18.835,0-28.253   C749.397,71.321,750.182,68.774,751.133,66.227z M777.516,64.763v-0.3c0-0.805-0.67-1.463-1.488-1.463l-29.899,0   c-0.491,0-0.893,0.395-0.893,0.878v2.349h5.896h0.004l24.891,0C776.846,66.227,777.516,65.568,777.516,64.763z M777.516,111.537   v-0.3c0-0.805-0.67-1.463-1.488-1.463l-24.891,0h-5.9v2.349c0,0.483,0.401,0.878,0.893,0.878l29.899,0   C776.846,113,777.516,112.341,777.516,111.537z M748.78,102.121c-2.282-9.418-2.282-18.835,0-28.253   c0.617-2.547,1.401-5.094,2.353-7.641h0.004v-0.011h-6.88c-0.691,0-1.257,0.556-1.257,1.236v41.086c0,0.68,0.565,1.236,1.257,1.236   l6.88,0C750.184,107.222,749.398,104.671,748.78,102.121z"></path>
	<path id="Seat19" class="st2 seat" d="M920.867,59.773h-0.004l-29.712,0c-5.583,0-10.151-3.952-10.151-8.781V25.008   c0-4.829,4.568-8.781,10.151-8.781l29.712,0c0.953,2.551,1.739,5.102,2.357,7.652c2.282,9.418,2.282,18.835,0,28.253   C922.603,54.679,921.819,57.226,920.867,59.773z M894.484,61.237v0.3c0,0.805,0.67,1.463,1.488,1.463l29.899,0   c0.491,0,0.893-0.395,0.893-0.878v-2.349h-5.896h-0.004l-24.891,0C895.154,59.773,894.484,60.432,894.484,61.237z M894.484,14.463   v0.3c0,0.805,0.67,1.463,1.488,1.463l24.891,0l5.9,0v-2.349c0-0.483-0.401-0.878-0.893-0.878l-29.899,0   C895.154,13,894.484,13.659,894.484,14.463z M923.22,23.879c2.282,9.418,2.282,18.835,0,28.253   c-0.617,2.547-1.401,5.094-2.353,7.641h-0.004v0.011l6.88,0c0.691,0,1.257-0.556,1.257-1.236V17.463   c0-0.68-0.565-1.236-1.257-1.236l-6.88,0C921.816,18.778,922.602,21.329,923.22,23.879z"></path>
	<path id="Seat20" class="st2 seat" d="M920.867,109.773h-0.004l-29.712,0c-5.583,0-10.151-3.952-10.151-8.781l0-25.984   c0-4.829,4.568-8.781,10.151-8.781l29.712,0c0.953,2.551,1.739,5.102,2.357,7.652c2.282,9.418,2.282,18.835,0,28.253   C922.603,104.679,921.819,107.226,920.867,109.773z M894.484,111.237v0.3c0,0.805,0.67,1.464,1.488,1.464l29.899,0   c0.491,0,0.893-0.395,0.893-0.878v-2.349h-5.896h-0.004l-24.891,0C895.154,109.773,894.484,110.432,894.484,111.237z    M894.484,64.463v0.3c0,0.805,0.67,1.463,1.488,1.463l24.891,0l5.9,0v-2.349c0-0.483-0.401-0.878-0.893-0.878l-29.899,0   C895.154,63,894.484,63.659,894.484,64.463z M923.22,73.879c2.282,9.418,2.282,18.835,0,28.253   c-0.617,2.547-1.401,5.094-2.353,7.641h-0.004v0.011h6.88c0.691,0,1.257-0.556,1.257-1.236l0-41.086   c0-0.68-0.565-1.236-1.257-1.236l-6.88,0C921.816,68.778,922.602,71.329,923.22,73.879z"></path>
	<path id="Seat21" class="st2 seat" d="M751.133,276.227h0.004h29.712c5.583,0,10.151,3.952,10.151,8.781v25.984   c0,4.829-4.568,8.781-10.151,8.781l-29.712,0c-0.953-2.551-1.739-5.102-2.357-7.652c-2.282-9.418-2.282-18.835,0-28.253   C749.397,281.321,750.182,278.774,751.133,276.227z M777.516,274.763v-0.3c0-0.805-0.67-1.464-1.488-1.464h-29.899   c-0.491,0-0.893,0.395-0.893,0.878v2.349h5.896h0.004h24.891C776.846,276.227,777.516,275.568,777.516,274.763z M777.516,321.536   v-0.3c0-0.805-0.67-1.464-1.488-1.464l-24.891,0h-5.9v2.349c0,0.483,0.401,0.878,0.893,0.878h29.899   C776.846,323,777.516,322.341,777.516,321.536z M748.78,312.121c-2.282-9.418-2.282-18.835,0-28.253   c0.617-2.547,1.401-5.094,2.353-7.641h0.004v-0.011h-6.88c-0.691,0-1.257,0.556-1.257,1.236v41.086c0,0.68,0.565,1.236,1.257,1.236   h6.88C750.184,317.222,749.398,314.671,748.78,312.121z"></path>
	<path id="Seat22" class="st2 seat" d="M751.133,226.227h0.004l29.712,0c5.583,0,10.151,3.952,10.151,8.781v25.984   c0,4.829-4.568,8.781-10.151,8.781l-29.712,0c-0.953-2.551-1.739-5.102-2.357-7.652c-2.282-9.418-2.282-18.835,0-28.253   C749.397,231.321,750.182,228.774,751.133,226.227z M777.516,224.763v-0.3c0-0.805-0.67-1.464-1.488-1.464l-29.899,0   c-0.491,0-0.893,0.395-0.893,0.878v2.349h5.896h0.004h24.891C776.846,226.227,777.516,225.568,777.516,224.763z M777.516,271.536   v-0.3c0-0.805-0.67-1.464-1.488-1.464l-24.891,0h-5.9v2.349c0,0.483,0.401,0.878,0.893,0.878h29.899   C776.846,273,777.516,272.341,777.516,271.536z M748.78,262.121c-2.282-9.418-2.282-18.835,0-28.253   c0.617-2.547,1.401-5.094,2.353-7.641h0.004v-0.011h-6.88c-0.691,0-1.257,0.556-1.257,1.236v41.086c0,0.68,0.565,1.236,1.257,1.236   h6.88C750.184,267.222,749.398,264.671,748.78,262.121z"></path>
	<path id="Seat23" class="st2 seat" d="M920.867,319.773h-0.004l-29.712,0c-5.583,0-10.151-3.952-10.151-8.781v-25.984   c0-4.829,4.568-8.781,10.151-8.781h29.712c0.953,2.551,1.739,5.102,2.357,7.652c2.282,9.418,2.282,18.835,0,28.253   C922.603,314.679,921.819,317.226,920.867,319.773z M894.484,321.237v0.3c0,0.805,0.67,1.464,1.488,1.464h29.899   c0.491,0,0.893-0.395,0.893-0.878v-2.349h-5.896h-0.004l-24.891,0C895.154,319.773,894.484,320.432,894.484,321.237z    M894.484,274.463v0.3c0,0.805,0.67,1.464,1.488,1.464h24.891h5.9v-2.349c0-0.483-0.402-0.878-0.893-0.878h-29.899   C895.154,273,894.484,273.659,894.484,274.463z M923.22,283.879c2.282,9.418,2.282,18.835,0,28.253   c-0.617,2.547-1.401,5.094-2.353,7.641h-0.004v0.011h6.88c0.691,0,1.257-0.556,1.257-1.236v-41.086c0-0.68-0.565-1.236-1.257-1.236   h-6.88C921.816,278.778,922.602,281.329,923.22,283.879z"></path>
	<path id="Seat24" class="st2 seat" d="M920.867,269.773h-0.004l-29.712,0c-5.583,0-10.151-3.952-10.151-8.781v-25.984   c0-4.829,4.568-8.781,10.151-8.781h29.712c0.953,2.551,1.739,5.102,2.357,7.652c2.282,9.418,2.282,18.835,0,28.253   C922.603,264.679,921.819,267.226,920.867,269.773z M894.484,271.237v0.3c0,0.805,0.67,1.464,1.488,1.464h29.899   c0.491,0,0.893-0.395,0.893-0.878v-2.349h-5.896h-0.004l-24.891,0C895.154,269.773,894.484,270.432,894.484,271.237z    M894.484,224.464v0.3c0,0.805,0.67,1.464,1.488,1.464h24.891h5.9v-2.349c0-0.483-0.401-0.878-0.893-0.878l-29.899,0   C895.154,223,894.484,223.659,894.484,224.464z M923.22,233.879c2.282,9.418,2.282,18.835,0,28.253   c-0.617,2.547-1.401,5.094-2.353,7.641h-0.004v0.011h6.88c0.691,0,1.257-0.556,1.257-1.236v-41.086c0-0.68-0.565-1.236-1.257-1.236   h-6.88C921.816,228.778,922.602,231.329,923.22,233.879z"></path>
	<path id="Seat25" class="st2 seat" d="M1013.867,59.773h-0.004l-29.712,0c-5.583,0-10.151-3.952-10.151-8.781V25.008   c0-4.829,4.568-8.781,10.151-8.781l29.712,0c0.953,2.551,1.739,5.102,2.357,7.652c2.282,9.418,2.282,18.835,0,28.253   C1015.603,54.679,1014.819,57.226,1013.867,59.773z M987.484,61.237v0.3c0,0.805,0.67,1.463,1.488,1.463l29.899,0   c0.491,0,0.893-0.395,0.893-0.878v-2.349l-5.896,0h-0.004l-24.891,0C988.154,59.773,987.484,60.432,987.484,61.237z    M987.484,14.464v0.3c0,0.805,0.67,1.463,1.488,1.463l24.891,0l5.9,0v-2.349c0-0.483-0.401-0.878-0.893-0.878l-29.899,0   C988.154,13,987.484,13.659,987.484,14.464z M1016.22,23.879c2.282,9.418,2.282,18.835,0,28.253   c-0.617,2.547-1.401,5.094-2.353,7.641h-0.004v0.011h6.88c0.691,0,1.257-0.556,1.257-1.236V17.463c0-0.68-0.565-1.236-1.257-1.236   l-6.88,0C1014.816,18.778,1015.602,21.329,1016.22,23.879z"></path>
	<path id="Seat26" class="st2 seat" d="M1013.867,109.773h-0.004l-29.712,0c-5.583,0-10.151-3.952-10.151-8.781V75.008   c0-4.829,4.568-8.781,10.151-8.781l29.712,0c0.953,2.551,1.739,5.102,2.357,7.652c2.282,9.418,2.282,18.835,0,28.253   C1015.603,104.679,1014.819,107.226,1013.867,109.773z M987.484,111.237v0.3c0,0.805,0.67,1.463,1.488,1.463l29.899,0   c0.491,0,0.893-0.395,0.893-0.878v-2.349h-5.896h-0.004l-24.891,0C988.154,109.773,987.484,110.432,987.484,111.237z    M987.484,64.464v0.3c0,0.805,0.67,1.464,1.488,1.464l24.891,0h5.9v-2.349c0-0.483-0.401-0.878-0.893-0.878l-29.899,0   C988.154,63,987.484,63.659,987.484,64.464z M1016.22,73.879c2.282,9.418,2.282,18.835,0,28.253   c-0.617,2.547-1.401,5.094-2.353,7.641h-0.004v0.011h6.88c0.691,0,1.257-0.556,1.257-1.236V67.463c0-0.68-0.565-1.236-1.257-1.236   h-6.88C1014.816,68.778,1015.602,71.329,1016.22,73.879z"></path>
	<path id="Seat27" class="st2 seat" d="M1013.867,319.773h-0.004l-29.712,0c-5.583,0-10.151-3.952-10.151-8.781v-25.984   c0-4.829,4.568-8.781,10.151-8.781h29.712c0.953,2.551,1.739,5.102,2.357,7.652c2.282,9.418,2.282,18.835,0,28.253   C1015.603,314.679,1014.818,317.226,1013.867,319.773z M987.484,321.237v0.3c0,0.805,0.67,1.464,1.488,1.464h29.899   c0.491,0,0.893-0.395,0.893-0.878v-2.349h-5.896h-0.004l-24.891,0C988.154,319.773,987.484,320.432,987.484,321.237z    M987.484,274.464v0.3c0,0.805,0.67,1.464,1.488,1.464h24.891h5.9v-2.349c0-0.483-0.401-0.878-0.893-0.878h-29.899   C988.154,273,987.484,273.659,987.484,274.464z M1016.22,283.879c2.282,9.418,2.282,18.835,0,28.253   c-0.617,2.547-1.401,5.094-2.353,7.641h-0.004v0.011h6.88c0.691,0,1.257-0.556,1.257-1.236v-41.086c0-0.68-0.565-1.236-1.257-1.236   h-6.88C1014.816,278.778,1015.602,281.329,1016.22,283.879z"></path>
	<path id="Seat28" class="st2 seat" d="M1013.867,269.773h-0.004l-29.712,0c-5.583,0-10.151-3.952-10.151-8.781v-25.984   c0-4.829,4.568-8.781,10.151-8.781h29.712c0.953,2.551,1.739,5.102,2.357,7.652c2.282,9.418,2.282,18.835,0,28.253   C1015.603,264.679,1014.819,267.226,1013.867,269.773z M987.484,271.237v0.3c0,0.805,0.67,1.464,1.488,1.464h29.899   c0.491,0,0.893-0.395,0.893-0.878v-2.349h-5.896h-0.004l-24.891,0C988.154,269.773,987.484,270.432,987.484,271.237z    M987.484,224.464v0.3c0,0.805,0.67,1.464,1.488,1.464h24.891h5.9v-2.349c0-0.483-0.401-0.878-0.893-0.878l-29.899,0   C988.154,223,987.484,223.659,987.484,224.464z M1016.22,233.879c2.282,9.418,2.282,18.835,0,28.253   c-0.617,2.547-1.401,5.094-2.353,7.641h-0.004v0.011h6.88c0.691,0,1.257-0.556,1.257-1.236v-41.086c0-0.68-0.565-1.236-1.257-1.236   h-6.88C1014.816,228.778,1015.602,231.329,1016.22,233.879z"></path>
	<path id="Seat29" class="st2 seat" d="M1106.867,59.773h-0.004l-29.712,0c-5.583,0-10.151-3.952-10.151-8.781V25.008   c0-4.829,4.568-8.781,10.151-8.781l29.712,0c0.953,2.551,1.739,5.102,2.357,7.652c2.282,9.418,2.282,18.835,0,28.253   C1108.603,54.679,1107.818,57.226,1106.867,59.773z M1080.484,61.237v0.3c0,0.805,0.67,1.463,1.488,1.463l29.899,0   c0.491,0,0.893-0.395,0.893-0.878v-2.349l-5.896,0h-0.004l-24.891,0C1081.154,59.773,1080.484,60.432,1080.484,61.237z    M1080.484,14.464v0.3c0,0.805,0.67,1.463,1.488,1.463l24.891,0l5.9,0v-2.349c0-0.483-0.401-0.878-0.893-0.878l-29.899,0   C1081.154,13,1080.484,13.659,1080.484,14.464z M1109.22,23.879c2.282,9.418,2.282,18.835,0,28.253   c-0.617,2.547-1.402,5.094-2.353,7.641h-0.004v0.011l6.88,0c0.691,0,1.257-0.556,1.257-1.236V17.463   c0-0.68-0.565-1.236-1.257-1.236l-6.88,0C1107.816,18.778,1108.602,21.329,1109.22,23.879z"></path>
	<path id="Seat30" class="st2 seat" d="M1106.867,109.773h-0.004l-29.712,0c-5.583,0-10.151-3.952-10.151-8.781V75.008   c0-4.829,4.568-8.781,10.151-8.781l29.712,0c0.953,2.551,1.739,5.102,2.357,7.652c2.282,9.418,2.282,18.835,0,28.253   C1108.603,104.679,1107.818,107.226,1106.867,109.773z M1080.484,111.237v0.3c0,0.805,0.67,1.463,1.488,1.463l29.899,0   c0.491,0,0.892-0.395,0.892-0.878v-2.349l-5.896,0h-0.004l-24.891,0C1081.154,109.773,1080.484,110.432,1080.484,111.237z    M1080.484,64.464v0.3c0,0.805,0.67,1.464,1.488,1.464l24.891,0h5.9v-2.349c0-0.483-0.401-0.878-0.893-0.878l-29.899,0   C1081.154,63,1080.484,63.659,1080.484,64.464z M1109.22,73.879c2.282,9.418,2.282,18.835,0,28.253   c-0.617,2.547-1.402,5.094-2.353,7.641h-0.004v0.011h6.88c0.691,0,1.257-0.556,1.257-1.236V67.463c0-0.68-0.565-1.236-1.257-1.236   h-6.88C1107.816,68.778,1108.602,71.329,1109.22,73.879z"></path>
	<path id="Seat31" class="st2 seat" d="M1106.867,319.773h-0.004h-29.712c-5.583,0-10.151-3.952-10.151-8.781v-25.984   c0-4.829,4.568-8.781,10.151-8.781l29.712,0c0.953,2.551,1.739,5.102,2.357,7.652c2.282,9.418,2.282,18.835,0,28.253   C1108.603,314.679,1107.818,317.226,1106.867,319.773z M1080.484,321.237v0.3c0,0.805,0.67,1.464,1.488,1.464h29.899   c0.491,0,0.893-0.395,0.893-0.878v-2.349h-5.896h-0.004h-24.891C1081.154,319.773,1080.484,320.432,1080.484,321.237z    M1080.484,274.463v0.3c0,0.805,0.67,1.463,1.488,1.463l24.891,0h5.9v-2.349c0-0.483-0.401-0.878-0.893-0.878h-29.899   C1081.154,273,1080.484,273.659,1080.484,274.463z M1109.22,283.879c2.282,9.418,2.282,18.835,0,28.253   c-0.617,2.547-1.402,5.094-2.353,7.641h-0.004v0.011h6.88c0.691,0,1.257-0.556,1.257-1.236v-41.086c0-0.68-0.565-1.236-1.257-1.236   h-6.88C1107.816,278.778,1108.602,281.329,1109.22,283.879z"></path>
	<path id="Seat32" class="st2 seat" d="M1106.867,269.773h-0.004h-29.712c-5.583,0-10.151-3.952-10.151-8.781v-25.984   c0-4.829,4.568-8.781,10.151-8.781l29.712,0c0.953,2.551,1.739,5.102,2.357,7.652c2.282,9.418,2.282,18.835,0,28.253   C1108.603,264.679,1107.818,267.226,1106.867,269.773z M1080.484,271.237v0.3c0,0.805,0.67,1.464,1.488,1.464h29.899   c0.491,0,0.893-0.395,0.893-0.878v-2.349h-5.896h-0.004h-24.891C1081.154,269.773,1080.484,270.432,1080.484,271.237z    M1080.484,224.464v0.3c0,0.805,0.67,1.464,1.488,1.464h24.891h5.9v-2.349c0-0.483-0.401-0.878-0.893-0.878l-29.899,0   C1081.154,223,1080.484,223.658,1080.484,224.464z M1109.22,233.879c2.282,9.418,2.282,18.835,0,28.253   c-0.617,2.547-1.402,5.094-2.353,7.641h-0.004v0.011h6.88c0.691,0,1.257-0.556,1.257-1.236v-41.086c0-0.68-0.565-1.236-1.257-1.236   h-6.88C1107.816,228.778,1108.602,231.329,1109.22,233.879z"></path>
	<path id="Seat33" class="st2 seat" d="M1128.133,276.227h0.004h29.712c5.583,0,10.151,3.952,10.151,8.781v25.984   c0,4.829-4.568,8.781-10.151,8.781l-29.712,0c-0.953-2.551-1.739-5.102-2.357-7.652c-2.282-9.418-2.282-18.835,0-28.253   C1126.398,281.321,1127.182,278.774,1128.133,276.227z M1154.516,274.763v-0.3c0-0.805-0.67-1.464-1.488-1.464h-29.899   c-0.491,0-0.892,0.395-0.892,0.878v2.349h5.896h0.004h24.891C1153.847,276.227,1154.516,275.568,1154.516,274.763z    M1154.516,321.536v-0.3c0-0.805-0.67-1.463-1.488-1.463l-24.891,0h-5.9v2.349c0,0.483,0.401,0.878,0.892,0.878h29.899   C1153.847,323,1154.516,322.341,1154.516,321.536z M1125.78,312.121c-2.282-9.418-2.282-18.835,0-28.253   c0.617-2.547,1.401-5.094,2.353-7.641h0.004v-0.011h-6.88c-0.691,0-1.257,0.556-1.257,1.236v41.086c0,0.68,0.565,1.236,1.257,1.236   h6.88C1127.184,317.222,1126.398,314.671,1125.78,312.121z"></path>
	<path id="Seat34" class="st2 seat" d="M1128.133,226.227h0.004h29.712c5.583,0,10.151,3.952,10.151,8.781v25.984   c0,4.829-4.568,8.781-10.151,8.781l-29.712,0c-0.953-2.551-1.739-5.102-2.357-7.652c-2.282-9.418-2.282-18.835,0-28.253   C1126.398,231.321,1127.182,228.774,1128.133,226.227z M1154.516,224.763v-0.3c0-0.805-0.67-1.464-1.488-1.464l-29.899,0   c-0.491,0-0.893,0.395-0.893,0.878v2.349h5.896h0.004h24.891C1153.847,226.227,1154.516,225.568,1154.516,224.763z    M1154.516,271.536v-0.3c0-0.805-0.67-1.464-1.488-1.464l-24.891,0h-5.9v2.349c0,0.483,0.401,0.878,0.892,0.878h29.899   C1153.847,273,1154.516,272.341,1154.516,271.536z M1125.78,262.121c-2.282-9.418-2.282-18.835,0-28.253   c0.617-2.547,1.401-5.094,2.353-7.641h0.004v-0.011h-6.88c-0.691,0-1.257,0.556-1.257,1.236v41.086c0,0.68,0.565,1.236,1.257,1.236   h6.88C1127.184,267.222,1126.398,264.671,1125.78,262.121z"></path>
	<path id="Seat35" class="st2 seat" d="M1221.133,276.227h0.004h29.712c5.583,0,10.151,3.952,10.151,8.781v25.984   c0,4.829-4.568,8.781-10.151,8.781l-29.712,0c-0.953-2.551-1.739-5.102-2.357-7.652c-2.282-9.418-2.282-18.835,0-28.253   C1219.397,281.321,1220.182,278.774,1221.133,276.227z M1247.516,274.763v-0.3c0-0.805-0.67-1.464-1.488-1.464h-29.899   c-0.491,0-0.893,0.395-0.893,0.878v2.349h5.896h0.004h24.891C1246.847,276.227,1247.516,275.568,1247.516,274.763z    M1247.516,321.536v-0.3c0-0.805-0.67-1.463-1.488-1.463l-24.891,0h-5.9v2.349c0,0.483,0.401,0.878,0.893,0.878h29.899   C1246.846,323,1247.516,322.341,1247.516,321.536z M1218.78,312.121c-2.282-9.418-2.282-18.835,0-28.253   c0.617-2.547,1.401-5.094,2.353-7.641h0.004v-0.011h-6.88c-0.691,0-1.257,0.556-1.257,1.236v41.086c0,0.68,0.565,1.236,1.257,1.236   h6.88C1220.184,317.222,1219.398,314.671,1218.78,312.121z"></path>
	<path id="Seat36" class="st2 seat" d="M1221.133,226.227h0.004h29.712c5.583,0,10.151,3.952,10.151,8.781v25.984   c0,4.829-4.568,8.781-10.151,8.781l-29.712,0c-0.953-2.551-1.739-5.102-2.357-7.652c-2.282-9.418-2.282-18.835,0-28.253   C1219.397,231.321,1220.182,228.774,1221.133,226.227z M1247.516,224.763v-0.3c0-0.805-0.67-1.464-1.488-1.464l-29.899,0   c-0.491,0-0.893,0.395-0.893,0.878v2.349h5.896h0.004h24.891C1246.847,226.227,1247.516,225.568,1247.516,224.763z    M1247.516,271.536v-0.3c0-0.805-0.67-1.464-1.488-1.464l-24.891,0h-5.9v2.349c0,0.483,0.401,0.878,0.893,0.878h29.899   C1246.847,273,1247.516,272.341,1247.516,271.536z M1218.78,262.121c-2.282-9.418-2.282-18.835,0-28.253   c0.617-2.547,1.401-5.094,2.353-7.641h0.004v-0.011l-6.88,0c-0.691,0-1.257,0.556-1.257,1.236v41.086   c0,0.68,0.565,1.236,1.257,1.236h6.88C1220.184,267.222,1219.398,264.671,1218.78,262.121z"></path>
	<path id="Seat37" class="st2 seat" d="M1314.133,16.227h0.004l29.712,0c5.583,0,10.151,3.952,10.151,8.781v25.984   c0,4.829-4.568,8.781-10.151,8.781l-29.712,0c-0.953-2.551-1.739-5.102-2.357-7.652c-2.282-9.418-2.282-18.835,0-28.253   C1312.397,21.321,1313.182,18.774,1314.133,16.227z M1340.516,14.763v-0.3c0-0.805-0.67-1.463-1.488-1.463l-29.899,0   c-0.491,0-0.893,0.395-0.893,0.878v2.349l5.896,0h0.004l24.891,0C1339.847,16.227,1340.516,15.568,1340.516,14.763z    M1340.516,61.537v-0.3c0-0.805-0.67-1.463-1.488-1.463l-24.891,0l-5.9,0v2.349c0,0.483,0.401,0.878,0.892,0.878l29.899,0   C1339.846,63,1340.516,62.341,1340.516,61.537z M1311.78,52.121c-2.282-9.418-2.282-18.835,0-28.253   c0.617-2.547,1.401-5.094,2.353-7.641h0.004v-0.011l-6.88,0c-0.691,0-1.257,0.556-1.257,1.236v41.086   c0,0.68,0.565,1.236,1.257,1.236l6.88,0C1313.184,57.222,1312.398,54.671,1311.78,52.121z"></path>
	<path id="Seat38" class="st2 seat" d="M1314.133,66.227h0.004l29.712,0c5.583,0,10.151,3.952,10.151,8.781v25.984   c0,4.829-4.568,8.781-10.151,8.781l-29.712,0c-0.953-2.551-1.739-5.102-2.357-7.652c-2.282-9.418-2.282-18.835,0-28.253   C1312.397,71.321,1313.182,68.774,1314.133,66.227z M1340.516,64.763v-0.3c0-0.805-0.67-1.463-1.488-1.463l-29.899,0   c-0.491,0-0.892,0.395-0.892,0.878v2.349l5.896,0h0.004l24.891,0C1339.846,66.227,1340.516,65.568,1340.516,64.763z    M1340.516,111.537v-0.3c0-0.805-0.67-1.464-1.488-1.464l-24.891,0h-5.9v2.349c0,0.483,0.402,0.878,0.893,0.878l29.899,0   C1339.846,113,1340.516,112.341,1340.516,111.537z M1311.78,102.121c-2.282-9.418-2.282-18.835,0-28.253   c0.617-2.547,1.401-5.094,2.353-7.641h0.004v-0.011h-6.88c-0.691,0-1.257,0.556-1.257,1.236v41.086c0,0.68,0.565,1.236,1.257,1.236   h6.88C1313.184,107.222,1312.398,104.671,1311.78,102.121z"></path>
	<path id="Seat39" class="st2 seat" d="M1522.867,59.773h-0.004l-29.712,0c-5.583,0-10.151-3.952-10.151-8.781V25.008   c0-4.829,4.568-8.781,10.151-8.781l29.712,0c0.953,2.551,1.739,5.102,2.357,7.652c2.282,9.418,2.282,18.835,0,28.253   C1524.603,54.679,1523.818,57.226,1522.867,59.773z M1496.484,61.237v0.3c0,0.805,0.67,1.463,1.488,1.463l29.899,0   c0.491,0,0.893-0.395,0.893-0.878v-2.349h-5.896h-0.004l-24.891,0C1497.154,59.773,1496.484,60.432,1496.484,61.237z    M1496.484,14.463v0.3c0,0.805,0.67,1.463,1.488,1.463l24.891,0l5.9,0v-2.349c0-0.483-0.401-0.878-0.893-0.878l-29.899,0   C1497.154,13,1496.484,13.659,1496.484,14.463z M1525.22,23.879c2.282,9.418,2.282,18.835,0,28.253   c-0.617,2.547-1.401,5.094-2.353,7.641h-0.004v0.011l6.88,0c0.691,0,1.257-0.556,1.257-1.236V17.463   c0-0.68-0.566-1.236-1.257-1.236l-6.88,0C1523.816,18.778,1524.602,21.329,1525.22,23.879z"></path>
	<path id="Seat40" class="st2 seat" d="M1522.867,109.773h-0.004l-29.712,0c-5.583,0-10.151-3.952-10.151-8.781V75.008   c0-4.829,4.568-8.781,10.151-8.781l29.712,0c0.953,2.551,1.739,5.102,2.357,7.652c2.282,9.418,2.282,18.835,0,28.253   C1524.603,104.679,1523.818,107.226,1522.867,109.773z M1496.484,111.237v0.3c0,0.805,0.67,1.464,1.488,1.464l29.899,0   c0.491,0,0.893-0.395,0.893-0.878v-2.349h-5.896h-0.004l-24.891,0C1497.154,109.773,1496.484,110.432,1496.484,111.237z    M1496.484,64.463v0.3c0,0.805,0.67,1.463,1.488,1.463l24.891,0l5.9,0v-2.349c0-0.483-0.401-0.878-0.893-0.878l-29.899,0   C1497.154,63,1496.484,63.659,1496.484,64.463z M1525.22,73.879c2.282,9.418,2.282,18.835,0,28.253   c-0.617,2.547-1.401,5.094-2.353,7.641h-0.004v0.011h6.88c0.691,0,1.257-0.556,1.257-1.236V67.463c0-0.68-0.566-1.236-1.257-1.236   l-6.88,0C1523.816,68.778,1524.602,71.329,1525.22,73.879z"></path>
	<path id="Seat41" class="st2 seat" d="M1314.133,276.227h0.004h29.712c5.583,0,10.151,3.952,10.151,8.781v25.984   c0,4.829-4.568,8.781-10.151,8.781l-29.712,0c-0.953-2.551-1.739-5.102-2.357-7.652c-2.282-9.418-2.282-18.835,0-28.253   C1312.397,281.321,1313.182,278.774,1314.133,276.227z M1340.516,274.763v-0.3c0-0.805-0.67-1.464-1.488-1.464h-29.899   c-0.491,0-0.893,0.395-0.893,0.878v2.349h5.896h0.004h24.891C1339.846,276.227,1340.516,275.568,1340.516,274.763z    M1340.516,321.536v-0.3c0-0.805-0.67-1.464-1.488-1.464l-24.891,0h-5.9v2.349c0,0.483,0.401,0.878,0.893,0.878h29.899   C1339.846,323,1340.516,322.341,1340.516,321.536z M1311.78,312.121c-2.282-9.418-2.282-18.835,0-28.253   c0.617-2.547,1.401-5.094,2.353-7.641h0.004v-0.011h-6.88c-0.691,0-1.257,0.556-1.257,1.236v41.086c0,0.68,0.566,1.236,1.257,1.236   h6.88C1313.184,317.222,1312.398,314.671,1311.78,312.121z"></path>
	<path id="Seat42" class="st2 seat" d="M1314.133,226.227h0.004l29.712,0c5.583,0,10.151,3.952,10.151,8.781v25.984   c0,4.829-4.568,8.781-10.151,8.781l-29.712,0c-0.953-2.551-1.739-5.102-2.357-7.652c-2.282-9.418-2.282-18.835,0-28.253   C1312.397,231.321,1313.182,228.774,1314.133,226.227z M1340.516,224.763v-0.3c0-0.805-0.67-1.464-1.488-1.464l-29.899,0   c-0.491,0-0.893,0.395-0.893,0.878v2.349h5.896h0.004h24.891C1339.846,226.227,1340.516,225.568,1340.516,224.763z    M1340.516,271.536v-0.3c0-0.805-0.67-1.464-1.488-1.464l-24.891,0h-5.9v2.349c0,0.483,0.401,0.878,0.893,0.878h29.899   C1339.846,273,1340.516,272.341,1340.516,271.536z M1311.78,262.121c-2.282-9.418-2.282-18.835,0-28.253   c0.617-2.547,1.401-5.094,2.353-7.641h0.004v-0.011h-6.88c-0.691,0-1.257,0.556-1.257,1.236v41.086c0,0.68,0.566,1.236,1.257,1.236   h6.88C1313.184,267.222,1312.398,264.671,1311.78,262.121z"></path>
	<path id="Seat43" class="st2 seat" d="M1522.867,319.773h-0.004l-29.712,0c-5.583,0-10.151-3.952-10.151-8.781v-25.984   c0-4.829,4.568-8.781,10.151-8.781h29.712c0.953,2.551,1.739,5.102,2.357,7.652c2.282,9.418,2.282,18.835,0,28.253   C1524.603,314.679,1523.818,317.226,1522.867,319.773z M1496.484,321.237v0.3c0,0.805,0.67,1.464,1.488,1.464h29.899   c0.491,0,0.893-0.395,0.893-0.878v-2.349h-5.896h-0.004l-24.891,0C1497.153,319.773,1496.484,320.432,1496.484,321.237z    M1496.484,274.464v0.3c0,0.805,0.67,1.464,1.488,1.464h24.891h5.9v-2.349c0-0.483-0.401-0.878-0.892-0.878h-29.899   C1497.153,273,1496.484,273.659,1496.484,274.464z M1525.22,283.879c2.282,9.418,2.282,18.835,0,28.253   c-0.617,2.547-1.401,5.094-2.353,7.641h-0.004v0.011h6.88c0.691,0,1.257-0.556,1.257-1.236v-41.086c0-0.68-0.565-1.236-1.257-1.236   h-6.88C1523.816,278.778,1524.602,281.329,1525.22,283.879z"></path>
	<path id="Seat44" class="st2 seat" d="M1522.867,269.773h-0.004l-29.712,0c-5.583,0-10.151-3.952-10.151-8.781v-25.984   c0-4.829,4.568-8.781,10.151-8.781h29.712c0.953,2.551,1.739,5.102,2.357,7.652c2.282,9.418,2.282,18.835,0,28.253   C1524.603,264.679,1523.818,267.226,1522.867,269.773z M1496.484,271.237v0.3c0,0.805,0.67,1.464,1.488,1.464h29.899   c0.491,0,0.892-0.395,0.892-0.878v-2.349h-5.896h-0.004l-24.891,0C1497.153,269.773,1496.484,270.432,1496.484,271.237z    M1496.484,224.464v0.3c0,0.805,0.67,1.464,1.488,1.464h24.891h5.9v-2.349c0-0.483-0.401-0.878-0.892-0.878l-29.899,0   C1497.154,223,1496.484,223.659,1496.484,224.464z M1525.22,233.879c2.282,9.418,2.282,18.835,0,28.253   c-0.617,2.547-1.401,5.094-2.353,7.641h-0.004v0.011h6.88c0.691,0,1.257-0.556,1.257-1.236v-41.086c0-0.68-0.565-1.236-1.257-1.236   h-6.88C1523.816,228.778,1524.602,231.329,1525.22,233.879z"></path>
	<path id="Seat45" class="st2 seat seat--available compartment-19" d="M1795.133,16.227h0.004l29.712,0c5.583,0,10.151,3.952,10.151,8.781v25.984   c0,4.829-4.568,8.781-10.151,8.781l-29.712,0c-0.953-2.551-1.739-5.102-2.357-7.652c-2.282-9.418-2.282-18.835,0-28.253   C1793.397,21.321,1794.182,18.774,1795.133,16.227z M1821.516,14.763v-0.3c0-0.805-0.67-1.463-1.488-1.463l-29.899,0   c-0.491,0-0.893,0.395-0.893,0.878v2.349l5.896,0h0.004l24.891,0C1820.846,16.227,1821.516,15.568,1821.516,14.763z    M1821.516,61.537v-0.3c0-0.805-0.67-1.463-1.488-1.463l-24.891,0l-5.9,0v2.349c0,0.483,0.401,0.878,0.893,0.878l29.899,0   C1820.846,63,1821.516,62.341,1821.516,61.537z M1792.78,52.121c-2.282-9.418-2.282-18.835,0-28.253   c0.617-2.547,1.402-5.094,2.353-7.641h0.004v-0.011l-6.88,0c-0.691,0-1.257,0.556-1.257,1.236v41.086   c0,0.68,0.565,1.236,1.257,1.236l6.88,0C1794.184,57.222,1793.398,54.671,1792.78,52.121z"></path>
	<path id="Seat46" class="st2 seat seat--available compartment-19" d="M1795.133,66.227h0.004l29.712,0c5.583,0,10.151,3.952,10.151,8.781v25.984   c0,4.829-4.568,8.781-10.151,8.781l-29.712,0c-0.953-2.551-1.739-5.102-2.357-7.652c-2.282-9.418-2.282-18.835,0-28.253   C1793.397,71.321,1794.182,68.774,1795.133,66.227z M1821.516,64.763v-0.3c0-0.805-0.67-1.463-1.488-1.463l-29.899,0   c-0.491,0-0.893,0.395-0.893,0.878v2.349h5.896h0.004l24.891,0C1820.846,66.227,1821.516,65.568,1821.516,64.763z    M1821.516,111.537v-0.3c0-0.805-0.67-1.463-1.488-1.464l-24.891,0h-5.9v2.349c0,0.483,0.401,0.878,0.893,0.878l29.899,0   C1820.846,113,1821.516,112.341,1821.516,111.537z M1792.78,102.121c-2.282-9.418-2.282-18.835,0-28.253   c0.617-2.547,1.401-5.094,2.353-7.641h0.004v-0.011l-6.88,0c-0.691,0-1.257,0.556-1.257,1.236v41.086   c0,0.68,0.565,1.236,1.257,1.236h6.88C1794.184,107.222,1793.398,104.671,1792.78,102.121z"></path>
	<path id="Seat47" class="st2 seat seat--available compartment-20" d="M1893.133,16.227h0.004l29.712,0c5.583,0,10.151,3.952,10.151,8.781v25.984   c0,4.829-4.568,8.781-10.151,8.781l-29.712,0c-0.953-2.551-1.739-5.102-2.357-7.652c-2.282-9.418-2.282-18.835,0-28.253   C1891.397,21.321,1892.182,18.774,1893.133,16.227z M1919.516,14.763v-0.3c0-0.805-0.67-1.463-1.488-1.463l-29.899,0   c-0.491,0-0.893,0.395-0.893,0.878v2.349l5.896,0h0.004l24.891,0C1918.846,16.227,1919.516,15.568,1919.516,14.763z    M1919.516,61.537v-0.3c0-0.805-0.67-1.463-1.488-1.463l-24.891,0l-5.9,0v2.349c0,0.483,0.401,0.878,0.893,0.878l29.899,0   C1918.846,63,1919.516,62.341,1919.516,61.537z M1890.78,52.121c-2.282-9.418-2.282-18.835,0-28.253   c0.617-2.547,1.402-5.094,2.353-7.641h0.004v-0.011l-6.88,0c-0.691,0-1.257,0.556-1.257,1.236v41.086   c0,0.68,0.565,1.236,1.257,1.236l6.88,0C1892.184,57.222,1891.398,54.671,1890.78,52.121z"></path>
	<path id="Seat48" class="st2 seat seat--available compartment-20" d="M1893.133,66.227h0.004l29.712,0c5.583,0,10.151,3.952,10.151,8.781v25.984   c0,4.829-4.568,8.781-10.151,8.781l-29.712,0c-0.953-2.551-1.739-5.102-2.357-7.652c-2.282-9.418-2.282-18.835,0-28.253   C1891.397,71.321,1892.182,68.774,1893.133,66.227z M1919.516,64.763v-0.3c0-0.805-0.67-1.463-1.488-1.463l-29.899,0   c-0.491,0-0.893,0.395-0.893,0.878v2.349l5.896,0h0.004l24.891,0C1918.846,66.227,1919.516,65.568,1919.516,64.763z    M1919.516,111.537v-0.3c0-0.805-0.67-1.464-1.488-1.464l-24.891,0h-5.9v2.349c0,0.483,0.401,0.878,0.893,0.878l29.899,0   C1918.846,113,1919.516,112.341,1919.516,111.537z M1890.78,102.121c-2.282-9.418-2.282-18.835,0-28.253   c0.617-2.547,1.402-5.094,2.353-7.641h0.004v-0.011h-6.88c-0.691,0-1.257,0.556-1.257,1.236v41.086c0,0.68,0.565,1.236,1.257,1.236   h6.88C1892.184,107.222,1891.398,104.671,1890.78,102.121z"></path>
	<path id="Seat49" class="st2 seat seat--available compartment-21" d="M1924.867,319.773h-0.004l-29.712,0c-5.583,0-10.151-3.952-10.151-8.781v-25.984   c0-4.829,4.568-8.781,10.151-8.781h29.712c0.953,2.551,1.739,5.102,2.357,7.652c2.282,9.418,2.282,18.835,0,28.253   C1926.603,314.679,1925.818,317.226,1924.867,319.773z M1898.484,321.237v0.3c0,0.805,0.67,1.464,1.488,1.464h29.899   c0.491,0,0.893-0.395,0.893-0.878v-2.349h-5.896h-0.004l-24.891,0C1899.154,319.773,1898.484,320.432,1898.484,321.237z    M1898.484,274.464v0.3c0,0.805,0.67,1.464,1.488,1.464h24.891h5.9v-2.349c0-0.483-0.401-0.878-0.893-0.878h-29.899   C1899.154,273,1898.484,273.659,1898.484,274.464z M1927.22,283.879c2.282,9.418,2.282,18.835,0,28.253   c-0.617,2.547-1.402,5.094-2.353,7.641h-0.004v0.011h6.88c0.691,0,1.257-0.556,1.257-1.236v-41.086c0-0.68-0.566-1.236-1.257-1.236   h-6.88C1925.816,278.778,1926.602,281.329,1927.22,283.879z"></path>
	<path id="Seat51" class="st2 seat" d="M1697.133,16.227h0.004l29.712,0c5.583,0,10.151,3.952,10.151,8.781v25.984   c0,4.829-4.568,8.781-10.151,8.781l-29.712,0c-0.953-2.551-1.739-5.102-2.357-7.652c-2.282-9.418-2.282-18.835,0-28.253   C1695.397,21.321,1696.182,18.774,1697.133,16.227z M1723.516,14.763v-0.3c0-0.805-0.67-1.463-1.488-1.463l-29.899,0   c-0.491,0-0.893,0.395-0.893,0.878v2.349l5.896,0h0.004l24.891,0C1722.847,16.227,1723.516,15.568,1723.516,14.763z    M1723.516,61.537v-0.3c0-0.805-0.67-1.463-1.488-1.463l-24.891,0l-5.9,0v2.349c0,0.483,0.401,0.878,0.893,0.878l29.899,0   C1722.846,63,1723.516,62.341,1723.516,61.537z M1694.78,52.121c-2.282-9.418-2.282-18.835,0-28.253   c0.617-2.547,1.401-5.094,2.353-7.641h0.004v-0.011l-6.88,0c-0.691,0-1.257,0.556-1.257,1.236v41.086   c0,0.68,0.565,1.236,1.257,1.236l6.88,0C1696.184,57.222,1695.398,54.671,1694.78,52.121z"></path>
	<path id="Seat52" class="st2 seat" d="M1697.133,66.227h0.004l29.712,0c5.583,0,10.151,3.952,10.151,8.781v25.984   c0,4.829-4.568,8.781-10.151,8.781l-29.712,0c-0.953-2.551-1.739-5.102-2.357-7.652c-2.282-9.418-2.282-18.835,0-28.253   C1695.397,71.321,1696.182,68.774,1697.133,66.227z M1723.516,64.763v-0.3c0-0.805-0.67-1.463-1.488-1.463l-29.899,0   c-0.491,0-0.893,0.395-0.893,0.878v2.349l5.896,0h0.004l24.891,0C1722.846,66.227,1723.516,65.568,1723.516,64.763z    M1723.516,111.537v-0.3c0-0.805-0.67-1.464-1.488-1.464l-24.891,0h-5.9v2.349c0,0.483,0.401,0.878,0.892,0.878l29.899,0   C1722.846,113,1723.516,112.341,1723.516,111.537z M1694.78,102.121c-2.282-9.418-2.282-18.835,0-28.253   c0.617-2.547,1.401-5.094,2.353-7.641h0.004v-0.011h-6.88c-0.691,0-1.257,0.556-1.257,1.236v41.086c0,0.68,0.565,1.236,1.257,1.236   h6.88C1696.184,107.222,1695.398,104.671,1694.78,102.121z"></path>
</g>
<g id="Numbers" pointer-events="none">
	<text transform="matrix(1 0 0 1 389.3887 43.8418)" class="st3 st4 st5">1</text>
	<text transform="matrix(1 0 0 1 389.3887 93.8418)" class="st3 st4 st5">2</text>
	<text transform="matrix(1 0 0 1 389.3887 303.8418)" class="st3 st4 st5">3</text>
	<text transform="matrix(1 0 0 1 389.3887 253.8418)" class="st3 st4 st5">4</text>
	<text transform="matrix(1 0 0 1 472.3887 43.8418)" class="st3 st4 st5">5</text>
	<text transform="matrix(1 0 0 1 472.3887 93.8418)" class="st3 st4 st5">6</text>
	<text transform="matrix(1 0 0 1 472.3887 303.8418)" class="st3 st4 st5">7</text>
	<text transform="matrix(1 0 0 1 472.3887 253.8418)" class="st3 st4 st5">8</text>
	<text transform="matrix(1 0 0 1 565.3887 43.8418)" class="st3 st4 st5">9</text>
	<text transform="matrix(1 0 0 1 559.7734 93.8418)" class="st3 st4 st5">10</text>
	<text transform="matrix(1 0 0 1 559.7734 303.8418)" class="st3 st4 st5">11</text>
	<text transform="matrix(1 0 0 1 559.7734 253.8418)" class="st3 st4 st5">12</text>
	<text transform="matrix(1 0 0 1 652.7734 43.8418)" class="st3 st4 st5">13</text>
	<text transform="matrix(1 0 0 1 652.7734 93.8418)" class="st3 st4 st5">14</text>
	<text transform="matrix(1 0 0 1 652.7734 303.8418)" class="st3 st4 st5">15</text>
	<text transform="matrix(1 0 0 1 652.7734 253.8418)" class="st3 st4 st5">16</text>
	<text transform="matrix(1 0 0 1 755.7734 43.8418)" class="st3 st4 st5">17</text>
	<text transform="matrix(1 0 0 1 755.7734 93.8418)" class="st3 st4 st5">18</text>
	<text transform="matrix(1 0 0 1 893.7734 43.8418)" class="st3 st4 st5">19</text>
	<text transform="matrix(1 0 0 1 893.7734 93.8418)" class="st3 st4 st5">20</text>
	<text transform="matrix(1 0 0 1 755.7734 303.8418)" class="st3 st4 st5">21</text>
	<text transform="matrix(1 0 0 1 755.7734 253.8418)" class="st3 st4 st5">22</text>
	<text transform="matrix(1 0 0 1 893.7734 303.8418)" class="st3 st4 st5">23</text>
	<text transform="matrix(1 0 0 1 893.7734 253.8418)" class="st3 st4 st5">24</text>
	<text transform="matrix(1 0 0 1 986.7725 43.8418)" class="st3 st4 st5">25</text>
	<text transform="matrix(1 0 0 1 986.7725 93.8418)" class="st3 st4 st5">26</text>
	<text transform="matrix(1 0 0 1 986.7725 303.8418)" class="st3 st4 st5">27</text>
	<text transform="matrix(1 0 0 1 986.7725 253.8418)" class="st3 st4 st5">28</text>
	<text transform="matrix(1 0 0 1 1079.7725 43.8418)" class="st3 st4 st5">29</text>
	<text transform="matrix(1 0 0 1 1079.7725 93.8418)" class="st3 st4 st5">30</text>
	<text transform="matrix(1 0 0 1 1079.7734 303.8418)" class="st3 st4 st5">31</text>
	<text transform="matrix(1 0 0 1 1079.7725 253.8418)" class="st3 st4 st5">32</text>
	<text transform="matrix(1 0 0 1 1132.7725 303.8418)" class="st3 st4 st5">33</text>
	<text transform="matrix(1 0 0 1 1132.7725 253.8418)" class="st3 st4 st5">34</text>
	<text transform="matrix(1 0 0 1 1225.7725 303.8418)" class="st3 st4 st5">35</text>
	<text transform="matrix(1 0 0 1 1225.7725 253.8418)" class="st3 st4 st5">36</text>
	<text transform="matrix(1 0 0 1 1318.7725 43.8418)" class="st3 st4 st5">37</text>
	<text transform="matrix(1 0 0 1 1318.7725 93.8418)" class="st3 st4 st5">38</text>
	<text transform="matrix(1 0 0 1 1495.7725 43.8418)" class="st3 st4 st5">39</text>
	<text transform="matrix(1 0 0 1 1495.7725 93.8418)" class="st3 st4 st5">40</text>
	<text transform="matrix(1 0 0 1 1318.7725 303.8418)" class="st3 st4 st5">41</text>
	<text transform="matrix(1 0 0 1 1318.7725 253.8418)" class="st3 st4 st5">42</text>
	<text transform="matrix(1 0 0 1 1495.7725 303.8418)" class="st3 st4 st5">43</text>
	<text transform="matrix(1 0 0 1 1495.7725 253.8418)" class="st3 st4 st5">44</text>
	<text transform="matrix(1 0 0 1 1799.7725 43.8418)" class="st3 st4 st5">45</text>
	<text transform="matrix(1 0 0 1 1799.7725 93.8418)" class="st3 st4 st5">46</text>
	<text transform="matrix(1 0 0 1 1897.7725 43.8418)" class="st3 st4 st5">47</text>
	<text transform="matrix(1 0 0 1 1897.7725 93.8418)" class="st3 st4 st5">48</text>
	<text transform="matrix(1 0 0 1 1897.7725 303.8438)" class="st3 st4 st5">49</text>
	<text transform="matrix(1 0 0 1 1701.7725 43.8418)" class="st3 st4 st5">51</text>
	<text transform="matrix(1 0 0 1 1701.7725 93.8418)" class="st3 st4 st5">52</text>
</g>
<g id="Tables">
	<path class="st6" d="M1835,323l-48,0v-72c0-8.8,7.2-16,16-16h16c8.8,0,16,7.2,16,16V323z"></path>
	<path class="st6" d="M1782,323l-93,0l0-72c0-8.8,7.2-16,15.999-16l61.001,0c8.8,0,16,7.2,16,16V323z"></path>
	<path class="st6" d="M1442.5,323h-48v-72c0-8.8,7.2-16,16-16h16c8.8,0,16,7.2,16,16L1442.5,323z"></path>
	<path class="st6" d="M1442.5,13l-48,0v72c0,8.8,7.2,16,16,16l16,0c8.8,0,16-7.2,16-16V13z"></path>
	<path class="st6" d="M860,13l-48,0v72c0,8.8,7.2,16,16,16h16c8.8,0,16-7.2,16-16L860,13z"></path>
	<path class="st6" d="M860,323h-48l0-72c0-8.8,7.2-16,16-16h16c8.8,0,16,7.2,16,16V323z"></path>
	<rect x="1120" y="13.001" class="st6" width="181.001" height="87.999"></rect>
	<rect x="281" y="13" class="st6" width="85" height="87.999"></rect>
</g>
<g id="Cup_for_table">
	<path class="st7" d="M1821.008,286.925c0,1.148-0.928,2.075-2.079,2.075h-15.86c-1.15,0-2.078-0.927-2.078-2.075H1821.008   L1821.008,286.925z M1816.684,282.094L1816.684,282.094c0,0,0.213-0.003,0.366-0.003c1.193,0,2.16-0.965,2.16-2.159   c0-1.192-0.967-2.157-2.16-2.157h-0.366V282.094L1816.684,282.094z M1806.91,286.052L1806.91,286.052   c-0.979,0-1.771-0.795-1.771-1.775v-7.922h11.904c1.975,0,3.582,1.604,3.582,3.577c0,1.976-1.599,3.575-3.575,3.575h-0.366   c0,0.209-0.002,0.653-0.002,0.77c0,0.979-0.795,1.775-1.775,1.775H1806.91L1806.91,286.052z M1808.314,273.407L1808.314,273.407   c0,0.459-0.187,0.826-0.557,1.103c-0.102,0.079-0.154,0.186-0.154,0.318c0,0.262,0.13,0.391,0.391,0.391   c0.087,0,0.166-0.027,0.237-0.082c0.576-0.434,0.865-1.011,0.865-1.73c0-0.528-0.212-1.022-0.634-1.48   c-0.423-0.458-0.634-0.872-0.634-1.244c0-0.396,0.146-0.73,0.438-1.008c0.079-0.078,0.118-0.174,0.118-0.284   c0-0.261-0.131-0.391-0.391-0.391c-0.102,0-0.194,0.035-0.273,0.107c-0.45,0.426-0.675,0.952-0.675,1.576   c0,0.561,0.211,1.072,0.634,1.533C1808.102,272.678,1808.314,273.075,1808.314,273.407L1808.314,273.407z M1811.11,273.407   L1811.11,273.407c0,0.459-0.185,0.826-0.557,1.103c-0.102,0.078-0.154,0.186-0.154,0.318c0,0.262,0.131,0.391,0.391,0.391   c0.088,0,0.166-0.027,0.237-0.082c0.577-0.434,0.864-1.011,0.864-1.73c0-0.528-0.211-1.022-0.633-1.48   c-0.422-0.458-0.633-0.872-0.633-1.244c0-0.396,0.145-0.73,0.437-1.008c0.079-0.078,0.119-0.174,0.119-0.284   c0-0.261-0.13-0.391-0.391-0.391c-0.102,0-0.193,0.035-0.272,0.107c-0.45,0.426-0.676,0.952-0.676,1.576   c0,0.561,0.211,1.072,0.634,1.533C1810.899,272.678,1811.11,273.075,1811.11,273.407L1811.11,273.407z M1813.906,273.407   L1813.906,273.407c0,0.459-0.185,0.826-0.557,1.103c-0.102,0.078-0.154,0.186-0.154,0.318c0,0.262,0.131,0.391,0.391,0.391   c0.087,0,0.167-0.027,0.237-0.082c0.577-0.434,0.864-1.011,0.864-1.73c0-0.528-0.211-1.022-0.634-1.48   c-0.422-0.458-0.634-0.872-0.634-1.244c0-0.396,0.147-0.73,0.438-1.008c0.079-0.078,0.119-0.174,0.119-0.284   c0-0.261-0.13-0.391-0.391-0.391c-0.103,0-0.193,0.035-0.273,0.107c-0.45,0.426-0.675,0.952-0.675,1.576   c0,0.561,0.212,1.072,0.634,1.533C1813.695,272.678,1813.906,273.075,1813.906,273.407z"></path>
	<path class="st7" d="M1428.509,286.925c0,1.148-0.929,2.075-2.079,2.075h-15.86c-1.15,0-2.078-0.927-2.078-2.075H1428.509   L1428.509,286.925z M1424.184,282.095L1424.184,282.095c0,0,0.213-0.003,0.367-0.003c1.193,0,2.159-0.965,2.159-2.159   c0-1.193-0.967-2.157-2.159-2.157h-0.367V282.095L1424.184,282.095z M1414.41,286.052L1414.41,286.052   c-0.979,0-1.771-0.795-1.771-1.774v-7.922l11.904,0c1.975,0,3.582,1.604,3.582,3.577c0,1.975-1.599,3.575-3.575,3.575h-0.367   c0,0.209-0.002,0.653-0.002,0.77c0,0.98-0.795,1.774-1.775,1.774H1414.41L1414.41,286.052z M1415.814,273.407L1415.814,273.407   c0,0.459-0.186,0.826-0.557,1.102c-0.102,0.079-0.154,0.186-0.154,0.319c0,0.262,0.13,0.391,0.391,0.391   c0.086,0,0.166-0.026,0.237-0.083c0.576-0.434,0.865-1.011,0.865-1.73c0-0.528-0.212-1.022-0.635-1.48   c-0.423-0.458-0.634-0.872-0.634-1.244c0-0.396,0.146-0.73,0.438-1.008c0.079-0.078,0.119-0.173,0.119-0.285   c0-0.261-0.131-0.391-0.391-0.391c-0.103,0-0.194,0.035-0.273,0.107c-0.45,0.426-0.675,0.952-0.675,1.576   c0,0.561,0.211,1.072,0.634,1.533C1415.602,272.678,1415.814,273.075,1415.814,273.407L1415.814,273.407z M1418.61,273.407   L1418.61,273.407c0,0.459-0.185,0.826-0.557,1.102c-0.102,0.079-0.154,0.186-0.154,0.319c0,0.262,0.131,0.391,0.391,0.391   c0.088,0,0.166-0.026,0.237-0.083c0.578-0.434,0.864-1.011,0.864-1.73c0-0.528-0.211-1.022-0.633-1.48   c-0.423-0.458-0.633-0.872-0.633-1.244c0-0.396,0.145-0.73,0.437-1.008c0.079-0.078,0.119-0.173,0.119-0.285   c0-0.261-0.13-0.391-0.391-0.391c-0.102,0-0.193,0.035-0.272,0.107c-0.45,0.426-0.676,0.952-0.676,1.576   c0,0.561,0.211,1.072,0.634,1.533C1418.399,272.678,1418.61,273.075,1418.61,273.407L1418.61,273.407z M1421.406,273.407   L1421.406,273.407c0,0.459-0.185,0.826-0.557,1.102c-0.102,0.079-0.154,0.186-0.154,0.319c0,0.262,0.131,0.391,0.391,0.391   c0.087,0,0.166-0.026,0.237-0.083c0.577-0.434,0.864-1.011,0.864-1.73c0-0.528-0.211-1.022-0.634-1.48   c-0.422-0.458-0.634-0.872-0.634-1.244c0-0.396,0.147-0.73,0.439-1.008c0.079-0.078,0.118-0.173,0.118-0.285   c0-0.261-0.13-0.391-0.391-0.391c-0.103,0-0.194,0.035-0.273,0.107c-0.45,0.426-0.675,0.952-0.675,1.576   c0,0.561,0.212,1.072,0.634,1.533C1421.195,272.678,1421.406,273.075,1421.406,273.407z"></path>
	<path class="st7" d="M1428.509,64.925c0,1.148-0.929,2.075-2.079,2.075l-15.86,0c-1.15,0-2.078-0.927-2.078-2.075L1428.509,64.925   L1428.509,64.925z M1424.184,60.095L1424.184,60.095c0,0,0.213-0.003,0.366-0.003c1.193,0,2.16-0.965,2.16-2.159   c0-1.192-0.967-2.157-2.16-2.157h-0.366V60.095L1424.184,60.095z M1414.41,64.052L1414.41,64.052c-0.979,0-1.771-0.795-1.771-1.775   l0-7.922l11.904,0c1.975,0,3.582,1.604,3.582,3.577c0,1.976-1.599,3.575-3.575,3.575h-0.366c0,0.209-0.002,0.653-0.002,0.77   c0,0.979-0.795,1.774-1.775,1.774H1414.41L1414.41,64.052z M1415.814,51.407L1415.814,51.407c0,0.459-0.186,0.825-0.557,1.103   c-0.102,0.079-0.154,0.186-0.154,0.318c0,0.262,0.13,0.391,0.391,0.391c0.087,0,0.166-0.027,0.237-0.083   c0.576-0.434,0.865-1.011,0.865-1.73c0-0.528-0.212-1.022-0.635-1.48c-0.423-0.458-0.634-0.872-0.634-1.244   c0-0.396,0.146-0.731,0.438-1.008c0.079-0.078,0.118-0.173,0.118-0.284c0-0.261-0.131-0.391-0.391-0.391   c-0.103,0-0.194,0.035-0.273,0.107c-0.45,0.426-0.675,0.952-0.675,1.576c0,0.561,0.211,1.072,0.634,1.533   C1415.602,50.678,1415.814,51.075,1415.814,51.407L1415.814,51.407z M1418.61,51.407L1418.61,51.407   c0,0.459-0.185,0.825-0.557,1.103c-0.101,0.079-0.154,0.186-0.154,0.318c0,0.262,0.131,0.391,0.391,0.391   c0.088,0,0.166-0.027,0.237-0.083c0.577-0.434,0.864-1.011,0.864-1.73c0-0.528-0.211-1.022-0.633-1.48   c-0.423-0.458-0.634-0.872-0.634-1.244c0-0.396,0.145-0.73,0.437-1.008c0.079-0.078,0.119-0.173,0.119-0.284   c0-0.261-0.13-0.391-0.391-0.391c-0.102,0-0.193,0.035-0.272,0.107c-0.45,0.426-0.676,0.952-0.676,1.576   c0,0.561,0.211,1.072,0.634,1.533C1418.399,50.678,1418.61,51.075,1418.61,51.407L1418.61,51.407z M1421.406,51.407   L1421.406,51.407c0,0.459-0.185,0.825-0.557,1.103c-0.102,0.079-0.154,0.186-0.154,0.318c0,0.262,0.131,0.391,0.391,0.391   c0.086,0,0.166-0.027,0.237-0.083c0.577-0.434,0.864-1.011,0.864-1.73c0-0.528-0.211-1.023-0.634-1.48   c-0.422-0.458-0.634-0.872-0.634-1.244c0-0.396,0.147-0.73,0.438-1.008c0.079-0.078,0.119-0.173,0.119-0.284   c0-0.261-0.13-0.391-0.391-0.391c-0.103,0-0.194,0.035-0.273,0.107c-0.45,0.426-0.675,0.952-0.675,1.576   c0,0.561,0.212,1.072,0.634,1.533C1421.195,50.678,1421.406,51.075,1421.406,51.407z"></path>
	<path class="st7" d="M846.009,64.925c0,1.148-0.929,2.075-2.079,2.075h-15.86c-1.15,0-2.078-0.927-2.078-2.075L846.009,64.925   L846.009,64.925z M841.684,60.095L841.684,60.095c0,0,0.213-0.003,0.367-0.003c1.193,0,2.16-0.965,2.16-2.159   c0-1.192-0.967-2.157-2.16-2.157h-0.367V60.095L841.684,60.095z M831.91,64.052L831.91,64.052c-0.98,0-1.77-0.795-1.77-1.774   v-7.922l11.904,0c1.975,0,3.582,1.604,3.582,3.577c0,1.976-1.599,3.575-3.575,3.575h-0.367c0,0.209-0.002,0.653-0.002,0.77   c0,0.979-0.795,1.775-1.775,1.775L831.91,64.052L831.91,64.052z M833.314,51.407L833.314,51.407c0,0.459-0.187,0.825-0.557,1.103   c-0.102,0.079-0.154,0.186-0.154,0.318c0,0.262,0.13,0.391,0.391,0.391c0.086,0,0.166-0.027,0.237-0.083   c0.576-0.434,0.865-1.011,0.865-1.73c0-0.528-0.212-1.022-0.634-1.48c-0.423-0.458-0.634-0.872-0.634-1.244   c0-0.396,0.146-0.731,0.439-1.008c0.079-0.078,0.118-0.173,0.118-0.284c0-0.261-0.131-0.391-0.391-0.391   c-0.103,0-0.194,0.035-0.273,0.107c-0.45,0.426-0.675,0.952-0.675,1.576c0,0.561,0.211,1.072,0.634,1.533   C833.102,50.678,833.314,51.075,833.314,51.407L833.314,51.407z M836.11,51.407L836.11,51.407c0,0.459-0.186,0.825-0.558,1.103   c-0.102,0.079-0.154,0.186-0.154,0.318c0,0.262,0.131,0.391,0.391,0.391c0.088,0,0.166-0.027,0.237-0.083   c0.577-0.434,0.864-1.011,0.864-1.73c0-0.528-0.211-1.022-0.633-1.48c-0.422-0.458-0.634-0.872-0.634-1.244   c0-0.396,0.145-0.73,0.438-1.008c0.079-0.078,0.119-0.173,0.119-0.284c0-0.261-0.13-0.391-0.391-0.391   c-0.102,0-0.193,0.035-0.272,0.107c-0.45,0.426-0.676,0.952-0.676,1.576c0,0.561,0.211,1.072,0.634,1.533   C835.899,50.678,836.11,51.075,836.11,51.407L836.11,51.407z M838.906,51.407L838.906,51.407c0,0.459-0.185,0.825-0.556,1.103   c-0.103,0.079-0.154,0.186-0.154,0.318c0,0.262,0.131,0.391,0.391,0.391c0.087,0,0.166-0.027,0.237-0.082   c0.577-0.434,0.865-1.011,0.865-1.73c0-0.528-0.211-1.023-0.634-1.48c-0.422-0.458-0.634-0.872-0.634-1.244   c0-0.396,0.147-0.73,0.439-1.008c0.079-0.078,0.118-0.173,0.118-0.284c0-0.261-0.13-0.391-0.391-0.391   c-0.103,0-0.194,0.035-0.273,0.107c-0.45,0.426-0.675,0.952-0.675,1.576c0,0.561,0.212,1.072,0.634,1.533   C838.695,50.678,838.906,51.075,838.906,51.407z"></path>
	<path class="st7" d="M846.009,286.925c0,1.148-0.929,2.075-2.079,2.075h-15.86c-1.15,0-2.078-0.927-2.078-2.075L846.009,286.925   L846.009,286.925z M841.684,282.094L841.684,282.094c0,0,0.213-0.003,0.367-0.003c1.193,0,2.16-0.965,2.16-2.159   c0-1.193-0.967-2.157-2.16-2.157h-0.367V282.094L841.684,282.094z M831.91,286.052L831.91,286.052c-0.98,0-1.771-0.795-1.771-1.775   v-7.922h11.904c1.975,0,3.582,1.604,3.582,3.577c0,1.975-1.599,3.575-3.575,3.575h-0.367c0,0.209-0.002,0.653-0.002,0.77   c0,0.98-0.795,1.775-1.775,1.775H831.91L831.91,286.052z M833.314,273.407L833.314,273.407c0,0.459-0.186,0.826-0.557,1.102   c-0.102,0.079-0.154,0.186-0.154,0.319c0,0.262,0.13,0.391,0.391,0.391c0.086,0,0.166-0.026,0.237-0.082   c0.576-0.434,0.865-1.011,0.865-1.73c0-0.528-0.212-1.022-0.634-1.48c-0.423-0.458-0.634-0.872-0.634-1.244   c0-0.396,0.146-0.73,0.439-1.008c0.079-0.078,0.118-0.173,0.118-0.285c0-0.261-0.131-0.391-0.391-0.391   c-0.103,0-0.194,0.035-0.273,0.107c-0.45,0.426-0.675,0.952-0.675,1.576c0,0.561,0.211,1.072,0.634,1.533   C833.102,272.678,833.314,273.075,833.314,273.407L833.314,273.407z M836.11,273.407L836.11,273.407   c0,0.459-0.186,0.826-0.558,1.102c-0.102,0.079-0.154,0.186-0.154,0.319c0,0.262,0.131,0.391,0.391,0.391   c0.088,0,0.165-0.026,0.237-0.082c0.578-0.434,0.864-1.011,0.864-1.73c0-0.528-0.211-1.022-0.633-1.48   c-0.422-0.458-0.634-0.872-0.634-1.244c0-0.396,0.145-0.73,0.438-1.008c0.079-0.078,0.118-0.173,0.118-0.285   c0-0.261-0.13-0.391-0.391-0.391c-0.102,0-0.193,0.035-0.272,0.107c-0.45,0.426-0.676,0.952-0.676,1.576   c0,0.561,0.211,1.072,0.634,1.533C835.899,272.678,836.11,273.075,836.11,273.407L836.11,273.407z M838.905,273.407   L838.905,273.407c0,0.459-0.185,0.826-0.556,1.102c-0.103,0.079-0.154,0.186-0.154,0.319c0,0.262,0.131,0.391,0.391,0.391   c0.087,0,0.166-0.026,0.237-0.082c0.577-0.434,0.865-1.011,0.865-1.73c0-0.528-0.211-1.022-0.634-1.48   c-0.422-0.458-0.634-0.872-0.634-1.244c0-0.396,0.147-0.73,0.439-1.008c0.079-0.078,0.118-0.173,0.118-0.285   c0-0.261-0.13-0.391-0.391-0.391c-0.103,0-0.194,0.035-0.273,0.107c-0.45,0.426-0.675,0.952-0.675,1.576   c0,0.561,0.212,1.072,0.634,1.533C838.695,272.678,838.905,273.075,838.905,273.407z"></path>
</g>
<g id="Window">
	<path class="st8" d="M2114,311.602c23.632-3.742,47.173-7.952,70.624-12.666c26.32-5.291,52.588-11.211,78.536-18.112   c19.549-5.199,39.396-10.977,58.319-18.154c28.326-10.745,62.834-25.294,80.993-50.717C2411.867,198.799,2416,184.098,2416,168   c0-16.098-4.133-30.798-13.528-43.952c-18.159-25.423-52.667-39.972-80.993-50.717c-18.922-7.178-38.77-12.956-58.319-18.155   c-25.948-6.901-52.215-12.821-78.536-18.112c-23.451-4.715-46.992-8.924-70.624-12.667"></path>
	<line class="st8" x1="518" y1="4" x2="380" y2="4"></line>
	<line class="st8" x1="714" y1="4" x2="576" y2="4"></line>
	<line class="st8" x1="910" y1="4" x2="772" y2="4"></line>
	<line class="st8" x1="1106" y1="4" x2="968" y2="4"></line>
	<line class="st8" x1="1488" y1="4" x2="1350" y2="4"></line>
	<line class="st8" x1="1804" y1="4" x2="1714" y2="4"></line>
	<line class="st8" x1="1655" y1="4" x2="1565" y2="4"></line>
	<line class="st8" x1="518" y1="332" x2="380" y2="332"></line>
	<line class="st8" x1="714" y1="332" x2="576" y2="332"></line>
	<line class="st8" x1="910" y1="332" x2="772" y2="332"></line>
	<line class="st8" x1="1106" y1="332" x2="968" y2="332"></line>
	<line class="st8" x1="1272" y1="332" x2="1156" y2="332"></line>
	<line class="st8" x1="1488" y1="332" x2="1350" y2="332"></line>
	<line class="st8" x1="1655" y1="332" x2="1565" y2="332"></line>
	<path class="st8" d="M1877.991,332c38.469-0.033,77.017-2.083,115.331-5.454c1.559-0.137,3.118-0.277,4.677-0.418"></path>
	<path class="st8" d="M1997.998,9.873c-1.558-0.142-3.118-0.281-4.676-0.418c-38.325-3.373-76.885-5.422-115.365-5.454"></path>
</g>
<g id="Icons">
	<path id="Exit" class="st7" d="M1615.232,292.861v19.712l8.729,5.427l0-29.692L1615.232,292.861L1615.232,292.861z    M1604.847,292.656L1604.847,292.656c1.282-0.031,2.302-1.097,2.271-2.381c-0.032-1.288-1.101-2.304-2.384-2.274   c-1.283,0.031-2.301,1.097-2.27,2.385C1602.496,291.67,1603.563,292.687,1604.847,292.656L1604.847,292.656z M1598.453,296.804   L1598.453,296.804l-2.235,5.53c-0.406,0.922-0.14,1.841,0.948,2.185l0.586,0.129l2.66-6.449h0.003   c0.237-0.496,0.614-0.908,1.068-1.232l-0.495,6.886l-0.007,0.003l-1.016,7.028l-3.026,4.293c0,0-0.374,0.587-0.004,1.303   c0.254,0.49,1.285,1.222,1.285,1.222l4.686-6.262l1.108-6.596c0.063-0.004,0.127-0.008,0.195-0.014l-0.01,0.009l3.272,11.575   c0,0,0.123,0.728,0.508,1.071c0.435,0.397,1.082,0.408,1.082,0.408l1.404-0.211l-3.576-14.272c0-1.499,0.009-4.972,0.009-6.506   c0-2.055-0.54-3.172-3.09-3.39C1603.205,293.468,1600.084,292.866,1598.453,296.804L1598.453,296.804z M1611.699,303.234   L1611.699,303.234l0.146-0.296l-3.995-2.758l-0.103,2.58l1.995,1.184C1610.579,304.328,1611.214,304.214,1611.699,303.234z"></path>
	<path id="Exit_1_" class="st7" d="M1615.232,22.861v19.712l8.729,5.427l0-29.692L1615.232,22.861L1615.232,22.861z    M1604.847,22.656L1604.847,22.656c1.282-0.031,2.302-1.097,2.271-2.381c-0.032-1.288-1.101-2.304-2.384-2.274   c-1.283,0.031-2.301,1.097-2.27,2.385C1602.496,21.67,1603.563,22.687,1604.847,22.656L1604.847,22.656z M1598.453,26.804   L1598.453,26.804l-2.235,5.53c-0.406,0.922-0.14,1.841,0.948,2.185l0.586,0.129l2.66-6.449h0.003   c0.237-0.496,0.614-0.908,1.068-1.232l-0.495,6.886l-0.007,0.003l-1.016,7.028l-3.026,4.293c0,0-0.374,0.587-0.004,1.303   c0.254,0.49,1.285,1.222,1.285,1.222l4.686-6.262l1.108-6.596c0.063-0.004,0.127-0.008,0.195-0.014l-0.01,0.009l3.272,11.575   c0,0,0.123,0.728,0.508,1.071c0.435,0.397,1.082,0.408,1.082,0.408l1.404-0.211l-3.576-14.272c0-1.499,0.009-4.972,0.009-6.506   c0-2.055-0.54-3.172-3.09-3.39C1603.205,23.468,1600.084,22.866,1598.453,26.804L1598.453,26.804z M1611.699,33.234   L1611.699,33.234l0.146-0.296l-3.995-2.758l-0.103,2.58l1.995,1.184C1610.579,34.328,1611.214,34.214,1611.699,33.234z"></path>
	<path id="Exit_2_" class="st7" d="M37.194,157.861l0,19.712l8.73,5.427l0-29.692L37.194,157.861L37.194,157.861z M26.809,157.656   L26.809,157.656c1.282-0.031,2.302-1.097,2.271-2.381c-0.032-1.288-1.101-2.304-2.384-2.274c-1.283,0.031-2.301,1.097-2.27,2.385   C24.457,156.67,25.524,157.687,26.809,157.656L26.809,157.656z M20.415,161.804L20.415,161.804l-2.235,5.53   c-0.406,0.922-0.14,1.841,0.948,2.185l0.586,0.129l2.66-6.449h0.003c0.237-0.496,0.614-0.908,1.068-1.232l-0.495,6.886   l-0.007,0.003l-1.016,7.028l-3.026,4.293c0,0-0.374,0.587-0.004,1.303c0.254,0.49,1.285,1.222,1.285,1.222l4.686-6.262l1.108-6.596   c0.063-0.004,0.127-0.008,0.195-0.014l-0.01,0.009l3.272,11.575c0,0,0.123,0.728,0.508,1.071c0.435,0.397,1.082,0.408,1.082,0.408   l1.404-0.211L28.85,168.41c0-1.499,0.009-4.972,0.009-6.506c0-2.055-0.54-3.172-3.09-3.39   C25.166,158.468,22.045,157.866,20.415,161.804L20.415,161.804z M33.661,168.234L33.661,168.234l0.147-0.296l-3.995-2.758   l-0.103,2.58l1.995,1.184C32.54,169.328,33.175,169.214,33.661,168.234z"></path>
	<path id="Hanger" class="st7" d="M1223.12,63.786c-0.045,0.281-0.276,0.572-0.586,0.572l-24.068,0   c-0.311,0-0.541-0.292-0.587-0.572c-0.089-0.56,0.562-0.861,0.958-0.992c2.794-0.92,9.923-3.393,11.664-3.996   c1.741,0.603,8.868,3.076,11.663,3.996C1222.559,62.925,1223.21,63.226,1223.12,63.786L1223.12,63.786z M1222.905,60.54   L1222.905,60.54c-2.624-0.863-9.106-3.109-11.283-3.865v-1.681c0-0.139,0.198-0.575,0.813-1.041   c1.983-1.507,1.758-3.556,1.359-4.426c-0.614-1.362-1.954-2.228-3.494-2.256c-1.03-0.021-1.992,0.366-2.728,1.086   c-0.746,0.729-1.17,1.747-1.17,2.788c0,0.147,0.008,0.299,0.028,0.464c0.079,0.65,0.667,1.116,1.32,1.038   c0.651-0.078,1.115-0.668,1.037-1.318c-0.008-0.072-0.012-0.134-0.012-0.184c0-0.408,0.167-0.806,0.459-1.091   c0.277-0.273,0.631-0.418,1.018-0.411c0.299,0.006,1.027,0.1,1.375,0.847c0.058,0.163,0.262,0.897-0.628,1.573   c-1.113,0.844-1.752,1.914-1.752,2.93v1.727c-2.296,0.795-8.58,2.973-11.152,3.82c-2.201,0.723-2.755,2.402-2.56,3.621   c0.236,1.464,1.495,2.569,2.929,2.569l24.068,0c1.436,0,2.696-1.105,2.93-2.569C1225.657,62.942,1225.106,61.264,1222.905,60.54z"></path>
	<path id="Baggage" class="st7" d="M309.634,48.376c-0.687,0.683-0.941,1.477-1.036,2.248c-0.054,0.447-0.054,0.888-0.054,1.298   l0,15.438c0,0.403,0,0.844,0.054,1.297c0.095,0.765,0.349,1.56,1.036,2.244C310.719,72,312.085,72,313.179,72h0.64V47.282h-0.64   C312.085,47.282,310.719,47.282,309.634,48.376L309.634,48.376z M338.403,50.624L338.403,50.624   c-0.095-0.77-0.347-1.565-1.033-2.248c-1.088-1.094-2.454-1.094-3.545-1.094h-0.64V72h0.64c1.09,0,2.456,0,3.545-1.099   c0.687-0.684,0.938-1.478,1.033-2.244c0.053-0.453,0.053-0.894,0.053-1.297V51.922C338.456,51.512,338.456,51.071,338.403,50.624   L338.403,50.624z M327.907,44.113L327.907,44.113c0-1.164-0.95-2.114-2.117-2.114l-4.585,0c-1.158,0-2.109,0.949-2.109,2.114v3.168   h-3.517l0,24.711l15.835,0V47.282l-3.508,0V44.113L327.907,44.113z M326.034,47.285L326.034,47.285h-5.069v-3.359l5.069,0V47.285z"></path>
	<path id="Сhild" class="st7" d="M1731.081,281.919h8.85l-3.075,3.525l-2.7,0L1731.081,281.919z M1743.702,286.706   c0.344-0.77,0.159-1.643-0.399-2.211l-1.96-1.983l-2.574,3.07l0.733,0.742l-1.601,3.564c-0.448,1.005,0.003,2.184,1.008,2.633   c1.005,0.448,2.184-0.003,2.633-1.008L1743.702,286.706z M1731.611,286.284l0.7-0.707l-2.574-3.069l-1.851,1.869   c-0.623,0.566-0.843,1.49-0.478,2.299l2.152,4.781c0.453,1.005,1.636,1.453,2.641,1c1.005-0.453,1.453-1.636,1-2.641   L1731.611,286.284z M1731.482,274.132l-3.664,1.157l0.001,0.005c-0.31,0.098-0.582,0.316-0.739,0.63l-1.685,3.352   c-0.307,0.615-0.058,1.363,0.557,1.67c0.615,0.307,1.363,0.058,1.67-0.557l1.445-2.874l1.361-0.43v3.445h10.141v-3.45l1.377,0.435   l1.432,2.852c0.307,0.615,1.055,0.864,1.67,0.556c0.615-0.307,0.864-1.055,0.557-1.67l-1.672-3.329   c-0.157-0.314-0.429-0.532-0.739-0.63l0.001-0.005l-3.699-1.168l-1.177-0.697c-1.903,1.6-3.784,1.6-5.642,0L1731.482,274.132z    M1735.45,273.106c2.148,0,3.9-1.752,3.9-3.9s-1.752-3.9-3.9-3.9s-3.9,1.752-3.9,3.9S1733.302,273.106,1735.45,273.106z"></path>
	<path id="Children12months" class="st7" d="M1849.317,196.1c1.547,0,2.8-1.254,2.8-2.8s-1.254-2.8-2.8-2.8s-2.8,1.254-2.8,2.8   S1847.77,196.1,1849.317,196.1z M1849.737,207.255c0.505-0.727-0.317-1.449-0.317-1.449s-2.382-1.362-2.626-1.505   s-1.08-0.856-1.676-0.129c-0.418,0.525-0.315,1.081,0.17,1.498c0,0,1.84,0.983,1.925,1.096c0.084,0.113,0.057,0.31-0.027,0.414   c-0.085,0.104-1.07,1.569-1.07,1.569c-0.05,0.068-0.12,0.183-0.157,0.258c-1.014,2.086,0.534,2.813,1.039,2.983   c0.083,0.028,0.219,0.044,0.306,0.044c0.571,0,2.628,0,4.549,0c2.264,0,2.206-1.363,2.206-1.363v-4.191c0,0,0-0.024,0-0.099   s-0.066-0.938-0.977-0.938c-0.637,0-0.815,0.588-0.815,0.81c-0.012,0.083-0.004,0.214-0.004,0.298v1.665   c0,0.083-0.07,0.151-0.157,0.151c0,0-2.517-0.058-2.61-0.077c-0.093-0.019-0.149-0.245-0.074-0.414   C1849.495,207.707,1849.58,207.482,1849.737,207.255z M1856.812,212.222c1.166,0,2.112-0.946,2.112-2.112   c0-1.166-0.946-2.112-2.112-2.112c-1.166,0-2.112,0.946-2.112,2.112C1854.7,211.277,1855.646,212.222,1856.812,212.222z    M1859.301,213.316c0-0.436-0.388-0.792-0.863-0.792l-12.982,0c-0.475,0-0.863,0.356-0.863,0.792c0,0.436,0.388,0.792,0.863,0.792   h12.982C1858.913,214.104,1859.301,213.752,1859.301,213.316z M1831.318,209.62c0.547,0,3.997,0,3.997,0l0.075,9.202   c0,0.993,0.594,1.678,1.584,1.678c0.993,0,1.49-0.689,1.49-1.678l0.038-9.202c0,0,3.338,0,4.035,0c0.698,0,0.603-0.693,0.509-1.037   l-2.215-6.788c-0.038-0.434-0.075-0.49,0.189-0.811c0,0,3.126-1.659,3.516-1.339c0.39,0.32,0.261,2.112,0.603,2.564   c0.342,0.453,4.638,2.753,4.638,2.753c0.207,0.16,0.757,0.226,0.999,0.226c0.344,0,0.584-0.197,0.811-0.49   c0.383-0.501,0.123-1.216-0.377-1.603c0,0-4.178-2.295-4.303-2.494c-0.125-0.199,0.087-1.65,0.125-2.592   c0.038-0.943,0.019-1.904-0.094-2.036c-0.113-0.132-0.134-0.315-0.17-0.358c0,0-0.059-0.127-0.14-0.264s0.111,0.191,0.104,0.184   c0,0-0.138-0.321-0.566-0.735c-0.428-0.415-1.531-1.071-2.696-0.792c-1.165,0.279-7.973,3.549-8.638,4.021   c-0.665,0.473-1.207,1.113-1.489,1.871c-0.282,0.759-2.347,8.231-2.48,8.684C1830.733,209.036,1830.772,209.62,1831.318,209.62z"></path>
	<path id="Children" class="st7" d="M1840.142,119.908c1.217,0,2.204-0.987,2.204-2.204c0-1.217-0.987-2.204-2.204-2.204   c-1.217,0-2.204,0.987-2.204,2.204C1837.938,118.921,1838.924,119.908,1840.142,119.908z M1850.802,131.388   c1.057-0.003,1.911-0.862,1.908-1.919c-0.003-1.057-0.862-1.911-1.919-1.908c-1.057,0.003-1.911,0.862-1.908,1.919   S1849.745,131.39,1850.802,131.388z M1849.193,145.5c0.796,0,1.512-0.683,1.524-1.408v-3.658c0-0.067,0.055-0.122,0.123-0.122   h0.181c0.067,0,0.122,0.055,0.122,0.122v3.677c0.012,0.725,0.591,1.39,1.387,1.39c0.753,0,1.368-0.631,1.445-1.313   c0.006-0.067,0.012-8.7,0.012-8.7s0.027-0.168,0.058-0.227c0,0,2.633-4.711,2.663-4.769c0.202-0.355,0.208-0.805-0.015-1.179   c-0.334-0.554-1.05-0.735-1.607-0.404c-0.202,0.122-0.355,0.309-0.453,0.508l-1.466,2.642c-0.067,0.116-0.144,0.162-0.288,0.162   h-4.074c-0.067,0-0.147-0.046-0.181-0.104c0,0-1.54-2.697-1.573-2.755c-0.003-0.006-0.006-0.012-0.009-0.018   c-0.331-1.081-1.772-5.777-1.772-5.777c-0.263-0.912-0.765-2.991-2.703-2.991h-4.843c-1.806,0-2.446,2.079-2.709,2.991   c-0.006,0.018-1.72,5.62-1.72,5.623c-0.187,0.606,0.156,1.249,0.762,1.436c0.606,0.187,1.249-0.156,1.436-0.762l1.717-5.599   c0.009-0.025,0.061-0.122,0.181-0.122c0.012,0,0.242,0,0.242,0c0.067,0,0.107,0.058,0.089,0.122l-3.438,11.25   c-0.018,0.064,0,0.181,0.119,0.181h2.412c0.067,0,0.119,0.055,0.119,0.122v8.198c0,0.817,0.664,1.482,1.482,1.482   s1.482-0.664,1.482-1.482v-8.198c0-0.067,0.055-0.122,0.122-0.122h0.003h0.236h0.003c0.067,0,0.122,0.055,0.122,0.122v8.198   c0,0.817,0.664,1.482,1.482,1.482s1.482-0.664,1.482-1.482c0-0.003,0-8.198,0-8.198c0-0.067,0.049-0.122,0.12-0.122h2.412   c0.119,0,0.138-0.113,0.119-0.181l-3.438-11.25c-0.018-0.064,0.021-0.122,0.089-0.122c0,0,0.23,0,0.242,0   c0.119,0,0.171,0.098,0.181,0.122c0,0,1.61,5.235,1.815,5.902c0.034,0.144,0.092,0.279,0.172,0.401l2.63,4.552   c0.034,0.058,0.061,0.159,0.061,0.227v8.743C1847.764,144.814,1848.397,145.5,1849.193,145.5z"></path>
	<path id="Plugs" class="st7" d="M335.001,230.499c-1.38,0-2.5,1.12-2.5,2.5v16c0,1.38,1.12,2.5,2.5,2.5l16,0   c1.38,0,2.5-1.12,2.5-2.5v-16c0-1.38-1.12-2.5-2.5-2.5L335.001,230.499z M333.501,232.999c0-0.828,0.672-1.5,1.5-1.5l16,0   c0.828,0,1.5,0.672,1.5,1.5v16c0,0.828-0.672,1.5-1.5,1.5l-16,0c-0.828,0-1.5-0.672-1.5-1.5V232.999z M346.521,235.887   c0.841,0.578,1.528,1.355,2,2.262v5.7c-0.472,0.906-1.159,1.683-2,2.262c-0.843,0.58-1.815,0.942-2.83,1.058v-1.34h-1.38v1.34   c-1.015-0.116-1.987-0.479-2.829-1.058c-0.842-0.579-1.53-1.355-2.001-2.262v-5.7c0.472-0.907,1.159-1.684,2.001-2.262   c0.842-0.58,1.814-0.943,2.829-1.058v1.34h1.38v-1.34C344.706,234.944,345.678,235.308,346.521,235.887z M338.783,247.309   c1.248,0.834,2.716,1.279,4.217,1.279c0.997,0,1.984-0.196,2.905-0.578c0.92-0.381,1.757-0.94,2.462-1.645   c0.705-0.705,1.264-1.542,1.645-2.463c0.382-0.92,0.578-1.907,0.578-2.904c0-1.501-0.445-2.969-1.28-4.217   c-0.833-1.248-2.018-2.22-3.405-2.795c-1.387-0.575-2.913-0.725-4.386-0.432c-1.472,0.293-2.824,1.016-3.886,2.077   c-1.061,1.062-1.784,2.414-2.077,3.886c-0.293,1.473-0.143,2.999,0.432,4.385C336.562,245.289,337.535,246.475,338.783,247.309z    M339.473,242.145c0.227,0.152,0.494,0.233,0.767,0.233c0.366,0,0.717-0.145,0.976-0.404c0.259-0.26,0.404-0.61,0.404-0.976   c0-0.273-0.08-0.54-0.232-0.767c-0.152-0.227-0.368-0.404-0.62-0.508c-0.252-0.104-0.53-0.132-0.797-0.079   c-0.268,0.054-0.514,0.185-0.707,0.378c-0.193,0.193-0.324,0.439-0.377,0.707c-0.054,0.267-0.026,0.545,0.078,0.797   C339.069,241.778,339.246,241.994,339.473,242.145L339.473,242.145z M344.993,242.145c0.227,0.152,0.494,0.233,0.767,0.233   c0.366,0,0.717-0.145,0.976-0.404c0.259-0.26,0.404-0.61,0.404-0.976c0-0.273-0.08-0.54-0.233-0.767   c-0.151-0.227-0.367-0.404-0.619-0.508c-0.252-0.104-0.53-0.132-0.797-0.079c-0.268,0.054-0.514,0.185-0.707,0.378   c-0.193,0.193-0.324,0.439-0.377,0.707c-0.054,0.267-0.026,0.545,0.078,0.797C344.59,241.778,344.766,241.994,344.993,242.145   L344.993,242.145z"></path>
	<path id="RoomService" class="st7" d="M194.149,278.454c0.06-0.48,0.105-0.96,0.105-1.455c0-0.495-0.045-0.99-0.105-1.5   l3.165-2.445c0.285-0.225,0.36-0.63,0.18-0.96l-3-5.19c-0.18-0.33-0.585-0.465-0.915-0.33l-3.735,1.5   c-0.78-0.585-1.59-1.095-2.535-1.47l-0.555-3.975c-0.06-0.36-0.375-0.63-0.75-0.63h-6c-0.375,0-0.69,0.27-0.75,0.63l-0.555,3.975   c-0.945,0.375-1.755,0.885-2.535,1.47l-3.735-1.5c-0.33-0.135-0.735,0-0.915,0.33l-3,5.19c-0.195,0.33-0.105,0.735,0.18,0.96   l3.165,2.445c-0.06,0.51-0.105,1.005-0.105,1.5c0,0.495,0.045,0.975,0.105,1.455l-3.165,2.49c-0.285,0.225-0.375,0.63-0.18,0.96   l3,5.19c0.18,0.33,0.585,0.45,0.915,0.33l3.735-1.515c0.78,0.6,1.59,1.11,2.535,1.485l0.555,3.975c0.06,0.36,0.375,0.63,0.75,0.63   h6c0.375,0,0.69-0.27,0.75-0.63l0.555-3.975c0.945-0.39,1.755-0.885,2.535-1.485l3.735,1.515c0.33,0.12,0.735,0,0.915-0.33l3-5.19   c0.18-0.33,0.105-0.735-0.18-0.96L194.149,278.454z M183.004,282.249c-2.899,0-5.25-2.351-5.25-5.25s2.351-5.25,5.25-5.25   s5.25,2.351,5.25,5.25S185.903,282.249,183.004,282.249z"></path>
	<path id="RoomService_1_" class="st7" d="M149.149,60.455c0.06-0.48,0.105-0.96,0.105-1.455c0-0.495-0.045-0.99-0.105-1.5   l3.165-2.445c0.285-0.225,0.36-0.63,0.18-0.96l-3-5.19c-0.18-0.33-0.585-0.465-0.915-0.33l-3.735,1.5   c-0.78-0.585-1.59-1.095-2.535-1.47l-0.555-3.975c-0.06-0.36-0.375-0.63-0.75-0.63l-6,0c-0.375,0-0.69,0.27-0.75,0.63l-0.555,3.975   c-0.945,0.375-1.755,0.885-2.535,1.47l-3.735-1.5c-0.33-0.135-0.735,0-0.915,0.33l-3,5.19c-0.195,0.33-0.105,0.735,0.18,0.96   l3.165,2.445c-0.06,0.51-0.105,1.005-0.105,1.5c0,0.495,0.045,0.975,0.105,1.455l-3.165,2.49c-0.285,0.225-0.375,0.63-0.18,0.96   l3,5.19c0.18,0.33,0.585,0.45,0.915,0.33l3.735-1.515c0.78,0.6,1.59,1.11,2.535,1.485l0.555,3.975c0.06,0.36,0.375,0.63,0.75,0.63   h6c0.375,0,0.69-0.27,0.75-0.63l0.555-3.975c0.945-0.39,1.755-0.885,2.535-1.485l3.735,1.515c0.33,0.12,0.735,0,0.915-0.33l3-5.19   c0.18-0.33,0.105-0.735-0.18-0.96L149.149,60.455z M138.004,64.25c-2.899,0-5.25-2.351-5.25-5.25s2.351-5.25,5.25-5.25   c2.899,0,5.25,2.351,5.25,5.25S140.903,64.25,138.004,64.25z"></path>
</g>
<g id="Turn">
	<g>
		<g>
			<path class="st9" d="M1869.093,290.96c3.333-19.021,19.932-33.476,39.907-33.476c19.975,0,36.574,14.455,39.907,33.475"></path>
			<g>
				<polygon class="st10" points="1868.484,298 1873.507,288.499 1869.229,290.449 1865.417,287.7     "></polygon>
			</g>
			<g>
				<polygon class="st10" points="1949.516,298 1944.493,288.499 1948.771,290.449 1952.583,287.7     "></polygon>
			</g>
		</g>
	</g>
</g>
</svg>