<svg xmlns="http://www.w3.org/2000/svg" xmlns:xlink="http://www.w3.org/1999/xlink" version="1.1" x="0px" y="0px" width="2420px" height="336px" viewBox="0 0 2420 336" style="enable-background:new 0 0 2420 336;" xml:space="preserve">
<style type="text/css">
	.st0{fill-rule:evenodd;clip-rule:evenodd;fill:#FFFFFF;}
	.st1{fill-rule:evenodd;clip-rule:evenodd;fill:#A9AEBA;}
	.st2{fill-rule:evenodd;clip-rule:evenodd;fill:#E2E4E7;stroke:#D2D7DB;stroke-miterlimit:22.9256;}
	.st3{fill:#FFFFFF;}
	.st4{font-family:'Roboto','Helvetica Neue',sans-serif;}
	.st5{font-size:20px;}
	.st6{fill-rule:evenodd;clip-rule:evenodd;fill:#E6E6E6;}
	.st7{fill-rule:evenodd;clip-rule:evenodd;fill:#868D98;}
	.st8{fill-rule:evenodd;clip-rule:evenodd;fill:none;stroke:#BBDDFF;stroke-width:6;stroke-miterlimit:22.9256;}
	.st53{fill-rule:evenodd;clip-rule:evenodd;fill:#ECFCF1;}
</style>
<g id="Fon">
	<path class="st0" d="M9.301,326.753C10.106,327.546,11.165,328,12.3,328H2407.7c1.143,0,2.21-0.459,3.017-1.265l0.017-0.016   c0.806-0.806,1.266-1.872,1.266-3.014V12.296c0-1.143-0.46-2.208-1.266-3.014l-0.017-0.016c-0.806-0.806-1.874-1.265-3.017-1.265   H12.3c-1.145,0-2.213,0.462-2.968,1.216L9.316,9.233C8.503,10.059,8,11.128,8,12.296v311.408   C8,324.866,8.497,325.928,9.301,326.753z"></path>
</g>
<g id="Color_zona">
	<rect x="402" y="8" class="st53" width="113" height="116"></rect>
	<rect x="1894" y="8" class="st53" width="220" height="320"></rect>
</g>
<g id="Railway_carriage">
	<path class="st1" d="M2416.391,3.625l-0.017-0.016c-2.228-2.225-5.298-3.608-8.673-3.608L12.3,0C8.924,0,5.853,1.384,3.626,3.608   L3.61,3.625C1.384,5.852,0,8.921,0,12.296l0,311.408c0,3.375,1.384,6.444,3.61,8.671l0.016,0.016   C5.853,334.616,8.924,336,12.299,336H2407.7c3.376,0,6.446-1.384,8.674-3.609l0.017-0.016c2.225-2.227,3.609-5.297,3.609-8.671   V12.296C2420,8.921,2418.616,5.852,2416.391,3.625z M2412,323.704c0,1.143-0.46,2.208-1.266,3.014l-0.016,0.016   c-0.806,0.806-1.874,1.265-3.017,1.265H12.299c-1.135,0-2.193-0.454-2.999-1.247C8.497,325.928,8,324.865,8,323.704V12.296   c0-1.169,0.503-2.237,1.316-3.064l0.016-0.016C10.087,8.462,11.155,8,12.3,8l2395.401,0c1.143,0,2.21,0.459,3.017,1.265   l0.016,0.016c0.806,0.806,1.266,1.872,1.266,3.014V323.704z"></path>
</g>
<g id="Compartment">
	<path class="st1" d="M2264,208h6v120h-6V208z M2264,8v114h-152V8h-6v112v8v0h164v0v-8V8H2264z M396,8.001v110H156v-110h-6v108v8h8   h236h8v-8v-108H396z M372.494,218.825l-1.976,5.637c8.057,3.968,17.425,9.49,25.482,14.537v89h6v-82.92l0.007-9.52   C392.205,229.216,382.368,223.643,372.494,218.825z M186.927,216.188c-12.253,5.381-24.558,11.837-36.913,19.371H150V328h6v-88.666   c10.54-6.239,22.506-12.526,33.021-17.174L186.927,216.188z M283.173,196l-6,0.01c0,0-22.139,1.02-32.768,2.772l1.898,5.414   c9.699-1.529,21.183-2.082,30.87-2.169V328h6V202.118c9.606,0.313,20.937,1.265,30.534,3.036l1.949-5.559   C305.201,197.601,283.173,196,283.173,196z"></path>
</g>
<g id="Seats">
	<path id="Seat1" class="st2 seat" d="M2092.867,319.773h-0.004h-29.712c-5.583,0-10.151-3.952-10.151-8.781v-25.984   c0-4.829,4.568-8.781,10.151-8.781h29.712c0.953,2.551,1.739,5.102,2.357,7.652c2.282,9.418,2.282,18.835,0,28.253   C2094.603,314.679,2093.818,317.226,2092.867,319.773z M2066.484,321.237v0.3c0,0.805,0.67,1.464,1.488,1.464h29.899   c0.491,0,0.893-0.395,0.893-0.878v-2.349h-5.896h-0.004h-24.891C2067.154,319.773,2066.484,320.432,2066.484,321.237z    M2066.484,274.464v0.3c0,0.805,0.67,1.464,1.488,1.464h24.891h5.9v-2.349c0-0.483-0.402-0.878-0.893-0.878h-29.899   C2067.154,273,2066.484,273.659,2066.484,274.464z M2095.22,283.879c2.282,9.418,2.282,18.835,0,28.253   c-0.617,2.547-1.402,5.094-2.353,7.641h-0.004v0.011h6.88c0.691,0,1.257-0.556,1.257-1.236v-41.086c0-0.68-0.565-1.236-1.257-1.236   h-6.88C2093.816,278.778,2094.602,281.329,2095.22,283.879z"></path>
	<path id="Seat2" class="st2 seat" d="M2092.867,269.773h-0.004h-29.712c-5.583,0-10.151-3.952-10.151-8.781v-25.984   c0-4.829,4.568-8.781,10.151-8.781h29.712c0.953,2.551,1.739,5.102,2.357,7.652c2.282,9.418,2.282,18.835,0,28.253   C2094.603,264.679,2093.818,267.226,2092.867,269.773z M2066.484,271.237v0.3c0,0.805,0.67,1.464,1.488,1.464h29.899   c0.491,0,0.893-0.395,0.893-0.878v-2.349h-5.896h-0.004h-24.891C2067.154,269.773,2066.484,270.432,2066.484,271.237z    M2066.484,224.464v0.3c0,0.805,0.67,1.464,1.488,1.464h24.891h5.9v-2.349c0-0.483-0.402-0.878-0.893-0.878h-29.899   C2067.154,223,2066.484,223.659,2066.484,224.464z M2095.22,233.879c2.282,9.418,2.282,18.835,0,28.253   c-0.617,2.547-1.402,5.094-2.353,7.641h-0.004v0.011h6.88c0.691,0,1.257-0.556,1.257-1.236v-41.086c0-0.68-0.565-1.236-1.257-1.236   h-6.88C2093.816,228.778,2094.602,231.329,2095.22,233.879z"></path>
	<path id="Seat3" class="st2 seat" d="M2092.867,59.773h-0.004h-29.712c-5.583,0-10.151-3.952-10.151-8.781V25.008   c0-4.829,4.568-8.781,10.151-8.781h29.712c0.953,2.551,1.739,5.102,2.357,7.652c2.282,9.418,2.282,18.835,0,28.253   C2094.603,54.679,2093.818,57.226,2092.867,59.773z M2066.484,61.237v0.3c0,0.805,0.67,1.463,1.488,1.463h29.899   c0.491,0,0.893-0.395,0.893-0.878v-2.349h-5.896h-0.004h-24.891C2067.154,59.773,2066.484,60.432,2066.484,61.237z    M2066.484,14.463v0.3c0,0.805,0.67,1.463,1.488,1.463h24.891h5.9v-2.349c0-0.483-0.402-0.878-0.893-0.878h-29.899   C2067.154,13,2066.484,13.659,2066.484,14.463z M2095.22,23.879c2.282,9.418,2.282,18.835,0,28.253   c-0.617,2.547-1.402,5.094-2.353,7.641h-0.004v0.011h6.88c0.691,0,1.257-0.556,1.257-1.236V17.463c0-0.68-0.565-1.236-1.257-1.236   h-6.88C2093.816,18.778,2094.602,21.329,2095.22,23.879z"></path>
	<path id="Seat4" class="st2 seat" d="M2092.867,109.773h-0.004h-29.712c-5.583,0-10.151-3.952-10.151-8.781V75.008   c0-4.829,4.568-8.781,10.151-8.781h29.712c0.953,2.551,1.739,5.102,2.357,7.652c2.282,9.418,2.282,18.835,0,28.253   C2094.603,104.679,2093.818,107.226,2092.867,109.773z M2066.484,111.237v0.3c0,0.805,0.67,1.464,1.488,1.464h29.899   c0.491,0,0.893-0.395,0.893-0.878v-2.349h-5.896h-0.004h-24.891C2067.154,109.773,2066.484,110.432,2066.484,111.237z    M2066.484,64.463v0.3c0,0.805,0.67,1.464,1.488,1.464h24.891h5.9v-2.349c0-0.483-0.402-0.878-0.893-0.878h-29.899   C2067.154,63,2066.484,63.659,2066.484,64.463z M2095.22,73.879c2.282,9.418,2.282,18.835,0,28.253   c-0.617,2.547-1.402,5.094-2.353,7.641h-0.004v0.011h6.88c0.691,0,1.257-0.556,1.257-1.236V67.463c0-0.68-0.565-1.236-1.257-1.236   h-6.88C2093.816,68.778,2094.602,71.329,2095.22,73.879z"></path>
	<path id="Seat5" class="st2 seat with-pet" d="M1986.366,319.773h-0.004h-29.712c-5.583,0-10.151-3.952-10.151-8.781v-25.984   c0-4.829,4.568-8.781,10.151-8.781h29.712c0.953,2.551,1.739,5.102,2.357,7.652c2.282,9.418,2.282,18.835,0,28.253   C1988.102,314.679,1987.318,317.226,1986.366,319.773z M1959.983,321.237v0.3c0,0.805,0.67,1.464,1.488,1.464h29.899   c0.491,0,0.893-0.395,0.893-0.878v-2.349h-5.896h-0.004h-24.891C1960.653,319.773,1959.983,320.432,1959.983,321.237z    M1959.983,274.464v0.3c0,0.805,0.67,1.464,1.488,1.464h24.891h5.9v-2.349c0-0.483-0.401-0.878-0.893-0.878h-29.899   C1960.653,273,1959.983,273.659,1959.983,274.464z M1988.719,283.879c2.282,9.418,2.282,18.835,0,28.253   c-0.617,2.547-1.401,5.094-2.353,7.641h-0.004v0.011h6.88c0.691,0,1.257-0.556,1.257-1.236v-41.086c0-0.68-0.566-1.236-1.257-1.236   h-6.88C1987.315,278.778,1988.101,281.329,1988.719,283.879z"></path>
	<path id="Seat6" class="st2 seat" d="M1986.366,269.773h-0.004h-29.712c-5.583,0-10.151-3.952-10.151-8.781v-25.984   c0-4.829,4.568-8.781,10.151-8.781h29.712c0.953,2.551,1.739,5.102,2.357,7.652c2.282,9.418,2.282,18.835,0,28.253   C1988.102,264.679,1987.318,267.226,1986.366,269.773z M1959.983,271.237v0.3c0,0.805,0.67,1.464,1.488,1.464h29.899   c0.491,0,0.893-0.395,0.893-0.878v-2.349h-5.896h-0.004h-24.891C1960.653,269.773,1959.983,270.432,1959.983,271.237z    M1959.983,224.464v0.3c0,0.805,0.67,1.464,1.488,1.464h24.891h5.9v-2.349c0-0.483-0.401-0.878-0.893-0.878h-29.899   C1960.653,223,1959.983,223.659,1959.983,224.464z M1988.719,233.879c2.282,9.418,2.282,18.835,0,28.253   c-0.617,2.547-1.401,5.094-2.353,7.641h-0.004v0.011h6.88c0.691,0,1.257-0.556,1.257-1.236v-41.086c0-0.68-0.566-1.236-1.257-1.236   h-6.88C1987.315,228.778,1988.101,231.329,1988.719,233.879z"></path>
	<path id="Seat7" class="st2 seat" d="M1986.366,59.773h-0.004h-29.712c-5.583,0-10.151-3.952-10.151-8.781V25.008   c0-4.829,4.568-8.781,10.151-8.781h29.712c0.953,2.551,1.739,5.102,2.357,7.652c2.282,9.418,2.282,18.835,0,28.253   C1988.102,54.679,1987.318,57.226,1986.366,59.773z M1959.983,61.237v0.3c0,0.805,0.67,1.463,1.488,1.463h29.899   c0.491,0,0.893-0.395,0.893-0.878v-2.349h-5.896h-0.004h-24.891C1960.653,59.773,1959.983,60.432,1959.983,61.237z    M1959.983,14.463v0.3c0,0.805,0.67,1.463,1.488,1.463h24.891h5.9v-2.349c0-0.483-0.401-0.878-0.893-0.878h-29.899   C1960.653,13,1959.983,13.659,1959.983,14.463z M1988.719,23.879c2.282,9.418,2.282,18.835,0,28.253   c-0.617,2.547-1.401,5.094-2.353,7.641h-0.004v0.011h6.88c0.691,0,1.257-0.556,1.257-1.236V17.463c0-0.68-0.566-1.236-1.257-1.236   h-6.88C1987.315,18.778,1988.101,21.329,1988.719,23.879z"></path>
	<path id="Seat8" class="st2 seat with-pet" d="M1986.366,109.773h-0.004h-29.712c-5.583,0-10.151-3.952-10.151-8.781V75.008   c0-4.829,4.568-8.781,10.151-8.781h29.712c0.953,2.551,1.739,5.102,2.357,7.652c2.282,9.418,2.282,18.835,0,28.253   C1988.102,104.679,1987.318,107.226,1986.366,109.773z M1959.983,111.237v0.3c0,0.805,0.67,1.464,1.488,1.464h29.899   c0.491,0,0.893-0.395,0.893-0.878v-2.349h-5.896h-0.004h-24.891C1960.653,109.773,1959.983,110.432,1959.983,111.237z    M1959.983,64.463v0.3c0,0.805,0.67,1.464,1.488,1.464h24.891h5.9v-2.349c0-0.483-0.401-0.878-0.893-0.878h-29.899   C1960.653,63,1959.983,63.659,1959.983,64.463z M1988.719,73.879c2.282,9.418,2.282,18.835,0,28.253   c-0.617,2.547-1.401,5.094-2.353,7.641h-0.004v0.011h6.88c0.691,0,1.257-0.556,1.257-1.236V67.463c0-0.68-0.566-1.236-1.257-1.236   h-6.88C1987.315,68.778,1988.101,71.329,1988.719,73.879z"></path>
	<path id="Seat9" class="st2 seat" d="M1879.867,319.773h-0.004h-29.712c-5.583,0-10.151-3.952-10.151-8.781v-25.984   c0-4.829,4.568-8.781,10.151-8.781h29.712c0.953,2.551,1.739,5.102,2.357,7.652c2.282,9.418,2.282,18.835,0,28.253   C1881.602,314.679,1880.818,317.226,1879.867,319.773z M1853.483,321.237v0.3c0,0.805,0.67,1.464,1.488,1.464h29.899   c0.491,0,0.893-0.395,0.893-0.878v-2.349h-5.896h-0.004h-24.891C1854.153,319.773,1853.483,320.432,1853.483,321.237z    M1853.483,274.464v0.3c0,0.805,0.67,1.464,1.488,1.464h24.891h5.9v-2.349c0-0.483-0.401-0.878-0.893-0.878h-29.899   C1854.153,273,1853.483,273.659,1853.483,274.464z M1882.219,283.879c2.282,9.418,2.282,18.835,0,28.253   c-0.617,2.547-1.402,5.094-2.353,7.641h-0.004v0.011h6.88c0.691,0,1.257-0.556,1.257-1.236v-41.086c0-0.68-0.566-1.236-1.257-1.236   h-6.88C1880.815,278.778,1881.601,281.329,1882.219,283.879z"></path>
	<path id="Seat10" class="st2 seat" d="M1879.867,269.773h-0.004h-29.712c-5.583,0-10.151-3.952-10.151-8.781v-25.984   c0-4.829,4.568-8.781,10.151-8.781h29.712c0.953,2.551,1.739,5.102,2.357,7.652c2.282,9.418,2.282,18.835,0,28.253   C1881.602,264.679,1880.818,267.226,1879.867,269.773z M1853.483,271.237v0.3c0,0.805,0.67,1.464,1.488,1.464h29.899   c0.491,0,0.893-0.395,0.893-0.878v-2.349h-5.896h-0.004h-24.891C1854.153,269.773,1853.483,270.432,1853.483,271.237z    M1853.483,224.464v0.3c0,0.805,0.67,1.464,1.488,1.464h24.891h5.9v-2.349c0-0.483-0.401-0.878-0.893-0.878h-29.899   C1854.153,223,1853.483,223.659,1853.483,224.464z M1882.219,233.879c2.282,9.418,2.282,18.835,0,28.253   c-0.617,2.547-1.402,5.094-2.353,7.641h-0.004v0.011h6.88c0.691,0,1.257-0.556,1.257-1.236v-41.086c0-0.68-0.566-1.236-1.257-1.236   h-6.88C1880.815,228.778,1881.601,231.329,1882.219,233.879z"></path>
	<path id="Seat11" class="st2 seat" d="M1879.867,59.773h-0.004h-29.712c-5.583,0-10.151-3.952-10.151-8.781V25.008   c0-4.829,4.568-8.781,10.151-8.781h29.712c0.953,2.551,1.739,5.102,2.357,7.652c2.282,9.418,2.282,18.835,0,28.253   C1881.602,54.679,1880.818,57.226,1879.867,59.773z M1853.483,61.237v0.3c0,0.805,0.67,1.463,1.488,1.463h29.899   c0.491,0,0.893-0.395,0.893-0.878v-2.349h-5.896h-0.004h-24.891C1854.153,59.773,1853.483,60.432,1853.483,61.237z    M1853.483,14.463v0.3c0,0.805,0.67,1.463,1.488,1.463h24.891h5.9v-2.349c0-0.483-0.401-0.878-0.893-0.878h-29.899   C1854.153,13,1853.483,13.659,1853.483,14.463z M1882.219,23.879c2.282,9.418,2.282,18.835,0,28.253   c-0.617,2.547-1.402,5.094-2.353,7.641h-0.004v0.011h6.88c0.691,0,1.257-0.556,1.257-1.236V17.463c0-0.68-0.566-1.236-1.257-1.236   h-6.88C1880.815,18.778,1881.601,21.329,1882.219,23.879z"></path>
	<path id="Seat12" class="st2 seat" d="M1879.867,109.773h-0.004h-29.712c-5.583,0-10.151-3.952-10.151-8.781V75.008   c0-4.829,4.568-8.781,10.151-8.781h29.712c0.953,2.551,1.739,5.102,2.357,7.652c2.282,9.418,2.282,18.835,0,28.253   C1881.602,104.679,1880.818,107.226,1879.867,109.773z M1853.483,111.237v0.3c0,0.805,0.67,1.464,1.488,1.464h29.899   c0.491,0,0.893-0.395,0.893-0.878v-2.349h-5.896h-0.004h-24.891C1854.153,109.773,1853.483,110.432,1853.483,111.237z    M1853.483,64.463v0.3c0,0.805,0.67,1.464,1.488,1.464h24.891h5.9v-2.349c0-0.483-0.401-0.878-0.893-0.878h-29.899   C1854.153,63,1853.483,63.659,1853.483,64.463z M1882.219,73.879c2.282,9.418,2.282,18.835,0,28.253   c-0.617,2.547-1.402,5.094-2.353,7.641h-0.004v0.011h6.88c0.691,0,1.257-0.556,1.257-1.236V67.463c0-0.68-0.566-1.236-1.257-1.236   h-6.88C1880.815,68.778,1881.601,71.329,1882.219,73.879z"></path>
	<path id="Seat13" class="st2 seat" d="M1773.367,319.773h-0.004h-29.712c-5.583,0-10.151-3.952-10.151-8.781v-25.984   c0-4.829,4.568-8.781,10.151-8.781h29.712c0.953,2.551,1.739,5.102,2.357,7.652c2.282,9.418,2.282,18.835,0,28.253   C1775.102,314.679,1774.318,317.226,1773.367,319.773z M1746.984,321.237v0.3c0,0.805,0.67,1.464,1.488,1.464h29.899   c0.491,0,0.893-0.395,0.893-0.878v-2.349h-5.896h-0.004h-24.891C1747.653,319.773,1746.984,320.432,1746.984,321.237z    M1746.984,274.464v0.3c0,0.805,0.67,1.464,1.488,1.464h24.891h5.9v-2.349c0-0.483-0.401-0.878-0.893-0.878h-29.899   C1747.653,273,1746.984,273.659,1746.984,274.464z M1775.719,283.879c2.282,9.418,2.282,18.835,0,28.253   c-0.617,2.547-1.402,5.094-2.353,7.641h-0.004v0.011h6.88c0.691,0,1.257-0.556,1.257-1.236v-41.086c0-0.68-0.566-1.236-1.257-1.236   h-6.88C1774.316,278.778,1775.101,281.329,1775.719,283.879z"></path>
	<path id="Seat14" class="st2 seat" d="M1773.367,269.773h-0.004h-29.712c-5.583,0-10.151-3.952-10.151-8.781v-25.984   c0-4.829,4.568-8.781,10.151-8.781h29.712c0.953,2.551,1.739,5.102,2.357,7.652c2.282,9.418,2.282,18.835,0,28.253   C1775.102,264.679,1774.318,267.226,1773.367,269.773z M1746.984,271.237v0.3c0,0.805,0.67,1.464,1.488,1.464h29.899   c0.491,0,0.893-0.395,0.893-0.878v-2.349h-5.896h-0.004h-24.891C1747.653,269.773,1746.984,270.432,1746.984,271.237z    M1746.984,224.464v0.3c0,0.805,0.67,1.464,1.488,1.464h24.891h5.9v-2.349c0-0.483-0.401-0.878-0.893-0.878h-29.899   C1747.653,223,1746.984,223.659,1746.984,224.464z M1775.719,233.879c2.282,9.418,2.282,18.835,0,28.253   c-0.617,2.547-1.402,5.094-2.353,7.641h-0.004v0.011h6.88c0.691,0,1.257-0.556,1.257-1.236v-41.086c0-0.68-0.566-1.236-1.257-1.236   h-6.88C1774.316,228.778,1775.101,231.329,1775.719,233.879z"></path>
	<path id="Seat15" class="st2 seat" d="M1773.367,59.773h-0.004h-29.712c-5.583,0-10.151-3.952-10.151-8.781V25.008   c0-4.829,4.568-8.781,10.151-8.781h29.712c0.953,2.551,1.739,5.102,2.357,7.652c2.282,9.418,2.282,18.835,0,28.253   C1775.102,54.679,1774.318,57.226,1773.367,59.773z M1746.984,61.237v0.3c0,0.805,0.67,1.463,1.488,1.463h29.899   c0.491,0,0.893-0.395,0.893-0.878v-2.349h-5.896h-0.004h-24.891C1747.653,59.773,1746.984,60.432,1746.984,61.237z    M1746.984,14.463v0.3c0,0.805,0.67,1.463,1.488,1.463h24.891h5.9v-2.349c0-0.483-0.401-0.878-0.893-0.878h-29.899   C1747.653,13,1746.984,13.659,1746.984,14.463z M1775.719,23.879c2.282,9.418,2.282,18.835,0,28.253   c-0.617,2.547-1.402,5.094-2.353,7.641h-0.004v0.011h6.88c0.691,0,1.257-0.556,1.257-1.236V17.463c0-0.68-0.566-1.236-1.257-1.236   h-6.88C1774.316,18.778,1775.101,21.329,1775.719,23.879z"></path>
	<path id="Seat16" class="st2 seat" d="M1773.367,109.773h-0.004h-29.712c-5.583,0-10.151-3.952-10.151-8.781V75.008   c0-4.829,4.568-8.781,10.151-8.781h29.712c0.953,2.551,1.739,5.102,2.357,7.652c2.282,9.418,2.282,18.835,0,28.253   C1775.102,104.679,1774.318,107.226,1773.367,109.773z M1746.984,111.237v0.3c0,0.805,0.67,1.464,1.488,1.464h29.899   c0.491,0,0.893-0.395,0.893-0.878v-2.349h-5.896h-0.004h-24.891C1747.653,109.773,1746.984,110.432,1746.984,111.237z    M1746.984,64.463v0.3c0,0.805,0.67,1.464,1.488,1.464h24.891h5.9v-2.349c0-0.483-0.401-0.878-0.893-0.878h-29.899   C1747.653,63,1746.984,63.659,1746.984,64.463z M1775.719,73.879c2.282,9.418,2.282,18.835,0,28.253   c-0.617,2.547-1.402,5.094-2.353,7.641h-0.004v0.011h6.88c0.691,0,1.257-0.556,1.257-1.236V67.463c0-0.68-0.566-1.236-1.257-1.236   h-6.88C1774.316,68.778,1775.101,71.329,1775.719,73.879z"></path>
	<path id="Seat17" class="st2 seat" d="M1666.867,319.773h-0.004h-29.712c-5.583,0-10.151-3.952-10.151-8.781v-25.984   c0-4.829,4.568-8.781,10.151-8.781h29.712c0.953,2.551,1.739,5.102,2.357,7.652c2.282,9.418,2.282,18.835,0,28.253   C1668.602,314.679,1667.818,317.226,1666.867,319.773z M1640.484,321.237v0.3c0,0.805,0.67,1.464,1.488,1.464h29.899   c0.491,0,0.893-0.395,0.893-0.878v-2.349h-5.896h-0.004h-24.891C1641.153,319.773,1640.484,320.432,1640.484,321.237z    M1640.484,274.464v0.3c0,0.805,0.67,1.464,1.488,1.464h24.891h5.9v-2.349c0-0.483-0.401-0.878-0.893-0.878h-29.899   C1641.153,273,1640.484,273.659,1640.484,274.464z M1669.22,283.879c2.282,9.418,2.282,18.835,0,28.253   c-0.617,2.547-1.401,5.094-2.353,7.641h-0.004v0.011h6.88c0.691,0,1.257-0.556,1.257-1.236v-41.086c0-0.68-0.566-1.236-1.257-1.236   h-6.88C1667.816,278.778,1668.602,281.329,1669.22,283.879z"></path>
	<path id="Seat18" class="st2 seat" d="M1666.867,269.773h-0.004h-29.712c-5.583,0-10.151-3.952-10.151-8.781v-25.984   c0-4.829,4.568-8.781,10.151-8.781h29.712c0.953,2.551,1.739,5.102,2.357,7.652c2.282,9.418,2.282,18.835,0,28.253   C1668.602,264.679,1667.818,267.226,1666.867,269.773z M1640.484,271.237v0.3c0,0.805,0.67,1.464,1.488,1.464h29.899   c0.491,0,0.893-0.395,0.893-0.878v-2.349h-5.896h-0.004h-24.891C1641.153,269.773,1640.484,270.432,1640.484,271.237z    M1640.484,224.464v0.3c0,0.805,0.67,1.464,1.488,1.464h24.891h5.9v-2.349c0-0.483-0.401-0.878-0.893-0.878h-29.899   C1641.153,223,1640.484,223.659,1640.484,224.464z M1669.22,233.879c2.282,9.418,2.282,18.835,0,28.253   c-0.617,2.547-1.401,5.094-2.353,7.641h-0.004v0.011h6.88c0.691,0,1.257-0.556,1.257-1.236v-41.086c0-0.68-0.566-1.236-1.257-1.236   h-6.88C1667.816,228.778,1668.602,231.329,1669.22,233.879z"></path>
	<path id="Seat19" class="st2 seat" d="M1503.132,276.227h0.004h29.712c5.583,0,10.151,3.952,10.151,8.781v25.984   c0,4.829-4.568,8.781-10.151,8.781h-29.712c-0.953-2.551-1.739-5.102-2.357-7.652c-2.282-9.418-2.282-18.835,0-28.253   C1501.397,281.321,1502.181,278.774,1503.132,276.227z M1529.515,274.763v-0.3c0-0.805-0.67-1.464-1.488-1.464h-29.899   c-0.491,0-0.893,0.395-0.893,0.878v2.349h5.896h0.004h24.891C1528.846,276.227,1529.515,275.568,1529.515,274.763z    M1529.515,321.536v-0.3c0-0.805-0.67-1.464-1.488-1.464h-24.891h-5.9v2.349c0,0.483,0.401,0.878,0.893,0.878h29.899   C1528.846,323,1529.515,322.341,1529.515,321.536z M1500.779,312.121c-2.282-9.418-2.282-18.835,0-28.253   c0.617-2.547,1.401-5.094,2.353-7.641h0.004v-0.011h-6.88c-0.691,0-1.257,0.556-1.257,1.236v41.086c0,0.68,0.565,1.236,1.257,1.236   h6.88C1502.183,317.222,1501.398,314.671,1500.779,312.121z"></path>
	<path id="Seat20" class="st2 seat" d="M1503.132,226.227h0.004h29.712c5.583,0,10.151,3.952,10.151,8.781v25.984   c0,4.829-4.568,8.781-10.151,8.781h-29.712c-0.953-2.551-1.739-5.102-2.357-7.652c-2.282-9.418-2.282-18.835,0-28.253   C1501.397,231.321,1502.181,228.774,1503.132,226.227z M1529.515,224.763v-0.3c0-0.805-0.67-1.464-1.488-1.464h-29.899   c-0.491,0-0.893,0.395-0.893,0.878v2.349h5.896h0.004h24.891C1528.846,226.227,1529.515,225.568,1529.515,224.763z    M1529.515,271.536v-0.3c0-0.805-0.67-1.464-1.488-1.464h-24.891h-5.9v2.349c0,0.483,0.401,0.878,0.893,0.878h29.899   C1528.846,273,1529.515,272.341,1529.515,271.536z M1500.779,262.121c-2.282-9.418-2.282-18.835,0-28.253   c0.617-2.547,1.401-5.094,2.353-7.641h0.004v-0.011h-6.88c-0.691,0-1.257,0.556-1.257,1.236v41.086c0,0.68,0.565,1.236,1.257,1.236   h6.88C1502.183,267.222,1501.398,264.671,1500.779,262.121z"></path>
	<path id="Seat21" class="st2 seat" d="M1666.867,59.773h-0.004h-29.712c-5.583,0-10.151-3.952-10.151-8.781V25.008   c0-4.829,4.568-8.781,10.151-8.781h29.712c0.953,2.551,1.739,5.102,2.357,7.652c2.282,9.418,2.282,18.835,0,28.253   C1668.602,54.679,1667.818,57.226,1666.867,59.773z M1640.484,61.237v0.3c0,0.805,0.67,1.463,1.488,1.463h29.899   c0.491,0,0.893-0.395,0.893-0.878v-2.349h-5.896h-0.004h-24.891C1641.153,59.773,1640.484,60.432,1640.484,61.237z    M1640.484,14.463v0.3c0,0.805,0.67,1.463,1.488,1.463h24.891h5.9v-2.349c0-0.483-0.401-0.878-0.893-0.878h-29.899   C1641.153,13,1640.484,13.659,1640.484,14.463z M1669.22,23.879c2.282,9.418,2.282,18.835,0,28.253   c-0.617,2.547-1.401,5.094-2.353,7.641h-0.004v0.011h6.88c0.691,0,1.257-0.556,1.257-1.236V17.463c0-0.68-0.566-1.236-1.257-1.236   h-6.88C1667.816,18.778,1668.602,21.329,1669.22,23.879z"></path>
	<path id="Seat22" class="st2 seat" d="M1666.867,109.773h-0.004h-29.712c-5.583,0-10.151-3.952-10.151-8.781V75.008   c0-4.829,4.568-8.781,10.151-8.781h29.712c0.953,2.551,1.739,5.102,2.357,7.652c2.282,9.418,2.282,18.835,0,28.253   C1668.602,104.679,1667.818,107.226,1666.867,109.773z M1640.484,111.237v0.3c0,0.805,0.67,1.464,1.488,1.464h29.899   c0.491,0,0.893-0.395,0.893-0.878v-2.349h-5.896h-0.004h-24.891C1641.153,109.773,1640.484,110.432,1640.484,111.237z    M1640.484,64.463v0.3c0,0.805,0.67,1.464,1.488,1.464h24.891h5.9v-2.349c0-0.483-0.401-0.878-0.893-0.878h-29.899   C1641.153,63,1640.484,63.659,1640.484,64.463z M1669.22,73.879c2.282,9.418,2.282,18.835,0,28.253   c-0.617,2.547-1.401,5.094-2.353,7.641h-0.004v0.011h6.88c0.691,0,1.257-0.556,1.257-1.236V67.463c0-0.68-0.566-1.236-1.257-1.236   h-6.88C1667.816,68.778,1668.602,71.329,1669.22,73.879z"></path>
	<path id="Seat23" class="st2 seat" d="M1503.132,16.227h0.004h29.712c5.583,0,10.151,3.952,10.151,8.781v25.984   c0,4.829-4.568,8.781-10.151,8.781h-29.712c-0.953-2.551-1.739-5.102-2.357-7.652c-2.282-9.418-2.282-18.835,0-28.253   C1501.397,21.321,1502.181,18.774,1503.132,16.227z M1529.515,14.763v-0.3c0-0.805-0.67-1.463-1.488-1.463h-29.899   c-0.491,0-0.893,0.395-0.893,0.878v2.349h5.896h0.004h24.891C1528.846,16.227,1529.515,15.568,1529.515,14.763z M1529.515,61.537   v-0.3c0-0.805-0.67-1.463-1.488-1.463h-24.891h-5.9v2.349c0,0.483,0.401,0.878,0.893,0.878h29.899   C1528.846,63,1529.515,62.341,1529.515,61.537z M1500.779,52.121c-2.282-9.418-2.282-18.835,0-28.253   c0.617-2.547,1.401-5.094,2.353-7.641h0.004v-0.011h-6.88c-0.691,0-1.257,0.556-1.257,1.236v41.086c0,0.68,0.565,1.236,1.257,1.236   h6.88C1502.183,57.222,1501.398,54.671,1500.779,52.121z"></path>
	<path id="Seat24" class="st2 seat" d="M1503.132,66.227h0.004h29.712c5.583,0,10.151,3.952,10.151,8.781v25.984   c0,4.829-4.568,8.781-10.151,8.781h-29.712c-0.953-2.551-1.739-5.102-2.357-7.652c-2.282-9.418-2.282-18.835,0-28.253   C1501.397,71.321,1502.181,68.774,1503.132,66.227z M1529.515,64.763v-0.3c0-0.805-0.67-1.463-1.488-1.463h-29.899   c-0.491,0-0.893,0.395-0.893,0.878v2.349h5.896h0.004h24.891C1528.846,66.227,1529.515,65.568,1529.515,64.763z M1529.515,111.536   v-0.3c0-0.805-0.67-1.464-1.488-1.464h-24.891h-5.9v2.349c0,0.483,0.401,0.878,0.893,0.878h29.899   C1528.846,113,1529.515,112.341,1529.515,111.536z M1500.779,102.121c-2.282-9.418-2.282-18.835,0-28.253   c0.617-2.547,1.401-5.094,2.353-7.641h0.004v-0.011h-6.88c-0.691,0-1.257,0.556-1.257,1.236v41.086c0,0.68,0.565,1.236,1.257,1.236   h6.88C1502.183,107.222,1501.398,104.671,1500.779,102.121z"></path>
	<path id="Seat25" class="st2 seat" d="M1413.131,276.227h0.004h29.712c5.583,0,10.151,3.952,10.151,8.781v25.984   c0,4.829-4.568,8.781-10.151,8.781h-29.712c-0.953-2.551-1.739-5.102-2.357-7.652c-2.282-9.418-2.282-18.835,0-28.253   C1411.396,281.321,1412.18,278.774,1413.131,276.227z M1439.514,274.763v-0.3c0-0.805-0.67-1.464-1.488-1.464h-29.899   c-0.491,0-0.892,0.395-0.892,0.878v2.349h5.896h0.004h24.891C1438.845,276.227,1439.514,275.568,1439.514,274.763z    M1439.514,321.536v-0.3c0-0.805-0.67-1.464-1.488-1.464h-24.891h-5.9v2.349c0,0.483,0.401,0.878,0.892,0.878h29.899   C1438.845,323,1439.514,322.341,1439.514,321.536z M1410.779,312.121c-2.282-9.418-2.282-18.835,0-28.253   c0.617-2.547,1.401-5.094,2.353-7.641h0.004v-0.011h-6.88c-0.691,0-1.257,0.556-1.257,1.236v41.086c0,0.68,0.565,1.236,1.257,1.236   h6.88C1412.182,317.222,1411.397,314.671,1410.779,312.121z"></path>
	<path id="Seat26" class="st2 seat" d="M1413.131,226.227h0.004h29.712c5.583,0,10.151,3.952,10.151,8.781v25.984   c0,4.829-4.568,8.781-10.151,8.781h-29.712c-0.953-2.551-1.739-5.102-2.357-7.652c-2.282-9.418-2.282-18.835,0-28.253   C1411.396,231.321,1412.18,228.774,1413.131,226.227z M1439.514,224.763v-0.3c0-0.805-0.67-1.464-1.488-1.464h-29.899   c-0.491,0-0.892,0.395-0.892,0.878v2.349h5.896h0.004h24.891C1438.845,226.227,1439.514,225.568,1439.514,224.763z    M1439.514,271.536v-0.3c0-0.805-0.67-1.464-1.488-1.464h-24.891h-5.9v2.349c0,0.483,0.401,0.878,0.892,0.878h29.899   C1438.845,273,1439.514,272.341,1439.514,271.536z M1410.779,262.121c-2.282-9.418-2.282-18.835,0-28.253   c0.617-2.547,1.401-5.094,2.353-7.641h0.004v-0.011h-6.88c-0.691,0-1.257,0.556-1.257,1.236v41.086c0,0.68,0.565,1.236,1.257,1.236   h6.88C1412.182,267.222,1411.397,264.671,1410.779,262.121z"></path>
	<path id="Seat27" class="st2 seat" d="M1413.131,16.227h0.004h29.712c5.583,0,10.151,3.952,10.151,8.781v25.984   c0,4.829-4.568,8.781-10.151,8.781h-29.712c-0.953-2.551-1.739-5.102-2.357-7.652c-2.282-9.418-2.282-18.835,0-28.253   C1411.396,21.321,1412.18,18.774,1413.131,16.227z M1439.514,14.763v-0.3c0-0.805-0.67-1.463-1.488-1.463h-29.899   c-0.491,0-0.893,0.395-0.893,0.878v2.349h5.896h0.004h24.891C1438.845,16.227,1439.514,15.568,1439.514,14.763z M1439.514,61.537   v-0.3c0-0.805-0.67-1.463-1.488-1.463h-24.891h-5.9v2.349c0,0.483,0.401,0.878,0.893,0.878h29.899   C1438.845,63,1439.514,62.341,1439.514,61.537z M1410.779,52.121c-2.282-9.418-2.282-18.835,0-28.253   c0.617-2.547,1.401-5.094,2.353-7.641h0.004v-0.011h-6.88c-0.691,0-1.257,0.556-1.257,1.236v41.086c0,0.68,0.565,1.236,1.257,1.236   h6.88C1412.182,57.222,1411.397,54.671,1410.779,52.121z"></path>
	<path id="Seat28" class="st2 seat" d="M1413.131,66.227h0.004h29.712c5.583,0,10.151,3.952,10.151,8.781v25.984   c0,4.829-4.568,8.781-10.151,8.781h-29.712c-0.953-2.551-1.739-5.102-2.357-7.652c-2.282-9.418-2.282-18.835,0-28.253   C1411.396,71.321,1412.18,68.774,1413.131,66.227z M1439.514,64.763v-0.3c0-0.805-0.67-1.463-1.488-1.463h-29.899   c-0.491,0-0.893,0.395-0.893,0.878v2.349h5.896h0.004h24.891C1438.845,66.227,1439.514,65.568,1439.514,64.763z M1439.514,111.536   v-0.3c0-0.805-0.67-1.464-1.488-1.464h-24.891h-5.9v2.349c0,0.483,0.401,0.878,0.893,0.878h29.899   C1438.845,113,1439.514,112.341,1439.514,111.536z M1410.779,102.121c-2.282-9.418-2.282-18.835,0-28.253   c0.617-2.547,1.401-5.094,2.353-7.641h0.004v-0.011h-6.88c-0.691,0-1.257,0.556-1.257,1.236v41.086c0,0.68,0.565,1.236,1.257,1.236   h6.88C1412.182,107.222,1411.397,104.671,1410.779,102.121z"></path>
	<path id="Seat29" class="st2 seat" d="M1323.131,276.227h0.004h29.712c5.583,0,10.151,3.952,10.151,8.781v25.984   c0,4.829-4.568,8.781-10.151,8.781h-29.712c-0.953-2.551-1.739-5.102-2.357-7.652c-2.282-9.418-2.282-18.835,0-28.253   C1321.396,281.321,1322.18,278.774,1323.131,276.227z M1349.515,274.763v-0.3c0-0.805-0.67-1.464-1.488-1.464h-29.899   c-0.491,0-0.893,0.395-0.893,0.878v2.349h5.896h0.004h24.891C1348.845,276.227,1349.515,275.568,1349.515,274.763z    M1349.515,321.536v-0.3c0-0.805-0.67-1.464-1.488-1.464h-24.891h-5.9v2.349c0,0.483,0.401,0.878,0.893,0.878h29.899   C1348.845,323,1349.515,322.341,1349.515,321.536z M1320.779,312.121c-2.282-9.418-2.282-18.835,0-28.253   c0.617-2.547,1.401-5.094,2.353-7.641h0.004v-0.011h-6.88c-0.691,0-1.257,0.556-1.257,1.236v41.086c0,0.68,0.565,1.236,1.257,1.236   h6.88C1322.183,317.222,1321.397,314.671,1320.779,312.121z"></path>
	<path id="Seat30" class="st2 seat" d="M1323.131,226.227h0.004h29.712c5.583,0,10.151,3.952,10.151,8.781v25.984   c0,4.829-4.568,8.781-10.151,8.781h-29.712c-0.953-2.551-1.739-5.102-2.357-7.652c-2.282-9.418-2.282-18.835,0-28.253   C1321.396,231.321,1322.18,228.774,1323.131,226.227z M1349.515,224.763v-0.3c0-0.805-0.67-1.464-1.488-1.464h-29.899   c-0.491,0-0.893,0.395-0.893,0.878v2.349h5.896h0.004h24.891C1348.845,226.227,1349.515,225.568,1349.515,224.763z    M1349.515,271.536v-0.3c0-0.805-0.67-1.464-1.488-1.464h-24.891h-5.9v2.349c0,0.483,0.401,0.878,0.893,0.878h29.899   C1348.845,273,1349.515,272.341,1349.515,271.536z M1320.779,262.121c-2.282-9.418-2.282-18.835,0-28.253   c0.617-2.547,1.401-5.094,2.353-7.641h0.004v-0.011h-6.88c-0.691,0-1.257,0.556-1.257,1.236v41.086c0,0.68,0.565,1.236,1.257,1.236   h6.88C1322.183,267.222,1321.397,264.671,1320.779,262.121z"></path>
	<path id="Seat31" class="st2 seat" d="M1323.131,16.227h0.004h29.712c5.583,0,10.151,3.952,10.151,8.781v25.984   c0,4.829-4.568,8.781-10.151,8.781h-29.712c-0.953-2.551-1.739-5.102-2.357-7.652c-2.282-9.418-2.282-18.835,0-28.253   C1321.396,21.321,1322.18,18.774,1323.131,16.227z M1349.515,14.763v-0.3c0-0.805-0.67-1.463-1.488-1.463h-29.899   c-0.491,0-0.893,0.395-0.893,0.878v2.349h5.896h0.004h24.891C1348.845,16.227,1349.515,15.568,1349.515,14.763z M1349.515,61.537   v-0.3c0-0.805-0.67-1.463-1.488-1.463h-24.891h-5.9v2.349c0,0.483,0.401,0.878,0.893,0.878h29.899   C1348.845,63,1349.515,62.341,1349.515,61.537z M1320.779,52.121c-2.282-9.418-2.282-18.835,0-28.253   c0.617-2.547,1.401-5.094,2.353-7.641h0.004v-0.011h-6.88c-0.691,0-1.257,0.556-1.257,1.236v41.086c0,0.68,0.565,1.236,1.257,1.236   h6.88C1322.183,57.222,1321.397,54.671,1320.779,52.121z"></path>
	<path id="Seat32" class="st2 seat" d="M1323.131,66.227h0.004h29.712c5.583,0,10.151,3.952,10.151,8.781v25.984   c0,4.829-4.568,8.781-10.151,8.781h-29.712c-0.953-2.551-1.739-5.102-2.357-7.652c-2.282-9.418-2.282-18.835,0-28.253   C1321.396,71.321,1322.18,68.774,1323.131,66.227z M1349.515,64.763v-0.3c0-0.805-0.67-1.463-1.488-1.463h-29.899   c-0.491,0-0.893,0.395-0.893,0.878v2.349h5.896h0.004h24.891C1348.845,66.227,1349.515,65.568,1349.515,64.763z M1349.515,111.536   v-0.3c0-0.805-0.67-1.464-1.488-1.464h-24.891h-5.9v2.349c0,0.483,0.401,0.878,0.893,0.878h29.899   C1348.845,113,1349.515,112.341,1349.515,111.536z M1320.779,102.121c-2.282-9.418-2.282-18.835,0-28.253   c0.617-2.547,1.401-5.094,2.353-7.641h0.004v-0.011h-6.88c-0.691,0-1.257,0.556-1.257,1.236v41.086c0,0.68,0.565,1.236,1.257,1.236   h6.88C1322.183,107.222,1321.397,104.671,1320.779,102.121z"></path>
	<path id="Seat33" class="st2 seat" d="M1233.132,276.227h0.004h29.712c5.583,0,10.151,3.952,10.151,8.781v25.984   c0,4.829-4.568,8.781-10.151,8.781h-29.712c-0.953-2.551-1.739-5.102-2.357-7.652c-2.282-9.418-2.282-18.835,0-28.253   C1231.396,281.321,1232.181,278.774,1233.132,276.227z M1259.515,274.763v-0.3c0-0.805-0.67-1.464-1.488-1.464h-29.899   c-0.491,0-0.893,0.395-0.893,0.878v2.349h5.896h0.004h24.891C1258.845,276.227,1259.515,275.568,1259.515,274.763z    M1259.515,321.536v-0.3c0-0.805-0.67-1.464-1.488-1.464h-24.891h-5.9v2.349c0,0.483,0.401,0.878,0.893,0.878h29.899   C1258.845,323,1259.515,322.341,1259.515,321.536z M1230.779,312.121c-2.282-9.418-2.282-18.835,0-28.253   c0.617-2.547,1.401-5.094,2.353-7.641h0.004v-0.011h-6.88c-0.691,0-1.257,0.556-1.257,1.236v41.086c0,0.68,0.566,1.236,1.257,1.236   h6.88C1232.183,317.222,1231.397,314.671,1230.779,312.121z"></path>
	<path id="Seat34" class="st2 seat" d="M1233.132,226.227h0.004h29.712c5.583,0,10.151,3.952,10.151,8.781v25.984   c0,4.829-4.568,8.781-10.151,8.781h-29.712c-0.953-2.551-1.739-5.102-2.357-7.652c-2.282-9.418-2.282-18.835,0-28.253   C1231.396,231.321,1232.181,228.774,1233.132,226.227z M1259.515,224.763v-0.3c0-0.805-0.67-1.464-1.488-1.464h-29.899   c-0.491,0-0.893,0.395-0.893,0.878v2.349h5.896h0.004h24.891C1258.845,226.227,1259.515,225.568,1259.515,224.763z    M1259.515,271.536v-0.3c0-0.805-0.67-1.464-1.488-1.464h-24.891h-5.9v2.349c0,0.483,0.401,0.878,0.893,0.878h29.899   C1258.845,273,1259.515,272.341,1259.515,271.536z M1230.779,262.121c-2.282-9.418-2.282-18.835,0-28.253   c0.617-2.547,1.401-5.094,2.353-7.641h0.004v-0.011h-6.88c-0.691,0-1.257,0.556-1.257,1.236v41.086c0,0.68,0.566,1.236,1.257,1.236   h6.88C1232.183,267.222,1231.397,264.671,1230.779,262.121z"></path>
	<path id="Seat35" class="st2 seat" d="M1233.132,16.227h0.004h29.712c5.583,0,10.151,3.952,10.151,8.781v25.984   c0,4.829-4.568,8.781-10.151,8.781h-29.712c-0.953-2.551-1.739-5.102-2.357-7.652c-2.282-9.418-2.282-18.835,0-28.253   C1231.396,21.321,1232.181,18.774,1233.132,16.227z M1259.515,14.763v-0.3c0-0.805-0.67-1.463-1.488-1.463h-29.899   c-0.491,0-0.893,0.395-0.893,0.878v2.349h5.896h0.004h24.891C1258.845,16.227,1259.515,15.568,1259.515,14.763z M1259.515,61.537   v-0.3c0-0.805-0.67-1.463-1.488-1.463h-24.891h-5.9v2.349c0,0.483,0.401,0.878,0.893,0.878h29.899   C1258.845,63,1259.515,62.341,1259.515,61.537z M1230.779,52.121c-2.282-9.418-2.282-18.835,0-28.253   c0.617-2.547,1.401-5.094,2.353-7.641h0.004v-0.011h-6.88c-0.691,0-1.257,0.556-1.257,1.236v41.086c0,0.68,0.566,1.236,1.257,1.236   h6.88C1232.183,57.222,1231.397,54.671,1230.779,52.121z"></path>
	<path id="Seat36" class="st2 seat" d="M1233.132,66.227h0.004h29.712c5.583,0,10.151,3.952,10.151,8.781v25.984   c0,4.829-4.568,8.781-10.151,8.781h-29.712c-0.953-2.551-1.739-5.102-2.357-7.652c-2.282-9.418-2.282-18.835,0-28.253   C1231.396,71.321,1232.181,68.774,1233.132,66.227z M1259.515,64.763v-0.3c0-0.805-0.67-1.463-1.488-1.463h-29.899   c-0.491,0-0.893,0.395-0.893,0.878v2.349h5.896h0.004h24.891C1258.845,66.227,1259.515,65.568,1259.515,64.763z M1259.515,111.536   v-0.3c0-0.805-0.67-1.464-1.488-1.464h-24.891h-5.9v2.349c0,0.483,0.401,0.878,0.893,0.878h29.899   C1258.845,113,1259.515,112.341,1259.515,111.536z M1230.779,102.121c-2.282-9.418-2.282-18.835,0-28.253   c0.617-2.547,1.401-5.094,2.353-7.641h0.004v-0.011h-6.88c-0.691,0-1.257,0.556-1.257,1.236v41.086c0,0.68,0.566,1.236,1.257,1.236   h6.88C1232.183,107.222,1231.397,104.671,1230.779,102.121z"></path>
	<path id="Seat37" class="st2 seat" d="M1143.132,276.227h0.004h29.712c5.583,0,10.151,3.952,10.151,8.781v25.984   c0,4.829-4.568,8.781-10.151,8.781h-29.712c-0.953-2.551-1.739-5.102-2.357-7.652c-2.282-9.418-2.282-18.835,0-28.253   C1141.397,281.321,1142.181,278.774,1143.132,276.227z M1169.515,274.763v-0.3c0-0.805-0.67-1.464-1.488-1.464h-29.899   c-0.491,0-0.893,0.395-0.893,0.878v2.349h5.896h0.004h24.891C1168.846,276.227,1169.515,275.568,1169.515,274.763z    M1169.515,321.536v-0.3c0-0.805-0.67-1.464-1.488-1.464h-24.891h-5.9v2.349c0,0.483,0.401,0.878,0.893,0.878h29.899   C1168.846,323,1169.515,322.341,1169.515,321.536z M1140.78,312.121c-2.282-9.418-2.282-18.835,0-28.253   c0.617-2.547,1.401-5.094,2.353-7.641h0.004v-0.011h-6.88c-0.691,0-1.257,0.556-1.257,1.236v41.086c0,0.68,0.565,1.236,1.257,1.236   h6.88C1142.183,317.222,1141.398,314.671,1140.78,312.121z"></path>
	<path id="Seat38" class="st2 seat" d="M1143.132,226.227h0.004h29.712c5.583,0,10.151,3.952,10.151,8.781v25.984   c0,4.829-4.568,8.781-10.151,8.781h-29.712c-0.953-2.551-1.739-5.102-2.357-7.652c-2.282-9.418-2.282-18.835,0-28.253   C1141.397,231.321,1142.181,228.774,1143.132,226.227z M1169.515,224.763v-0.3c0-0.805-0.67-1.464-1.488-1.464h-29.899   c-0.491,0-0.893,0.395-0.893,0.878v2.349h5.896h0.004h24.891C1168.846,226.227,1169.515,225.568,1169.515,224.763z    M1169.515,271.536v-0.3c0-0.805-0.67-1.464-1.488-1.464h-24.891h-5.9v2.349c0,0.483,0.401,0.878,0.893,0.878h29.899   C1168.846,273,1169.515,272.341,1169.515,271.536z M1140.78,262.121c-2.282-9.418-2.282-18.835,0-28.253   c0.617-2.547,1.401-5.094,2.353-7.641h0.004v-0.011h-6.88c-0.691,0-1.257,0.556-1.257,1.236v41.086c0,0.68,0.565,1.236,1.257,1.236   h6.88C1142.183,267.222,1141.398,264.671,1140.78,262.121z"></path>
	<path id="Seat39" class="st2 seat" d="M1143.132,16.227h0.004h29.712c5.583,0,10.151,3.952,10.151,8.781v25.984   c0,4.829-4.568,8.781-10.151,8.781h-29.712c-0.953-2.551-1.739-5.102-2.357-7.652c-2.282-9.418-2.282-18.835,0-28.253   C1141.397,21.321,1142.181,18.774,1143.132,16.227z M1169.515,14.763v-0.3c0-0.805-0.67-1.463-1.488-1.463h-29.899   c-0.491,0-0.893,0.395-0.893,0.878v2.349h5.896h0.004h24.891C1168.846,16.227,1169.515,15.568,1169.515,14.763z M1169.515,61.537   v-0.3c0-0.805-0.67-1.463-1.488-1.463h-24.891h-5.9v2.349c0,0.483,0.401,0.878,0.893,0.878h29.899   C1168.846,63,1169.515,62.341,1169.515,61.537z M1140.78,52.121c-2.282-9.418-2.282-18.835,0-28.253   c0.617-2.547,1.401-5.094,2.353-7.641h0.004v-0.011h-6.88c-0.691,0-1.257,0.556-1.257,1.236v41.086c0,0.68,0.565,1.236,1.257,1.236   h6.88C1142.183,57.222,1141.398,54.671,1140.78,52.121z"></path>
	<path id="Seat40" class="st2 seat" d="M1143.132,66.227h0.004h29.712c5.583,0,10.151,3.952,10.151,8.781v25.984   c0,4.829-4.568,8.781-10.151,8.781h-29.712c-0.953-2.551-1.739-5.102-2.357-7.652c-2.282-9.418-2.282-18.835,0-28.253   C1141.397,71.321,1142.181,68.774,1143.132,66.227z M1169.515,64.763v-0.3c0-0.805-0.67-1.463-1.488-1.463h-29.899   c-0.491,0-0.893,0.395-0.893,0.878v2.349h5.896h0.004h24.891C1168.846,66.227,1169.515,65.568,1169.515,64.763z M1169.515,111.536   v-0.3c0-0.805-0.67-1.464-1.488-1.464h-24.891h-5.9v2.349c0,0.483,0.401,0.878,0.893,0.878h29.899   C1168.846,113,1169.515,112.341,1169.515,111.536z M1140.78,102.121c-2.282-9.418-2.282-18.835,0-28.253   c0.617-2.547,1.401-5.094,2.353-7.641h0.004v-0.011h-6.88c-0.691,0-1.257,0.556-1.257,1.236v41.086c0,0.68,0.565,1.236,1.257,1.236   h6.88C1142.183,107.222,1141.398,104.671,1140.78,102.121z"></path>
	<path id="Seat41" class="st2 seat" d="M1053.132,276.227h0.004h29.712c5.583,0,10.151,3.952,10.151,8.781v25.984   c0,4.829-4.568,8.781-10.151,8.781h-29.712c-0.953-2.551-1.739-5.102-2.357-7.652c-2.282-9.418-2.282-18.835,0-28.253   C1051.397,281.321,1052.181,278.774,1053.132,276.227z M1079.516,274.763v-0.3c0-0.805-0.67-1.464-1.488-1.464h-29.899   c-0.491,0-0.893,0.395-0.893,0.878v2.349h5.896h0.004h24.891C1078.846,276.227,1079.516,275.568,1079.516,274.763z    M1079.516,321.536v-0.3c0-0.805-0.67-1.464-1.488-1.464h-24.891h-5.9v2.349c0,0.483,0.401,0.878,0.893,0.878h29.899   C1078.846,323,1079.516,322.341,1079.516,321.536z M1050.78,312.121c-2.282-9.418-2.282-18.835,0-28.253   c0.617-2.547,1.401-5.094,2.353-7.641h0.004v-0.011h-6.88c-0.691,0-1.257,0.556-1.257,1.236v41.086c0,0.68,0.566,1.236,1.257,1.236   h6.88C1052.184,317.222,1051.398,314.671,1050.78,312.121z"></path>
	<path id="Seat42" class="st2 seat" d="M1053.132,226.227h0.004h29.712c5.583,0,10.151,3.952,10.151,8.781v25.984   c0,4.829-4.568,8.781-10.151,8.781h-29.712c-0.953-2.551-1.739-5.102-2.357-7.652c-2.282-9.418-2.282-18.835,0-28.253   C1051.397,231.321,1052.181,228.774,1053.132,226.227z M1079.516,224.763v-0.3c0-0.805-0.67-1.464-1.488-1.464h-29.899   c-0.491,0-0.893,0.395-0.893,0.878v2.349h5.896h0.004h24.891C1078.846,226.227,1079.516,225.568,1079.516,224.763z    M1079.516,271.536v-0.3c0-0.805-0.67-1.464-1.488-1.464h-24.891h-5.9v2.349c0,0.483,0.401,0.878,0.893,0.878h29.899   C1078.846,273,1079.516,272.341,1079.516,271.536z M1050.78,262.121c-2.282-9.418-2.282-18.835,0-28.253   c0.617-2.547,1.401-5.094,2.353-7.641h0.004v-0.011h-6.88c-0.691,0-1.257,0.556-1.257,1.236v41.086c0,0.68,0.566,1.236,1.257,1.236   h6.88C1052.184,267.222,1051.398,264.671,1050.78,262.121z"></path>
	<path id="Seat43" class="st2 seat" d="M1053.132,16.227h0.004h29.712c5.583,0,10.151,3.952,10.151,8.781v25.984   c0,4.829-4.568,8.781-10.151,8.781h-29.712c-0.953-2.551-1.739-5.102-2.357-7.652c-2.282-9.418-2.282-18.835,0-28.253   C1051.397,21.321,1052.181,18.774,1053.132,16.227z M1079.516,14.763v-0.3c0-0.805-0.67-1.463-1.488-1.463h-29.899   c-0.491,0-0.893,0.395-0.893,0.878v2.349h5.896h0.004h24.891C1078.846,16.227,1079.516,15.568,1079.516,14.763z M1079.516,61.537   v-0.3c0-0.805-0.67-1.463-1.488-1.463h-24.891h-5.9v2.349c0,0.483,0.401,0.878,0.893,0.878h29.899   C1078.846,63,1079.516,62.341,1079.516,61.537z M1050.78,52.121c-2.282-9.418-2.282-18.835,0-28.253   c0.617-2.547,1.401-5.094,2.353-7.641h0.004v-0.011h-6.88c-0.691,0-1.257,0.556-1.257,1.236v41.086c0,0.68,0.566,1.236,1.257,1.236   h6.88C1052.184,57.222,1051.398,54.671,1050.78,52.121z"></path>
	<path id="Seat44" class="st2 seat" d="M1053.132,66.227h0.004h29.712c5.583,0,10.151,3.952,10.151,8.781v25.984   c0,4.829-4.568,8.781-10.151,8.781h-29.712c-0.953-2.551-1.739-5.102-2.357-7.652c-2.282-9.418-2.282-18.835,0-28.253   C1051.397,71.321,1052.181,68.774,1053.132,66.227z M1079.516,64.763v-0.3c0-0.805-0.67-1.463-1.488-1.463h-29.899   c-0.491,0-0.893,0.395-0.893,0.878v2.349h5.896h0.004h24.891C1078.846,66.227,1079.516,65.568,1079.516,64.763z M1079.516,111.536   v-0.3c0-0.805-0.67-1.464-1.488-1.464h-24.891h-5.9v2.349c0,0.483,0.401,0.878,0.893,0.878h29.899   C1078.846,113,1079.516,112.341,1079.516,111.536z M1050.78,102.121c-2.282-9.418-2.282-18.835,0-28.253   c0.617-2.547,1.401-5.094,2.353-7.641h0.004v-0.011h-6.88c-0.691,0-1.257,0.556-1.257,1.236v41.086c0,0.68,0.566,1.236,1.257,1.236   h6.88C1052.184,107.222,1051.398,104.671,1050.78,102.121z"></path>
	<path id="Seat45" class="st2 seat" d="M970.632,16.227h0.004h29.712c5.583,0,10.151,3.952,10.151,8.781v25.984   c0,4.829-4.568,8.781-10.151,8.781h-29.712c-0.953-2.551-1.739-5.102-2.357-7.652c-2.282-9.418-2.282-18.835,0-28.253   C968.897,21.321,969.681,18.774,970.632,16.227z M997.016,14.763v-0.3c0-0.805-0.67-1.463-1.488-1.463h-29.899   c-0.491,0-0.893,0.395-0.893,0.878v2.349h5.896h0.004h24.891C996.346,16.227,997.016,15.568,997.016,14.763z M997.016,61.537v-0.3   c0-0.805-0.67-1.463-1.488-1.463h-24.891h-5.9v2.349c0,0.483,0.401,0.878,0.893,0.878h29.899   C996.346,63,997.016,62.341,997.016,61.537z M968.28,52.121c-2.282-9.418-2.282-18.835,0-28.253   c0.617-2.547,1.401-5.094,2.353-7.641h0.004v-0.011h-6.88c-0.691,0-1.257,0.556-1.257,1.236v41.086c0,0.68,0.566,1.236,1.257,1.236   h6.88C969.684,57.222,968.898,54.671,968.28,52.121z"></path>
	<path id="Seat46" class="st2 seat" d="M970.632,66.227h0.004h29.712c5.583,0,10.151,3.952,10.151,8.781v25.984   c0,4.829-4.568,8.781-10.151,8.781h-29.712c-0.953-2.551-1.739-5.102-2.357-7.652c-2.282-9.418-2.282-18.835,0-28.253   C968.897,71.321,969.681,68.774,970.632,66.227z M997.016,64.763v-0.3c0-0.805-0.67-1.463-1.488-1.463h-29.899   c-0.491,0-0.893,0.395-0.893,0.878v2.349h5.896h0.004h24.891C996.346,66.227,997.016,65.568,997.016,64.763z M997.016,111.536v-0.3   c0-0.805-0.67-1.464-1.488-1.464h-24.891h-5.9v2.349c0,0.483,0.401,0.878,0.893,0.878h29.899   C996.346,113,997.016,112.341,997.016,111.536z M968.28,102.121c-2.282-9.418-2.282-18.835,0-28.253   c0.617-2.547,1.401-5.094,2.353-7.641h0.004v-0.011h-6.88c-0.691,0-1.257,0.556-1.257,1.236v41.086c0,0.68,0.566,1.236,1.257,1.236   h6.88C969.684,107.222,968.898,104.671,968.28,102.121z"></path>
	<path id="Seat47" class="st2 seat" d="M888.133,16.227h0.004h29.712c5.583,0,10.151,3.952,10.151,8.781v25.984   c0,4.829-4.568,8.781-10.151,8.781h-29.712c-0.953-2.551-1.739-5.102-2.357-7.652c-2.282-9.418-2.282-18.835,0-28.253   C886.397,21.321,887.181,18.774,888.133,16.227z M914.516,14.763v-0.3c0-0.805-0.67-1.463-1.488-1.463h-29.899   c-0.491,0-0.893,0.395-0.893,0.878v2.349h5.896h0.004h24.891C913.846,16.227,914.516,15.568,914.516,14.763z M914.516,61.537v-0.3   c0-0.805-0.67-1.463-1.488-1.463h-24.891h-5.9v2.349c0,0.483,0.402,0.878,0.893,0.878h29.899   C913.846,63,914.516,62.341,914.516,61.537z M885.78,52.121c-2.282-9.418-2.282-18.835,0-28.253   c0.617-2.547,1.401-5.094,2.353-7.641h0.004v-0.011h-6.88c-0.691,0-1.257,0.556-1.257,1.236v41.086c0,0.68,0.565,1.236,1.257,1.236   h6.88C887.184,57.222,886.398,54.671,885.78,52.121z"></path>
	<path id="Seat48" class="st2 seat seat--available compartment-22" d="M888.133,66.227h0.004h29.712c5.583,0,10.151,3.952,10.151,8.781v25.984   c0,4.829-4.568,8.781-10.151,8.781h-29.712c-0.953-2.551-1.739-5.102-2.357-7.652c-2.282-9.418-2.282-18.835,0-28.253   C886.397,71.321,887.181,68.774,888.133,66.227z M914.516,64.763v-0.3c0-0.805-0.67-1.463-1.488-1.463h-29.899   c-0.491,0-0.893,0.395-0.893,0.878v2.349h5.896h0.004h24.891C913.846,66.227,914.516,65.568,914.516,64.763z M914.516,111.536v-0.3   c0-0.805-0.67-1.464-1.488-1.464h-24.891h-5.9v2.349c0,0.483,0.402,0.878,0.893,0.878h29.899   C913.846,113,914.516,112.341,914.516,111.536z M885.78,102.121c-2.282-9.418-2.282-18.835,0-28.253   c0.617-2.547,1.401-5.094,2.353-7.641h0.004v-0.011h-6.88c-0.691,0-1.257,0.556-1.257,1.236v41.086c0,0.68,0.565,1.236,1.257,1.236   h6.88C887.184,107.222,886.398,104.671,885.78,102.121z"></path>
	<path id="Seat49" class="st2 seat" d="M866.867,319.773h-0.004h-29.712c-5.583,0-10.151-3.952-10.151-8.781v-25.984   c0-4.829,4.568-8.781,10.151-8.781h29.712c0.953,2.551,1.739,5.102,2.357,7.652c2.282,9.418,2.282,18.835,0,28.253   C868.602,314.679,867.818,317.226,866.867,319.773z M840.484,321.237v0.3c0,0.805,0.67,1.464,1.488,1.464h29.899   c0.491,0,0.893-0.395,0.893-0.878v-2.349h-5.896h-0.004h-24.891C841.153,319.773,840.484,320.432,840.484,321.237z    M840.484,274.464v0.3c0,0.805,0.67,1.464,1.488,1.464h24.891h5.9v-2.349c0-0.483-0.401-0.878-0.893-0.878h-29.899   C841.153,273,840.484,273.659,840.484,274.464z M869.22,283.879c2.282,9.418,2.282,18.835,0,28.253   c-0.617,2.547-1.402,5.094-2.353,7.641h-0.004v0.011h6.88c0.691,0,1.257-0.556,1.257-1.236v-41.086c0-0.68-0.566-1.236-1.257-1.236   h-6.88C867.816,278.778,868.602,281.329,869.22,283.879z"></path>
	<path id="Seat50" class="st2 seat" d="M866.867,269.773h-0.004h-29.712c-5.583,0-10.151-3.952-10.151-8.781v-25.984   c0-4.829,4.568-8.781,10.151-8.781h29.712c0.953,2.551,1.739,5.102,2.357,7.652c2.282,9.418,2.282,18.835,0,28.253   C868.602,264.679,867.818,267.226,866.867,269.773z M840.484,271.237v0.3c0,0.805,0.67,1.464,1.488,1.464h29.899   c0.491,0,0.893-0.395,0.893-0.878v-2.349h-5.896h-0.004h-24.891C841.153,269.773,840.484,270.432,840.484,271.237z    M840.484,224.464v0.3c0,0.805,0.67,1.464,1.488,1.464h24.891h5.9v-2.349c0-0.483-0.401-0.878-0.893-0.878h-29.899   C841.153,223,840.484,223.659,840.484,224.464z M869.22,233.879c2.282,9.418,2.282,18.835,0,28.253   c-0.617,2.547-1.402,5.094-2.353,7.641h-0.004v0.011h6.88c0.691,0,1.257-0.556,1.257-1.236v-41.086c0-0.68-0.566-1.236-1.257-1.236   h-6.88C867.816,228.778,868.602,231.329,869.22,233.879z"></path>
	<path id="Seat51" class="st2 seat" d="M866.867,59.773h-0.004h-29.712c-5.583,0-10.151-3.952-10.151-8.781V25.008   c0-4.829,4.568-8.781,10.151-8.781h29.712c0.953,2.551,1.739,5.102,2.357,7.652c2.282,9.418,2.282,18.835,0,28.253   C868.602,54.679,867.818,57.226,866.867,59.773z M840.484,61.237v0.3c0,0.805,0.67,1.463,1.488,1.463h29.899   c0.491,0,0.893-0.395,0.893-0.878v-2.349h-5.896h-0.004h-24.891C841.153,59.773,840.484,60.432,840.484,61.237z M840.484,14.463   v0.3c0,0.805,0.67,1.463,1.488,1.463h24.891h5.9v-2.349c0-0.483-0.401-0.878-0.893-0.878h-29.899   C841.153,13,840.484,13.659,840.484,14.463z M869.22,23.879c2.282,9.418,2.282,18.835,0,28.253   c-0.617,2.547-1.402,5.094-2.353,7.641h-0.004v0.011h6.88c0.691,0,1.257-0.556,1.257-1.236V17.463c0-0.68-0.565-1.236-1.257-1.236   h-6.88C867.816,18.778,868.602,21.329,869.22,23.879z"></path>
	<path id="Seat52" class="st2 seat" d="M866.867,109.773h-0.004h-29.712c-5.583,0-10.151-3.952-10.151-8.781V75.008   c0-4.829,4.568-8.781,10.151-8.781h29.712c0.953,2.551,1.739,5.102,2.357,7.652c2.282,9.418,2.282,18.835,0,28.253   C868.602,104.679,867.818,107.226,866.867,109.773z M840.484,111.237v0.3c0,0.805,0.67,1.464,1.488,1.464h29.899   c0.491,0,0.893-0.395,0.893-0.878v-2.349h-5.896h-0.004h-24.891C841.153,109.773,840.484,110.432,840.484,111.237z M840.484,64.463   v0.3c0,0.805,0.67,1.464,1.488,1.464h24.891h5.9v-2.349c0-0.483-0.401-0.878-0.893-0.878h-29.899   C841.153,63,840.484,63.659,840.484,64.463z M869.22,73.879c2.282,9.418,2.282,18.835,0,28.253   c-0.617,2.547-1.402,5.094-2.353,7.641h-0.004v0.011h6.88c0.691,0,1.257-0.556,1.257-1.236V67.463c0-0.68-0.565-1.236-1.257-1.236   h-6.88C867.816,68.778,868.602,71.329,869.22,73.879z"></path>
	<path id="Seat53" class="st2 seat" d="M776.867,319.773h-0.004h-29.712c-5.583,0-10.151-3.952-10.151-8.781v-25.984   c0-4.829,4.568-8.781,10.151-8.781h29.712c0.953,2.551,1.739,5.102,2.357,7.652c2.282,9.418,2.282,18.835,0,28.253   C778.602,314.679,777.818,317.226,776.867,319.773z M750.484,321.237v0.3c0,0.805,0.67,1.464,1.488,1.464h29.899   c0.491,0,0.893-0.395,0.893-0.878v-2.349h-5.896h-0.004h-24.891C751.153,319.773,750.484,320.432,750.484,321.237z    M750.484,274.464v0.3c0,0.805,0.67,1.464,1.488,1.464h24.891h5.9v-2.349c0-0.483-0.401-0.878-0.893-0.878h-29.899   C751.153,273,750.484,273.659,750.484,274.464z M779.22,283.879c2.282,9.418,2.282,18.835,0,28.253   c-0.617,2.547-1.402,5.094-2.353,7.641h-0.004v0.011h6.88c0.691,0,1.257-0.556,1.257-1.236v-41.086c0-0.68-0.566-1.236-1.257-1.236   h-6.88C777.816,278.778,778.602,281.329,779.22,283.879z"></path>
	<path id="Seat54" class="st2 seat" d="M776.867,269.773h-0.004h-29.712c-5.583,0-10.151-3.952-10.151-8.781v-25.984   c0-4.829,4.568-8.781,10.151-8.781h29.712c0.953,2.551,1.739,5.102,2.357,7.652c2.282,9.418,2.282,18.835,0,28.253   C778.602,264.679,777.818,267.226,776.867,269.773z M750.484,271.237v0.3c0,0.805,0.67,1.464,1.488,1.464h29.899   c0.491,0,0.893-0.395,0.893-0.878v-2.349h-5.896h-0.004h-24.891C751.153,269.773,750.484,270.432,750.484,271.237z    M750.484,224.464v0.3c0,0.805,0.67,1.464,1.488,1.464h24.891h5.9v-2.349c0-0.483-0.401-0.878-0.893-0.878h-29.899   C751.153,223,750.484,223.659,750.484,224.464z M779.22,233.879c2.282,9.418,2.282,18.835,0,28.253   c-0.617,2.547-1.402,5.094-2.353,7.641h-0.004v0.011h6.88c0.691,0,1.257-0.556,1.257-1.236v-41.086c0-0.68-0.566-1.236-1.257-1.236   h-6.88C777.816,228.778,778.602,231.329,779.22,233.879z"></path>
	<path id="Seat55" class="st2 seat" d="M776.867,59.773h-0.004h-29.712c-5.583,0-10.151-3.952-10.151-8.781V25.008   c0-4.829,4.568-8.781,10.151-8.781h29.712c0.953,2.551,1.739,5.102,2.357,7.652c2.282,9.418,2.282,18.835,0,28.253   C778.602,54.679,777.818,57.226,776.867,59.773z M750.484,61.237v0.3c0,0.805,0.67,1.463,1.488,1.463h29.899   c0.491,0,0.893-0.395,0.893-0.878v-2.349h-5.896h-0.004h-24.891C751.153,59.773,750.484,60.432,750.484,61.237z M750.484,14.463   v0.3c0,0.805,0.67,1.463,1.488,1.463h24.891h5.9v-2.349c0-0.483-0.401-0.878-0.893-0.878h-29.899   C751.153,13,750.484,13.659,750.484,14.463z M779.22,23.879c2.282,9.418,2.282,18.835,0,28.253   c-0.617,2.547-1.402,5.094-2.353,7.641h-0.004v0.011h6.88c0.691,0,1.257-0.556,1.257-1.236V17.463c0-0.68-0.566-1.236-1.257-1.236   h-6.88C777.816,18.778,778.602,21.329,779.22,23.879z"></path>
	<path id="Seat56" class="st2 seat" d="M776.867,109.773h-0.004h-29.712c-5.583,0-10.151-3.952-10.151-8.781V75.008   c0-4.829,4.568-8.781,10.151-8.781h29.712c0.953,2.551,1.739,5.102,2.357,7.652c2.282,9.418,2.282,18.835,0,28.253   C778.602,104.679,777.818,107.226,776.867,109.773z M750.484,111.237v0.3c0,0.805,0.67,1.464,1.488,1.464h29.899   c0.491,0,0.893-0.395,0.893-0.878v-2.349h-5.896h-0.004h-24.891C751.153,109.773,750.484,110.432,750.484,111.237z M750.484,64.463   v0.3c0,0.805,0.67,1.464,1.488,1.464h24.891h5.9v-2.349c0-0.483-0.401-0.878-0.893-0.878h-29.899   C751.153,63,750.484,63.659,750.484,64.463z M779.22,73.879c2.282,9.418,2.282,18.835,0,28.253   c-0.617,2.547-1.402,5.094-2.353,7.641h-0.004v0.011h6.88c0.691,0,1.257-0.556,1.257-1.236V67.463c0-0.68-0.566-1.236-1.257-1.236   h-6.88C777.816,68.778,778.602,71.329,779.22,73.879z"></path>
	<path id="Seat57" class="st2 seat" d="M686.867,319.773h-0.004h-29.712c-5.583,0-10.151-3.952-10.151-8.781v-25.984   c0-4.829,4.568-8.781,10.151-8.781h29.712c0.953,2.551,1.739,5.102,2.357,7.652c2.282,9.418,2.282,18.835,0,28.253   C688.603,314.679,687.818,317.226,686.867,319.773z M660.484,321.237v0.3c0,0.805,0.67,1.464,1.488,1.464h29.899   c0.491,0,0.893-0.395,0.893-0.878v-2.349h-5.896h-0.004h-24.891C661.154,319.773,660.484,320.432,660.484,321.237z    M660.484,274.464v0.3c0,0.805,0.67,1.464,1.488,1.464h24.891h5.9v-2.349c0-0.483-0.401-0.878-0.893-0.878h-29.899   C661.154,273,660.484,273.659,660.484,274.464z M689.22,283.879c2.282,9.418,2.282,18.835,0,28.253   c-0.617,2.547-1.402,5.094-2.353,7.641h-0.004v0.011h6.88c0.691,0,1.257-0.556,1.257-1.236v-41.086c0-0.68-0.566-1.236-1.257-1.236   h-6.88C687.816,278.778,688.602,281.329,689.22,283.879z"></path>
	<path id="Seat58" class="st2 seat" d="M686.867,269.773h-0.004h-29.712c-5.583,0-10.151-3.952-10.151-8.781v-25.984   c0-4.829,4.568-8.781,10.151-8.781h29.712c0.953,2.551,1.739,5.102,2.357,7.652c2.282,9.418,2.282,18.835,0,28.253   C688.603,264.679,687.818,267.226,686.867,269.773z M660.484,271.237v0.3c0,0.805,0.67,1.464,1.488,1.464h29.899   c0.491,0,0.893-0.395,0.893-0.878v-2.349h-5.896h-0.004h-24.891C661.154,269.773,660.484,270.432,660.484,271.237z    M660.484,224.464v0.3c0,0.805,0.67,1.464,1.488,1.464h24.891h5.9v-2.349c0-0.483-0.401-0.878-0.893-0.878h-29.899   C661.154,223,660.484,223.659,660.484,224.464z M689.22,233.879c2.282,9.418,2.282,18.835,0,28.253   c-0.617,2.547-1.402,5.094-2.353,7.641h-0.004v0.011h6.88c0.691,0,1.257-0.556,1.257-1.236v-41.086c0-0.68-0.566-1.236-1.257-1.236   h-6.88C687.816,228.778,688.602,231.329,689.22,233.879z"></path>
	<path id="Seat59" class="st2 seat" d="M523.132,276.227h0.004h29.712c5.583,0,10.151,3.952,10.151,8.781v25.984   c0,4.829-4.568,8.781-10.151,8.781h-29.712c-0.953-2.551-1.739-5.102-2.357-7.652c-2.282-9.418-2.282-18.835,0-28.253   C521.397,281.321,522.181,278.774,523.132,276.227z M549.516,274.763v-0.3c0-0.805-0.67-1.464-1.488-1.464h-29.899   c-0.491,0-0.893,0.395-0.893,0.878v2.349h5.896h0.004h24.891C548.846,276.227,549.516,275.568,549.516,274.763z M549.516,321.536   v-0.3c0-0.805-0.67-1.464-1.488-1.464h-24.891h-5.9v2.349c0,0.483,0.401,0.878,0.893,0.878h29.899   C548.846,323,549.516,322.341,549.516,321.536z M520.78,312.121c-2.282-9.418-2.282-18.835,0-28.253   c0.617-2.547,1.402-5.094,2.353-7.641h0.004v-0.011h-6.88c-0.691,0-1.257,0.556-1.257,1.236v41.086c0,0.68,0.565,1.236,1.257,1.236   h6.88C522.184,317.222,521.398,314.671,520.78,312.121z"></path>
	<path id="Seat60" class="st2 seat" d="M523.132,226.227h0.004h29.712c5.583,0,10.151,3.952,10.151,8.781v25.984   c0,4.829-4.568,8.781-10.151,8.781h-29.712c-0.953-2.551-1.739-5.102-2.357-7.652c-2.282-9.418-2.282-18.835,0-28.253   C521.397,231.321,522.181,228.774,523.132,226.227z M549.516,224.763v-0.3c0-0.805-0.67-1.464-1.488-1.464h-29.899   c-0.491,0-0.893,0.395-0.893,0.878v2.349h5.896h0.004h24.891C548.846,226.227,549.516,225.568,549.516,224.763z M549.516,271.536   v-0.3c0-0.805-0.67-1.464-1.488-1.464h-24.891h-5.9v2.349c0,0.483,0.401,0.878,0.893,0.878h29.899   C548.846,273,549.516,272.341,549.516,271.536z M520.78,262.121c-2.282-9.418-2.282-18.835,0-28.253   c0.617-2.547,1.402-5.094,2.353-7.641h0.004v-0.011h-6.88c-0.691,0-1.257,0.556-1.257,1.236v41.086c0,0.68,0.565,1.236,1.257,1.236   h6.88C522.184,267.222,521.398,264.671,520.78,262.121z"></path>
	<path id="Seat61" class="st2 seat" d="M686.867,59.773h-0.004h-29.712c-5.583,0-10.151-3.952-10.151-8.781V25.008   c0-4.829,4.568-8.781,10.151-8.781h29.712c0.953,2.551,1.739,5.102,2.357,7.652c2.282,9.418,2.282,18.835,0,28.253   C688.603,54.679,687.818,57.226,686.867,59.773z M660.484,61.237v0.3c0,0.805,0.67,1.463,1.488,1.463h29.899   c0.491,0,0.893-0.395,0.893-0.878v-2.349h-5.896h-0.004h-24.891C661.154,59.773,660.484,60.432,660.484,61.237z M660.484,14.463   v0.3c0,0.805,0.67,1.463,1.488,1.463h24.891h5.9v-2.349c0-0.483-0.401-0.878-0.893-0.878h-29.899   C661.154,13,660.484,13.659,660.484,14.463z M689.22,23.879c2.282,9.418,2.282,18.835,0,28.253   c-0.617,2.547-1.402,5.094-2.353,7.641h-0.004v0.011h6.88c0.691,0,1.257-0.556,1.257-1.236V17.463c0-0.68-0.566-1.236-1.257-1.236   h-6.88C687.816,18.778,688.602,21.329,689.22,23.879z"></path>
	<path id="Seat62" class="st2 seat" d="M686.867,109.773h-0.004h-29.712c-5.583,0-10.151-3.952-10.151-8.781V75.008   c0-4.829,4.568-8.781,10.151-8.781h29.712c0.953,2.551,1.739,5.102,2.357,7.652c2.282,9.418,2.282,18.835,0,28.253   C688.603,104.679,687.818,107.226,686.867,109.773z M660.484,111.237v0.3c0,0.805,0.67,1.464,1.488,1.464h29.899   c0.491,0,0.893-0.395,0.893-0.878v-2.349h-5.896h-0.004h-24.891C661.154,109.773,660.484,110.432,660.484,111.237z M660.484,64.463   v0.3c0,0.805,0.67,1.464,1.488,1.464h24.891h5.9v-2.349c0-0.483-0.401-0.878-0.893-0.878h-29.899   C661.154,63,660.484,63.659,660.484,64.463z M689.22,73.879c2.282,9.418,2.282,18.835,0,28.253   c-0.617,2.547-1.402,5.094-2.353,7.641h-0.004v0.011h6.88c0.691,0,1.257-0.556,1.257-1.236V67.463c0-0.68-0.566-1.236-1.257-1.236   h-6.88C687.816,68.778,688.602,71.329,689.22,73.879z"></path>
	<path id="Seat63" class="st2 seat" d="M523.132,16.227h0.004h29.712c5.583,0,10.151,3.952,10.151,8.781v25.984   c0,4.829-4.568,8.781-10.151,8.781h-29.712c-0.953-2.551-1.739-5.102-2.357-7.652c-2.282-9.418-2.282-18.835,0-28.253   C521.397,21.321,522.181,18.774,523.132,16.227z M549.516,14.763v-0.3c0-0.805-0.67-1.463-1.488-1.463h-29.899   c-0.491,0-0.893,0.395-0.893,0.878v2.349h5.896h0.004h24.891C548.846,16.227,549.516,15.568,549.516,14.763z M549.516,61.537v-0.3   c0-0.805-0.67-1.463-1.488-1.463h-24.891h-5.9v2.349c0,0.483,0.401,0.878,0.893,0.878h29.899   C548.846,63,549.516,62.341,549.516,61.537z M520.78,52.121c-2.282-9.418-2.282-18.835,0-28.253   c0.617-2.547,1.401-5.094,2.353-7.641h0.004v-0.011h-6.88c-0.691,0-1.257,0.556-1.257,1.236v41.086c0,0.68,0.565,1.236,1.257,1.236   h6.88C522.184,57.222,521.398,54.671,520.78,52.121z"></path>
	<path id="Seat64" class="st2 seat" d="M523.132,66.227h0.004h29.712c5.583,0,10.151,3.952,10.151,8.781v25.984   c0,4.829-4.568,8.781-10.151,8.781h-29.712c-0.953-2.551-1.739-5.102-2.357-7.652c-2.282-9.418-2.282-18.835,0-28.253   C521.397,71.321,522.181,68.774,523.132,66.227z M549.516,64.763v-0.3c0-0.805-0.67-1.463-1.488-1.463h-29.899   c-0.491,0-0.893,0.395-0.893,0.878v2.349h5.896h0.004h24.891C548.846,66.227,549.516,65.568,549.516,64.763z M549.516,111.536v-0.3   c0-0.805-0.67-1.464-1.488-1.464h-24.891h-5.9v2.349c0,0.483,0.401,0.878,0.893,0.878h29.899   C548.846,113,549.516,112.341,549.516,111.536z M520.78,102.121c-2.282-9.418-2.282-18.835,0-28.253   c0.617-2.547,1.401-5.094,2.353-7.641h0.004v-0.011h-6.88c-0.691,0-1.257,0.556-1.257,1.236v41.086c0,0.68,0.565,1.236,1.257,1.236   h6.88C522.184,107.222,521.398,104.671,520.78,102.121z"></path>
	<path id="Seat65" class="st2 seat" d="M441.133,276.227h0.004h29.712c5.583,0,10.151,3.952,10.151,8.781v25.984   c0,4.829-4.568,8.781-10.151,8.781h-29.712c-0.953-2.551-1.739-5.102-2.357-7.652c-2.282-9.418-2.282-18.835,0-28.253   C439.397,281.321,440.182,278.774,441.133,276.227z M467.516,274.763v-0.3c0-0.805-0.67-1.464-1.488-1.464h-29.899   c-0.491,0-0.893,0.395-0.893,0.878v2.349h5.896h0.004h24.891C466.846,276.227,467.516,275.568,467.516,274.763z M467.516,321.536   v-0.3c0-0.805-0.67-1.464-1.488-1.464h-24.891h-5.9v2.349c0,0.483,0.402,0.878,0.893,0.878h29.899   C466.846,323,467.516,322.341,467.516,321.536z M438.78,312.121c-2.282-9.418-2.282-18.835,0-28.253   c0.617-2.547,1.402-5.094,2.353-7.641h0.004v-0.011h-6.88c-0.691,0-1.257,0.556-1.257,1.236v41.086c0,0.68,0.565,1.236,1.257,1.236   h6.88C440.184,317.222,439.398,314.671,438.78,312.121z"></path>
	<path id="Seat66" class="st2 seat" d="M441.133,226.227h0.004h29.712c5.583,0,10.151,3.952,10.151,8.781v25.984   c0,4.829-4.568,8.781-10.151,8.781h-29.712c-0.953-2.551-1.739-5.102-2.357-7.652c-2.282-9.418-2.282-18.835,0-28.253   C439.397,231.321,440.182,228.774,441.133,226.227z M467.516,224.763v-0.3c0-0.805-0.67-1.464-1.488-1.464h-29.899   c-0.491,0-0.893,0.395-0.893,0.878v2.349h5.896h0.004h24.891C466.846,226.227,467.516,225.568,467.516,224.763z M467.516,271.536   v-0.3c0-0.805-0.67-1.464-1.488-1.464h-24.891h-5.9v2.349c0,0.483,0.402,0.878,0.893,0.878h29.899   C466.846,273,467.516,272.341,467.516,271.536z M438.78,262.121c-2.282-9.418-2.282-18.835,0-28.253   c0.617-2.547,1.402-5.094,2.353-7.641h0.004v-0.011h-6.88c-0.691,0-1.257,0.556-1.257,1.236v41.086c0,0.68,0.565,1.236,1.257,1.236   h6.88C440.184,267.222,439.398,264.671,438.78,262.121z"></path>
</g>
<g id="Numbers" pointer-events="none">
	<text transform="matrix(1.0003 0 0 1 2071.3821 303.8447)" class="st3 st4 st5">1</text>
	<text transform="matrix(1.0003 0 0 1 2071.3831 253.8447)" class="st3 st4 st5">2</text>
	<text transform="matrix(1.0003 0 0 1 2071.3821 43.8457)" class="st3 st4 st5">3</text>
	<text transform="matrix(1.0003 0 0 1 2071.3821 93.8433)" class="st3 st4 st5">4</text>
	<text transform="matrix(1.0003 0 0 1 1964.8809 303.8457)" class="st3 st4 st5">5</text>
	<text transform="matrix(1.0003 0 0 1 1964.8809 253.8457)" class="st3 st4 st5">6</text>
	<text transform="matrix(1.0003 0 0 1 1964.8809 43.8457)" class="st3 st4 st5">7</text>
	<text transform="matrix(1.0003 0 0 1 1964.8809 93.8433)" class="st3 st4 st5">8</text>
	<text transform="matrix(1.0003 0 0 1 1858.3818 303.8447)" class="st3 st4 st5">9</text>
	<text transform="matrix(1.0003 0 0 1 1852.7656 253.8457)" class="st3 st4 st5">10</text>
	<text transform="matrix(1.0003 0 0 1 1852.7656 43.8457)" class="st3 st4 st5">11</text>
	<text transform="matrix(1.0003 0 0 1 1852.7656 93.8447)" class="st3 st4 st5">12</text>
	<text transform="matrix(1.0003 0 0 1 1746.2656 303.8447)" class="st3 st4 st5">13</text>
	<text transform="matrix(1.0003 0 0 1 1746.2666 253.8457)" class="st3 st4 st5">14</text>
	<text transform="matrix(1.0003 0 0 1 1746.2666 43.8462)" class="st3 st4 st5">15</text>
	<text transform="matrix(1.0003 0 0 1 1746.2656 93.8433)" class="st3 st4 st5">16</text>
	<text transform="matrix(1.0003 0 0 1 1639.7666 303.8447)" class="st3 st4 st5">17</text>
	<text transform="matrix(1.0003 0 0 1 1639.7666 253.8457)" class="st3 st4 st5">18</text>
	<text transform="matrix(1.0003 0 0 1 1507.7656 303.8447)" class="st3 st4 st5">19</text>
	<text transform="matrix(1.0003 0 0 1 1507.7666 253.8457)" class="st3 st4 st5">20</text>
	<text transform="matrix(1.0003 0 0 1 1639.7666 43.8433)" class="st3 st4 st5">21</text>
	<text transform="matrix(1.0003 0 0 1 1639.7666 93.8447)" class="st3 st4 st5">22</text>
	<text transform="matrix(1.0003 0 0 1 1507.7656 43.8457)" class="st3 st4 st5">23</text>
	<text transform="matrix(1.0003 0 0 1 1507.7666 93.8447)" class="st3 st4 st5">24</text>
	<text transform="matrix(1.0003 0 0 1 1417.7656 303.8447)" class="st3 st4 st5">25</text>
	<text transform="matrix(1.0003 0 0 1 1417.7656 253.8457)" class="st3 st4 st5">26</text>
	<text transform="matrix(1.0003 0 0 1 1417.7646 43.8457)" class="st3 st4 st5">27</text>
	<text transform="matrix(1.0003 0 0 1 1417.7646 93.8433)" class="st3 st4 st5">28</text>
	<text transform="matrix(1.0003 0 0 1 1327.7656 303.8447)" class="st3 st4 st5">29</text>
	<text transform="matrix(1.0003 0 0 1 1327.7656 253.8457)" class="st3 st4 st5">30</text>
	<text transform="matrix(1.0003 0 0 1 1327.7646 43.8457)" class="st3 st4 st5">31</text>
	<text transform="matrix(1.0003 0 0 1 1327.7646 93.8433)" class="st3 st4 st5">32</text>
	<text transform="matrix(1.0003 0 0 1 1237.7656 303.8447)" class="st3 st4 st5">33</text>
	<text transform="matrix(1.0003 0 0 1 1237.7666 253.8457)" class="st3 st4 st5">34</text>
	<text transform="matrix(1.0003 0 0 1 1237.7656 43.8457)" class="st3 st4 st5">35</text>
	<text transform="matrix(1.0003 0 0 1 1237.7656 93.8433)" class="st3 st4 st5">36</text>
	<text transform="matrix(1.0003 0 0 1 1057.7656 303.8447)" class="st3 st4 st5">41</text>
	<text transform="matrix(1.0003 0 0 1 1057.7661 253.8447)" class="st3 st4 st5">42</text>
	<text transform="matrix(1.0003 0 0 1 1057.7656 43.8462)" class="st3 st4 st5">43</text>
	<text transform="matrix(1.0003 0 0 1 1057.7661 93.8433)" class="st3 st4 st5">44</text>
	<text transform="matrix(1.0003 0 0 1 1147.7651 303.8447)" class="st3 st4 st5">37</text>
	<text transform="matrix(1.0003 0 0 1 1147.7646 253.8438)" class="st3 st4 st5">38</text>
	<text transform="matrix(1.0003 0 0 1 1147.7661 43.8457)" class="st3 st4 st5">39</text>
	<text transform="matrix(1.0003 0 0 1 1147.7651 93.8433)" class="st3 st4 st5">40</text>
	<text transform="matrix(1.0003 0 0 1 975.2661 43.8462)" class="st3 st4 st5">45</text>
	<text transform="matrix(1.0003 0 0 1 975.2656 93.8433)" class="st3 st4 st5">46</text>
	<text transform="matrix(1.0003 0 0 1 892.7656 43.8457)" class="st3 st4 st5">47</text>
	<text transform="matrix(1.0003 0 0 1 892.7661 93.8433)" class="st3 st4 st5">48</text>
	<text transform="matrix(1.0003 0 0 1 839.7656 303.8447)" class="st3 st4 st5">49</text>
	<text transform="matrix(1.0003 0 0 1 839.7661 253.8438)" class="st3 st4 st5">50</text>
	<text transform="matrix(1.0003 0 0 1 839.7656 43.8462)" class="st3 st4 st5">51</text>
	<text transform="matrix(1.0003 0 0 1 839.7656 93.8433)" class="st3 st4 st5">52</text>
	<text transform="matrix(1.0003 0 0 1 749.7661 303.8447)" class="st3 st4 st5">53</text>
	<text transform="matrix(1.0003 0 0 1 749.7661 253.8457)" class="st3 st4 st5">54</text>
	<text transform="matrix(1 0 0 1 749.7695 43.8447)" class="st3 st4 st5">55</text>
	<text transform="matrix(1 0 0 1 749.77 93.8462)" class="st3 st4 st5">56</text>
	<text transform="matrix(1.0003 0 0 1 659.7661 303.8457)" class="st3 st4 st5">57</text>
	<text transform="matrix(1.0003 0 0 1 659.7666 253.8438)" class="st3 st4 st5">58</text>
	<text transform="matrix(1.0003 0 0 1 527.7661 303.8447)" class="st3 st4 st5">59</text>
	<text transform="matrix(1.0003 0 0 1 527.7656 253.8438)" class="st3 st4 st5">60</text>
	<text transform="matrix(1.0003 0 0 1 659.7661 43.8462)" class="st3 st4 st5">61</text>
	<text transform="matrix(1.0003 0 0 1 659.7661 93.8433)" class="st3 st4 st5">62</text>
	<text transform="matrix(1.0003 0 0 1 527.7656 43.8457)" class="st3 st4 st5">63</text>
	<text transform="matrix(1.0003 0 0 1 527.7656 93.8433)" class="st3 st4 st5">64</text>
	<text transform="matrix(1 0 0 1 445.769 303.8447)" class="st3 st4 st5">65</text>
	<text transform="matrix(1 0 0 1 445.7695 253.8447)" class="st3 st4 st5">66</text>
</g>
<g id="Tables">
	<path class="st6" d="M581,13h48v72c0,8.8-7.2,16-16,16h-16c-8.8,0-16-7.2-16-16V13z"></path>
	<path class="st6" d="M581,328h48v-72c0-8.8-7.2-16-16-16h-16c-8.8,0-16,7.2-16,16V328z"></path>
	<path class="st6" d="M1561,323h48v-72c0-8.8-7.2-16-16-16h-16c-8.8,0-16,7.2-16,16V323z"></path>
	<path class="st6" d="M1561,13h48v72c0,8.8-7.2,16-16,16h-16c-8.8,0-16-7.2-16-16V13z"></path>
	<rect x="880" y="235" class="st6" width="160" height="88"></rect>
	<rect x="2106" y="213" class="st6" width="153" height="110"></rect>
</g>
<g id="Cup_for_table">
	<path class="st7" d="M615.009,64.925c0,1.148-0.929,2.075-2.079,2.075h-15.86c-1.15,0-2.078-0.927-2.078-2.075H615.009   L615.009,64.925z M610.684,60.095L610.684,60.095c0,0,0.213-0.003,0.367-0.003c1.193,0,2.16-0.965,2.16-2.159   c0-1.193-0.967-2.157-2.16-2.157h-0.367V60.095L610.684,60.095z M600.91,64.052L600.91,64.052c-0.98,0-1.771-0.795-1.771-1.775   v-7.922h11.904c1.975,0,3.582,1.604,3.582,3.577c0,1.975-1.599,3.575-3.575,3.575h-0.367c0,0.209-0.002,0.653-0.002,0.77   c0,0.98-0.795,1.775-1.775,1.775H600.91L600.91,64.052z M602.314,51.407L602.314,51.407c0,0.459-0.187,0.826-0.557,1.102   c-0.102,0.079-0.154,0.186-0.154,0.319c0,0.262,0.13,0.391,0.391,0.391c0.086,0,0.166-0.026,0.237-0.083   c0.576-0.434,0.865-1.011,0.865-1.73c0-0.528-0.212-1.022-0.634-1.48c-0.423-0.458-0.634-0.872-0.634-1.244   c0-0.396,0.146-0.73,0.439-1.008c0.079-0.078,0.118-0.174,0.118-0.285c0-0.261-0.131-0.391-0.391-0.391   c-0.103,0-0.194,0.035-0.273,0.107c-0.45,0.426-0.675,0.952-0.675,1.576c0,0.561,0.211,1.071,0.634,1.533   C602.102,50.678,602.314,51.075,602.314,51.407L602.314,51.407z M605.11,51.407L605.11,51.407c0,0.459-0.186,0.826-0.558,1.102   c-0.101,0.079-0.154,0.186-0.154,0.319c0,0.262,0.131,0.391,0.391,0.391c0.088,0,0.166-0.026,0.237-0.083   c0.577-0.434,0.864-1.011,0.864-1.73c0-0.528-0.211-1.022-0.633-1.48c-0.422-0.458-0.634-0.872-0.634-1.244   c0-0.396,0.146-0.73,0.438-1.008c0.079-0.078,0.119-0.174,0.119-0.285c0-0.261-0.13-0.391-0.391-0.391   c-0.102,0-0.193,0.035-0.272,0.107c-0.45,0.426-0.676,0.952-0.676,1.576c0,0.561,0.211,1.071,0.634,1.533   C604.899,50.678,605.11,51.075,605.11,51.407L605.11,51.407z M607.905,51.407L607.905,51.407c0,0.459-0.185,0.826-0.556,1.102   c-0.103,0.079-0.154,0.186-0.154,0.319c0,0.262,0.131,0.391,0.391,0.391c0.087,0,0.166-0.026,0.237-0.083   c0.577-0.434,0.864-1.011,0.864-1.73c0-0.528-0.211-1.022-0.633-1.48c-0.422-0.458-0.634-0.872-0.634-1.244   c0-0.396,0.147-0.73,0.438-1.008c0.079-0.078,0.119-0.174,0.119-0.285c0-0.261-0.13-0.391-0.391-0.391   c-0.103,0-0.194,0.035-0.273,0.107c-0.45,0.426-0.675,0.952-0.675,1.576c0,0.561,0.212,1.071,0.634,1.533   C607.695,50.678,607.905,51.075,607.905,51.407z"></path>
	<path class="st7" d="M615.009,291.924c0,1.148-0.929,2.075-2.079,2.075h-15.86c-1.15,0-2.078-0.927-2.078-2.075H615.009   L615.009,291.924z M610.684,287.094L610.684,287.094c0,0,0.213-0.003,0.367-0.003c1.193,0,2.16-0.965,2.16-2.159   c0-1.192-0.967-2.157-2.16-2.157h-0.367V287.094L610.684,287.094z M600.91,291.052L600.91,291.052c-0.98,0-1.771-0.795-1.771-1.775   v-7.922h11.904c1.975,0,3.582,1.604,3.582,3.577c0,1.976-1.599,3.575-3.575,3.575h-0.367c0,0.209-0.002,0.653-0.002,0.77   c0,0.979-0.795,1.775-1.775,1.775H600.91L600.91,291.052z M602.314,278.406L602.314,278.406c0,0.459-0.187,0.825-0.557,1.103   c-0.102,0.078-0.154,0.186-0.154,0.319c0,0.262,0.13,0.391,0.391,0.391c0.086,0,0.166-0.026,0.237-0.083   c0.576-0.434,0.865-1.011,0.865-1.73c0-0.528-0.212-1.023-0.634-1.48c-0.423-0.458-0.634-0.872-0.634-1.243   c0-0.396,0.146-0.73,0.439-1.008c0.079-0.078,0.118-0.173,0.118-0.284c0-0.261-0.131-0.391-0.391-0.391   c-0.103,0-0.194,0.035-0.273,0.107c-0.45,0.426-0.675,0.952-0.675,1.577c0,0.56,0.211,1.072,0.634,1.533   C602.102,277.678,602.314,278.075,602.314,278.406L602.314,278.406z M605.11,278.406L605.11,278.406   c0,0.459-0.186,0.825-0.558,1.103c-0.101,0.078-0.154,0.186-0.154,0.319c0,0.262,0.131,0.391,0.391,0.391   c0.088,0,0.166-0.026,0.237-0.083c0.577-0.434,0.864-1.011,0.864-1.73c0-0.528-0.211-1.023-0.633-1.48   c-0.422-0.458-0.634-0.872-0.634-1.243c0-0.396,0.146-0.73,0.438-1.008c0.079-0.078,0.119-0.173,0.119-0.284   c0-0.261-0.13-0.391-0.391-0.391c-0.102,0-0.193,0.035-0.272,0.107c-0.45,0.426-0.676,0.952-0.676,1.577   c0,0.56,0.211,1.072,0.634,1.533C604.899,277.678,605.11,278.075,605.11,278.406L605.11,278.406z M607.906,278.406L607.906,278.406   c0,0.459-0.185,0.825-0.557,1.103c-0.103,0.078-0.154,0.186-0.154,0.319c0,0.262,0.131,0.391,0.391,0.391   c0.087,0,0.166-0.026,0.237-0.083c0.577-0.434,0.864-1.011,0.864-1.73c0-0.528-0.211-1.023-0.633-1.48   c-0.422-0.458-0.634-0.872-0.634-1.243c0-0.396,0.147-0.73,0.438-1.008c0.079-0.078,0.119-0.173,0.119-0.284   c0-0.261-0.13-0.391-0.391-0.391c-0.103,0-0.194,0.035-0.273,0.107c-0.45,0.426-0.675,0.952-0.675,1.577   c0,0.56,0.212,1.072,0.634,1.533C607.695,277.678,607.906,278.075,607.906,278.406z"></path>
	<path class="st7" d="M1595.008,291.924c0,1.148-0.928,2.075-2.079,2.075h-15.86c-1.15,0-2.078-0.927-2.078-2.075H1595.008   L1595.008,291.924z M1590.683,287.094L1590.683,287.094c0,0,0.213-0.003,0.366-0.003c1.193,0,2.16-0.965,2.16-2.159   c0-1.193-0.967-2.157-2.16-2.157h-0.366V287.094L1590.683,287.094z M1580.909,291.052L1580.909,291.052   c-0.979,0-1.771-0.795-1.771-1.775v-7.922h11.904c1.975,0,3.582,1.604,3.582,3.577c0,1.975-1.599,3.575-3.575,3.575h-0.366   c0,0.209-0.002,0.653-0.002,0.77c0,0.979-0.795,1.775-1.775,1.775H1580.909L1580.909,291.052z M1582.314,278.406L1582.314,278.406   c0,0.459-0.186,0.825-0.557,1.103c-0.102,0.078-0.154,0.186-0.154,0.319c0,0.262,0.131,0.391,0.391,0.391   c0.087,0,0.166-0.026,0.237-0.083c0.576-0.434,0.865-1.011,0.865-1.73c0-0.528-0.212-1.023-0.634-1.48   c-0.423-0.458-0.634-0.872-0.634-1.243c0-0.396,0.146-0.73,0.438-1.008c0.079-0.078,0.118-0.173,0.118-0.284   c0-0.261-0.131-0.391-0.391-0.391c-0.102,0-0.194,0.035-0.273,0.107c-0.45,0.426-0.675,0.952-0.675,1.577   c0,0.56,0.211,1.072,0.634,1.533C1582.102,277.678,1582.314,278.075,1582.314,278.406L1582.314,278.406z M1585.109,278.406   L1585.109,278.406c0,0.459-0.185,0.825-0.557,1.103c-0.102,0.078-0.154,0.186-0.154,0.319c0,0.262,0.131,0.391,0.391,0.391   c0.088,0,0.166-0.026,0.237-0.083c0.577-0.434,0.864-1.011,0.864-1.73c0-0.528-0.211-1.023-0.633-1.48   c-0.423-0.458-0.633-0.872-0.633-1.243c0-0.396,0.145-0.73,0.437-1.008c0.079-0.078,0.119-0.173,0.119-0.284   c0-0.261-0.13-0.391-0.391-0.391c-0.102,0-0.193,0.035-0.272,0.107c-0.45,0.426-0.676,0.952-0.676,1.577   c0,0.56,0.211,1.072,0.634,1.533C1584.899,277.678,1585.109,278.075,1585.109,278.406L1585.109,278.406z M1587.905,278.406   L1587.905,278.406c0,0.459-0.185,0.825-0.557,1.103c-0.102,0.078-0.154,0.186-0.154,0.319c0,0.262,0.131,0.391,0.391,0.391   c0.087,0,0.167-0.026,0.237-0.083c0.577-0.434,0.864-1.011,0.864-1.73c0-0.528-0.211-1.023-0.634-1.48   c-0.422-0.458-0.634-0.872-0.634-1.243c0-0.396,0.147-0.73,0.438-1.008c0.079-0.078,0.118-0.173,0.118-0.284   c0-0.261-0.13-0.391-0.391-0.391c-0.103,0-0.193,0.035-0.272,0.107c-0.45,0.426-0.675,0.952-0.675,1.577   c0,0.56,0.212,1.072,0.634,1.533C1587.694,277.678,1587.905,278.075,1587.905,278.406z"></path>
	<path class="st7" d="M1595.008,64.925c0,1.148-0.928,2.075-2.079,2.075h-15.86c-1.15,0-2.078-0.927-2.078-2.075H1595.008   L1595.008,64.925z M1590.683,60.095L1590.683,60.095c0,0,0.213-0.003,0.366-0.003c1.193,0,2.16-0.965,2.16-2.159   c0-1.193-0.967-2.157-2.16-2.157h-0.366V60.095L1590.683,60.095z M1580.909,64.052L1580.909,64.052   c-0.979,0-1.771-0.795-1.771-1.775v-7.922h11.904c1.975,0,3.582,1.604,3.582,3.577c0,1.975-1.599,3.575-3.575,3.575h-0.366   c0,0.209-0.002,0.653-0.002,0.77c0,0.98-0.795,1.775-1.775,1.775H1580.909L1580.909,64.052z M1582.314,51.407L1582.314,51.407   c0,0.459-0.186,0.826-0.557,1.102c-0.102,0.079-0.154,0.186-0.154,0.319c0,0.262,0.131,0.391,0.391,0.391   c0.087,0,0.166-0.026,0.237-0.083c0.576-0.434,0.865-1.011,0.865-1.73c0-0.528-0.212-1.022-0.634-1.48   c-0.423-0.458-0.634-0.872-0.634-1.244c0-0.396,0.146-0.73,0.438-1.008c0.079-0.078,0.118-0.174,0.118-0.285   c0-0.261-0.131-0.391-0.391-0.391c-0.102,0-0.194,0.035-0.273,0.107c-0.45,0.426-0.675,0.952-0.675,1.576   c0,0.561,0.211,1.071,0.634,1.533C1582.102,50.678,1582.314,51.075,1582.314,51.407L1582.314,51.407z M1585.109,51.407   L1585.109,51.407c0,0.459-0.185,0.826-0.557,1.102c-0.102,0.079-0.154,0.186-0.154,0.319c0,0.262,0.131,0.391,0.391,0.391   c0.088,0,0.166-0.026,0.237-0.083c0.577-0.434,0.864-1.011,0.864-1.73c0-0.528-0.211-1.022-0.633-1.48   c-0.423-0.458-0.633-0.872-0.633-1.244c0-0.396,0.145-0.73,0.437-1.008c0.079-0.078,0.119-0.174,0.119-0.285   c0-0.261-0.13-0.391-0.391-0.391c-0.102,0-0.193,0.035-0.272,0.107c-0.45,0.426-0.676,0.952-0.676,1.576   c0,0.561,0.211,1.071,0.634,1.533C1584.899,50.678,1585.109,51.075,1585.109,51.407L1585.109,51.407z M1587.905,51.407   L1587.905,51.407c0,0.459-0.185,0.826-0.557,1.102c-0.102,0.079-0.154,0.186-0.154,0.319c0,0.262,0.131,0.391,0.391,0.391   c0.087,0,0.167-0.026,0.237-0.083c0.577-0.434,0.864-1.011,0.864-1.73c0-0.528-0.211-1.022-0.634-1.48   c-0.422-0.458-0.634-0.872-0.634-1.244c0-0.396,0.147-0.73,0.438-1.008c0.079-0.078,0.118-0.174,0.118-0.285   c0-0.261-0.13-0.391-0.391-0.391c-0.103,0-0.193,0.035-0.272,0.107c-0.45,0.426-0.675,0.952-0.675,1.576   c0,0.561,0.212,1.071,0.634,1.533C1587.694,50.678,1587.905,51.075,1587.905,51.407z"></path>
</g>
<g id="Window">
	<line class="st8" x1="2388" y1="4" x2="2294" y2="4"></line>
	<line class="st8" x1="126" y1="4" x2="32" y2="4"></line>
	<line class="st8" x1="613" y1="4" x2="467" y2="4"></line>
	<line class="st8" x1="857" y1="4" x2="711" y2="4"></line>
	<line class="st8" x1="1239" y1="4" x2="1093" y2="4"></line>
	<line class="st8" x1="1660" y1="4" x2="1514" y2="4"></line>
	<line class="st8" x1="1439" y1="4" x2="1293" y2="4"></line>
	<line class="st8" x1="1873" y1="4" x2="1727" y2="4"></line>
	<line class="st8" x1="2088" y1="4" x2="1942" y2="4"></line>
	<line class="st8" x1="2388" y1="332" x2="2294" y2="332"></line>
	<line class="st8" x1="126" y1="332" x2="32" y2="332"></line>
	<line class="st8" x1="674" y1="332" x2="527.999" y2="332"></line>
	<line class="st8" x1="868" y1="332" x2="722" y2="332"></line>
	<line class="st8" x1="1239" y1="332" x2="1093" y2="332"></line>
	<line class="st8" x1="1660" y1="332" x2="1514" y2="332"></line>
	<line class="st8" x1="1439" y1="332" x2="1293" y2="332"></line>
	<line class="st8" x1="1873" y1="332" x2="1727" y2="332"></line>
	<line class="st8" x1="2088" y1="332" x2="1942" y2="332"></line>
</g>
<g id="Icons">
	<path id="Exit" class="st7" d="M84.232,22.861v19.712L92.962,48V18.308L84.232,22.861L84.232,22.861z M73.847,22.656L73.847,22.656   c1.282-0.031,2.302-1.097,2.271-2.381c-0.032-1.288-1.101-2.304-2.384-2.274c-1.283,0.031-2.301,1.097-2.27,2.385   C71.496,21.67,72.563,22.687,73.847,22.656L73.847,22.656z M67.453,26.804L67.453,26.804l-2.235,5.53   c-0.406,0.922-0.14,1.841,0.948,2.185l0.586,0.129l2.66-6.449h0.003c0.237-0.496,0.614-0.908,1.068-1.232l-0.495,6.886   l-0.007,0.003l-1.016,7.028l-3.026,4.293c0,0-0.374,0.587-0.004,1.303c0.254,0.49,1.285,1.222,1.285,1.222l4.686-6.262l1.108-6.596   c0.063-0.004,0.127-0.008,0.195-0.014l-0.01,0.009l3.272,11.575c0,0,0.123,0.728,0.508,1.071c0.435,0.397,1.082,0.408,1.082,0.408   l1.404-0.211L75.888,33.41c0-1.499,0.009-4.972,0.009-6.506c0-2.055-0.54-3.172-3.09-3.39   C72.205,23.468,69.084,22.866,67.453,26.804L67.453,26.804z M80.699,33.234L80.699,33.234l0.147-0.296l-3.995-2.758l-0.103,2.58   l1.995,1.184C79.579,34.328,80.214,34.214,80.699,33.234z"></path>
	<path id="Exit_1_" class="st7" d="M37.194,157.861v19.712l8.73,5.427v-29.692L37.194,157.861L37.194,157.861z M26.809,157.656   L26.809,157.656c1.282-0.031,2.302-1.097,2.271-2.381c-0.032-1.288-1.101-2.304-2.384-2.274c-1.283,0.031-2.301,1.097-2.27,2.385   C24.457,156.67,25.524,157.687,26.809,157.656L26.809,157.656z M20.415,161.804L20.415,161.804l-2.235,5.53   c-0.406,0.922-0.14,1.841,0.948,2.185l0.586,0.129l2.66-6.449h0.003c0.237-0.496,0.614-0.908,1.068-1.232l-0.495,6.886   l-0.007,0.003l-1.016,7.028l-3.026,4.293c0,0-0.374,0.587-0.004,1.303c0.254,0.49,1.285,1.222,1.285,1.222l4.686-6.262l1.108-6.596   c0.063-0.004,0.127-0.008,0.195-0.014l-0.01,0.009l3.272,11.575c0,0,0.123,0.728,0.508,1.071c0.435,0.397,1.082,0.408,1.082,0.408   l1.404-0.211L28.85,168.41c0-1.499,0.009-4.972,0.009-6.506c0-2.055-0.54-3.172-3.09-3.39   C25.166,158.468,22.045,157.866,20.415,161.804L20.415,161.804z M33.661,168.234L33.661,168.234l0.147-0.296l-3.995-2.758   l-0.103,2.58l1.995,1.184C32.54,169.328,33.175,169.214,33.661,168.234z"></path>
	<path id="Exit_3_" class="st7" d="M2393.271,157.861v19.712L2402,183v-29.692L2393.271,157.861L2393.271,157.861z    M2382.885,157.656L2382.885,157.656c1.282-0.031,2.302-1.097,2.271-2.381c-0.032-1.288-1.101-2.304-2.384-2.274   c-1.283,0.031-2.301,1.097-2.27,2.385C2380.534,156.67,2381.601,157.687,2382.885,157.656L2382.885,157.656z M2376.491,161.804   L2376.491,161.804l-2.235,5.53c-0.406,0.922-0.139,1.841,0.948,2.185l0.586,0.129l2.66-6.449h0.003   c0.237-0.496,0.614-0.908,1.068-1.232l-0.495,6.886l-0.007,0.003l-1.016,7.028l-3.026,4.293c0,0-0.374,0.587-0.004,1.303   c0.254,0.49,1.285,1.222,1.285,1.222l4.686-6.262l1.107-6.596c0.063-0.004,0.127-0.008,0.196-0.014l-0.01,0.009l3.272,11.575   c0,0,0.123,0.728,0.508,1.071c0.435,0.397,1.082,0.408,1.082,0.408l1.404-0.211l-3.576-14.272c0-1.499,0.009-4.972,0.009-6.506   c0-2.055-0.54-3.172-3.09-3.39C2381.243,158.468,2378.122,157.866,2376.491,161.804L2376.491,161.804z M2389.738,168.234   L2389.738,168.234l0.146-0.296l-3.995-2.758l-0.103,2.58l1.995,1.184C2388.617,169.328,2389.252,169.214,2389.738,168.234z"></path>
	<path id="Exit_2_" class="st7" d="M84.232,292.861v19.712l8.73,5.427v-29.692L84.232,292.861L84.232,292.861z M73.847,292.656   L73.847,292.656c1.282-0.031,2.302-1.097,2.271-2.381c-0.032-1.288-1.101-2.304-2.384-2.274c-1.283,0.031-2.301,1.097-2.27,2.385   C71.496,291.67,72.563,292.687,73.847,292.656L73.847,292.656z M67.453,296.804L67.453,296.804l-2.235,5.53   c-0.406,0.922-0.14,1.841,0.948,2.185l0.586,0.129l2.66-6.449h0.003c0.237-0.496,0.614-0.908,1.068-1.232l-0.495,6.886   l-0.007,0.003l-1.016,7.028l-3.026,4.293c0,0-0.374,0.587-0.004,1.303c0.254,0.49,1.285,1.222,1.285,1.222l4.686-6.262l1.108-6.596   c0.063-0.004,0.127-0.008,0.195-0.014l-0.01,0.009l3.272,11.575c0,0,0.123,0.728,0.508,1.071c0.435,0.397,1.082,0.408,1.082,0.408   l1.404-0.211l-3.576-14.272c0-1.499,0.009-4.972,0.009-6.506c0-2.055-0.54-3.172-3.09-3.39   C72.205,293.468,69.084,292.866,67.453,296.804L67.453,296.804z M80.699,303.234L80.699,303.234l0.147-0.296l-3.995-2.758   l-0.103,2.58l1.995,1.184C79.579,304.328,80.214,304.214,80.699,303.234z"></path>
	<path id="WC" class="st7" d="M201.962,263.596h3.478l1.647,9.844h0.037l1.721-9.844h4.32l1.794,9.844h0.037l1.666-9.844h3.313   l-2.856,12.809h-4.375l-1.812-9.844h-0.036l-1.684,9.844h-4.411L201.962,263.596L201.962,263.596z M231.962,276.111   c-0.683,0.183-1.3,0.314-1.849,0.393c-0.549,0.079-1.135,0.119-1.757,0.119c-1.306,0-2.431-0.168-3.377-0.503   c-0.946-0.335-1.724-0.802-2.334-1.4c-0.61-0.598-1.065-1.296-1.364-2.095c-0.299-0.799-0.448-1.668-0.448-2.607   c0-1.135,0.201-2.132,0.604-2.992c0.403-0.86,0.921-1.558,1.556-2.095c0.622-0.512,1.376-0.9,2.261-1.162   c0.885-0.262,1.852-0.393,2.901-0.393c0.354,0,0.848,0.037,1.483,0.11c0.635,0.073,1.403,0.256,2.306,0.549l-0.274,2.763   c-0.391-0.207-0.876-0.409-1.455-0.604c-0.58-0.195-1.199-0.293-1.858-0.293c-0.683,0-1.26,0.113-1.73,0.338   c-0.47,0.226-0.845,0.479-1.126,0.759c-0.329,0.329-0.604,0.756-0.824,1.281c-0.219,0.525-0.329,1.116-0.329,1.775   c0,0.622,0.104,1.189,0.311,1.702c0.207,0.512,0.488,0.933,0.842,1.262c0.366,0.354,0.827,0.622,1.382,0.805   c0.555,0.183,1.132,0.274,1.73,0.274c0.476,0,0.995-0.058,1.556-0.174s1.104-0.277,1.629-0.485L231.962,276.111z"></path>
	<path id="WC_1_" class="st7" d="M324.212,263.596h3.478l1.647,9.844h0.037l1.721-9.844h4.32l1.794,9.844h0.036l1.666-9.844h3.313   l-2.856,12.809h-4.375l-1.812-9.844h-0.036l-1.684,9.844h-4.411L324.212,263.596L324.212,263.596z M354.212,276.111   c-0.683,0.183-1.3,0.314-1.849,0.393c-0.549,0.079-1.135,0.119-1.757,0.119c-1.306,0-2.431-0.168-3.377-0.503   c-0.946-0.335-1.724-0.802-2.334-1.4c-0.61-0.598-1.065-1.296-1.364-2.095c-0.299-0.799-0.448-1.668-0.448-2.607   c0-1.135,0.201-2.132,0.604-2.992c0.403-0.86,0.921-1.558,1.556-2.095c0.622-0.512,1.376-0.9,2.261-1.162   c0.885-0.262,1.852-0.393,2.901-0.393c0.354,0,0.848,0.037,1.483,0.11c0.635,0.073,1.403,0.256,2.306,0.549l-0.274,2.763   c-0.391-0.207-0.876-0.409-1.455-0.604c-0.58-0.195-1.199-0.293-1.858-0.293c-0.683,0-1.26,0.113-1.73,0.338   c-0.47,0.226-0.845,0.479-1.126,0.759c-0.329,0.329-0.604,0.756-0.824,1.281c-0.219,0.525-0.329,1.116-0.329,1.775   c0,0.622,0.104,1.189,0.311,1.702c0.207,0.512,0.488,0.933,0.842,1.262c0.366,0.354,0.827,0.622,1.382,0.805   c0.555,0.183,1.132,0.274,1.73,0.274c0.476,0,0.995-0.058,1.556-0.174s1.104-0.277,1.629-0.485L354.212,276.111z"></path>
	<path id="Baggage" class="st7" d="M444.634,38.443c-0.687,0.683-0.941,1.477-1.036,2.248c-0.054,0.447-0.054,0.888-0.054,1.298   v15.438c0,0.403,0,0.844,0.054,1.297c0.095,0.765,0.349,1.56,1.036,2.244c1.085,1.099,2.451,1.099,3.544,1.099h0.64V37.348h-0.64   C447.085,37.348,445.719,37.348,444.634,38.443L444.634,38.443z M473.402,40.69L473.402,40.69c-0.095-0.77-0.347-1.565-1.033-2.248   c-1.088-1.094-2.454-1.094-3.545-1.094h-0.64v24.718h0.64c1.09,0,2.456,0,3.545-1.099c0.687-0.684,0.938-1.478,1.033-2.244   c0.053-0.453,0.053-0.894,0.053-1.297V41.988C473.456,41.578,473.456,41.137,473.402,40.69L473.402,40.69z M462.907,34.18   L462.907,34.18c0-1.164-0.95-2.114-2.117-2.114h-4.585c-1.158,0-2.109,0.949-2.109,2.114v3.168h-3.517v24.711h15.835V37.348h-3.508   V34.18L462.907,34.18z M461.033,37.351L461.033,37.351h-5.069v-3.359h5.069V37.351z"></path>
	<path id="Baggage_1_" class="st7" d="M2167.634,259.376c-0.687,0.683-0.941,1.477-1.036,2.248   c-0.054,0.447-0.054,0.888-0.054,1.298v15.438c0,0.403,0,0.844,0.054,1.297c0.095,0.765,0.349,1.56,1.036,2.244   c1.085,1.099,2.451,1.099,3.544,1.099h0.639v-24.718h-0.639C2170.084,258.282,2168.719,258.282,2167.634,259.376L2167.634,259.376z    M2196.402,261.624L2196.402,261.624c-0.095-0.77-0.346-1.565-1.033-2.248c-1.088-1.095-2.454-1.095-3.545-1.095h-0.64V283h0.64   c1.091,0,2.456,0,3.545-1.099c0.687-0.684,0.938-1.478,1.033-2.244c0.053-0.453,0.053-0.894,0.053-1.297v-15.438   C2196.456,262.512,2196.456,262.071,2196.402,261.624L2196.402,261.624z M2185.906,255.113L2185.906,255.113   c0-1.164-0.95-2.114-2.117-2.114h-4.584c-1.158,0-2.109,0.949-2.109,2.114v3.168h-3.517v24.711h15.835v-24.711h-3.508V255.113   L2185.906,255.113z M2184.033,258.285L2184.033,258.285h-5.069v-3.359h5.069V258.285z"></path>
	<path id="Hanger" class="st7" d="M972.62,285.786c-0.045,0.281-0.276,0.572-0.586,0.572h-24.068c-0.311,0-0.541-0.292-0.587-0.572   c-0.089-0.56,0.562-0.861,0.958-0.992c2.794-0.92,9.923-3.393,11.664-3.996c1.741,0.603,8.868,3.076,11.663,3.996   C972.059,284.925,972.71,285.225,972.62,285.786L972.62,285.786z M972.404,282.54L972.404,282.54   c-2.624-0.863-9.106-3.109-11.283-3.865v-1.681c0-0.139,0.198-0.575,0.813-1.041c1.983-1.507,1.758-3.556,1.359-4.426   c-0.614-1.362-1.954-2.228-3.494-2.256c-1.03-0.021-1.992,0.366-2.728,1.086c-0.746,0.729-1.17,1.747-1.17,2.788   c0,0.147,0.008,0.299,0.028,0.464c0.079,0.65,0.668,1.116,1.32,1.038c0.651-0.078,1.115-0.668,1.037-1.318   c-0.008-0.072-0.012-0.134-0.012-0.184c0-0.408,0.167-0.806,0.459-1.091c0.277-0.273,0.631-0.418,1.018-0.411   c0.299,0.006,1.027,0.1,1.375,0.847c0.058,0.163,0.262,0.897-0.628,1.573c-1.113,0.844-1.752,1.914-1.752,2.93v1.727   c-2.295,0.795-8.58,2.973-11.152,3.82c-2.201,0.723-2.755,2.402-2.56,3.621c0.236,1.464,1.495,2.569,2.93,2.569h24.068   c1.436,0,2.696-1.105,2.93-2.569C975.157,284.942,974.605,283.263,972.404,282.54z"></path>
	<path id="Plugs" class="st7" d="M409,240.071c-1.38,0-2.5,1.12-2.5,2.5v16c0,1.38,1.12,2.5,2.5,2.5h16c1.38,0,2.5-1.12,2.5-2.5v-16   c0-1.38-1.12-2.5-2.5-2.5H409z M407.5,242.571c0-0.828,0.672-1.5,1.5-1.5h16c0.828,0,1.5,0.672,1.5,1.5v16   c0,0.828-0.672,1.5-1.5,1.5h-16c-0.828,0-1.5-0.672-1.5-1.5V242.571z M420.52,245.459c0.841,0.578,1.528,1.355,2,2.262v5.7   c-0.472,0.906-1.159,1.683-2,2.262c-0.843,0.58-1.815,0.942-2.83,1.058v-1.34h-1.38v1.34c-1.015-0.116-1.987-0.479-2.829-1.058   c-0.842-0.579-1.53-1.355-2.001-2.262v-5.7c0.472-0.907,1.159-1.684,2.001-2.262c0.842-0.58,1.814-0.943,2.829-1.058v1.34h1.38   v-1.34C418.705,244.516,419.677,244.88,420.52,245.459z M412.782,256.881c1.248,0.834,2.716,1.279,4.217,1.279   c0.997,0,1.984-0.196,2.905-0.578c0.92-0.381,1.757-0.94,2.462-1.645c0.705-0.705,1.264-1.542,1.645-2.463   c0.382-0.92,0.578-1.907,0.578-2.904c0-1.501-0.445-2.969-1.28-4.217c-0.833-1.248-2.018-2.22-3.405-2.795   c-1.387-0.575-2.913-0.725-4.386-0.432c-1.472,0.293-2.824,1.016-3.886,2.077c-1.061,1.062-1.784,2.414-2.077,3.886   c-0.293,1.473-0.143,2.999,0.432,4.385C410.561,254.861,411.534,256.047,412.782,256.881z M413.472,251.717   c0.227,0.152,0.494,0.233,0.767,0.233c0.366,0,0.717-0.145,0.976-0.404c0.259-0.26,0.404-0.61,0.404-0.976   c0-0.273-0.08-0.54-0.232-0.767s-0.368-0.404-0.62-0.508c-0.252-0.104-0.53-0.132-0.797-0.079   c-0.268,0.054-0.514,0.185-0.707,0.378c-0.193,0.193-0.324,0.439-0.377,0.707c-0.054,0.267-0.026,0.545,0.078,0.797   C413.068,251.35,413.245,251.566,413.472,251.717L413.472,251.717z M418.992,251.717c0.227,0.152,0.494,0.233,0.767,0.233   c0.366,0,0.717-0.145,0.976-0.404c0.259-0.26,0.404-0.61,0.404-0.976c0-0.273-0.08-0.54-0.233-0.767   c-0.151-0.227-0.367-0.404-0.619-0.508c-0.252-0.104-0.53-0.132-0.797-0.079c-0.268,0.054-0.514,0.185-0.707,0.378   c-0.193,0.193-0.324,0.439-0.377,0.707c-0.054,0.267-0.026,0.545,0.078,0.797C418.589,251.35,418.765,251.566,418.992,251.717   L418.992,251.717z"></path>
	<path id="Plugs_1_" class="st7" d="M2121,94.5c-1.38,0-2.5,1.12-2.5,2.5v16c0,1.38,1.12,2.5,2.5,2.5h16c1.38,0,2.5-1.12,2.5-2.5V97   c0-1.38-1.12-2.5-2.5-2.5H2121z M2119.5,97c0-0.828,0.672-1.5,1.5-1.5h16c0.828,0,1.5,0.672,1.5,1.5v16c0,0.828-0.672,1.5-1.5,1.5   h-16c-0.828,0-1.5-0.672-1.5-1.5V97z M2132.52,99.888c0.841,0.578,1.528,1.355,2,2.262v5.7c-0.472,0.906-1.159,1.683-2,2.262   c-0.843,0.58-1.815,0.942-2.83,1.058v-1.34h-1.38v1.34c-1.015-0.116-1.987-0.479-2.829-1.058c-0.842-0.579-1.53-1.355-2.001-2.262   v-5.7c0.472-0.907,1.159-1.684,2.001-2.262c0.842-0.58,1.814-0.943,2.829-1.058v1.34h1.38v-1.34   C2130.705,98.945,2131.677,99.309,2132.52,99.888z M2124.781,111.31c1.248,0.834,2.716,1.279,4.217,1.279   c0.997,0,1.984-0.196,2.905-0.578c0.92-0.381,1.757-0.94,2.462-1.645c0.705-0.705,1.264-1.542,1.645-2.463   c0.382-0.92,0.578-1.907,0.578-2.904c0-1.501-0.445-2.969-1.28-4.217c-0.833-1.248-2.018-2.22-3.405-2.795   c-1.387-0.575-2.913-0.725-4.386-0.432c-1.472,0.293-2.824,1.016-3.886,2.077c-1.061,1.062-1.784,2.414-2.077,3.886   c-0.293,1.473-0.143,2.999,0.432,4.385C2122.561,109.29,2123.533,110.476,2124.781,111.31z M2125.471,106.146   c0.227,0.152,0.494,0.233,0.767,0.233c0.366,0,0.717-0.145,0.976-0.404c0.259-0.26,0.404-0.61,0.404-0.976   c0-0.273-0.08-0.54-0.232-0.767c-0.152-0.227-0.368-0.404-0.62-0.508c-0.252-0.104-0.53-0.132-0.797-0.079   c-0.268,0.054-0.514,0.185-0.707,0.378c-0.193,0.193-0.324,0.439-0.377,0.707c-0.054,0.267-0.026,0.545,0.078,0.797   C2125.068,105.779,2125.245,105.995,2125.471,106.146L2125.471,106.146z M2130.991,106.146c0.227,0.152,0.494,0.233,0.767,0.233   c0.366,0,0.717-0.145,0.976-0.404c0.259-0.26,0.404-0.61,0.404-0.976c0-0.273-0.08-0.54-0.233-0.767   c-0.151-0.227-0.367-0.404-0.619-0.508c-0.252-0.104-0.53-0.132-0.797-0.079c-0.268,0.054-0.514,0.185-0.707,0.378   c-0.193,0.193-0.324,0.439-0.377,0.707c-0.054,0.267-0.026,0.545,0.078,0.797C2130.589,105.779,2130.765,105.995,2130.991,106.146   L2130.991,106.146z"></path>
	<path id="Animal" class="st7" d="M454.593,83.645c-0.732,0-1.323,0.666-1.323,1.488c0,0.822,0.591,1.488,1.323,1.488   c0.732,0,1.323-0.666,1.323-1.488C455.915,84.311,455.324,83.645,454.593,83.645L454.593,83.645z M457.765,97.392   c-0.482-0.201-0.902-0.454-1.529-0.831l-0.241-0.145c-0.372-0.223-0.822-0.204-1.167,0.008l-1.427,0.856   c-2.515-3.048-2.245-4.496-1.855-6.591c0.178-0.953,0.377-2.02,0.425-3.375c0.039-1.097-0.068-2.134-0.17-3.139   c-0.198-1.936-0.383-3.737,0.729-5.092c0.207-0.252,0.443-0.485,0.701-0.697c1.34-1.1,3.295-1.65,5.269-1.65   c1.975,0,3.929,0.55,5.269,1.65c0.258,0.212,0.494,0.444,0.701,0.697c1.112,1.355,0.927,3.156,0.729,5.092   c-0.103,1.005-0.209,2.042-0.17,3.139c0.048,1.356,0.247,2.422,0.424,3.375c0.39,2.095,0.66,3.544-1.855,6.591l-1.441-0.865   c-0.373-0.223-0.823-0.204-1.169,0.009l-0.226,0.136c-0.612,0.368-1.027,0.618-1.495,0.817v-2.468   c0.382-0.194,0.748-0.409,1.073-0.673c0.623-0.507,1.754-1.91,1.641-2.592c-0.242-1.45-4.865-1.421-6.274-0.739   c-1.662,0.804,0.259,2.767,0.952,3.331c0.334,0.272,0.712,0.491,1.106,0.69V97.392L457.765,97.392z M458.209,99.895   c-1.223-0.307-1.806-0.616-2.79-1.204l-1.677,1.006c-0.471,0.282-1.065,0.178-1.416-0.217c-3.077-3.446-3.494-5.379-3.267-7.47   c-0.276,0.295-0.566,0.565-0.873,0.785v0.004c-0.447,0.321-0.921,0.521-1.397,0.576c-0.54,0.063-1.057-0.057-1.522-0.383   c-0.397-0.279-0.728-0.701-0.987-1.273c-0.208-0.459-0.379-1.045-0.51-1.765c-0.126-0.696-0.217-1.528-0.252-2.425   c-0.033-0.834-0.022-1.721,0.047-2.603c0.076-0.985,0.222-1.987,0.45-2.952c0.21-0.891,0.496-1.764,0.866-2.578   c0.373-0.819,0.825-1.56,1.309-2.2c0.542-0.716,1.136-1.321,1.717-1.783c0.587-0.467,1.174-0.797,1.752-0.993   c0.645-0.218,1.276-0.272,1.886-0.168c0.896,0.154,1.635,0.62,2.344,1.148c1.412-0.611,3.016-0.916,4.612-0.916   c1.595,0,3.2,0.306,4.612,0.916c0.708-0.528,1.447-0.993,2.344-1.148c0.61-0.105,1.241-0.051,1.886,0.168   c0.578,0.196,1.165,0.526,1.752,0.993c0.581,0.462,1.175,1.067,1.717,1.783c0.484,0.64,0.936,1.38,1.309,2.2   c0.371,0.815,0.656,1.687,0.867,2.578c0.228,0.965,0.373,1.967,0.45,2.952c0.068,0.882,0.079,1.769,0.047,2.603   c-0.035,0.897-0.126,1.729-0.252,2.425c-0.131,0.72-0.302,1.306-0.51,1.765c-0.259,0.573-0.59,0.994-0.987,1.273   c-0.465,0.327-0.982,0.446-1.522,0.383c-0.476-0.055-0.95-0.255-1.397-0.576v-0.004c-0.306-0.22-0.596-0.489-0.873-0.785   c0.227,2.092-0.19,4.024-3.266,7.472c-0.382,0.429-1.019,0.497-1.48,0.178l-1.614-0.969c-0.989,0.591-1.573,0.9-2.808,1.209   C458.581,99.948,458.388,99.943,458.209,99.895L458.209,99.895z M449.706,87.627c0.008-0.128,0.015-0.259,0.019-0.392   c0.033-0.934-0.066-1.897-0.161-2.831c-0.247-2.416-0.478-4.665,1.23-6.747c0.289-0.352,0.613-0.676,0.965-0.969   c-0.205-0.108-0.404-0.186-0.595-0.219c-0.241-0.041-0.504-0.016-0.785,0.08c-0.333,0.113-0.693,0.32-1.074,0.623   c-0.44,0.349-0.896,0.817-1.321,1.378c-0.399,0.527-0.767,1.127-1.063,1.777c-0.298,0.656-0.535,1.387-0.717,2.156   c-0.201,0.85-0.329,1.736-0.397,2.609c-0.064,0.822-0.075,1.62-0.047,2.347c0.032,0.798,0.109,1.523,0.217,2.117   c0.094,0.519,0.212,0.93,0.351,1.237c0.08,0.177,0.151,0.29,0.213,0.344c0.081-0.013,0.194-0.072,0.33-0.169l0.002,0.003   c0.204-0.147,0.435-0.378,0.673-0.646c0.303-0.341,0.554-0.657,0.795-0.962l-0.003-0.002L449.706,87.627L449.706,87.627z    M465.24,76.688c0.352,0.293,0.676,0.617,0.965,0.969c1.708,2.082,1.478,4.33,1.23,6.747c-0.096,0.934-0.194,1.897-0.161,2.831   c0.005,0.133,0.011,0.263,0.019,0.392l1.366,1.733l-0.003,0.002c0.241,0.305,0.491,0.62,0.795,0.962   c0.238,0.268,0.469,0.499,0.673,0.646l0.002-0.003c0.136,0.097,0.248,0.156,0.33,0.169c0.062-0.054,0.133-0.167,0.213-0.344   c0.139-0.308,0.257-0.718,0.351-1.237c0.108-0.593,0.185-1.319,0.217-2.117c0.029-0.728,0.017-1.525-0.047-2.347   c-0.067-0.873-0.196-1.758-0.397-2.609c-0.181-0.769-0.418-1.5-0.717-2.156c-0.296-0.65-0.663-1.25-1.063-1.777   c-0.425-0.561-0.882-1.029-1.321-1.378c-0.381-0.303-0.741-0.51-1.074-0.623c-0.281-0.095-0.544-0.121-0.785-0.08   C465.644,76.502,465.445,76.58,465.24,76.688L465.24,76.688z M462.407,83.645c-0.732,0-1.323,0.666-1.323,1.488   c0,0.822,0.591,1.488,1.323,1.488s1.323-0.666,1.323-1.488C463.729,84.311,463.139,83.645,462.407,83.645z"></path>
	<path id="Animal_1_" class="st7" d="M2046.342,164.579c-0.732,0-1.323,0.666-1.323,1.488c0,0.822,0.591,1.488,1.323,1.488   s1.323-0.666,1.323-1.488C2047.665,165.245,2047.074,164.579,2046.342,164.579L2046.342,164.579z M2049.515,178.326   c-0.482-0.201-0.902-0.454-1.529-0.831l-0.241-0.145c-0.372-0.223-0.822-0.204-1.167,0.008l-1.427,0.856   c-2.515-3.048-2.245-4.496-1.855-6.591c0.178-0.953,0.377-2.02,0.425-3.375c0.039-1.097-0.068-2.134-0.17-3.139   c-0.198-1.936-0.383-3.737,0.729-5.092c0.207-0.252,0.443-0.485,0.701-0.697c1.34-1.1,3.295-1.65,5.27-1.65s3.929,0.55,5.269,1.65   c0.259,0.212,0.494,0.444,0.701,0.697c1.112,1.355,0.927,3.156,0.729,5.092c-0.103,1.005-0.209,2.042-0.17,3.139   c0.048,1.356,0.247,2.422,0.425,3.375c0.39,2.095,0.66,3.544-1.855,6.591l-1.441-0.865c-0.373-0.223-0.823-0.204-1.169,0.009   l-0.225,0.136c-0.612,0.368-1.027,0.618-1.495,0.817v-2.468c0.382-0.194,0.748-0.409,1.073-0.673   c0.623-0.507,1.754-1.91,1.641-2.592c-0.242-1.45-4.865-1.421-6.274-0.739c-1.662,0.804,0.259,2.767,0.952,3.331   c0.334,0.272,0.712,0.491,1.106,0.69V178.326L2049.515,178.326z M2049.959,180.829c-1.223-0.307-1.806-0.616-2.791-1.204   l-1.677,1.006c-0.471,0.282-1.065,0.178-1.416-0.217c-3.077-3.446-3.494-5.379-3.267-7.47c-0.276,0.295-0.566,0.565-0.873,0.785   v0.004c-0.447,0.321-0.921,0.521-1.397,0.576c-0.54,0.063-1.057-0.057-1.522-0.383c-0.397-0.279-0.728-0.701-0.987-1.273   c-0.208-0.459-0.379-1.045-0.51-1.765c-0.126-0.696-0.217-1.528-0.252-2.425c-0.033-0.834-0.022-1.721,0.047-2.603   c0.076-0.985,0.222-1.987,0.45-2.952c0.21-0.891,0.496-1.764,0.866-2.578c0.373-0.819,0.825-1.56,1.309-2.2   c0.542-0.716,1.136-1.321,1.717-1.783c0.587-0.467,1.174-0.797,1.752-0.993c0.645-0.218,1.276-0.272,1.886-0.168   c0.896,0.154,1.635,0.62,2.344,1.148c1.412-0.611,3.016-0.916,4.612-0.916s3.2,0.306,4.612,0.916   c0.708-0.528,1.448-0.993,2.344-1.148c0.61-0.105,1.241-0.051,1.886,0.168c0.578,0.196,1.165,0.526,1.752,0.993   c0.581,0.462,1.175,1.067,1.717,1.783c0.484,0.64,0.936,1.38,1.309,2.2c0.37,0.815,0.656,1.687,0.866,2.578   c0.228,0.965,0.373,1.967,0.449,2.952c0.068,0.882,0.079,1.769,0.047,2.603c-0.035,0.897-0.125,1.729-0.252,2.425   c-0.131,0.72-0.302,1.306-0.51,1.765c-0.259,0.573-0.59,0.994-0.988,1.273c-0.465,0.327-0.982,0.446-1.522,0.383   c-0.476-0.055-0.95-0.255-1.397-0.576v-0.004c-0.306-0.22-0.596-0.489-0.873-0.785c0.227,2.092-0.19,4.024-3.266,7.472   c-0.382,0.429-1.02,0.497-1.48,0.178l-1.614-0.969c-0.989,0.591-1.573,0.9-2.808,1.209   C2050.33,180.881,2050.137,180.877,2049.959,180.829L2049.959,180.829z M2041.456,168.56c0.008-0.128,0.015-0.259,0.019-0.392   c0.033-0.934-0.066-1.897-0.161-2.831c-0.247-2.416-0.478-4.665,1.23-6.747c0.289-0.352,0.613-0.676,0.965-0.969   c-0.205-0.108-0.404-0.186-0.595-0.219c-0.241-0.041-0.504-0.016-0.785,0.08c-0.333,0.113-0.693,0.32-1.074,0.623   c-0.44,0.349-0.896,0.817-1.321,1.378c-0.399,0.527-0.766,1.127-1.063,1.777c-0.298,0.656-0.535,1.387-0.717,2.156   c-0.201,0.85-0.329,1.736-0.397,2.609c-0.064,0.822-0.075,1.62-0.047,2.347c0.032,0.798,0.109,1.523,0.217,2.117   c0.094,0.519,0.212,0.93,0.351,1.237c0.08,0.177,0.151,0.29,0.213,0.344c0.081-0.013,0.194-0.072,0.33-0.169l0.002,0.003   c0.204-0.147,0.435-0.378,0.673-0.646c0.303-0.341,0.554-0.657,0.795-0.962l-0.003-0.002L2041.456,168.56L2041.456,168.56z    M2056.989,157.622c0.352,0.293,0.676,0.617,0.965,0.969c1.708,2.082,1.478,4.33,1.23,6.747c-0.096,0.934-0.194,1.897-0.161,2.831   c0.005,0.133,0.011,0.263,0.019,0.392l1.366,1.733l-0.003,0.002c0.241,0.305,0.491,0.62,0.795,0.962   c0.238,0.268,0.469,0.499,0.673,0.646l0.002-0.003c0.136,0.097,0.249,0.156,0.33,0.169c0.062-0.054,0.133-0.167,0.213-0.344   c0.139-0.308,0.257-0.718,0.351-1.237c0.108-0.593,0.185-1.319,0.217-2.117c0.029-0.728,0.017-1.525-0.047-2.347   c-0.067-0.873-0.196-1.758-0.397-2.609c-0.181-0.769-0.418-1.5-0.716-2.156c-0.296-0.65-0.663-1.25-1.063-1.777   c-0.425-0.561-0.882-1.029-1.321-1.378c-0.381-0.303-0.74-0.51-1.074-0.623c-0.281-0.095-0.544-0.121-0.785-0.08   C2057.393,157.435,2057.194,157.514,2056.989,157.622L2056.989,157.622z M2054.156,164.579c-0.731,0-1.323,0.666-1.323,1.488   c0,0.822,0.591,1.488,1.323,1.488c0.732,0,1.323-0.666,1.323-1.488C2055.479,165.245,2054.888,164.579,2054.156,164.579z"></path>
	<path id="RoomService" class="st7" d="M2199.148,65.454c0.06-0.48,0.105-0.96,0.105-1.455c0-0.495-0.045-0.99-0.105-1.5   l3.165-2.445c0.285-0.225,0.36-0.63,0.18-0.96l-3-5.19c-0.18-0.33-0.585-0.465-0.915-0.33l-3.735,1.5   c-0.78-0.585-1.59-1.095-2.535-1.47l-0.555-3.975c-0.06-0.36-0.375-0.63-0.75-0.63h-6c-0.375,0-0.69,0.27-0.75,0.63l-0.555,3.975   c-0.945,0.375-1.755,0.885-2.535,1.47l-3.735-1.5c-0.33-0.135-0.735,0-0.915,0.33l-3,5.19c-0.195,0.33-0.105,0.735,0.18,0.96   l3.165,2.445c-0.06,0.51-0.105,1.005-0.105,1.5c0,0.495,0.045,0.975,0.105,1.455l-3.165,2.49c-0.285,0.225-0.375,0.63-0.18,0.96   l3,5.19c0.18,0.33,0.585,0.45,0.915,0.33l3.735-1.515c0.78,0.6,1.59,1.11,2.535,1.485l0.555,3.975c0.06,0.36,0.375,0.63,0.75,0.63   h6c0.375,0,0.69-0.27,0.75-0.63l0.555-3.975c0.945-0.39,1.755-0.885,2.535-1.485l3.735,1.515c0.33,0.12,0.735,0,0.915-0.33l3-5.19   c0.18-0.33,0.105-0.735-0.18-0.96L2199.148,65.454z M2188.003,69.249c-2.899,0-5.25-2.351-5.25-5.25s2.351-5.25,5.25-5.25   s5.25,2.351,5.25,5.25S2190.902,69.249,2188.003,69.249z"></path>
	<path id="RoomService_1_" class="st7" d="M287.148,63.455c0.06-0.48,0.105-0.96,0.105-1.455c0-0.495-0.045-0.99-0.105-1.5   l3.165-2.445c0.285-0.225,0.36-0.63,0.18-0.96l-3-5.19c-0.18-0.33-0.585-0.465-0.915-0.33l-3.735,1.5   c-0.78-0.585-1.59-1.095-2.535-1.47l-0.555-3.975c-0.06-0.36-0.375-0.63-0.75-0.63h-6c-0.375,0-0.69,0.27-0.75,0.63l-0.555,3.975   c-0.945,0.375-1.755,0.885-2.535,1.47l-3.735-1.5c-0.33-0.135-0.735,0-0.915,0.33l-3,5.19c-0.195,0.33-0.105,0.735,0.18,0.96   l3.165,2.445c-0.06,0.51-0.105,1.005-0.105,1.5c0,0.495,0.045,0.975,0.105,1.455l-3.165,2.49c-0.285,0.225-0.375,0.63-0.18,0.96   l3,5.19c0.18,0.33,0.585,0.45,0.915,0.33l3.735-1.515c0.78,0.6,1.59,1.11,2.535,1.485l0.555,3.975c0.06,0.36,0.375,0.63,0.75,0.63   h6c0.375,0,0.69-0.27,0.75-0.63l0.555-3.975c0.945-0.39,1.755-0.885,2.535-1.485l3.735,1.515c0.33,0.12,0.735,0,0.915-0.33l3-5.19   c0.18-0.33,0.105-0.735-0.18-0.96L287.148,63.455z M276.003,67.25c-2.899,0-5.25-2.351-5.25-5.25c0-2.899,2.351-5.25,5.25-5.25   s5.25,2.351,5.25,5.25C281.253,64.899,278.903,67.25,276.003,67.25z"></path>
</g>
</svg>