<svg xmlns="http://www.w3.org/2000/svg" xmlns:xlink="http://www.w3.org/1999/xlink" version="1.1" x="0px" y="0px" width="2420px" height="336px" viewBox="0 0 2420 336" style="enable-background:new 0 0 2420 336;" xml:space="preserve">
<style type="text/css">
	.st0{fill-rule:evenodd;clip-rule:evenodd;fill:#FFFFFF;}
	.st1{fill-rule:evenodd;clip-rule:evenodd;fill:#A9AEBA;}
	.st2{fill-rule:evenodd;clip-rule:evenodd;fill:#E2E4E7;stroke:#D2D7DB;stroke-miterlimit:22.9256;}
	.st3{fill:#FFFFFF;}
	.st4{font-family:'Roboto','Helvetica Neue',sans-serif;}
	.st5{font-size:20px;}
	.st6{fill-rule:evenodd;clip-rule:evenodd;fill:none;stroke:#D2D7DB;stroke-miterlimit:22.9256;}
	.st7{fill-rule:evenodd;clip-rule:evenodd;fill:#CBCED3;}
	.st8{fill-rule:evenodd;clip-rule:evenodd;fill:#868D98;}
	.st9{fill-rule:evenodd;clip-rule:evenodd;fill:none;stroke:#BBDDFF;stroke-width:4;stroke-miterlimit:22.9256;}
</style>
<g id="Fon">
	<path class="st0" d="M9.301,326.753C10.106,327.546,11.165,328,12.3,328H2407.7c1.162,0,2.227-0.496,3.052-1.3   c0.793-0.804,1.248-1.862,1.248-2.996V12.296c0-1.143-0.462-2.21-1.218-2.966l-0.017-0.016C2409.939,8.501,2408.869,8,2407.7,8   H12.3c-1.145,0-2.213,0.462-2.968,1.216L9.316,9.233C8.504,10.059,8,11.127,8,12.296v311.408   C8,324.865,8.497,325.928,9.301,326.753z"></path>
</g>
<g id="Railway_carriage">
	<path class="st1" d="M12.3,0H2407.7c3.375,0,6.446,1.384,8.674,3.609l0.017,0.016c2.225,2.227,3.609,5.297,3.609,8.671v311.408   c0,3.375-1.384,6.444-3.609,8.671l-0.017,0.017c-2.228,2.225-5.298,3.608-8.674,3.608H12.3c-3.375,0-6.446-1.383-8.674-3.608   l-0.016-0.017C1.384,330.148,0,327.078,0,323.704V12.296c0-3.374,1.384-6.444,3.61-8.671l0.016-0.016C5.854,1.384,8.924,0,12.3,0   L12.3,0z M9.301,326.753C10.106,327.546,11.165,328,12.3,328H2407.7c1.163,0,2.227-0.495,3.052-1.3   c0.793-0.804,1.248-1.862,1.248-2.996V12.296c0-1.144-0.462-2.21-1.218-2.966l-0.017-0.016C2409.939,8.501,2408.869,8,2407.7,8   H12.3c-1.145,0-2.213,0.462-2.968,1.216L9.316,9.232C8.503,10.059,8,11.127,8,12.296v311.408   C8,324.866,8.497,325.928,9.301,326.753z"></path>
</g>
<g id="Compartment">
	<path class="st1" d="M514.625,108v220h-8V108v-8h8V108z M1897,328h8V100h-8V328z M393,328h8V8h-8V328z M2010,328h8V8h-8V328z    M600,132h8V8h-8V132z M1811.626,8h-8v124h8V8z M485.624,235.999h21.001V100h-21.001V235.999z M1905.001,235.999h21.001V100   h-21.001V235.999z"></path>
</g>
<g id="Seats">
	<path id="Seat83" class="st2 seat" d="M708.206,314.902h-0.004h-28.474c-5.35,0-9.728-3.794-9.728-8.43v-24.945   c0-4.636,4.378-8.43,9.728-8.43h28.474c0.914,2.449,1.666,4.898,2.259,7.346c2.187,9.041,2.187,18.082,0,27.123   C709.869,310.012,709.118,312.457,708.206,314.902L708.206,314.902z M682.922,316.307L682.922,316.307v0.288   c0,0.773,0.642,1.405,1.426,1.405h28.653c0.471,0,0.855-0.379,0.855-0.843v-2.255h-5.651h-0.004h-23.854   C683.564,314.902,682.922,315.535,682.922,316.307L682.922,316.307z M682.922,271.405L682.922,271.405v0.288   c0,0.773,0.642,1.405,1.426,1.405h23.854h5.655v-2.255c0-0.464-0.385-0.843-0.855-0.843h-28.653   C683.564,270,682.922,270.632,682.922,271.405L682.922,271.405z M710.461,280.444L710.461,280.444   c2.187,9.041,2.187,18.082,0,27.123c-0.592,2.445-1.343,4.89-2.255,7.335h-0.004v0.011h6.594c0.663,0,1.204-0.534,1.204-1.187   v-39.442c0-0.653-0.542-1.187-1.204-1.187h-6.594C709.116,275.547,709.868,277.995,710.461,280.444z"></path>
	<path id="Seat84" class="st2 seat seat--available compartment-28" d="M708.206,248.902h-0.004h-28.474c-5.35,0-9.728-3.794-9.728-8.43v-24.945   c0-4.636,4.378-8.43,9.728-8.43h28.474c0.914,2.449,1.666,4.898,2.259,7.346c2.187,9.041,2.187,18.082,0,27.123   C709.869,244.012,709.118,246.457,708.206,248.902L708.206,248.902z M682.922,250.307L682.922,250.307v0.288   c0,0.773,0.642,1.405,1.426,1.405h28.653c0.471,0,0.855-0.379,0.855-0.843v-2.255h-5.651h-0.004h-23.854   C683.564,248.902,682.922,249.535,682.922,250.307L682.922,250.307z M682.922,205.405L682.922,205.405v0.288   c0,0.773,0.642,1.405,1.426,1.405h23.854h5.655v-2.255c0-0.464-0.385-0.843-0.855-0.843h-28.653   C683.564,204,682.922,204.632,682.922,205.405L682.922,205.405z M710.461,214.444L710.461,214.444   c2.187,9.041,2.187,18.082,0,27.123c-0.592,2.445-1.343,4.89-2.255,7.335h-0.004v0.011h6.594c0.663,0,1.204-0.534,1.204-1.187   v-39.442c0-0.653-0.542-1.187-1.204-1.187h-6.594C709.116,209.547,709.868,211.995,710.461,214.444z"></path>
	<path id="Seat85" class="st2 seat seat--available compartment-29" d="M724.786,62.902h0.004h28.474c5.35,0,9.728-3.794,9.728-8.43V29.528   c0-4.636-4.377-8.43-9.728-8.43H724.79c-0.913,2.449-1.666,4.898-2.258,7.346c-2.187,9.041-2.187,18.082,0,27.123   C723.123,58.012,723.874,60.457,724.786,62.902L724.786,62.902z M750.07,64.307L750.07,64.307v0.288   c0,0.773-0.642,1.405-1.426,1.405h-28.653c-0.471,0-0.855-0.379-0.855-0.843v-2.255h5.651h0.004h23.854   C749.428,62.902,750.07,63.535,750.07,64.307L750.07,64.307z M750.07,19.405L750.07,19.405v0.288c0,0.773-0.642,1.405-1.426,1.405   H724.79h-5.655v-2.255c0-0.464,0.385-0.843,0.855-0.843h28.653C749.428,18,750.07,18.632,750.07,19.405L750.07,19.405z    M722.531,28.444L722.531,28.444c-2.187,9.041-2.187,18.082,0,27.123c0.592,2.445,1.343,4.89,2.254,7.335h0.004v0.011h-6.593   c-0.663,0-1.205-0.534-1.205-1.187V22.284c0-0.653,0.542-1.187,1.205-1.187h6.593C723.877,23.547,723.124,25.995,722.531,28.444z"></path>
	<path id="Seat86" class="st2 seat seat--available compartment-29" d="M724.786,128.902h0.004h28.474c5.35,0,9.728-3.794,9.728-8.43V95.528   c0-4.636-4.377-8.43-9.728-8.43H724.79c-0.913,2.449-1.666,4.898-2.259,7.346c-2.187,9.041-2.187,18.082,0,27.123   C723.123,124.012,723.874,126.457,724.786,128.902L724.786,128.902z M750.07,130.307L750.07,130.307v0.288   c0,0.773-0.642,1.405-1.426,1.405H719.99c-0.47,0-0.855-0.379-0.855-0.843v-2.255h5.651h0.004h23.854   C749.428,128.902,750.07,129.535,750.07,130.307L750.07,130.307z M750.07,85.405L750.07,85.405v0.288   c0,0.773-0.642,1.405-1.426,1.405H724.79h-5.655v-2.255c0-0.464,0.385-0.843,0.855-0.843h28.653   C749.428,84,750.07,84.632,750.07,85.405L750.07,85.405z M722.531,94.444L722.531,94.444c-2.187,9.041-2.187,18.082,0,27.123   c0.592,2.445,1.343,4.89,2.255,7.335h0.004v0.011h-6.594c-0.663,0-1.204-0.534-1.204-1.187V88.284c0-0.653,0.542-1.187,1.204-1.187   h6.594C723.877,89.547,723.124,91.995,722.531,94.444z"></path>
	<path id="Seat87" class="st2 seat" d="M797.436,314.902h-0.004h-28.474c-5.35,0-9.728-3.794-9.728-8.43v-24.945   c0-4.636,4.378-8.43,9.728-8.43h28.474c0.913,2.449,1.666,4.898,2.259,7.346c2.187,9.041,2.187,18.082,0,27.123   C799.099,310.012,798.347,312.457,797.436,314.902L797.436,314.902z M772.152,316.307L772.152,316.307v0.288   c0,0.773,0.642,1.405,1.426,1.405h28.653c0.471,0,0.855-0.379,0.855-0.843v-2.255h-5.65h-0.004h-23.854   C772.794,314.902,772.152,315.535,772.152,316.307L772.152,316.307z M772.152,271.405L772.152,271.405v0.288   c0,0.773,0.642,1.405,1.426,1.405h23.854h5.654v-2.255c0-0.464-0.384-0.843-0.855-0.843h-28.653   C772.794,270,772.152,270.632,772.152,271.405L772.152,271.405z M799.691,280.444L799.691,280.444   c2.187,9.041,2.187,18.082,0,27.123c-0.592,2.445-1.343,4.89-2.255,7.335h-0.004v0.011h6.594c0.663,0,1.204-0.534,1.204-1.187   v-39.442c0-0.653-0.542-1.187-1.204-1.187h-6.594C798.345,275.547,799.098,277.995,799.691,280.444z"></path>
	<path id="Seat88" class="st2 seat" d="M797.436,248.902h-0.004h-28.474c-5.35,0-9.728-3.794-9.728-8.43v-24.945   c0-4.636,4.378-8.43,9.728-8.43h28.474c0.913,2.449,1.666,4.898,2.259,7.346c2.187,9.041,2.187,18.082,0,27.123   C799.099,244.012,798.347,246.457,797.436,248.902L797.436,248.902z M772.152,250.307L772.152,250.307v0.288   c0,0.773,0.642,1.405,1.426,1.405h28.653c0.471,0,0.855-0.379,0.855-0.843v-2.255h-5.65h-0.004h-23.854   C772.794,248.902,772.152,249.535,772.152,250.307L772.152,250.307z M772.152,205.405L772.152,205.405v0.288   c0,0.773,0.642,1.405,1.426,1.405h23.854h5.654v-2.255c0-0.464-0.384-0.843-0.855-0.843h-28.653   C772.794,204,772.152,204.632,772.152,205.405L772.152,205.405z M799.691,214.444L799.691,214.444   c2.187,9.041,2.187,18.082,0,27.123c-0.592,2.445-1.343,4.89-2.255,7.335h-0.004v0.011h6.594c0.663,0,1.204-0.534,1.204-1.187   v-39.442c0-0.653-0.542-1.187-1.204-1.187h-6.594C798.345,209.547,799.098,211.995,799.691,214.444z"></path>
	<path id="Seat89" class="st2 seat seat--available compartment-30" d="M813.778,62.902h0.004h28.474c5.35,0,9.728-3.794,9.728-8.43V29.528   c0-4.636-4.378-8.43-9.728-8.43h-28.474c-0.913,2.449-1.666,4.898-2.259,7.346c-2.187,9.041-2.187,18.082,0,27.123   C812.115,58.012,812.867,60.457,813.778,62.902L813.778,62.902z M839.062,64.307L839.062,64.307v0.288   c0,0.773-0.642,1.405-1.426,1.405h-28.653c-0.471,0-0.855-0.379-0.855-0.843v-2.255h5.651h0.004h23.854   C838.42,62.902,839.062,63.535,839.062,64.307L839.062,64.307z M839.062,19.405L839.062,19.405v0.288   c0,0.773-0.642,1.405-1.426,1.405h-23.854h-5.655v-2.255c0-0.464,0.385-0.843,0.855-0.843h28.653   C838.42,18,839.062,18.632,839.062,19.405L839.062,19.405z M811.523,28.444L811.523,28.444c-2.187,9.041-2.187,18.082,0,27.123   c0.592,2.445,1.343,4.89,2.255,7.335h0.004v0.011h-6.594c-0.663,0-1.204-0.534-1.204-1.187V22.284c0-0.653,0.542-1.187,1.204-1.187   h6.594C812.869,23.547,812.116,25.995,811.523,28.444z"></path>
	<path id="Seat90" class="st2 seat seat--available compartment-30" d="M813.778,128.902h0.004h28.474c5.35,0,9.728-3.794,9.728-8.43V95.528   c0-4.636-4.378-8.43-9.728-8.43h-28.474c-0.914,2.449-1.666,4.898-2.259,7.346c-2.187,9.041-2.187,18.082,0,27.123   C812.115,124.012,812.867,126.457,813.778,128.902L813.778,128.902z M839.062,130.307L839.062,130.307v0.288   c0,0.773-0.642,1.405-1.426,1.405h-28.654c-0.47,0-0.855-0.379-0.855-0.843v-2.255h5.65h0.004h23.854   C838.42,128.902,839.062,129.535,839.062,130.307L839.062,130.307z M839.062,85.405L839.062,85.405v0.288   c0,0.773-0.642,1.405-1.426,1.405h-23.854h-5.655v-2.255c0-0.464,0.385-0.843,0.855-0.843h28.654   C838.42,84,839.062,84.632,839.062,85.405L839.062,85.405z M811.523,94.444L811.523,94.444c-2.187,9.041-2.187,18.082,0,27.123   c0.592,2.445,1.344,4.89,2.255,7.335h0.004v0.011h-6.594c-0.662,0-1.204-0.534-1.204-1.187V88.284c0-0.653,0.542-1.187,1.204-1.187   h6.594C812.869,89.547,812.116,91.995,811.523,94.444z"></path>
	<path id="Seat91" class="st2 seat" d="M886.324,314.902h-0.004h-28.474c-5.35,0-9.728-3.794-9.728-8.43v-24.945   c0-4.636,4.378-8.43,9.728-8.43h28.474c0.914,2.449,1.666,4.898,2.259,7.346c2.187,9.041,2.187,18.082,0,27.123   C887.987,310.012,887.235,312.457,886.324,314.902L886.324,314.902z M861.04,316.307L861.04,316.307v0.288   c0,0.773,0.642,1.405,1.426,1.405h28.653c0.47,0,0.855-0.379,0.855-0.843v-2.255h-5.65h-0.004h-23.854   C861.682,314.902,861.04,315.535,861.04,316.307L861.04,316.307z M861.04,271.405L861.04,271.405v0.288   c0,0.773,0.642,1.405,1.426,1.405h23.854h5.655v-2.255c0-0.464-0.385-0.843-0.855-0.843h-28.653   C861.682,270,861.04,270.632,861.04,271.405L861.04,271.405z M888.579,280.444L888.579,280.444c2.187,9.041,2.187,18.082,0,27.123   c-0.592,2.445-1.343,4.89-2.255,7.335h-0.004v0.011h6.594c0.663,0,1.204-0.534,1.204-1.187v-39.442   c0-0.653-0.542-1.187-1.204-1.187h-6.594C887.233,275.547,887.986,277.995,888.579,280.444z"></path>
	<path id="Seat92" class="st2 seat seat--available compartment-30" d="M886.324,248.902h-0.004h-28.474c-5.35,0-9.728-3.794-9.728-8.43v-24.945   c0-4.636,4.378-8.43,9.728-8.43h28.474c0.914,2.449,1.666,4.898,2.259,7.346c2.187,9.041,2.187,18.082,0,27.123   C887.987,244.012,887.235,246.457,886.324,248.902L886.324,248.902z M861.04,250.307L861.04,250.307v0.288   c0,0.773,0.642,1.405,1.426,1.405h28.653c0.47,0,0.855-0.379,0.855-0.843v-2.255h-5.65h-0.004h-23.854   C861.682,248.902,861.04,249.535,861.04,250.307L861.04,250.307z M861.04,205.405L861.04,205.405v0.288   c0,0.773,0.642,1.405,1.426,1.405h23.854h5.655v-2.255c0-0.464-0.385-0.843-0.855-0.843h-28.653   C861.682,204,861.04,204.632,861.04,205.405L861.04,205.405z M888.579,214.444L888.579,214.444c2.187,9.041,2.187,18.082,0,27.123   c-0.592,2.445-1.343,4.89-2.255,7.335h-0.004v0.011h6.594c0.663,0,1.204-0.534,1.204-1.187v-39.442   c0-0.653-0.542-1.187-1.204-1.187h-6.594C887.233,209.547,887.986,211.995,888.579,214.444z"></path>
	<path id="Seat93" class="st2 seat seat--available compartment-31" d="M902.771,62.902h0.004h28.474c5.35,0,9.728-3.794,9.728-8.43V29.528   c0-4.636-4.377-8.43-9.728-8.43h-28.474c-0.914,2.449-1.666,4.898-2.259,7.346c-2.187,9.041-2.187,18.082,0,27.123   C901.108,58.012,901.859,60.457,902.771,62.902L902.771,62.902z M928.055,64.307L928.055,64.307v0.288   c0,0.773-0.642,1.405-1.426,1.405h-28.653c-0.47,0-0.855-0.379-0.855-0.843v-2.255h5.65h0.004h23.854   C927.413,62.902,928.055,63.535,928.055,64.307L928.055,64.307z M928.055,19.405L928.055,19.405v0.288   c0,0.773-0.642,1.405-1.426,1.405h-23.854h-5.655v-2.255c0-0.464,0.385-0.843,0.855-0.843h28.653   C927.413,18,928.055,18.632,928.055,19.405L928.055,19.405z M900.516,28.444L900.516,28.444c-2.187,9.041-2.187,18.082,0,27.123   c0.592,2.445,1.343,4.89,2.255,7.335h0.004v0.011h-6.594c-0.663,0-1.205-0.534-1.205-1.187V22.284c0-0.653,0.542-1.187,1.205-1.187   h6.594C901.861,23.547,901.109,25.995,900.516,28.444z"></path>
	<path id="Seat94" class="st2 seat seat--available compartment-31" d="M902.77,128.902h0.005h28.474c5.35,0,9.728-3.794,9.728-8.43V95.528   c0-4.636-4.378-8.43-9.728-8.43h-28.474c-0.914,2.449-1.666,4.898-2.259,7.346c-2.187,9.041-2.187,18.082,0,27.123   C901.107,124.012,901.859,126.457,902.77,128.902L902.77,128.902z M928.055,130.307L928.055,130.307v0.288   c0,0.773-0.642,1.405-1.426,1.405h-28.653c-0.47,0-0.855-0.379-0.855-0.843v-2.255h5.65h0.005h23.854   C927.413,128.902,928.055,129.535,928.055,130.307L928.055,130.307z M928.055,85.405L928.055,85.405v0.288   c0,0.773-0.642,1.405-1.426,1.405h-23.854h-5.655v-2.255c0-0.464,0.385-0.843,0.855-0.843h28.653   C927.413,84,928.055,84.632,928.055,85.405L928.055,85.405z M900.516,94.444L900.516,94.444c-2.187,9.041-2.187,18.082,0,27.123   c0.592,2.445,1.343,4.89,2.255,7.335h0.005v0.011h-6.594c-0.663,0-1.204-0.534-1.204-1.187V88.284c0-0.653,0.542-1.187,1.204-1.187   h6.594C901.861,89.547,901.109,91.995,900.516,94.444z"></path>
	<path id="Seat95" class="st2 seat" d="M975.213,314.902h-0.005h-28.474c-5.35,0-9.728-3.794-9.728-8.43v-24.945   c0-4.636,4.378-8.43,9.728-8.43h28.474c0.914,2.449,1.666,4.898,2.259,7.346c2.187,9.041,2.187,18.082,0,27.123   C976.876,310.012,976.124,312.457,975.213,314.902L975.213,314.902z M949.928,316.307L949.928,316.307v0.288   c0,0.773,0.642,1.405,1.426,1.405h28.654c0.47,0,0.855-0.379,0.855-0.843v-2.255h-5.65h-0.005h-23.854   C950.57,314.902,949.928,315.535,949.928,316.307L949.928,316.307z M949.928,271.405L949.928,271.405v0.288   c0,0.773,0.642,1.405,1.426,1.405h23.854h5.654v-2.255c0-0.464-0.385-0.843-0.855-0.843h-28.654   C950.57,270,949.928,270.632,949.928,271.405L949.928,271.405z M977.467,280.444L977.467,280.444   c2.187,9.041,2.187,18.082,0,27.123c-0.592,2.445-1.344,4.89-2.255,7.335h-0.005v0.011h6.594c0.663,0,1.204-0.534,1.204-1.187   v-39.442c0-0.653-0.542-1.187-1.204-1.187h-6.594C976.122,275.547,976.874,277.995,977.467,280.444z"></path>
	<path id="Seat96" class="st2 seat" d="M975.213,248.902h-0.005h-28.474c-5.35,0-9.728-3.794-9.728-8.43v-24.945   c0-4.636,4.378-8.43,9.728-8.43h28.474c0.914,2.449,1.666,4.898,2.259,7.346c2.187,9.041,2.187,18.082,0,27.123   C976.876,244.012,976.124,246.457,975.213,248.902L975.213,248.902z M949.928,250.307L949.928,250.307v0.288   c0,0.773,0.642,1.405,1.426,1.405h28.654c0.47,0,0.855-0.379,0.855-0.843v-2.255h-5.65h-0.005h-23.854   C950.57,248.902,949.928,249.535,949.928,250.307L949.928,250.307z M949.928,205.405L949.928,205.405v0.288   c0,0.773,0.642,1.405,1.426,1.405h23.854h5.654v-2.255c0-0.464-0.385-0.843-0.855-0.843h-28.654   C950.57,204,949.928,204.632,949.928,205.405L949.928,205.405z M977.467,214.444L977.467,214.444   c2.187,9.041,2.187,18.082,0,27.123c-0.592,2.445-1.344,4.89-2.255,7.335h-0.005v0.011h6.594c0.663,0,1.204-0.534,1.204-1.187   v-39.442c0-0.653-0.542-1.187-1.204-1.187h-6.594C976.122,209.547,976.874,211.995,977.467,214.444z"></path>
	<path id="Seat97" class="st2 seat seat--available compartment-32" d="M991.764,62.902h0.004h28.475c5.35,0,9.728-3.794,9.728-8.43V29.528   c0-4.636-4.377-8.43-9.728-8.43h-28.475c-0.913,2.449-1.666,4.898-2.258,7.346c-2.187,9.041-2.187,18.082,0,27.123   C990.1,58.012,990.852,60.457,991.764,62.902L991.764,62.902z M1017.047,64.307L1017.047,64.307v0.288   c0,0.773-0.642,1.405-1.426,1.405h-28.653c-0.471,0-0.856-0.379-0.856-0.843v-2.255h5.651h0.004h23.854   C1016.406,62.902,1017.047,63.535,1017.047,64.307L1017.047,64.307z M1017.047,19.405L1017.047,19.405v0.288   c0,0.773-0.642,1.405-1.426,1.405h-23.854h-5.655v-2.255c0-0.464,0.385-0.843,0.856-0.843h28.653   C1016.406,18,1017.047,18.632,1017.047,19.405L1017.047,19.405z M989.509,28.444L989.509,28.444   c-2.187,9.041-2.187,18.082,0,27.123c0.591,2.445,1.343,4.89,2.255,7.335h0.004v0.011h-6.593c-0.663,0-1.205-0.534-1.205-1.187   V22.284c0-0.653,0.542-1.187,1.205-1.187h6.593C990.854,23.547,990.101,25.995,989.509,28.444z"></path>
	<path id="Seat98" class="st2 seat seat--available compartment-32" d="M991.763,128.902h0.004h28.474c5.35,0,9.728-3.794,9.728-8.43V95.528   c0-4.636-4.378-8.43-9.728-8.43h-28.474c-0.914,2.449-1.666,4.898-2.259,7.346c-2.187,9.041-2.187,18.082,0,27.123   C990.1,124.012,990.852,126.457,991.763,128.902L991.763,128.902z M1017.047,130.307L1017.047,130.307v0.288   c0,0.773-0.642,1.405-1.426,1.405h-28.653c-0.471,0-0.855-0.379-0.855-0.843v-2.255h5.65h0.004h23.854   C1016.406,128.902,1017.047,129.535,1017.047,130.307L1017.047,130.307z M1017.047,85.405L1017.047,85.405v0.288   c0,0.773-0.642,1.405-1.426,1.405h-23.854h-5.655v-2.255c0-0.464,0.385-0.843,0.855-0.843h28.653   C1016.406,84,1017.047,84.632,1017.047,85.405L1017.047,85.405z M989.508,94.444L989.508,94.444   c-2.187,9.041-2.187,18.082,0,27.123c0.592,2.445,1.343,4.89,2.255,7.335h0.004v0.011h-6.594c-0.663,0-1.204-0.534-1.204-1.187   V88.284c0-0.653,0.542-1.187,1.204-1.187h6.594C990.854,89.547,990.101,91.995,989.508,94.444z"></path>
	<path id="Seat99" class="st2 seat" d="M1064.101,314.902h-0.004h-28.474c-5.35,0-9.728-3.794-9.728-8.43v-24.945   c0-4.636,4.378-8.43,9.728-8.43h28.474c0.913,2.449,1.666,4.898,2.259,7.346c2.187,9.041,2.187,18.082,0,27.123   C1065.764,310.012,1065.012,312.457,1064.101,314.902L1064.101,314.902z M1038.817,316.307L1038.817,316.307v0.288   c0,0.773,0.642,1.405,1.426,1.405h28.653c0.47,0,0.855-0.379,0.855-0.843v-2.255h-5.651h-0.004h-23.854   C1039.458,314.902,1038.817,315.535,1038.817,316.307L1038.817,316.307z M1038.817,271.405L1038.817,271.405v0.288   c0,0.773,0.642,1.405,1.426,1.405h23.854h5.655v-2.255c0-0.464-0.385-0.843-0.855-0.843h-28.653   C1039.458,270,1038.817,270.632,1038.817,271.405L1038.817,271.405z M1066.355,280.444L1066.355,280.444   c2.187,9.041,2.187,18.082,0,27.123c-0.592,2.445-1.343,4.89-2.255,7.335h-0.004v0.011h6.594c0.662,0,1.204-0.534,1.204-1.187   v-39.442c0-0.653-0.542-1.187-1.204-1.187h-6.594C1065.01,275.547,1065.763,277.995,1066.355,280.444z"></path>
	<path id="Seat100" class="st2 seat" d="M1064.101,248.902h-0.004h-28.474c-5.35,0-9.728-3.794-9.728-8.43v-24.945   c0-4.636,4.378-8.43,9.728-8.43h28.474c0.913,2.449,1.666,4.898,2.259,7.346c2.187,9.041,2.187,18.082,0,27.123   C1065.764,244.012,1065.012,246.457,1064.101,248.902L1064.101,248.902z M1038.817,250.307L1038.817,250.307v0.288   c0,0.773,0.642,1.405,1.426,1.405h28.653c0.47,0,0.855-0.379,0.855-0.843v-2.255h-5.651h-0.004h-23.854   C1039.458,248.902,1038.817,249.535,1038.817,250.307L1038.817,250.307z M1038.817,205.405L1038.817,205.405v0.288   c0,0.773,0.642,1.405,1.426,1.405h23.854h5.655v-2.255c0-0.464-0.385-0.843-0.855-0.843h-28.653   C1039.458,204,1038.817,204.632,1038.817,205.405L1038.817,205.405z M1066.355,214.444L1066.355,214.444   c2.187,9.041,2.187,18.082,0,27.123c-0.592,2.445-1.343,4.89-2.255,7.335h-0.004v0.011h6.594c0.662,0,1.204-0.534,1.204-1.187   v-39.442c0-0.653-0.542-1.187-1.204-1.187h-6.594C1065.01,209.547,1065.763,211.995,1066.355,214.444z"></path>
	<path id="Seat101" class="st2 seat seat--available compartment-33" d="M1080.756,62.902h0.004h28.474c5.35,0,9.728-3.794,9.728-8.43V29.528   c0-4.636-4.377-8.43-9.728-8.43h-28.474c-0.913,2.449-1.666,4.898-2.259,7.346c-2.187,9.041-2.187,18.082,0,27.123   C1079.093,58.012,1079.844,60.457,1080.756,62.902L1080.756,62.902z M1106.04,64.307L1106.04,64.307v0.288   c0,0.773-0.642,1.405-1.426,1.405h-28.653c-0.471,0-0.855-0.379-0.855-0.843v-2.255h5.651h0.004h23.854   C1105.398,62.902,1106.04,63.535,1106.04,64.307L1106.04,64.307z M1106.04,19.405L1106.04,19.405v0.288   c0,0.773-0.642,1.405-1.426,1.405h-23.854h-5.655v-2.255c0-0.464,0.385-0.843,0.855-0.843h28.653   C1105.398,18,1106.04,18.632,1106.04,19.405L1106.04,19.405z M1078.501,28.444L1078.501,28.444c-2.187,9.041-2.187,18.082,0,27.123   c0.592,2.445,1.344,4.89,2.255,7.335h0.004v0.011h-6.593c-0.663,0-1.204-0.534-1.204-1.187V22.284c0-0.653,0.542-1.187,1.204-1.187   h6.593C1079.847,23.547,1079.093,25.995,1078.501,28.444z"></path>
	<path id="Seat102" class="st2 seat seat--available compartment-33" d="M1080.756,128.902h0.004h28.474c5.35,0,9.728-3.794,9.728-8.43V95.528   c0-4.636-4.378-8.43-9.728-8.43h-28.474c-0.913,2.449-1.666,4.898-2.259,7.346c-2.187,9.041-2.187,18.082,0,27.123   C1079.092,124.012,1079.844,126.457,1080.756,128.902L1080.756,128.902z M1106.04,130.307L1106.04,130.307v0.288   c0,0.773-0.642,1.405-1.426,1.405h-28.654c-0.47,0-0.855-0.379-0.855-0.843v-2.255h5.651h0.004h23.854   C1105.398,128.902,1106.04,129.535,1106.04,130.307L1106.04,130.307z M1106.04,85.405L1106.04,85.405v0.288   c0,0.773-0.642,1.405-1.426,1.405h-23.854h-5.655v-2.255c0-0.464,0.385-0.843,0.855-0.843h28.654   C1105.398,84,1106.04,84.632,1106.04,85.405L1106.04,85.405z M1078.501,94.444L1078.501,94.444c-2.187,9.041-2.187,18.082,0,27.123   c0.592,2.445,1.344,4.89,2.255,7.335h0.004v0.011h-6.594c-0.662,0-1.204-0.534-1.204-1.187V88.284c0-0.653,0.542-1.187,1.204-1.187   h6.594C1079.846,89.547,1079.093,91.995,1078.501,94.444z"></path>
	<path id="Seat103" class="st2 seat" d="M1152.989,314.902h-0.004h-28.474c-5.35,0-9.728-3.794-9.728-8.43v-24.945   c0-4.636,4.378-8.43,9.728-8.43h28.474c0.913,2.449,1.666,4.898,2.259,7.346c2.187,9.041,2.187,18.082,0,27.123   C1154.652,310.012,1153.9,312.457,1152.989,314.902L1152.989,314.902z M1127.704,316.307L1127.704,316.307v0.288   c0,0.773,0.642,1.405,1.426,1.405h28.653c0.471,0,0.855-0.379,0.855-0.843v-2.255h-5.65h-0.004h-23.854   C1128.346,314.902,1127.704,315.535,1127.704,316.307L1127.704,316.307z M1127.704,271.405L1127.704,271.405v0.288   c0,0.773,0.642,1.405,1.426,1.405h23.854h5.654v-2.255c0-0.464-0.384-0.843-0.855-0.843h-28.653   C1128.346,270,1127.704,270.632,1127.704,271.405L1127.704,271.405z M1155.244,280.444L1155.244,280.444   c2.187,9.041,2.187,18.082,0,27.123c-0.592,2.445-1.343,4.89-2.255,7.335h-0.004v0.011h6.594c0.662,0,1.204-0.534,1.204-1.187   v-39.442c0-0.653-0.542-1.187-1.204-1.187h-6.594C1153.898,275.547,1154.651,277.995,1155.244,280.444z"></path>
	<path id="Seat104" class="st2 seat seat--available compartment-33" d="M1152.989,248.902h-0.004h-28.474c-5.35,0-9.728-3.794-9.728-8.43v-24.945   c0-4.636,4.378-8.43,9.728-8.43h28.474c0.913,2.449,1.666,4.898,2.259,7.346c2.187,9.041,2.187,18.082,0,27.123   C1154.652,244.012,1153.9,246.457,1152.989,248.902L1152.989,248.902z M1127.704,250.307L1127.704,250.307v0.288   c0,0.773,0.642,1.405,1.426,1.405h28.653c0.471,0,0.855-0.379,0.855-0.843v-2.255h-5.65h-0.004h-23.854   C1128.346,248.902,1127.704,249.535,1127.704,250.307L1127.704,250.307z M1127.704,205.405L1127.704,205.405v0.288   c0,0.773,0.642,1.405,1.426,1.405h23.854h5.654v-2.255c0-0.464-0.384-0.843-0.855-0.843h-28.653   C1128.346,204,1127.704,204.632,1127.704,205.405L1127.704,205.405z M1155.244,214.444L1155.244,214.444   c2.187,9.041,2.187,18.082,0,27.123c-0.592,2.445-1.343,4.89-2.255,7.335h-0.004v0.011h6.594c0.662,0,1.204-0.534,1.204-1.187   v-39.442c0-0.653-0.542-1.187-1.204-1.187h-6.594C1153.898,209.547,1154.651,211.995,1155.244,214.444z"></path>
	<path id="Seat105" class="st2 seat seat--available compartment-34" d="M1169.748,62.902h0.004h28.474c5.35,0,9.728-3.794,9.728-8.43V29.528   c0-4.636-4.378-8.43-9.728-8.43h-28.474c-0.914,2.449-1.666,4.898-2.259,7.346c-2.187,9.041-2.187,18.082,0,27.123   C1168.085,58.012,1168.837,60.457,1169.748,62.902L1169.748,62.902z M1195.033,64.307L1195.033,64.307v0.288   c0,0.773-0.642,1.405-1.426,1.405h-28.654c-0.47,0-0.855-0.379-0.855-0.843v-2.255h5.65h0.004h23.854   C1194.391,62.902,1195.033,63.535,1195.033,64.307L1195.033,64.307z M1195.033,19.405L1195.033,19.405v0.288   c0,0.773-0.642,1.405-1.426,1.405h-23.854h-5.654v-2.255c0-0.464,0.385-0.843,0.855-0.843h28.654   C1194.391,18,1195.033,18.632,1195.033,19.405L1195.033,19.405z M1167.494,28.444L1167.494,28.444   c-2.187,9.041-2.187,18.082,0,27.123c0.592,2.445,1.343,4.89,2.255,7.335h0.004v0.011h-6.594c-0.663,0-1.204-0.534-1.204-1.187   V22.284c0-0.653,0.542-1.187,1.204-1.187h6.594C1168.839,23.547,1168.086,25.995,1167.494,28.444z"></path>
	<path id="Seat106" class="st2 seat seat--available compartment-34" d="M1169.748,128.902h0.005h28.474c5.35,0,9.728-3.794,9.728-8.43V95.528   c0-4.636-4.378-8.43-9.728-8.43h-28.474c-0.914,2.449-1.666,4.898-2.259,7.346c-2.187,9.041-2.187,18.082,0,27.123   C1168.085,124.012,1168.837,126.457,1169.748,128.902L1169.748,128.902z M1195.033,130.307L1195.033,130.307v0.288   c0,0.773-0.642,1.405-1.426,1.405h-28.654c-0.47,0-0.855-0.379-0.855-0.843v-2.255h5.65h0.005h23.854   C1194.39,128.902,1195.033,129.535,1195.033,130.307L1195.033,130.307z M1195.033,85.405L1195.033,85.405v0.288   c0,0.773-0.642,1.405-1.426,1.405h-23.854h-5.654v-2.255c0-0.464,0.385-0.843,0.855-0.843h28.654   C1194.39,84,1195.033,84.632,1195.033,85.405L1195.033,85.405z M1167.493,94.444L1167.493,94.444   c-2.187,9.041-2.187,18.082,0,27.123c0.592,2.445,1.344,4.89,2.255,7.335h0.005v0.011h-6.594c-0.662,0-1.204-0.534-1.204-1.187   V88.284c0-0.653,0.542-1.187,1.204-1.187h6.594C1168.839,89.547,1168.086,91.995,1167.493,94.444z"></path>
	<path id="Seat107" class="st2 seat" d="M1241.877,314.902h-0.005h-28.474c-5.35,0-9.728-3.794-9.728-8.43v-24.945   c0-4.636,4.378-8.43,9.728-8.43h28.474c0.914,2.449,1.666,4.898,2.259,7.346c2.187,9.041,2.187,18.082,0,27.123   C1243.54,310.012,1242.788,312.457,1241.877,314.902L1241.877,314.902z M1216.592,316.307L1216.592,316.307v0.288   c0,0.773,0.642,1.405,1.426,1.405h28.654c0.47,0,0.855-0.379,0.855-0.843v-2.255h-5.65h-0.005h-23.854   C1217.235,314.902,1216.592,315.535,1216.592,316.307L1216.592,316.307z M1216.592,271.405L1216.592,271.405v0.288   c0,0.773,0.642,1.405,1.426,1.405h23.854h5.655v-2.255c0-0.464-0.385-0.843-0.855-0.843h-28.654   C1217.235,270,1216.592,270.632,1216.592,271.405L1216.592,271.405z M1244.132,280.444L1244.132,280.444   c2.187,9.041,2.187,18.082,0,27.123c-0.592,2.445-1.343,4.89-2.255,7.335h-0.005v0.011h6.594c0.663,0,1.204-0.534,1.204-1.187   v-39.442c0-0.653-0.542-1.187-1.204-1.187h-6.594C1242.786,275.547,1243.539,277.995,1244.132,280.444z"></path>
	<path id="Seat108" class="st2 seat" d="M1241.877,248.902h-0.005h-28.474c-5.35,0-9.728-3.794-9.728-8.43v-24.945   c0-4.636,4.378-8.43,9.728-8.43h28.474c0.914,2.449,1.666,4.898,2.259,7.346c2.187,9.041,2.187,18.082,0,27.123   C1243.54,244.012,1242.788,246.457,1241.877,248.902L1241.877,248.902z M1216.592,250.307L1216.592,250.307v0.288   c0,0.773,0.642,1.405,1.426,1.405h28.654c0.47,0,0.855-0.379,0.855-0.843v-2.255h-5.65h-0.005h-23.854   C1217.235,248.902,1216.592,249.535,1216.592,250.307L1216.592,250.307z M1216.592,205.405L1216.592,205.405v0.288   c0,0.773,0.642,1.405,1.426,1.405h23.854h5.655v-2.255c0-0.464-0.385-0.843-0.855-0.843h-28.654   C1217.235,204,1216.592,204.632,1216.592,205.405L1216.592,205.405z M1244.132,214.444L1244.132,214.444   c2.187,9.041,2.187,18.082,0,27.123c-0.592,2.445-1.343,4.89-2.255,7.335h-0.005v0.011h6.594c0.663,0,1.204-0.534,1.204-1.187   v-39.442c0-0.653-0.542-1.187-1.204-1.187h-6.594C1242.786,209.547,1243.539,211.995,1244.132,214.444z"></path>
	<path id="Seat109" class="st2 seat seat--available compartment-35" d="M1258.741,62.902h0.004h28.474c5.35,0,9.728-3.794,9.728-8.43V29.528   c0-4.636-4.377-8.43-9.728-8.43h-28.474c-0.913,2.449-1.666,4.898-2.259,7.346c-2.187,9.041-2.187,18.082,0,27.123   C1257.078,58.012,1257.829,60.457,1258.741,62.902L1258.741,62.902z M1284.025,64.307L1284.025,64.307v0.288   c0,0.773-0.642,1.405-1.426,1.405h-28.653c-0.471,0-0.855-0.379-0.855-0.843v-2.255h5.651h0.004h23.854   C1283.384,62.902,1284.025,63.535,1284.025,64.307L1284.025,64.307z M1284.025,19.405L1284.025,19.405v0.288   c0,0.773-0.642,1.405-1.426,1.405h-23.854h-5.655v-2.255c0-0.464,0.385-0.843,0.855-0.843h28.653   C1283.384,18,1284.025,18.632,1284.025,19.405L1284.025,19.405z M1256.487,28.444L1256.487,28.444   c-2.187,9.041-2.187,18.082,0,27.123c0.591,2.445,1.343,4.89,2.255,7.335h0.004v0.011h-6.594c-0.663,0-1.205-0.534-1.205-1.187   V22.284c0-0.653,0.542-1.187,1.205-1.187h6.594C1257.832,23.547,1257.079,25.995,1256.487,28.444z"></path>
	<path id="Seat110" class="st2 seat seat--available compartment-35" d="M1258.741,128.902h0.004h28.474c5.35,0,9.728-3.794,9.728-8.43V95.528   c0-4.636-4.378-8.43-9.728-8.43h-28.474c-0.914,2.449-1.666,4.898-2.259,7.346c-2.187,9.041-2.187,18.082,0,27.123   C1257.078,124.012,1257.829,126.457,1258.741,128.902L1258.741,128.902z M1284.025,130.307L1284.025,130.307v0.288   c0,0.773-0.642,1.405-1.426,1.405h-28.653c-0.47,0-0.855-0.379-0.855-0.843v-2.255h5.65h0.004h23.854   C1283.383,128.902,1284.025,129.535,1284.025,130.307L1284.025,130.307z M1284.025,85.405L1284.025,85.405v0.288   c0,0.773-0.642,1.405-1.426,1.405h-23.854h-5.655v-2.255c0-0.464,0.385-0.843,0.855-0.843h28.653   C1283.383,84,1284.025,84.632,1284.025,85.405L1284.025,85.405z M1256.486,94.444L1256.486,94.444   c-2.187,9.041-2.187,18.082,0,27.123c0.592,2.445,1.343,4.89,2.255,7.335h0.004v0.011h-6.594c-0.663,0-1.204-0.534-1.204-1.187   V88.284c0-0.653,0.542-1.187,1.204-1.187h6.594C1257.831,89.547,1257.079,91.995,1256.486,94.444z"></path>
	<path id="Seat111" class="st2 seat" d="M1330.765,314.902h-0.005h-28.474c-5.35,0-9.728-3.794-9.728-8.43v-24.945   c0-4.636,4.378-8.43,9.728-8.43h28.474c0.914,2.449,1.666,4.898,2.259,7.346c2.187,9.041,2.187,18.082,0,27.123   C1332.428,310.012,1331.676,312.457,1330.765,314.902L1330.765,314.902z M1305.481,316.307L1305.481,316.307v0.288   c0,0.773,0.642,1.405,1.426,1.405h28.654c0.47,0,0.855-0.379,0.855-0.843v-2.255h-5.65h-0.005h-23.854   C1306.123,314.902,1305.481,315.535,1305.481,316.307L1305.481,316.307z M1305.481,271.405L1305.481,271.405v0.288   c0,0.773,0.642,1.405,1.426,1.405h23.854h5.655v-2.255c0-0.464-0.385-0.843-0.855-0.843h-28.654   C1306.123,270,1305.481,270.632,1305.481,271.405L1305.481,271.405z M1333.02,280.444L1333.02,280.444   c2.187,9.041,2.187,18.082,0,27.123c-0.592,2.445-1.343,4.89-2.254,7.335h-0.005v0.011h6.594c0.663,0,1.204-0.534,1.204-1.187   v-39.442c0-0.653-0.542-1.187-1.204-1.187h-6.594C1331.674,275.547,1332.427,277.995,1333.02,280.444z"></path>
	<path id="Seat112" class="st2 seat seat--available compartment-35" d="M1330.765,248.902h-0.005h-28.474c-5.35,0-9.728-3.794-9.728-8.43v-24.945   c0-4.636,4.378-8.43,9.728-8.43h28.474c0.914,2.449,1.666,4.898,2.259,7.346c2.187,9.041,2.187,18.082,0,27.123   C1332.428,244.012,1331.676,246.457,1330.765,248.902L1330.765,248.902z M1305.481,250.307L1305.481,250.307v0.288   c0,0.773,0.642,1.405,1.426,1.405h28.654c0.47,0,0.855-0.379,0.855-0.843v-2.255h-5.65h-0.005h-23.854   C1306.123,248.902,1305.481,249.535,1305.481,250.307L1305.481,250.307z M1305.481,205.405L1305.481,205.405v0.288   c0,0.773,0.642,1.405,1.426,1.405h23.854h5.655v-2.255c0-0.464-0.385-0.843-0.855-0.843h-28.654   C1306.123,204,1305.481,204.632,1305.481,205.405L1305.481,205.405z M1333.02,214.444L1333.02,214.444   c2.187,9.041,2.187,18.082,0,27.123c-0.592,2.445-1.343,4.89-2.254,7.335h-0.005v0.011h6.594c0.663,0,1.204-0.534,1.204-1.187   v-39.442c0-0.653-0.542-1.187-1.204-1.187h-6.594C1331.674,209.547,1332.427,211.995,1333.02,214.444z"></path>
	<path id="Seat113" class="st2 seat" d="M1347.734,62.902h0.004h28.475c5.35,0,9.728-3.794,9.728-8.43V29.528   c0-4.636-4.377-8.43-9.728-8.43h-28.475c-0.913,2.449-1.666,4.898-2.258,7.346c-2.187,9.041-2.187,18.082,0,27.123   C1346.071,58.012,1346.822,60.457,1347.734,62.902L1347.734,62.902z M1373.018,64.307L1373.018,64.307v0.288   c0,0.773-0.642,1.405-1.426,1.405h-28.653c-0.471,0-0.856-0.379-0.856-0.843v-2.255h5.651h0.004h23.854   C1372.376,62.902,1373.018,63.535,1373.018,64.307L1373.018,64.307z M1373.018,19.405L1373.018,19.405v0.288   c0,0.773-0.642,1.405-1.426,1.405h-23.854h-5.655v-2.255c0-0.464,0.385-0.843,0.856-0.843h28.653   C1372.376,18,1373.018,18.632,1373.018,19.405L1373.018,19.405z M1345.479,28.444L1345.479,28.444   c-2.187,9.041-2.187,18.082,0,27.123c0.592,2.445,1.343,4.89,2.255,7.335h0.004v0.011h-6.593c-0.663,0-1.205-0.534-1.205-1.187   V22.284c0-0.653,0.542-1.187,1.205-1.187h6.593C1346.825,23.547,1346.071,25.995,1345.479,28.444z"></path>
	<path id="Seat114" class="st2 seat seat--available compartment-36" d="M1347.734,128.902h0.004h28.474c5.35,0,9.728-3.794,9.728-8.43V95.528   c0-4.636-4.377-8.43-9.728-8.43h-28.474c-0.913,2.449-1.666,4.898-2.259,7.346c-2.187,9.041-2.187,18.082,0,27.123   C1346.07,124.012,1346.822,126.457,1347.734,128.902L1347.734,128.902z M1373.018,130.307L1373.018,130.307v0.288   c0,0.773-0.642,1.405-1.426,1.405h-28.653c-0.471,0-0.855-0.379-0.855-0.843v-2.255h5.651h0.004h23.854   C1372.376,128.902,1373.018,129.535,1373.018,130.307L1373.018,130.307z M1373.018,85.405L1373.018,85.405v0.288   c0,0.773-0.642,1.405-1.426,1.405h-23.854h-5.655v-2.255c0-0.464,0.385-0.843,0.855-0.843h28.653   C1372.376,84,1373.018,84.632,1373.018,85.405L1373.018,85.405z M1345.479,94.444L1345.479,94.444   c-2.187,9.041-2.187,18.082,0,27.123c0.592,2.445,1.343,4.89,2.255,7.335h0.004v0.011h-6.594c-0.663,0-1.204-0.534-1.204-1.187   V88.284c0-0.653,0.542-1.187,1.204-1.187h6.594C1346.824,89.547,1346.071,91.995,1345.479,94.444z"></path>
	<path id="Seat115" class="st2 seat" d="M1419.653,314.902h-0.004h-28.474c-5.35,0-9.728-3.794-9.728-8.43v-24.945   c0-4.636,4.378-8.43,9.728-8.43h28.474c0.913,2.449,1.666,4.898,2.259,7.346c2.187,9.041,2.187,18.082,0,27.123   C1421.317,310.012,1420.565,312.457,1419.653,314.902L1419.653,314.902z M1394.369,316.307L1394.369,316.307v0.288   c0,0.773,0.642,1.405,1.426,1.405h28.653c0.471,0,0.855-0.379,0.855-0.843v-2.255h-5.651h-0.004h-23.854   C1395.011,314.902,1394.369,315.535,1394.369,316.307L1394.369,316.307z M1394.369,271.405L1394.369,271.405v0.288   c0,0.773,0.642,1.405,1.426,1.405h23.854h5.655v-2.255c0-0.464-0.385-0.843-0.855-0.843h-28.653   C1395.011,270,1394.369,270.632,1394.369,271.405L1394.369,271.405z M1421.908,280.444L1421.908,280.444   c2.187,9.041,2.187,18.082,0,27.123c-0.592,2.445-1.343,4.89-2.255,7.335h-0.004v0.011h6.594c0.663,0,1.204-0.534,1.204-1.187   v-39.442c0-0.653-0.542-1.187-1.204-1.187h-6.594C1420.563,275.547,1421.316,277.995,1421.908,280.444z"></path>
	<path id="Seat116" class="st2 seat" d="M1419.653,248.902h-0.004h-28.474c-5.35,0-9.728-3.794-9.728-8.43v-24.945   c0-4.636,4.378-8.43,9.728-8.43h28.474c0.913,2.449,1.666,4.898,2.259,7.346c2.187,9.041,2.187,18.082,0,27.123   C1421.317,244.012,1420.565,246.457,1419.653,248.902L1419.653,248.902z M1394.369,250.307L1394.369,250.307v0.288   c0,0.773,0.642,1.405,1.426,1.405h28.653c0.471,0,0.855-0.379,0.855-0.843v-2.255h-5.651h-0.004h-23.854   C1395.011,248.902,1394.369,249.535,1394.369,250.307L1394.369,250.307z M1394.369,205.405L1394.369,205.405v0.288   c0,0.773,0.642,1.405,1.426,1.405h23.854h5.655v-2.255c0-0.464-0.385-0.843-0.855-0.843h-28.653   C1395.011,204,1394.369,204.632,1394.369,205.405L1394.369,205.405z M1421.908,214.444L1421.908,214.444   c2.187,9.041,2.187,18.082,0,27.123c-0.592,2.445-1.343,4.89-2.255,7.335h-0.004v0.011h6.594c0.663,0,1.204-0.534,1.204-1.187   v-39.442c0-0.653-0.542-1.187-1.204-1.187h-6.594C1420.563,209.547,1421.316,211.995,1421.908,214.444z"></path>
	<path id="Seat117" class="st2 seat seat--available compartment-37" d="M1436.726,62.902h0.004h28.474c5.35,0,9.728-3.794,9.728-8.43V29.528   c0-4.636-4.378-8.43-9.728-8.43h-28.474c-0.914,2.449-1.666,4.898-2.259,7.346c-2.187,9.041-2.187,18.082,0,27.123   C1435.063,58.012,1435.815,60.457,1436.726,62.902L1436.726,62.902z M1462.01,64.307L1462.01,64.307v0.288   c0,0.773-0.642,1.405-1.426,1.405h-28.653c-0.471,0-0.855-0.379-0.855-0.843v-2.255h5.651h0.004h23.854   C1461.368,62.902,1462.01,63.535,1462.01,64.307L1462.01,64.307z M1462.01,19.405L1462.01,19.405v0.288   c0,0.773-0.642,1.405-1.426,1.405h-23.854h-5.655v-2.255c0-0.464,0.385-0.843,0.855-0.843h28.653   C1461.368,18,1462.01,18.632,1462.01,19.405L1462.01,19.405z M1434.471,28.444L1434.471,28.444c-2.187,9.041-2.187,18.082,0,27.123   c0.592,2.445,1.343,4.89,2.255,7.335h0.004v0.011h-6.594c-0.663,0-1.204-0.534-1.204-1.187V22.284c0-0.653,0.542-1.187,1.204-1.187   h6.594C1435.817,23.547,1435.064,25.995,1434.471,28.444z"></path>
	<path id="Seat118" class="st2 seat seat--available compartment-37" d="M1436.726,128.902h0.005h28.474c5.35,0,9.728-3.794,9.728-8.43V95.528   c0-4.636-4.378-8.43-9.728-8.43h-28.474c-0.914,2.449-1.666,4.898-2.259,7.346c-2.187,9.041-2.187,18.082,0,27.123   C1435.063,124.012,1435.815,126.457,1436.726,128.902L1436.726,128.902z M1462.01,130.307L1462.01,130.307v0.288   c0,0.773-0.642,1.405-1.426,1.405h-28.654c-0.47,0-0.855-0.379-0.855-0.843v-2.255h5.65h0.005h23.854   C1461.368,128.902,1462.01,129.535,1462.01,130.307L1462.01,130.307z M1462.01,85.405L1462.01,85.405v0.288   c0,0.773-0.642,1.405-1.426,1.405h-23.854h-5.655v-2.255c0-0.464,0.385-0.843,0.855-0.843h28.654   C1461.368,84,1462.01,84.632,1462.01,85.405L1462.01,85.405z M1434.471,94.444L1434.471,94.444c-2.187,9.041-2.187,18.082,0,27.123   c0.592,2.445,1.343,4.89,2.254,7.335h0.005v0.011h-6.594c-0.663,0-1.204-0.534-1.204-1.187V88.284c0-0.653,0.542-1.187,1.204-1.187   h6.594C1435.817,89.547,1435.064,91.995,1434.471,94.444z"></path>
	<path id="Seat119" class="st2 seat" d="M1508.541,314.902h-0.004h-28.474c-5.35,0-9.728-3.794-9.728-8.43v-24.945   c0-4.636,4.378-8.43,9.728-8.43h28.474c0.914,2.449,1.666,4.898,2.259,7.346c2.187,9.041,2.187,18.082,0,27.123   C1510.205,310.012,1509.453,312.457,1508.541,314.902L1508.541,314.902z M1483.257,316.307L1483.257,316.307v0.288   c0,0.773,0.642,1.405,1.426,1.405h28.653c0.47,0,0.855-0.379,0.855-0.843v-2.255h-5.65h-0.004h-23.854   C1483.899,314.902,1483.257,315.535,1483.257,316.307L1483.257,316.307z M1483.257,271.405L1483.257,271.405v0.288   c0,0.773,0.642,1.405,1.426,1.405h23.854h5.654v-2.255c0-0.464-0.385-0.843-0.855-0.843h-28.653   C1483.899,270,1483.257,270.632,1483.257,271.405L1483.257,271.405z M1510.796,280.444L1510.796,280.444   c2.187,9.041,2.187,18.082,0,27.123c-0.591,2.445-1.343,4.89-2.255,7.335h-0.004v0.011h6.594c0.663,0,1.204-0.534,1.204-1.187   v-39.442c0-0.653-0.542-1.187-1.204-1.187h-6.594C1509.451,275.547,1510.204,277.995,1510.796,280.444z"></path>
	<path id="Seat120" class="st2 seat seat--available compartment-37" d="M1508.541,248.902h-0.004h-28.474c-5.35,0-9.728-3.794-9.728-8.43v-24.945   c0-4.636,4.378-8.43,9.728-8.43h28.474c0.914,2.449,1.666,4.898,2.259,7.346c2.187,9.041,2.187,18.082,0,27.123   C1510.205,244.012,1509.453,246.457,1508.541,248.902L1508.541,248.902z M1483.257,250.307L1483.257,250.307v0.288   c0,0.773,0.642,1.405,1.426,1.405h28.653c0.47,0,0.855-0.379,0.855-0.843v-2.255h-5.65h-0.004h-23.854   C1483.899,248.902,1483.257,249.535,1483.257,250.307L1483.257,250.307z M1483.257,205.405L1483.257,205.405v0.288   c0,0.773,0.642,1.405,1.426,1.405h23.854h5.654v-2.255c0-0.464-0.385-0.843-0.855-0.843h-28.653   C1483.899,204,1483.257,204.632,1483.257,205.405L1483.257,205.405z M1510.796,214.444L1510.796,214.444   c2.187,9.041,2.187,18.082,0,27.123c-0.591,2.445-1.343,4.89-2.255,7.335h-0.004v0.011h6.594c0.663,0,1.204-0.534,1.204-1.187   v-39.442c0-0.653-0.542-1.187-1.204-1.187h-6.594C1509.451,209.547,1510.204,211.995,1510.796,214.444z"></path>
	<path id="Seat121" class="st2 seat seat--available compartment-38" d="M1525.718,21.098h0.005h28.474c5.35,0,9.728,3.794,9.728,8.43v24.945   c0,4.636-4.378,8.43-9.728,8.43h-28.474c-0.914-2.449-1.666-4.898-2.259-7.346c-2.187-9.041-2.187-18.082,0-27.123   C1524.055,25.988,1524.807,23.543,1525.718,21.098L1525.718,21.098z M1551.002,19.693L1551.002,19.693v-0.288   c0-0.773-0.642-1.405-1.426-1.405h-28.654c-0.47,0-0.855,0.379-0.855,0.843v2.255h5.65h0.005h23.854   C1550.36,21.098,1551.002,20.465,1551.002,19.693L1551.002,19.693z M1551.002,64.595L1551.002,64.595v-0.288   c0-0.773-0.642-1.405-1.426-1.405h-23.854h-5.655v2.255c0,0.464,0.385,0.843,0.855,0.843h28.654   C1550.36,66,1551.002,65.368,1551.002,64.595L1551.002,64.595z M1523.463,55.556L1523.463,55.556   c-2.187-9.041-2.187-18.082,0-27.123c0.592-2.445,1.344-4.89,2.255-7.335h0.005v-0.011h-6.594c-0.662,0-1.204,0.534-1.204,1.187   v39.442c0,0.653,0.542,1.187,1.204,1.187h6.594C1524.809,60.453,1524.056,58.005,1523.463,55.556z"></path>
	<path id="Seat122" class="st2 seat seat--available compartment-38" d="M1525.718,87.098h0.005h28.474c5.35,0,9.728,3.794,9.728,8.43v24.945   c0,4.636-4.378,8.43-9.728,8.43h-28.474c-0.914-2.449-1.666-4.898-2.259-7.346c-2.187-9.041-2.187-18.082,0-27.123   C1524.055,91.988,1524.807,89.543,1525.718,87.098L1525.718,87.098z M1551.002,85.693L1551.002,85.693v-0.288   c0-0.773-0.642-1.405-1.426-1.405h-28.654c-0.47,0-0.855,0.379-0.855,0.843v2.255h5.65h0.005h23.854   C1550.36,87.098,1551.002,86.465,1551.002,85.693L1551.002,85.693z M1551.002,130.595L1551.002,130.595v-0.288   c0-0.773-0.642-1.405-1.426-1.405h-23.854h-5.655v2.255c0,0.464,0.385,0.843,0.855,0.843h28.654   C1550.36,132,1551.002,131.368,1551.002,130.595L1551.002,130.595z M1523.463,121.556L1523.463,121.556   c-2.187-9.041-2.187-18.082,0-27.123c0.592-2.445,1.344-4.89,2.255-7.335h0.005v-0.011h-6.594c-0.662,0-1.204,0.534-1.204,1.187   v39.442c0,0.653,0.542,1.187,1.204,1.187h6.594C1524.809,126.453,1524.056,124.005,1523.463,121.556z"></path>
	<path id="Seat123" class="st2 seat seat--available compartment-38" d="M1597.43,273.098h-0.004h-28.474c-5.35,0-9.728,3.794-9.728,8.43v24.945   c0,4.636,4.377,8.43,9.728,8.43h28.474c0.914-2.449,1.666-4.898,2.259-7.346c2.187-9.041,2.187-18.082,0-27.123   C1599.093,277.988,1598.341,275.543,1597.43,273.098L1597.43,273.098z M1572.145,271.693L1572.145,271.693v-0.288   c0-0.773,0.642-1.405,1.426-1.405h28.653c0.471,0,0.855,0.379,0.855,0.843v2.255h-5.65h-0.004h-23.854   C1572.787,273.098,1572.145,272.465,1572.145,271.693L1572.145,271.693z M1572.145,316.595L1572.145,316.595v-0.288   c0-0.773,0.642-1.405,1.426-1.405h23.854h5.654v2.255c0,0.464-0.385,0.843-0.855,0.843h-28.653   C1572.787,318,1572.145,317.368,1572.145,316.595L1572.145,316.595z M1599.684,307.556L1599.684,307.556   c2.187-9.041,2.187-18.082,0-27.123c-0.592-2.445-1.343-4.89-2.255-7.335h-0.004v-0.011h6.594c0.663,0,1.204,0.534,1.204,1.187   v39.442c0,0.653-0.542,1.187-1.204,1.187h-6.594C1598.339,312.453,1599.092,310.005,1599.684,307.556z"></path>
	<path id="Seat124" class="st2 seat seat--available compartment-38" d="M1597.43,207.098h-0.005h-28.474c-5.35,0-9.728,3.794-9.728,8.43v24.945   c0,4.636,4.378,8.43,9.728,8.43h28.474c0.914-2.449,1.666-4.898,2.259-7.346c2.187-9.041,2.187-18.082,0-27.123   C1599.093,211.988,1598.341,209.543,1597.43,207.098L1597.43,207.098z M1572.145,205.693L1572.145,205.693v-0.288   c0-0.773,0.642-1.405,1.426-1.405h28.654c0.47,0,0.855,0.379,0.855,0.843v2.255h-5.65h-0.005h-23.854   C1572.788,207.098,1572.145,206.465,1572.145,205.693L1572.145,205.693z M1572.145,250.595L1572.145,250.595v-0.288   c0-0.773,0.642-1.405,1.426-1.405h23.854h5.654v2.255c0,0.464-0.385,0.843-0.855,0.843h-28.654   C1572.788,252,1572.145,251.368,1572.145,250.595L1572.145,250.595z M1599.685,241.556L1599.685,241.556   c2.187-9.041,2.187-18.082,0-27.123c-0.591-2.445-1.343-4.89-2.255-7.335h-0.005v-0.011h6.594c0.663,0,1.204,0.534,1.204,1.187   v39.442c0,0.653-0.542,1.187-1.204,1.187h-6.594C1598.339,246.453,1599.092,244.005,1599.685,241.556z"></path>
	<path id="Seat125" class="st2 seat seat--available compartment-39" d="M1614.711,62.902h0.004h28.475c5.35,0,9.727-3.794,9.727-8.43V29.528   c0-4.636-4.377-8.43-9.727-8.43h-28.475c-0.913,2.449-1.666,4.898-2.258,7.346c-2.187,9.041-2.187,18.082,0,27.123   C1613.048,58.012,1613.799,60.457,1614.711,62.902L1614.711,62.902z M1639.995,64.307L1639.995,64.307v0.288   c0,0.773-0.642,1.405-1.426,1.405h-28.653c-0.471,0-0.855-0.379-0.855-0.843v-2.255h5.651h0.004h23.854   C1639.354,62.902,1639.995,63.535,1639.995,64.307L1639.995,64.307z M1639.995,19.405L1639.995,19.405v0.288   c0,0.773-0.642,1.405-1.426,1.405h-23.854h-5.654v-2.255c0-0.464,0.385-0.843,0.855-0.843h28.653   C1639.354,18,1639.995,18.632,1639.995,19.405L1639.995,19.405z M1612.457,28.444L1612.457,28.444   c-2.187,9.041-2.187,18.082,0,27.123c0.592,2.445,1.343,4.89,2.255,7.335h0.004v0.011h-6.593c-0.663,0-1.205-0.534-1.205-1.187   V22.284c0-0.653,0.542-1.187,1.205-1.187h6.593C1613.802,23.547,1613.049,25.995,1612.457,28.444z"></path>
	<path id="Seat126" class="st2 seat seat--available compartment-39" d="M1614.711,128.902h0.004h28.474c5.35,0,9.728-3.794,9.728-8.43V95.528   c0-4.636-4.378-8.43-9.728-8.43h-28.474c-0.913,2.449-1.666,4.898-2.259,7.346c-2.187,9.041-2.187,18.082,0,27.123   C1613.048,124.012,1613.799,126.457,1614.711,128.902L1614.711,128.902z M1639.995,130.307L1639.995,130.307v0.288   c0,0.773-0.642,1.405-1.426,1.405h-28.653c-0.47,0-0.855-0.379-0.855-0.843v-2.255h5.65h0.004h23.854   C1639.353,128.902,1639.995,129.535,1639.995,130.307L1639.995,130.307z M1639.995,85.405L1639.995,85.405v0.288   c0,0.773-0.642,1.405-1.426,1.405h-23.854h-5.654v-2.255c0-0.464,0.385-0.843,0.855-0.843h28.653   C1639.353,84,1639.995,84.632,1639.995,85.405L1639.995,85.405z M1612.456,94.444L1612.456,94.444   c-2.187,9.041-2.187,18.082,0,27.123c0.592,2.445,1.343,4.89,2.255,7.335h0.004v0.011h-6.594c-0.662,0-1.204-0.534-1.204-1.187   V88.284c0-0.653,0.542-1.187,1.204-1.187h6.594C1613.802,89.547,1613.049,91.995,1612.456,94.444z"></path>
	<path id="Seat127" class="st2 seat" d="M1686.318,314.902h-0.005h-28.474c-5.35,0-9.728-3.794-9.728-8.43v-24.945   c0-4.636,4.378-8.43,9.728-8.43h28.474c0.913,2.449,1.666,4.898,2.259,7.346c2.187,9.041,2.187,18.082,0,27.123   C1687.981,310.012,1687.229,312.457,1686.318,314.902L1686.318,314.902z M1661.034,316.307L1661.034,316.307v0.288   c0,0.773,0.642,1.405,1.426,1.405h28.654c0.47,0,0.855-0.379,0.855-0.843v-2.255h-5.65h-0.005h-23.854   C1661.676,314.902,1661.034,315.535,1661.034,316.307L1661.034,316.307z M1661.034,271.405L1661.034,271.405v0.288   c0,0.773,0.642,1.405,1.426,1.405h23.854h5.655v-2.255c0-0.464-0.385-0.843-0.855-0.843h-28.654   C1661.676,270,1661.034,270.632,1661.034,271.405L1661.034,271.405z M1688.573,280.444L1688.573,280.444   c2.187,9.041,2.187,18.082,0,27.123c-0.592,2.445-1.343,4.89-2.254,7.335h-0.005v0.011h6.594c0.663,0,1.204-0.534,1.204-1.187   v-39.442c0-0.653-0.542-1.187-1.204-1.187h-6.594C1687.227,275.547,1687.98,277.995,1688.573,280.444z"></path>
	<path id="Seat128" class="st2 seat" d="M1686.318,248.902h-0.005h-28.474c-5.35,0-9.728-3.794-9.728-8.43v-24.945   c0-4.636,4.378-8.43,9.728-8.43h28.474c0.913,2.449,1.666,4.898,2.259,7.346c2.187,9.041,2.187,18.082,0,27.123   C1687.981,244.012,1687.229,246.457,1686.318,248.902L1686.318,248.902z M1661.034,250.307L1661.034,250.307v0.288   c0,0.773,0.642,1.405,1.426,1.405h28.654c0.47,0,0.855-0.379,0.855-0.843v-2.255h-5.65h-0.005h-23.854   C1661.676,248.902,1661.034,249.535,1661.034,250.307L1661.034,250.307z M1661.034,205.405L1661.034,205.405v0.288   c0,0.773,0.642,1.405,1.426,1.405h23.854h5.655v-2.255c0-0.464-0.385-0.843-0.855-0.843h-28.654   C1661.676,204,1661.034,204.632,1661.034,205.405L1661.034,205.405z M1688.573,214.444L1688.573,214.444   c2.187,9.041,2.187,18.082,0,27.123c-0.592,2.445-1.343,4.89-2.254,7.335h-0.005v0.011h6.594c0.663,0,1.204-0.534,1.204-1.187   v-39.442c0-0.653-0.542-1.187-1.204-1.187h-6.594C1687.227,209.547,1687.98,211.995,1688.573,214.444z"></path>
	<path id="Seat129" class="st2 seat" d="M1703.703,62.902h0.005h28.474c5.35,0,9.728-3.794,9.728-8.43V29.528   c0-4.636-4.378-8.43-9.728-8.43h-28.474c-0.914,2.449-1.666,4.898-2.259,7.346c-2.187,9.041-2.187,18.082,0,27.123   C1702.04,58.012,1702.792,60.457,1703.703,62.902L1703.703,62.902z M1728.988,64.307L1728.988,64.307v0.288   c0,0.773-0.642,1.405-1.426,1.405h-28.653c-0.47,0-0.855-0.379-0.855-0.843v-2.255h5.65h0.005h23.854   C1728.346,62.902,1728.988,63.535,1728.988,64.307L1728.988,64.307z M1728.988,19.405L1728.988,19.405v0.288   c0,0.773-0.642,1.405-1.426,1.405h-23.854h-5.654v-2.255c0-0.464,0.385-0.843,0.855-0.843h28.653   C1728.346,18,1728.988,18.632,1728.988,19.405L1728.988,19.405z M1701.449,28.444L1701.449,28.444   c-2.187,9.041-2.187,18.082,0,27.123c0.592,2.445,1.343,4.89,2.255,7.335h0.005v0.011h-6.594c-0.663,0-1.204-0.534-1.204-1.187   V22.284c0-0.653,0.542-1.187,1.204-1.187h6.594C1702.794,23.547,1702.042,25.995,1701.449,28.444z"></path>
	<path id="Seat130" class="st2 seat seat--available compartment-40" d="M1703.703,128.902h0.005h28.474c5.35,0,9.728-3.794,9.728-8.43V95.528   c0-4.636-4.378-8.43-9.728-8.43h-28.474c-0.914,2.449-1.666,4.898-2.259,7.346c-2.187,9.041-2.187,18.082,0,27.123   C1702.04,124.012,1702.792,126.457,1703.703,128.902L1703.703,128.902z M1728.988,130.307L1728.988,130.307v0.288   c0,0.773-0.642,1.405-1.426,1.405h-28.653c-0.47,0-0.855-0.379-0.855-0.843v-2.255h5.65h0.005h23.854   C1728.346,128.902,1728.988,129.535,1728.988,130.307L1728.988,130.307z M1728.988,85.405L1728.988,85.405v0.288   c0,0.773-0.642,1.405-1.426,1.405h-23.854h-5.654v-2.255c0-0.464,0.385-0.843,0.855-0.843h28.653   C1728.346,84,1728.988,84.632,1728.988,85.405L1728.988,85.405z M1701.449,94.444L1701.449,94.444   c-2.187,9.041-2.187,18.082,0,27.123c0.592,2.445,1.343,4.89,2.255,7.335h0.005v0.011h-6.594c-0.663,0-1.204-0.534-1.204-1.187   V88.284c0-0.653,0.542-1.187,1.204-1.187h6.594C1702.794,89.547,1702.042,91.995,1701.449,94.444z"></path>
	<path id="Seat131" class="st2 seat" d="M1775.207,314.902h-0.005h-28.474c-5.35,0-9.728-3.794-9.728-8.43v-24.945   c0-4.636,4.378-8.43,9.728-8.43h28.474c0.914,2.449,1.666,4.898,2.259,7.346c2.187,9.041,2.187,18.082,0,27.123   C1776.869,310.012,1776.118,312.457,1775.207,314.902L1775.207,314.902z M1749.922,316.307L1749.922,316.307v0.288   c0,0.773,0.642,1.405,1.426,1.405h28.654c0.47,0,0.855-0.379,0.855-0.843v-2.255h-5.65h-0.005h-23.854   C1750.564,314.902,1749.922,315.535,1749.922,316.307L1749.922,316.307z M1749.922,271.405L1749.922,271.405v0.288   c0,0.773,0.642,1.405,1.426,1.405h23.854h5.655v-2.255c0-0.464-0.385-0.843-0.855-0.843h-28.654   C1750.564,270,1749.922,270.632,1749.922,271.405L1749.922,271.405z M1777.461,280.444L1777.461,280.444   c2.187,9.041,2.187,18.082,0,27.123c-0.592,2.445-1.344,4.89-2.255,7.335h-0.005v0.011h6.594c0.663,0,1.204-0.534,1.204-1.187   v-39.442c0-0.653-0.542-1.187-1.204-1.187h-6.594C1776.116,275.547,1776.868,277.995,1777.461,280.444z"></path>
	<path id="Seat132" class="st2 seat" d="M1775.207,248.902h-0.005h-28.474c-5.35,0-9.728-3.794-9.728-8.43v-24.945   c0-4.636,4.378-8.43,9.728-8.43h28.474c0.914,2.449,1.666,4.898,2.259,7.346c2.187,9.041,2.187,18.082,0,27.123   C1776.869,244.012,1776.118,246.457,1775.207,248.902L1775.207,248.902z M1749.922,250.307L1749.922,250.307v0.288   c0,0.773,0.642,1.405,1.426,1.405h28.654c0.47,0,0.855-0.379,0.855-0.843v-2.255h-5.65h-0.005h-23.854   C1750.564,248.902,1749.922,249.535,1749.922,250.307L1749.922,250.307z M1749.922,205.405L1749.922,205.405v0.288   c0,0.773,0.642,1.405,1.426,1.405h23.854h5.655v-2.255c0-0.464-0.385-0.843-0.855-0.843h-28.654   C1750.564,204,1749.922,204.632,1749.922,205.405L1749.922,205.405z M1777.461,214.444L1777.461,214.444   c2.187,9.041,2.187,18.082,0,27.123c-0.592,2.445-1.344,4.89-2.255,7.335h-0.005v0.011h6.594c0.663,0,1.204-0.534,1.204-1.187   v-39.442c0-0.653-0.542-1.187-1.204-1.187h-6.594C1776.116,209.547,1776.868,211.995,1777.461,214.444z"></path>
</g>
<g id="Numbers" pointer-events="none">
	<text transform="matrix(1.0003 0 0 1 681.7661 299.8447)" class="st3 st4 st5">83</text>
	<text transform="matrix(1.0003 0 0 1 681.7661 233.8447)" class="st3 st4 st5">84</text>
	<text transform="matrix(1.0003 0 0 1 728.7581 47.8447)" class="st3 st4 st5">85</text>
	<text transform="matrix(1.0003 0 0 1 728.7581 113.8447)" class="st3 st4 st5">86</text>
	<text transform="matrix(1.0003 0 0 1 770.9957 299.8447)" class="st3 st4 st5">87</text>
	<text transform="matrix(1.0003 0 0 1 770.9957 233.8447)" class="st3 st4 st5">88</text>
	<text transform="matrix(1.0003 0 0 1 817.7505 47.8447)" class="st3 st4 st5">89</text>
	<text transform="matrix(1.0003 0 0 1 817.7505 113.8447)" class="st3 st4 st5">90</text>
	<text transform="matrix(1.0003 0 0 1 859.884 299.8447)" class="st3 st4 st5">91</text>
	<text transform="matrix(1.0003 0 0 1 859.8839 233.8447)" class="st3 st4 st5">92</text>
	<text transform="matrix(1.0003 0 0 1 906.7429 47.8447)" class="st3 st4 st5">93</text>
	<text transform="matrix(1.0003 0 0 1 906.7429 113.8447)" class="st3 st4 st5">94</text>
	<text transform="matrix(1.0003 0 0 1 948.7723 299.8447)" class="st3 st4 st5">95</text>
	<text transform="matrix(1.0003 0 0 1 948.7722 233.8447)" class="st3 st4 st5">96</text>
	<text transform="matrix(1.0003 0 0 1 995.7354 47.8447)" class="st3 st4 st5">97</text>
	<text transform="matrix(1.0003 0 0 1 995.7354 113.8447)" class="st3 st4 st5">98</text>
	<text transform="matrix(1.0003 0 0 1 1037.6605 299.8447)" class="st3 st4 st5">99</text>
	<text transform="matrix(1.0003 0 0 1 1032.0436 233.8447)" class="st3 st4 st5">100</text>
	<text transform="matrix(1.0003 0 0 1 1079.1111 47.8447)" class="st3 st4 st5">101</text>
	<text transform="matrix(1.0003 0 0 1 1079.1111 113.8447)" class="st3 st4 st5">102</text>
	<text transform="matrix(1.0003 0 0 1 1120.9319 299.8447)" class="st3 st4 st5">103</text>
	<text transform="matrix(1.0003 0 0 1 1120.9319 233.8447)" class="st3 st4 st5">104</text>
	<text transform="matrix(1.0003 0 0 1 1168.1036 47.8447)" class="st3 st4 st5">105</text>
	<text transform="matrix(1.0003 0 0 1 1168.1036 113.8447)" class="st3 st4 st5">106</text>
	<text transform="matrix(1.0003 0 0 1 1209.8206 299.8447)" class="st3 st4 st5">107</text>
	<text transform="matrix(1.0003 0 0 1 1209.8206 233.8447)" class="st3 st4 st5">108</text>
	<text transform="matrix(1.0003 0 0 1 1257.0969 47.8447)" class="st3 st4 st5">109</text>
	<text transform="matrix(1.0003 0 0 1 1257.0969 113.8447)" class="st3 st4 st5">110</text>
	<text transform="matrix(1.0003 0 0 1 1298.7087 299.8447)" class="st3 st4 st5">111</text>
	<text transform="matrix(1.0003 0 0 1 1298.7087 233.8447)" class="st3 st4 st5">112</text>
	<text transform="matrix(1.0003 0 0 1 1346.0895 47.8447)" class="st3 st4 st5">113</text>
	<text transform="matrix(1.0003 0 0 1 1346.0896 113.8447)" class="st3 st4 st5">114</text>
	<text transform="matrix(1.0003 0 0 1 1387.597 299.8447)" class="st3 st4 st5">115</text>
	<text transform="matrix(1.0003 0 0 1 1387.597 233.8447)" class="st3 st4 st5">116</text>
	<text transform="matrix(1.0003 0 0 1 1435.0815 47.8447)" class="st3 st4 st5">117</text>
	<text transform="matrix(1.0003 0 0 1 1435.0815 113.8447)" class="st3 st4 st5">118</text>
	<text transform="matrix(1.0003 0 0 1 1476.4852 299.8447)" class="st3 st4 st5">119</text>
	<text transform="matrix(1.0003 0 0 1 1476.4852 233.8447)" class="st3 st4 st5">120</text>
	<text transform="matrix(1.0003 0 0 1 1524.0743 47.8447)" class="st3 st4 st5">121</text>
	<text transform="matrix(1.0003 0 0 1 1524.0743 113.8447)" class="st3 st4 st5">122</text>
	<text transform="matrix(1.0003 0 0 1 1565.3735 299.8447)" class="st3 st4 st5">123</text>
	<text transform="matrix(1.0003 0 0 1 1565.3735 233.8447)" class="st3 st4 st5">124</text>
	<text transform="matrix(1.0003 0 0 1 1613.0669 47.8447)" class="st3 st4 st5">125</text>
	<text transform="matrix(1.0003 0 0 1 1613.067 113.8447)" class="st3 st4 st5">126</text>
	<text transform="matrix(1.0003 0 0 1 1654.2617 299.8447)" class="st3 st4 st5">127</text>
	<text transform="matrix(1.0003 0 0 1 1654.2617 233.8447)" class="st3 st4 st5">128</text>
	<text transform="matrix(1.0003 0 0 1 1702.0594 47.8447)" class="st3 st4 st5">129</text>
	<text transform="matrix(1.0003 0 0 1 1702.0594 113.8447)" class="st3 st4 st5">130</text>
	<text transform="matrix(1.0003 0 0 1 1743.1499 299.8447)" class="st3 st4 st5">131</text>
	<text transform="matrix(1.0003 0 0 1 1743.1499 233.8447)" class="st3 st4 st5">132</text>
</g>
<g id="Stairs">
	<g>
		<rect x="485.624" y="8" class="st6" width="29.001" height="92"></rect>
		<rect x="405.625" y="8" class="st6" width="79.999" height="92"></rect>
		<g>
			<rect x="405.625" y="100" class="st6" width="76" height="135.999"></rect>
			<line class="st6" x1="405.625" y1="119.429" x2="481.625" y2="119.429"></line>
			<line class="st6" x1="405.625" y1="138.857" x2="481.625" y2="138.857"></line>
			<line class="st6" x1="405.625" y1="158.286" x2="481.625" y2="158.286"></line>
			<line class="st6" x1="405.625" y1="177.714" x2="481.625" y2="177.714"></line>
			<line class="st6" x1="405.625" y1="197.142" x2="481.625" y2="197.142"></line>
			<line class="st6" x1="405.625" y1="216.571" x2="481.625" y2="216.571"></line>
		</g>
		<rect x="405.625" y="235.999" class="st6" width="76" height="92.001"></rect>
		<g>
			<rect x="481.625" y="235.999" class="st6" width="25" height="92.001"></rect>
			<line class="st6" x1="500.291" y1="235.999" x2="500.291" y2="328"></line>
		</g>
	</g>
	<g>
		<rect x="1897.001" y="8" class="st6" width="29.001" height="92"></rect>
		<rect x="1926.002" y="8" class="st6" width="79.999" height="92"></rect>
		<g>
			<rect x="1930.001" y="100" class="st6" width="76" height="135.999"></rect>
			<line class="st6" x1="2006.001" y1="119.429" x2="1930.001" y2="119.429"></line>
			<line class="st6" x1="2006.001" y1="138.857" x2="1930.001" y2="138.857"></line>
			<line class="st6" x1="2006.001" y1="158.286" x2="1930.001" y2="158.286"></line>
			<line class="st6" x1="2006.001" y1="177.714" x2="1930.001" y2="177.714"></line>
			<line class="st6" x1="2006.001" y1="197.142" x2="1930.001" y2="197.142"></line>
			<line class="st6" x1="2006.001" y1="216.571" x2="1930.001" y2="216.571"></line>
		</g>
		<rect x="1930.001" y="235.999" class="st6" width="76" height="92.001"></rect>
		<g>
			<rect x="1905.001" y="235.999" class="st6" width="25" height="92.001"></rect>
			<line class="st6" x1="1911.334" y1="235.999" x2="1911.334" y2="328"></line>
		</g>
	</g>
</g>
<g id="Tables">
	<rect x="608.625" y="278.501" class="st7" width="36" height="32"></rect>
	<rect x="608.625" y="221.501" class="st7" width="36" height="32"></rect>
	<rect x="1767.626" y="34.989" class="st7" width="36" height="32"></rect>
	<rect x="1767.626" y="89.168" class="st7" width="36" height="32"></rect>
	<polygon class="st7" points="410.7,56.066 453.691,13.075 453.691,8 405.625,8 405.625,56.066  "></polygon>
	<polygon class="st7" points="2000.926,56.066 1957.935,13.075 1957.935,8 2006.001,8 2006.001,56.066  "></polygon>
	<rect x="514.625" y="211" class="st7" width="94" height="117"></rect>
	<rect x="1803.001" y="211" class="st7" width="94" height="117"></rect>
</g>
<g id="Cup_for_table">
	<path class="st8" d="M636.633,302.425c0,1.148-0.929,2.075-2.079,2.075h-15.86c-1.15,0-2.078-0.927-2.078-2.075H636.633   L636.633,302.425z M632.309,297.595L632.309,297.595c0,0,0.213-0.003,0.367-0.003c1.193,0,2.16-0.965,2.16-2.159   c0-1.192-0.967-2.157-2.16-2.157h-0.367V297.595L632.309,297.595z M622.534,301.552L622.534,301.552   c-0.979,0-1.77-0.795-1.77-1.774v-7.922h11.904c1.975,0,3.582,1.604,3.582,3.577c0,1.976-1.599,3.575-3.575,3.575h-0.367   c0,0.209-0.002,0.653-0.002,0.77c0,0.979-0.795,1.774-1.775,1.774H622.534L622.534,301.552z M623.939,288.907L623.939,288.907   c0,0.459-0.187,0.825-0.557,1.103c-0.103,0.079-0.154,0.186-0.154,0.318c0,0.262,0.13,0.391,0.391,0.391   c0.086,0,0.166-0.027,0.237-0.082c0.576-0.434,0.865-1.011,0.865-1.73c0-0.528-0.212-1.023-0.634-1.48   c-0.423-0.458-0.634-0.872-0.634-1.244c0-0.396,0.146-0.73,0.439-1.008c0.079-0.078,0.118-0.173,0.118-0.284   c0-0.261-0.131-0.391-0.391-0.391c-0.103,0-0.194,0.035-0.273,0.107c-0.451,0.426-0.675,0.952-0.675,1.576   c0,0.561,0.211,1.072,0.634,1.533C623.727,288.179,623.939,288.576,623.939,288.907L623.939,288.907z M626.735,288.907   L626.735,288.907c0,0.459-0.186,0.825-0.558,1.103c-0.102,0.079-0.154,0.186-0.154,0.318c0,0.262,0.131,0.391,0.391,0.391   c0.087,0,0.165-0.027,0.237-0.082c0.578-0.434,0.864-1.011,0.864-1.73c0-0.528-0.211-1.023-0.633-1.48   c-0.423-0.458-0.634-0.872-0.634-1.244c0-0.396,0.145-0.73,0.438-1.008c0.079-0.078,0.118-0.173,0.118-0.284   c0-0.261-0.13-0.391-0.391-0.391c-0.102,0-0.194,0.035-0.272,0.107c-0.45,0.426-0.676,0.952-0.676,1.576   c0,0.561,0.211,1.072,0.634,1.533C626.524,288.179,626.735,288.576,626.735,288.907L626.735,288.907z M629.53,288.907   L629.53,288.907c0,0.459-0.185,0.825-0.556,1.103c-0.103,0.079-0.154,0.186-0.154,0.318c0,0.262,0.131,0.391,0.391,0.391   c0.087,0,0.167-0.027,0.237-0.082c0.577-0.434,0.864-1.011,0.864-1.73c0-0.528-0.211-1.023-0.633-1.48   c-0.422-0.458-0.634-0.872-0.634-1.244c0-0.396,0.147-0.73,0.438-1.008c0.079-0.078,0.118-0.173,0.118-0.284   c0-0.261-0.13-0.391-0.391-0.391c-0.103,0-0.193,0.035-0.273,0.107c-0.45,0.426-0.675,0.952-0.675,1.576   c0,0.561,0.212,1.072,0.634,1.533C629.319,288.179,629.53,288.576,629.53,288.907z"></path>
	<path class="st8" d="M636.633,245.425c0,1.148-0.929,2.075-2.079,2.075h-15.86c-1.15,0-2.078-0.927-2.078-2.075H636.633   L636.633,245.425z M632.309,240.595L632.309,240.595c0,0,0.213-0.003,0.367-0.003c1.193,0,2.16-0.965,2.16-2.159   c0-1.192-0.967-2.157-2.16-2.157h-0.367V240.595L632.309,240.595z M622.534,244.552L622.534,244.552   c-0.979,0-1.77-0.795-1.77-1.775v-7.922h11.904c1.975,0,3.582,1.604,3.582,3.577c0,1.976-1.599,3.575-3.575,3.575h-0.367   c0,0.209-0.002,0.653-0.002,0.77c0,0.979-0.795,1.775-1.775,1.775H622.534L622.534,244.552z M623.939,231.907L623.939,231.907   c0,0.459-0.187,0.825-0.557,1.103c-0.103,0.078-0.154,0.186-0.154,0.318c0,0.262,0.13,0.391,0.391,0.391   c0.086,0,0.166-0.027,0.237-0.082c0.576-0.434,0.865-1.011,0.865-1.73c0-0.528-0.212-1.022-0.634-1.48   c-0.423-0.458-0.634-0.872-0.634-1.244c0-0.396,0.146-0.73,0.439-1.008c0.079-0.078,0.118-0.173,0.118-0.284   c0-0.261-0.131-0.391-0.391-0.391c-0.103,0-0.194,0.035-0.273,0.107c-0.451,0.426-0.675,0.952-0.675,1.576   c0,0.561,0.211,1.072,0.634,1.533C623.727,231.178,623.939,231.576,623.939,231.907L623.939,231.907z M626.735,231.907   L626.735,231.907c0,0.459-0.186,0.825-0.558,1.103c-0.102,0.078-0.154,0.186-0.154,0.318c0,0.262,0.131,0.391,0.391,0.391   c0.087,0,0.165-0.027,0.237-0.082c0.578-0.434,0.864-1.011,0.864-1.73c0-0.528-0.211-1.022-0.633-1.48   c-0.423-0.458-0.634-0.872-0.634-1.244c0-0.396,0.145-0.73,0.438-1.008c0.079-0.078,0.118-0.173,0.118-0.284   c0-0.261-0.13-0.391-0.391-0.391c-0.102,0-0.194,0.035-0.272,0.107c-0.45,0.426-0.676,0.952-0.676,1.576   c0,0.561,0.211,1.072,0.634,1.533C626.524,231.178,626.735,231.576,626.735,231.907L626.735,231.907z M629.53,231.907   L629.53,231.907c0,0.459-0.185,0.825-0.556,1.103c-0.103,0.078-0.154,0.186-0.154,0.318c0,0.262,0.131,0.391,0.391,0.391   c0.087,0,0.167-0.027,0.237-0.082c0.577-0.434,0.864-1.011,0.864-1.73c0-0.528-0.211-1.022-0.633-1.48   c-0.422-0.458-0.634-0.872-0.634-1.244c0-0.396,0.147-0.73,0.438-1.008c0.079-0.078,0.118-0.173,0.118-0.284   c0-0.261-0.13-0.391-0.391-0.391c-0.103,0-0.193,0.035-0.273,0.107c-0.45,0.426-0.675,0.952-0.675,1.576   c0,0.561,0.212,1.072,0.634,1.533C629.319,231.178,629.53,231.576,629.53,231.907z"></path>
	<path class="st8" d="M1795.635,113.093c0,1.148-0.929,2.075-2.079,2.075h-15.86c-1.15,0-2.078-0.927-2.078-2.075H1795.635   L1795.635,113.093z M1791.31,108.262L1791.31,108.262c0,0,0.213-0.003,0.367-0.003c1.193,0,2.16-0.965,2.16-2.159   c0-1.192-0.967-2.157-2.16-2.157h-0.367V108.262L1791.31,108.262z M1781.536,112.22L1781.536,112.22   c-0.979,0-1.77-0.795-1.77-1.775v-7.922h11.904c1.975,0,3.582,1.604,3.582,3.577c0,1.976-1.599,3.575-3.575,3.575h-0.367   c0,0.209-0.002,0.653-0.002,0.77c0,0.979-0.795,1.775-1.775,1.775H1781.536L1781.536,112.22z M1782.94,99.575L1782.94,99.575   c0,0.459-0.187,0.825-0.557,1.103c-0.103,0.079-0.154,0.186-0.154,0.318c0,0.262,0.13,0.391,0.391,0.391   c0.086,0,0.166-0.027,0.237-0.082c0.576-0.434,0.865-1.011,0.865-1.73c0-0.528-0.212-1.022-0.634-1.48   c-0.423-0.458-0.634-0.872-0.634-1.244c0-0.396,0.146-0.73,0.438-1.008c0.079-0.078,0.119-0.174,0.119-0.284   c0-0.261-0.131-0.391-0.391-0.391c-0.103,0-0.194,0.035-0.273,0.107c-0.45,0.426-0.675,0.952-0.675,1.576   c0,0.561,0.211,1.072,0.634,1.533C1782.728,98.846,1782.94,99.243,1782.94,99.575L1782.94,99.575z M1785.736,99.575   L1785.736,99.575c0,0.459-0.186,0.825-0.558,1.103c-0.102,0.079-0.154,0.186-0.154,0.318c0,0.262,0.131,0.391,0.391,0.391   c0.088,0,0.166-0.027,0.237-0.082c0.577-0.434,0.864-1.011,0.864-1.73c0-0.528-0.211-1.022-0.633-1.48   c-0.423-0.458-0.633-0.872-0.633-1.244c0-0.396,0.145-0.73,0.438-1.008c0.079-0.078,0.118-0.174,0.118-0.284   c0-0.261-0.13-0.391-0.391-0.391c-0.102,0-0.194,0.035-0.272,0.107c-0.45,0.426-0.676,0.952-0.676,1.576   c0,0.561,0.211,1.072,0.634,1.533C1785.525,98.846,1785.736,99.243,1785.736,99.575L1785.736,99.575z M1788.532,99.575   L1788.532,99.575c0,0.459-0.185,0.825-0.557,1.103c-0.103,0.079-0.154,0.186-0.154,0.318c0,0.262,0.131,0.391,0.391,0.391   c0.087,0,0.167-0.027,0.237-0.082c0.577-0.434,0.864-1.011,0.864-1.73c0-0.528-0.211-1.022-0.634-1.48   c-0.422-0.458-0.634-0.872-0.634-1.244c0-0.396,0.147-0.73,0.438-1.008c0.079-0.078,0.118-0.174,0.118-0.284   c0-0.261-0.13-0.391-0.391-0.391c-0.103,0-0.193,0.035-0.272,0.107c-0.45,0.426-0.675,0.952-0.675,1.576   c0,0.561,0.212,1.072,0.634,1.533C1788.321,98.846,1788.532,99.243,1788.532,99.575z"></path>
	<path class="st8" d="M1795.635,58.914c0,1.148-0.929,2.075-2.079,2.075h-15.86c-1.15,0-2.078-0.927-2.078-2.075H1795.635   L1795.635,58.914z M1791.31,54.084L1791.31,54.084c0,0,0.213-0.003,0.367-0.003c1.193,0,2.16-0.965,2.16-2.159   c0-1.192-0.967-2.157-2.16-2.157h-0.367V54.084L1791.31,54.084z M1781.536,58.042L1781.536,58.042c-0.979,0-1.77-0.795-1.77-1.774   v-7.922h11.904c1.975,0,3.582,1.604,3.582,3.577c0,1.976-1.599,3.575-3.575,3.575h-0.367c0,0.209-0.002,0.653-0.002,0.77   c0,0.979-0.795,1.774-1.775,1.774H1781.536L1781.536,58.042z M1782.94,45.397L1782.94,45.397c0,0.459-0.187,0.825-0.557,1.103   c-0.103,0.079-0.154,0.186-0.154,0.318c0,0.262,0.13,0.391,0.391,0.391c0.086,0,0.166-0.027,0.237-0.082   c0.576-0.434,0.865-1.011,0.865-1.73c0-0.528-0.212-1.022-0.634-1.48c-0.423-0.458-0.634-0.872-0.634-1.244   c0-0.396,0.146-0.73,0.438-1.008c0.079-0.078,0.119-0.174,0.119-0.284c0-0.261-0.131-0.391-0.391-0.391   c-0.103,0-0.194,0.035-0.273,0.107c-0.45,0.426-0.675,0.952-0.675,1.576c0,0.561,0.211,1.072,0.634,1.533   C1782.728,44.668,1782.94,45.065,1782.94,45.397L1782.94,45.397z M1785.736,45.397L1785.736,45.397   c0,0.459-0.186,0.825-0.558,1.103c-0.102,0.079-0.154,0.186-0.154,0.318c0,0.262,0.131,0.391,0.391,0.391   c0.088,0,0.166-0.027,0.237-0.082c0.577-0.434,0.864-1.011,0.864-1.73c0-0.528-0.211-1.022-0.633-1.48   c-0.423-0.458-0.633-0.872-0.633-1.244c0-0.396,0.145-0.73,0.438-1.008c0.079-0.078,0.118-0.174,0.118-0.284   c0-0.261-0.13-0.391-0.391-0.391c-0.102,0-0.194,0.035-0.272,0.107c-0.45,0.426-0.676,0.952-0.676,1.576   c0,0.561,0.211,1.072,0.634,1.533C1785.525,44.668,1785.736,45.065,1785.736,45.397L1785.736,45.397z M1788.532,45.397   L1788.532,45.397c0,0.459-0.185,0.825-0.557,1.103c-0.103,0.079-0.154,0.186-0.154,0.318c0,0.262,0.131,0.391,0.391,0.391   c0.087,0,0.167-0.027,0.237-0.082c0.577-0.434,0.864-1.011,0.864-1.73c0-0.528-0.211-1.022-0.634-1.48   c-0.422-0.458-0.634-0.872-0.634-1.244c0-0.396,0.147-0.73,0.438-1.008c0.079-0.078,0.118-0.174,0.118-0.284   c0-0.261-0.13-0.391-0.391-0.391c-0.103,0-0.193,0.035-0.272,0.107c-0.45,0.426-0.675,0.952-0.675,1.576   c0,0.561,0.212,1.072,0.634,1.533C1788.321,44.668,1788.532,45.065,1788.532,45.397z"></path>
</g>
<g id="Window">
	<line class="st9" x1="542.47" y1="4" x2="657.47" y2="4"></line>
	<line class="st9" x1="716.898" y1="4" x2="831.898" y2="4"></line>
	<line class="st9" x1="892.149" y1="4" x2="1007.149" y2="4"></line>
	<line class="st9" x1="1065.649" y1="4" x2="1180.649" y2="4"></line>
	<line class="st9" x1="1239.149" y1="4" x2="1354.149" y2="4"></line>
	<line class="st9" x1="1423.341" y1="4" x2="1518.341" y2="4"></line>
	<line class="st9" x1="1598.349" y1="4" x2="1698.349" y2="4"></line>
	<line class="st9" x1="542.47" y1="332" x2="657.47" y2="332"></line>
	<line class="st9" x1="716.898" y1="332" x2="831.898" y2="332"></line>
	<line class="st9" x1="892.149" y1="332" x2="1007.149" y2="332"></line>
	<line class="st9" x1="1065.649" y1="332" x2="1180.649" y2="332"></line>
	<line class="st9" x1="1239.149" y1="332" x2="1354.149" y2="332"></line>
	<line class="st9" x1="1412.999" y1="332" x2="1518" y2="332"></line>
	<line class="st9" x1="1754.145" y1="4" x2="1854.145" y2="4"></line>
	<line class="st9" x1="1598.349" y1="332" x2="1698.349" y2="332"></line>
	<line class="st9" x1="1754.145" y1="332" x2="1854.145" y2="332"></line>
</g>
<g id="Icons">
	<path id="Baggage" class="st8" d="M547.759,260.877c-0.687,0.683-0.941,1.477-1.036,2.248c-0.054,0.447-0.054,0.888-0.054,1.298   v15.439c0,0.403,0,0.844,0.054,1.297c0.095,0.765,0.349,1.56,1.036,2.244c1.085,1.099,2.451,1.099,3.544,1.099h0.64v-24.718h-0.64   C550.21,259.782,548.844,259.782,547.759,260.877L547.759,260.877z M576.527,263.125L576.527,263.125   c-0.095-0.77-0.347-1.565-1.033-2.248c-1.088-1.094-2.454-1.094-3.545-1.094h-0.64V284.5h0.64c1.09,0,2.456,0,3.545-1.099   c0.687-0.684,0.938-1.478,1.033-2.244c0.053-0.453,0.053-0.894,0.053-1.297v-15.439   C576.581,264.012,576.581,263.572,576.527,263.125L576.527,263.125z M566.032,256.614L566.032,256.614   c0-1.164-0.95-2.114-2.117-2.114h-4.585c-1.158,0-2.109,0.949-2.109,2.114v3.168h-3.517v24.711h15.835v-24.711h-3.508V256.614   L566.032,256.614z M564.158,259.785L564.158,259.785h-5.069v-3.359h5.069V259.785z"></path>
	<path id="Baggage_1_" class="st8" d="M1836.135,260.877c-0.687,0.683-0.941,1.477-1.036,2.248   c-0.054,0.447-0.054,0.888-0.054,1.298v15.439c0,0.403,0,0.844,0.054,1.297c0.095,0.765,0.349,1.56,1.036,2.244   c1.085,1.099,2.451,1.099,3.544,1.099h0.64v-24.718h-0.64C1838.586,259.782,1837.22,259.782,1836.135,260.877L1836.135,260.877z    M1864.904,263.125L1864.904,263.125c-0.095-0.77-0.347-1.565-1.033-2.248c-1.088-1.094-2.454-1.094-3.545-1.094h-0.64V284.5h0.64   c1.09,0,2.456,0,3.545-1.099c0.687-0.684,0.938-1.478,1.033-2.244c0.053-0.453,0.053-0.894,0.053-1.297v-15.439   C1864.957,264.012,1864.957,263.572,1864.904,263.125L1864.904,263.125z M1854.408,256.614L1854.408,256.614   c0-1.164-0.95-2.114-2.117-2.114h-4.585c-1.158,0-2.109,0.949-2.109,2.114v3.168h-3.517v24.711h15.835v-24.711h-3.508V256.614   L1854.408,256.614z M1852.535,259.785L1852.535,259.785h-5.069v-3.359h5.069V259.785z"></path>
	<path id="Floor21L" class="st8" d="M1970.526,42.614c-0.997,0-1.807-0.808-1.807-1.805c0-1,0.81-1.809,1.807-1.809   c0.996,0,1.807,0.808,1.807,1.809C1972.333,41.806,1971.521,42.614,1970.526,42.614L1970.526,42.614z M1973.83,51.051   L1973.83,51.051c0.627,0.288,1.106,0.203,1.47-0.534l0.109-0.223l-2.998-2.07l-0.078,1.939L1973.83,51.051L1973.83,51.051z    M1964.387,51.483c-0.816-0.258-1.016-0.948-0.712-1.642l1.679-4.152c1.224-2.957,3.568-2.505,4.019-2.47   c1.914,0.164,2.322,1.003,2.322,2.545c0,1.154-0.187,5.262-0.187,5.262l1.966,5.299l0.359,6.176l-0.889,0.031   c0,0-0.386,0.048-0.813-0.306c-0.342-0.284-0.381-0.803-0.381-0.803l-0.259-4.118l-1.786-4.703l-0.145-0.131   c0,0,0.26,4.162,0.26,4.274c0,0.07-0.041,0.153-0.041,0.153l-3.011,3.84c0,0-0.618-0.565-0.809-0.933   c-0.277-0.54,0.003-0.979,0.003-0.979l1.614-2.391l-0.459-5.496l0.513-5.128c-0.342,0.244-0.624,0.553-0.804,0.926h-0.001   l-1.996,4.842L1964.387,51.483L1964.387,51.483L1964.387,51.483z M1951.106,57.229L1951.106,57.229v1.829h5.232v2.484h5.651v2.487   h5.65v2.485h5.652V69h7.605v-1.828h-5.651v-2.486h-5.65V62.2h-5.653v-2.485h-5.65v-2.486H1951.106z"></path>
	<path id="Floor21R" class="st8" d="M441.1,42.614c-0.996,0-1.807-0.808-1.807-1.805c0-1,0.812-1.809,1.807-1.809   c0.997,0,1.807,0.808,1.807,1.809C442.907,41.806,442.097,42.614,441.1,42.614L441.1,42.614z M437.796,51.051l1.498-0.888   l-0.078-1.939l-2.998,2.07l0.109,0.223C436.69,51.254,437.168,51.339,437.796,51.051L437.796,51.051L437.796,51.051z    M447.238,51.483L447.238,51.483l-0.441,0.096l-1.996-4.842H444.8c-0.18-0.373-0.462-0.681-0.804-0.926l0.513,5.128l-0.459,5.496   l1.614,2.391c0,0,0.28,0.439,0.003,0.979c-0.19,0.367-0.809,0.933-0.809,0.933l-3.011-3.84c0,0-0.041-0.083-0.041-0.153   c0-0.112,0.26-4.274,0.26-4.274l-0.145,0.131l-1.786,4.703l-0.259,4.118c0,0-0.039,0.52-0.381,0.803   c-0.427,0.354-0.813,0.306-0.813,0.306l-0.889-0.031l0.359-6.176l1.966-5.299c0,0-0.187-4.108-0.187-5.262   c0-1.542,0.409-2.381,2.322-2.545c0.451-0.035,2.795-0.487,4.019,2.47l1.679,4.152C448.255,50.535,448.055,51.225,447.238,51.483   L447.238,51.483z M453.332,57.229v2.486h-5.65V62.2h-5.653v2.486h-5.65v2.486h-5.651V69h7.605v-2.486h5.652v-2.485h5.65v-2.487   h5.651v-2.484h5.232v-1.829l0,0H453.332z"></path>
</g>
</svg>