<svg xmlns="http://www.w3.org/2000/svg" xmlns:xlink="http://www.w3.org/1999/xlink" version="1.1" x="0px" y="0px" width="2420px" height="336px" viewBox="0 0 2420 336" style="enable-background:new 0 0 2420 336;" xml:space="preserve">
<style type="text/css">
	.st0{fill-rule:evenodd;clip-rule:evenodd;fill:#FFFFFF;}
	.st1{fill-rule:evenodd;clip-rule:evenodd;fill:#A9AEBA;}
	.st2{fill:#A9AEBA;}
	.st3{fill-rule:evenodd;clip-rule:evenodd;fill:#E2E4E7;stroke:#D2D7DB;stroke-miterlimit:22.9256;}
	.st4{opacity:0.25;filter:url(#AI_Тень_1_справа);}
	.st5{fill-rule:evenodd;clip-rule:evenodd;fill:#E2E4E7;}
	.st6{fill:none;stroke:#D2D7DB;stroke-miterlimit:22.9256;}
	.st7{opacity:0.25;filter:url(#AI_Тень_1_слева);}
	.st8{fill:#FFFFFF;}
	.st9{font-family:'Roboto','Helvetica Neue',sans-serif;}
	.st10{font-size:20px;}
	.st11{fill:#A4C4EE;opacity:0;}
	.st12{fill:#CFAFE4;opacity:0;}
	.st13{fill-rule:evenodd;clip-rule:evenodd;fill:#CBCED3;}
	.st14{fill-rule:evenodd;clip-rule:evenodd;fill:#868D98;}
	.st15{fill-rule:evenodd;clip-rule:evenodd;fill:none;stroke:#BBDDFF;stroke-width:4;stroke-miterlimit:22.9256;}
</style>
<filter filterUnits="objectBoundingBox" id="AI_Тень_1_справа">
	<feGaussianBlur in="SourceAlpha" result="blur" stdDeviation="2"></feGaussianBlur>
	<feOffset dx="2" dy="4" in="blur" result="offsetBlurredAlpha"></feOffset>
	<feMerge>
		<feMergeNode in="offsetBlurredAlpha"></feMergeNode>
		<feMergeNode in="SourceGraphic"></feMergeNode>
	</feMerge>
</filter>
<filter filterUnits="objectBoundingBox" id="AI_Тень_1_слева">
	<feGaussianBlur in="SourceAlpha" result="blur" stdDeviation="2"></feGaussianBlur>
	<feOffset dx="-2" dy="4" in="blur" result="offsetBlurredAlpha"></feOffset>
	<feMerge>
		<feMergeNode in="offsetBlurredAlpha"></feMergeNode>
		<feMergeNode in="SourceGraphic"></feMergeNode>
	</feMerge>
</filter>
<g id="Fon">
	<path class="st0" d="M12.3,328c-1.419,0-2.466-0.729-3.095-1.342C8.506,325.979,8,324.737,8,323.705V12.297   c0-1.617,0.646-2.421,1.133-2.885C10.364,8.236,11.258,8,12.3,8h2395.4c1.46,0,2.612,0.887,3.17,1.415   c0.533,0.506,1.13,1.845,1.13,2.882v311.409c0,1.205-0.38,2.158-1.163,2.912c-1.26,1.215-2.252,1.383-3.136,1.383H12.3z"></path>
</g>
<g id="Railway_carriage">
	<path class="st1" d="M2416.374,3.61c-2.258-2.14-5.298-3.61-8.674-3.61H12.3C8.779,0,5.997,1.346,3.61,3.624   C1.223,5.903,0,8.922,0,12.297v311.408c0,3.152,1.36,6.482,3.626,8.687C5.892,334.596,8.924,336,12.3,336H2407.7   c3.466,0,6.33-1.346,8.691-3.624c2.361-2.277,3.609-5.297,3.609-8.671V12.297C2420,9.265,2418.632,5.75,2416.374,3.61   L2416.374,3.61z M2412,323.705L2412,323.705c0,1.205-0.38,2.158-1.163,2.912c-1.26,1.215-2.252,1.383-3.137,1.383H12.3   c-1.419,0-2.466-0.729-3.095-1.342C8.507,325.978,8,324.737,8,323.705V12.297c0-1.617,0.646-2.421,1.133-2.885   C10.364,8.237,11.258,8,12.3,8h2395.4c1.46,0,2.612,0.887,3.17,1.415c0.533,0.506,1.13,1.845,1.13,2.882V323.705z"></path>
</g>
<g id="Compartment">
	<path class="st2" d="M191.286,216l150.039,48.771V328h-8v-57.441L190.092,224H108v104h-8V208.005h8V216H191.286L191.286,216   L191.286,216z M532,328h8v-25h-8V328z M540,8h-8v225h-26.362l-41.713-13.49l-2.384,7.372L505.197,241v0H532v6h8v-6h61v-8h-61V8z    M724,8h-8v225h-61v8h61h8h61v-8h-61V8z M108,130h24v-8h-24V8h-8v124h8V130z M200.364,130H186v-8h46V8h8v138.694l39.299,12.768   l-2.472,7.608L232,152.506L200.364,130L200.364,130z M214.162,130L232,142.69V130H214.162z M2012,163.5V8h-8v155.5H2012z    M1644,163.5V8h-8v155.5H1644z M908,163.5V8h-8v155.5H908z M1276,163.5V8h-8v155.5H1276z M394,8h-8v186.32l-55.408-17.896   l-2.381,7.373l81.95,26.469l2.381-7.373L394,196.904V8z M2196,8h-8v225h-61v8h61v6h8v-60h56v-8h-56V8z M2188,328h8v-25h-8V328z    M2312,328h8v-53.995h-8V328z M2012,209.5h-8V233h-61v8h61h8h61v-8h-61V209.5z M2312,8v171h-6v8h6v11h8V8H2312z M1828,8h-8v225h-61   v8h61h8h61v-8h-61V8z M1276,209.5h-8V233h-61v8h61h8h61v-8h-61V209.5z M1092,8h-8v225h-61v8h61h8h61v-8h-61V8z M908,209.5h-8V233   h-61v8h61h8h61v-8h-61V209.5z M1644,209.5h-8V233h-61v8h61h8h61v-8h-61V209.5z M1460,8h-8v225h-61v8h61h8h61v-8h-61V8z M908,163.37   c0.287-0.169,0.493-0.464,0.503-0.821c0.01-0.377-0.198-0.7-0.503-0.879V163.37z M951.781,202.246c-0.504,0-0.937-0.38-0.993-0.893   c-0.103-0.944-0.239-1.896-0.406-2.828c-0.098-0.544,0.264-1.063,0.808-1.161c0.546-0.098,1.063,0.265,1.161,0.808   c0.175,0.978,0.318,1.976,0.426,2.967c0.06,0.549-0.337,1.042-0.887,1.102C951.853,202.244,951.817,202.246,951.781,202.246z    M950.749,196.487c-0.447,0-0.855-0.303-0.969-0.756c-0.23-0.916-0.497-1.84-0.792-2.746c-0.171-0.525,0.116-1.09,0.641-1.262   c0.528-0.168,1.09,0.116,1.261,0.641c0.31,0.951,0.589,1.919,0.831,2.879c0.135,0.536-0.19,1.079-0.726,1.214   C950.912,196.477,950.83,196.487,950.749,196.487z M948.936,190.923c-0.396,0-0.771-0.236-0.928-0.626   c-0.353-0.877-0.742-1.756-1.158-2.615c-0.241-0.497-0.033-1.095,0.464-1.336c0.496-0.237,1.095-0.032,1.335,0.465   c0.436,0.899,0.844,1.821,1.213,2.738c0.206,0.513-0.042,1.096-0.554,1.302C949.187,190.9,949.06,190.923,948.936,190.923z    M946.388,185.655c-0.348,0-0.686-0.182-0.87-0.505c-0.468-0.823-0.972-1.643-1.498-2.437c-0.305-0.461-0.178-1.081,0.282-1.386   c0.462-0.305,1.082-0.178,1.386,0.282c0.55,0.832,1.078,1.69,1.568,2.551c0.273,0.48,0.105,1.091-0.375,1.364   C946.726,185.613,946.555,185.655,946.388,185.655z M943.159,180.772c-0.302,0-0.6-0.136-0.797-0.395   c-0.574-0.755-1.183-1.502-1.807-2.22c-0.362-0.417-0.319-1.048,0.098-1.411c0.417-0.36,1.048-0.318,1.411,0.099   c0.653,0.751,1.289,1.531,1.89,2.321c0.334,0.439,0.249,1.066-0.19,1.401C943.583,180.705,943.37,180.772,943.159,180.772z    M939.316,176.358c-0.258,0-0.515-0.099-0.71-0.297l-0.434-0.432c-0.525-0.515-1.08-1.023-1.648-1.514   c-0.418-0.361-0.465-0.992-0.104-1.41c0.36-0.418,0.992-0.465,1.41-0.105c0.601,0.519,1.187,1.057,1.743,1.602l0.455,0.453   c0.389,0.392,0.386,1.025-0.007,1.414C939.825,176.261,939.571,176.358,939.316,176.358z M934.886,172.533   c-0.206,0-0.414-0.063-0.593-0.195c-0.759-0.561-1.552-1.104-2.357-1.616c-0.466-0.297-0.604-0.915-0.307-1.381   c0.296-0.465,0.915-0.604,1.38-0.307c0.844,0.537,1.676,1.107,2.471,1.694c0.444,0.328,0.539,0.954,0.211,1.398   C935.495,172.392,935.193,172.533,934.886,172.533z M929.951,169.39c-0.162,0-0.326-0.039-0.478-0.122   c-0.829-0.453-1.688-0.887-2.556-1.29c-0.501-0.233-0.718-0.828-0.485-1.329c0.233-0.5,0.828-0.716,1.329-0.485   c0.906,0.421,1.804,0.875,2.67,1.348c0.485,0.265,0.664,0.873,0.399,1.357C930.648,169.202,930.305,169.39,929.951,169.39z    M924.646,166.922c-0.121,0-0.244-0.022-0.364-0.069c-0.885-0.346-1.793-0.669-2.7-0.962c-0.525-0.169-0.814-0.733-0.645-1.259   c0.17-0.525,0.732-0.815,1.259-0.645c0.945,0.305,1.892,0.642,2.814,1.003c0.514,0.201,0.768,0.781,0.567,1.295   C925.423,166.68,925.046,166.922,924.646,166.922z M919.078,165.124c-0.083,0-0.166-0.01-0.25-0.032   c-0.919-0.236-1.861-0.45-2.798-0.633c-0.542-0.106-0.895-0.632-0.789-1.174c0.107-0.542,0.632-0.896,1.174-0.789   c0.975,0.191,1.955,0.413,2.911,0.66c0.535,0.138,0.857,0.683,0.719,1.217C919.93,164.825,919.524,165.124,919.078,165.124z    M913.337,163.996c-0.045,0-0.091-0.003-0.138-0.009c-0.937-0.129-1.897-0.234-2.854-0.312c-0.551-0.045-0.96-0.527-0.916-1.078   c0.045-0.551,0.534-0.965,1.078-0.916c0.994,0.081,1.992,0.19,2.965,0.324c0.547,0.075,0.93,0.58,0.854,1.127   C914.258,163.634,913.829,163.996,913.337,163.996z M953,205.787v3.713h-47v-3.819h45.022c0,0,0,0,0,0   c0-0.488-0.009-0.976-0.027-1.463c-0.02-0.552,0.412-1.016,0.963-1.035c0.546-0.038,1.016,0.41,1.036,0.963   c0.019,0.511,0.028,1.023,0.028,1.535C953.021,205.719,953.004,205.751,953,205.787z M1276,163.37   c0.287-0.169,0.493-0.464,0.502-0.821c0.01-0.377-0.198-0.7-0.502-0.879V163.37z M1319.781,202.246   c-0.504,0-0.937-0.38-0.993-0.893c-0.103-0.944-0.239-1.896-0.406-2.828c-0.098-0.544,0.264-1.063,0.808-1.161   c0.546-0.098,1.063,0.265,1.161,0.808c0.175,0.978,0.318,1.976,0.426,2.967c0.06,0.549-0.337,1.042-0.887,1.102   C1319.853,202.244,1319.817,202.246,1319.781,202.246z M1318.749,196.487c-0.447,0-0.855-0.303-0.969-0.756   c-0.23-0.916-0.497-1.84-0.792-2.746c-0.171-0.525,0.116-1.09,0.641-1.262c0.528-0.168,1.09,0.116,1.261,0.641   c0.31,0.951,0.589,1.919,0.831,2.879c0.135,0.536-0.19,1.079-0.726,1.214C1318.912,196.477,1318.83,196.487,1318.749,196.487z    M1316.936,190.923c-0.396,0-0.771-0.236-0.928-0.626c-0.353-0.877-0.742-1.756-1.158-2.615c-0.241-0.497-0.033-1.095,0.464-1.336   c0.496-0.237,1.095-0.032,1.335,0.465c0.436,0.899,0.844,1.821,1.213,2.738c0.206,0.513-0.042,1.096-0.554,1.302   C1317.187,190.9,1317.06,190.923,1316.936,190.923z M1314.388,185.655c-0.348,0-0.686-0.182-0.87-0.505   c-0.468-0.823-0.972-1.643-1.498-2.437c-0.305-0.461-0.178-1.081,0.282-1.386c0.462-0.305,1.082-0.178,1.386,0.282   c0.55,0.832,1.078,1.69,1.568,2.551c0.273,0.48,0.105,1.091-0.375,1.364C1314.726,185.613,1314.555,185.655,1314.388,185.655z    M1311.159,180.772c-0.302,0-0.6-0.136-0.797-0.395c-0.574-0.755-1.183-1.502-1.807-2.22c-0.362-0.417-0.319-1.048,0.098-1.411   c0.417-0.36,1.048-0.318,1.411,0.099c0.653,0.751,1.289,1.531,1.89,2.321c0.334,0.439,0.249,1.066-0.19,1.401   C1311.583,180.705,1311.37,180.772,1311.159,180.772z M1307.316,176.358c-0.258,0-0.515-0.099-0.71-0.297l-0.434-0.432   c-0.525-0.515-1.08-1.023-1.648-1.514c-0.418-0.361-0.465-0.992-0.104-1.41c0.36-0.418,0.992-0.465,1.41-0.105   c0.601,0.519,1.187,1.057,1.743,1.602l0.455,0.453c0.389,0.392,0.386,1.025-0.007,1.414   C1307.825,176.261,1307.571,176.358,1307.316,176.358z M1302.886,172.533c-0.206,0-0.414-0.063-0.593-0.195   c-0.759-0.561-1.552-1.104-2.357-1.616c-0.466-0.297-0.604-0.915-0.307-1.381c0.296-0.465,0.915-0.604,1.38-0.307   c0.844,0.537,1.676,1.107,2.471,1.694c0.444,0.328,0.539,0.954,0.211,1.398C1303.495,172.392,1303.193,172.533,1302.886,172.533z    M1297.95,169.39c-0.162,0-0.326-0.039-0.478-0.122c-0.829-0.453-1.688-0.887-2.556-1.29c-0.501-0.233-0.718-0.828-0.485-1.329   c0.233-0.5,0.828-0.716,1.329-0.485c0.906,0.421,1.804,0.875,2.67,1.348c0.485,0.265,0.664,0.873,0.399,1.357   C1298.648,169.202,1298.304,169.39,1297.95,169.39z M1292.646,166.922c-0.121,0-0.244-0.022-0.364-0.069   c-0.885-0.346-1.793-0.669-2.7-0.962c-0.525-0.169-0.814-0.733-0.645-1.259c0.17-0.525,0.732-0.815,1.259-0.645   c0.945,0.305,1.892,0.642,2.814,1.003c0.514,0.201,0.768,0.781,0.567,1.295C1293.423,166.68,1293.046,166.922,1292.646,166.922z    M1287.078,165.124c-0.083,0-0.166-0.01-0.25-0.032c-0.919-0.236-1.861-0.45-2.798-0.633c-0.542-0.106-0.895-0.632-0.789-1.174   c0.107-0.542,0.632-0.896,1.174-0.789c0.975,0.191,1.955,0.413,2.911,0.66c0.535,0.138,0.857,0.683,0.719,1.217   C1287.93,164.825,1287.524,165.124,1287.078,165.124z M1281.337,163.996c-0.045,0-0.091-0.003-0.138-0.009   c-0.937-0.129-1.897-0.234-2.854-0.312c-0.551-0.045-0.96-0.527-0.916-1.078c0.045-0.551,0.534-0.965,1.078-0.916   c0.994,0.081,1.992,0.19,2.965,0.324c0.547,0.075,0.93,0.58,0.854,1.127C1282.258,163.634,1281.829,163.996,1281.337,163.996z    M1321,205.787v3.713h-47v-3.819h45.022c0,0,0,0,0,0c0-0.488-0.009-0.976-0.027-1.463c-0.02-0.552,0.412-1.016,0.963-1.035   c0.546-0.038,1.016,0.41,1.036,0.963c0.019,0.511,0.028,1.023,0.028,1.535C1321.021,205.719,1321.004,205.751,1321,205.787z    M1644,163.37c0.287-0.169,0.493-0.464,0.502-0.821c0.01-0.377-0.198-0.7-0.502-0.879V163.37z M1687.781,202.246   c-0.504,0-0.937-0.38-0.993-0.893c-0.103-0.944-0.239-1.896-0.406-2.828c-0.098-0.544,0.264-1.063,0.808-1.161   c0.546-0.098,1.063,0.265,1.161,0.808c0.175,0.978,0.318,1.976,0.426,2.967c0.06,0.549-0.337,1.042-0.887,1.102   C1687.853,202.244,1687.817,202.246,1687.781,202.246z M1686.749,196.487c-0.447,0-0.855-0.303-0.969-0.756   c-0.23-0.916-0.497-1.84-0.792-2.746c-0.171-0.525,0.116-1.09,0.641-1.262c0.528-0.168,1.09,0.116,1.261,0.641   c0.31,0.951,0.589,1.919,0.831,2.879c0.135,0.536-0.19,1.079-0.726,1.214C1686.912,196.477,1686.83,196.487,1686.749,196.487z    M1684.936,190.923c-0.396,0-0.771-0.236-0.928-0.626c-0.353-0.877-0.742-1.756-1.158-2.615c-0.241-0.497-0.033-1.095,0.464-1.336   c0.496-0.237,1.095-0.032,1.335,0.465c0.436,0.899,0.844,1.821,1.213,2.738c0.206,0.513-0.042,1.096-0.554,1.302   C1685.187,190.9,1685.06,190.923,1684.936,190.923z M1682.388,185.655c-0.348,0-0.686-0.182-0.87-0.505   c-0.468-0.823-0.972-1.643-1.498-2.437c-0.305-0.461-0.178-1.081,0.282-1.386c0.462-0.305,1.082-0.178,1.386,0.282   c0.55,0.832,1.078,1.69,1.568,2.551c0.273,0.48,0.105,1.091-0.375,1.364C1682.726,185.613,1682.555,185.655,1682.388,185.655z    M1679.159,180.772c-0.302,0-0.6-0.136-0.797-0.395c-0.574-0.755-1.183-1.502-1.807-2.22c-0.362-0.417-0.319-1.048,0.098-1.411   c0.417-0.36,1.048-0.318,1.411,0.099c0.653,0.751,1.289,1.531,1.89,2.321c0.334,0.439,0.249,1.066-0.19,1.401   C1679.583,180.705,1679.37,180.772,1679.159,180.772z M1675.316,176.358c-0.258,0-0.515-0.099-0.71-0.297l-0.434-0.432   c-0.525-0.515-1.08-1.023-1.648-1.514c-0.418-0.361-0.465-0.992-0.104-1.41c0.36-0.418,0.992-0.465,1.41-0.105   c0.601,0.519,1.187,1.057,1.743,1.602l0.455,0.453c0.389,0.392,0.386,1.025-0.007,1.414   C1675.825,176.261,1675.571,176.358,1675.316,176.358z M1670.886,172.533c-0.206,0-0.414-0.063-0.593-0.195   c-0.759-0.561-1.552-1.104-2.357-1.616c-0.466-0.297-0.604-0.915-0.307-1.381c0.296-0.465,0.915-0.604,1.38-0.307   c0.844,0.537,1.676,1.107,2.471,1.694c0.444,0.328,0.539,0.954,0.211,1.398C1671.495,172.392,1671.193,172.533,1670.886,172.533z    M1665.95,169.39c-0.162,0-0.326-0.039-0.478-0.122c-0.829-0.453-1.688-0.887-2.556-1.29c-0.501-0.233-0.718-0.828-0.485-1.329   c0.233-0.5,0.828-0.716,1.329-0.485c0.906,0.421,1.804,0.875,2.67,1.348c0.485,0.265,0.664,0.873,0.399,1.357   C1666.648,169.202,1666.304,169.39,1665.95,169.39z M1660.646,166.922c-0.121,0-0.244-0.022-0.364-0.069   c-0.885-0.346-1.793-0.669-2.7-0.962c-0.525-0.169-0.814-0.733-0.645-1.259c0.17-0.525,0.732-0.815,1.259-0.645   c0.945,0.305,1.892,0.642,2.814,1.003c0.514,0.201,0.768,0.781,0.567,1.295C1661.423,166.68,1661.046,166.922,1660.646,166.922z    M1655.078,165.124c-0.083,0-0.166-0.01-0.25-0.032c-0.919-0.236-1.861-0.45-2.798-0.633c-0.542-0.106-0.895-0.632-0.789-1.174   c0.107-0.542,0.632-0.896,1.174-0.789c0.975,0.191,1.955,0.413,2.911,0.66c0.535,0.138,0.857,0.683,0.719,1.217   C1655.93,164.825,1655.524,165.124,1655.078,165.124z M1649.337,163.996c-0.045,0-0.091-0.003-0.138-0.009   c-0.937-0.129-1.897-0.234-2.854-0.312c-0.551-0.045-0.96-0.527-0.916-1.078c0.045-0.551,0.534-0.965,1.078-0.916   c0.994,0.081,1.992,0.19,2.965,0.324c0.547,0.075,0.93,0.58,0.854,1.127C1650.258,163.634,1649.829,163.996,1649.337,163.996z    M1689,205.787v3.713h-47v-3.819h45.022c0,0,0,0,0,0c0-0.488-0.009-0.976-0.027-1.463c-0.02-0.552,0.412-1.016,0.963-1.035   c0.546-0.038,1.016,0.41,1.036,0.963c0.019,0.511,0.028,1.023,0.028,1.535C1689.021,205.719,1689.004,205.751,1689,205.787z    M2012,163.37c0.287-0.169,0.493-0.464,0.502-0.821c0.01-0.377-0.198-0.7-0.502-0.879V163.37z M2055.781,202.246   c-0.504,0-0.937-0.38-0.993-0.893c-0.103-0.944-0.239-1.896-0.406-2.828c-0.098-0.544,0.264-1.063,0.808-1.161   c0.546-0.098,1.063,0.265,1.161,0.808c0.175,0.978,0.318,1.976,0.426,2.967c0.06,0.549-0.337,1.042-0.887,1.102   C2055.853,202.244,2055.817,202.246,2055.781,202.246z M2054.749,196.487c-0.447,0-0.855-0.303-0.969-0.756   c-0.23-0.916-0.497-1.84-0.792-2.746c-0.171-0.525,0.116-1.09,0.641-1.262c0.528-0.168,1.09,0.116,1.261,0.641   c0.31,0.951,0.589,1.919,0.831,2.879c0.135,0.536-0.19,1.079-0.726,1.214C2054.912,196.477,2054.83,196.487,2054.749,196.487z    M2052.936,190.923c-0.396,0-0.771-0.236-0.928-0.626c-0.353-0.877-0.742-1.756-1.158-2.615c-0.241-0.497-0.033-1.095,0.464-1.336   c0.496-0.237,1.095-0.032,1.335,0.465c0.436,0.899,0.844,1.821,1.213,2.738c0.206,0.513-0.042,1.096-0.554,1.302   C2053.187,190.9,2053.06,190.923,2052.936,190.923z M2050.388,185.655c-0.348,0-0.686-0.182-0.87-0.505   c-0.468-0.823-0.972-1.643-1.498-2.437c-0.305-0.461-0.178-1.081,0.282-1.386c0.462-0.305,1.082-0.178,1.386,0.282   c0.55,0.832,1.078,1.69,1.568,2.551c0.273,0.48,0.105,1.091-0.375,1.364C2050.726,185.613,2050.555,185.655,2050.388,185.655z    M2047.159,180.772c-0.302,0-0.6-0.136-0.797-0.395c-0.574-0.755-1.183-1.502-1.807-2.22c-0.362-0.417-0.319-1.048,0.098-1.411   c0.417-0.36,1.048-0.318,1.411,0.099c0.653,0.751,1.289,1.531,1.89,2.321c0.334,0.439,0.249,1.066-0.19,1.401   C2047.583,180.705,2047.37,180.772,2047.159,180.772z M2043.316,176.358c-0.258,0-0.515-0.099-0.71-0.297l-0.434-0.432   c-0.525-0.515-1.08-1.023-1.648-1.514c-0.418-0.361-0.465-0.992-0.104-1.41c0.36-0.418,0.992-0.465,1.41-0.105   c0.601,0.519,1.187,1.057,1.743,1.602l0.455,0.453c0.389,0.392,0.386,1.025-0.007,1.414   C2043.825,176.261,2043.571,176.358,2043.316,176.358z M2038.886,172.533c-0.206,0-0.414-0.063-0.593-0.195   c-0.759-0.561-1.552-1.104-2.357-1.616c-0.466-0.297-0.604-0.915-0.307-1.381c0.296-0.465,0.915-0.604,1.38-0.307   c0.844,0.537,1.676,1.107,2.471,1.694c0.444,0.328,0.539,0.954,0.211,1.398C2039.495,172.392,2039.193,172.533,2038.886,172.533z    M2033.95,169.39c-0.162,0-0.326-0.039-0.478-0.122c-0.829-0.453-1.688-0.887-2.556-1.29c-0.501-0.233-0.718-0.828-0.485-1.329   c0.233-0.5,0.828-0.716,1.329-0.485c0.906,0.421,1.804,0.875,2.67,1.348c0.485,0.265,0.664,0.873,0.399,1.357   C2034.648,169.202,2034.304,169.39,2033.95,169.39z M2028.646,166.922c-0.121,0-0.244-0.022-0.364-0.069   c-0.885-0.346-1.793-0.669-2.7-0.962c-0.525-0.169-0.814-0.733-0.645-1.259c0.17-0.525,0.732-0.815,1.259-0.645   c0.945,0.305,1.892,0.642,2.814,1.003c0.514,0.201,0.768,0.781,0.567,1.295C2029.423,166.68,2029.046,166.922,2028.646,166.922z    M2023.078,165.124c-0.083,0-0.166-0.01-0.25-0.032c-0.919-0.236-1.861-0.45-2.798-0.633c-0.542-0.106-0.895-0.632-0.789-1.174   c0.107-0.542,0.632-0.896,1.174-0.789c0.975,0.191,1.955,0.413,2.911,0.66c0.535,0.138,0.857,0.683,0.719,1.217   C2023.93,164.825,2023.524,165.124,2023.078,165.124z M2017.337,163.996c-0.045,0-0.091-0.003-0.138-0.009   c-0.937-0.129-1.897-0.234-2.854-0.312c-0.551-0.045-0.96-0.527-0.916-1.078c0.045-0.551,0.534-0.965,1.078-0.916   c0.994,0.081,1.992,0.19,2.965,0.324c0.547,0.075,0.93,0.58,0.854,1.127C2018.258,163.634,2017.829,163.996,2017.337,163.996z    M2057,205.787v3.713h-47v-3.819h45.021c0,0,0,0,0,0c0-0.488-0.009-0.976-0.027-1.463c-0.02-0.552,0.412-1.016,0.963-1.035   c0.546-0.038,1.016,0.41,1.036,0.963c0.019,0.511,0.028,1.023,0.028,1.535C2057.021,205.719,2057.004,205.751,2057,205.787z"></path>
</g>
<g id="Seats">
	<path id="Seat1" class="st3 seat" d="M724,108h41.452c8.002,0,14.549,6.823,14.549,15.162v89.676c0,8.339-6.547,15.162-14.549,15.162   H724V108z"></path>
	<g id="Shadow2" class="st4">
		<path class="st5" d="M724,13h41.452C773.453,13,780,19.823,780,28.162v89.675c0,8.339-6.547,15.162-14.549,15.162H724V13z"></path>
		<path class="st6" d="M724,13h41.452C773.453,13,780,19.823,780,28.162v89.675c0,8.339-6.547,15.162-14.549,15.162H724V13z"></path>
	</g>
	<path id="Seat2" class="st3 seat" d="M724,13h41.452C773.453,13,780,19.823,780,28.162v89.675c0,8.339-6.547,15.162-14.549,15.162H724   V13z"></path>
	<path id="Seat3" class="st3 seat" d="M1084,108h-41.452c-8.001,0-14.548,6.823-14.548,15.162v89.676c0,8.339,6.547,15.162,14.548,15.162   H1084V108z"></path>
	<g id="Shadow4" class="st7">
		<path class="st5" d="M1084,13h-41.452c-8.001,0-14.548,6.823-14.548,15.162v89.675c0,8.339,6.547,15.162,14.548,15.162H1084V13z"></path>
		<path class="st6" d="M1084,13h-41.452c-8.001,0-14.548,6.823-14.548,15.162v89.675c0,8.339,6.547,15.162,14.548,15.162H1084V13z"></path>
	</g>
	<path id="Seat4" class="st3 seat" d="M1084,13h-41.452c-8.001,0-14.548,6.823-14.548,15.162v89.675c0,8.339,6.547,15.162,14.548,15.162   H1084V13z"></path>
	<path id="Seat5" class="st3 seat seat--available compartment-3" d="M1092,108h41.452c8.002,0,14.548,6.823,14.548,15.162v89.676c0,8.339-6.547,15.162-14.548,15.162   H1092V108z"></path>
	<g id="Shadow6" class="st4">
		<path class="st5" d="M1092,13h41.452c8.002,0,14.548,6.823,14.548,15.162v89.675c0,8.339-6.547,15.162-14.548,15.162H1092V13z"></path>
		<path class="st6" d="M1092,13h41.452c8.002,0,14.548,6.823,14.548,15.162v89.675c0,8.339-6.547,15.162-14.548,15.162H1092V13z"></path>
	</g>
	<path id="Seat6" class="st3 seat seat--available compartment-3" d="M1092,13h41.452c8.002,0,14.548,6.823,14.548,15.162v89.675c0,8.339-6.547,15.162-14.548,15.162   H1092V13z"></path>
	<path id="Seat7" class="st3 seat seat--available compartment-4" d="M1452,108h-41.452c-8.002,0-14.548,6.823-14.548,15.162v89.676c0,8.339,6.547,15.162,14.548,15.162   H1452V108z"></path>
	<g id="Shadow8" class="st7">
		<path class="st5" d="M1452,13h-41.452c-8.002,0-14.548,6.823-14.548,15.162v89.675c0,8.339,6.547,15.162,14.548,15.162H1452V13z"></path>
		<path class="st6" d="M1452,13h-41.452c-8.002,0-14.548,6.823-14.548,15.162v89.675c0,8.339,6.547,15.162,14.548,15.162H1452V13z"></path>
	</g>
	<path id="Seat8" class="st3 seat seat--available compartment-4" d="M1452,13h-41.452c-8.002,0-14.548,6.823-14.548,15.162v89.675c0,8.339,6.547,15.162,14.548,15.162   H1452V13z"></path>
	<path id="Seat9" class="st3 seat" d="M1460,108h41.452c8.001,0,14.548,6.823,14.548,15.162v89.676c0,8.339-6.547,15.162-14.548,15.162   H1460V108z"></path>
	<g id="Shadow10" class="st4">
		<path class="st5" d="M1460,13h41.452c8.001,0,14.548,6.823,14.548,15.162v89.675c0,8.339-6.547,15.162-14.548,15.162H1460V13z"></path>
		<path class="st6" d="M1460,13h41.452c8.001,0,14.548,6.823,14.548,15.162v89.675c0,8.339-6.547,15.162-14.548,15.162H1460V13z"></path>
	</g>
	<path id="Seat10" class="st3 seat" d="M1460,13h41.452c8.001,0,14.548,6.823,14.548,15.162v89.675c0,8.339-6.547,15.162-14.548,15.162   H1460V13z"></path>
	<path id="Seat11" class="st3 seat seat--available gender-male compartment-6" d="M1820,108h-41.452c-8.001,0-14.549,6.823-14.549,15.162v89.676   c0,8.339,6.547,15.162,14.549,15.162H1820V108z"></path>
	<g id="Shadow12" class="st7">
		<path class="st5" d="M1820,13h-41.452c-8.001,0-14.549,6.823-14.549,15.162v89.675c0,8.339,6.547,15.162,14.549,15.162H1820V13z"></path>
		<path class="st6" d="M1820,13h-41.452c-8.001,0-14.549,6.823-14.549,15.162v89.675c0,8.339,6.547,15.162,14.549,15.162H1820V13z"></path>
	</g>
	<path id="Seat12" class="st3 seat seat--available gender-male compartment-6" d="M1820,13h-41.452c-8.001,0-14.549,6.823-14.549,15.162v89.675c0,8.339,6.547,15.162,14.549,15.162   H1820V13z"></path>
	<path id="Seat13" class="st3 seat seat--available compartment-7" d="M1828,108h41.452c8.001,0,14.548,6.823,14.548,15.162v89.676c0,8.339-6.547,15.162-14.548,15.162   H1828V108z"></path>
	<g id="Shadow14" class="st4">
		<path class="st5" d="M1828,13h41.452c8.001,0,14.548,6.823,14.548,15.162v89.675c0,8.339-6.547,15.162-14.548,15.162H1828V13z"></path>
		<path class="st6" d="M1828,13h41.452c8.001,0,14.548,6.823,14.548,15.162v89.675c0,8.339-6.547,15.162-14.548,15.162H1828V13z"></path>
	</g>
	<path id="Seat14" class="st3 seat seat--available compartment-7" d="M1828,13h41.452c8.001,0,14.548,6.823,14.548,15.162v89.675c0,8.339-6.547,15.162-14.548,15.162   H1828V13z"></path>
	<path id="Seat15" class="st3 seat seat--available compartment-8" d="M2188,108h-41.452c-8.001,0-14.548,6.823-14.548,15.162v89.676   c0,8.339,6.547,15.162,14.548,15.162H2188V108z"></path>
	<g id="Shadow16" class="st7">
		<path class="st5" d="M2188,13h-41.452c-8.001,0-14.548,6.823-14.548,15.162v89.675c0,8.339,6.547,15.162,14.548,15.162H2188V13z"></path>
		<path class="st6" d="M2188,13h-41.452c-8.001,0-14.548,6.823-14.548,15.162v89.675c0,8.339,6.547,15.162,14.548,15.162H2188V13z"></path>
	</g>
	<path id="Seat16" class="st3 seat seat--available compartment-8" d="M2188,13h-41.452c-8.001,0-14.548,6.823-14.548,15.162v89.675c0,8.339,6.547,15.162,14.548,15.162   H2188V13z"></path>
	<path class="st3" d="M900,84h-31.101c-10.395,0-18.899,6.462-18.899,14.36v27.28c0,7.898,8.504,14.36,18.899,14.36H900V84z"></path>
	<path class="st3" d="M908,84h31.102c10.395,0,18.899,6.462,18.899,14.36v27.28c0,7.898-8.504,14.36-18.899,14.36H908V84z"></path>
	<path class="st3" d="M1268,84h-31.102c-10.395,0-18.899,6.462-18.899,14.36v27.28c0,7.898,8.504,14.36,18.899,14.36H1268V84z"></path>
	<path class="st3" d="M1276,84h31.101c10.395,0,18.899,6.462,18.899,14.36v27.28c0,7.898-8.504,14.36-18.899,14.36H1276V84z"></path>
	<path class="st3" d="M1636,84h-31.102c-10.395,0-18.899,6.462-18.899,14.36v27.28c0,7.898,8.504,14.36,18.899,14.36H1636V84z"></path>
	<path class="st3" d="M1644,84h31.101c10.395,0,18.899,6.462,18.899,14.36v27.28c0,7.898-8.504,14.36-18.899,14.36H1644V84z"></path>
	<path class="st3" d="M2004,84h-31.101c-10.395,0-18.899,6.462-18.899,14.36v27.28c0,7.898,8.504,14.36,18.899,14.36H2004V84z"></path>
	<path class="st3" d="M2012,84h31.101c10.395,0,18.899,6.462,18.899,14.36v27.28c0,7.898-8.504,14.36-18.899,14.36H2012V84z"></path>
</g>
<g id="Numbers" pointer-events="none">&gt;
	<text transform="matrix(1.0003 0 0 1 745.6914 186.1777)" class="st8 st9 st10">1</text>
	<text transform="matrix(1.0003 0 0 1 745.916 78.8447)" class="st8 st9 st10">2</text>
	<text transform="matrix(1.0003 0 0 1 1050.5264 186.1777)" class="st8 st9 st10">3</text>
	<text transform="matrix(1.0003 0 0 1 1050.7168 78.8447)" class="st8 st9 st10">4</text>
	<text transform="matrix(1.0003 0 0 1 1113.8252 186.1777)" class="st8 st9 st10">5</text>
	<text transform="matrix(1.0003 0 0 1 1113.8838 78.8447)" class="st8 st9 st10">6</text>
	<text transform="matrix(1.0003 0 0 1 1419.0479 186.1777)" class="st8 st9 st10">7</text>
	<text transform="matrix(1.0003 0 0 1 1418.6191 78.8447)" class="st8 st9 st10">8</text>
	<text transform="matrix(1.0003 0 0 1 1480.6562 186.1777)" class="st8 st9 st10">9</text>
	<text transform="matrix(1.0003 0 0 1 1476.7295 78.8447)" class="st8 st9 st10">10</text>
	<text transform="matrix(1.0003 0 0 1 1781.0869 186.1777)" class="st8 st9 st10">11</text>
	<text transform="matrix(1.0003 0 0 1 1780.6611 78.8447)" class="st8 st9 st10">12</text>
	<text transform="matrix(1.0003 0 0 1 1844.7012 186.1777)" class="st8 st9 st10">13</text>
	<text transform="matrix(1.0003 0 0 1 1844.6172 78.8447)" class="st8 st9 st10">14</text>
	<text transform="matrix(1.0003 0 0 1 2148.8711 186.1777)" class="st8 st9 st10">15</text>
	<text transform="matrix(1.0003 0 0 1 2148.9834 78.8447)" class="st8 st9 st10">16</text>
</g>
<g id="Pol">
	<g>
		<g id="SexMF1">
			<path class="st11" d="M799.135,220v-12.787h-2.557v-9.378c0-1.876,1.534-3.41,3.41-3.41h5.115c1.875,0,3.41,1.535,3.41,3.41     v9.378h-2.557V220H799.135z M802.545,192.72c1.893,0,3.41-1.517,3.41-3.41c0-1.893-1.517-3.41-3.41-3.41     c-1.893,0-3.41,1.517-3.41,3.41C799.135,191.203,800.652,192.72,802.545,192.72z"></path>
			<path class="st12" d="M819.852,194.425c1.466,0,2.762,0.938,3.24,2.336l0,0l4.331,13.009h-5.115V220h-5.115v-10.23h-5.115     l4.331-13.009c0.46-1.398,1.773-2.336,3.24-2.336l0,0H819.852z M819.75,185.9c1.893,0,3.41,1.517,3.41,3.41     s-1.517,3.41-3.41,3.41c-1.893,0-3.41-1.517-3.41-3.41S817.857,185.9,819.75,185.9z"></path>
		</g>
		<path id="SexF1" class="st12" d="M812.102,194.425c1.466,0,2.762,0.938,3.24,2.336l0,0l4.331,13.009h-5.115V220h-5.115v-10.23    h-5.115l4.331-13.009c0.46-1.398,1.773-2.336,3.24-2.336l0,0H812.102z M812,185.9c1.893,0,3.41,1.517,3.41,3.41    s-1.517,3.41-3.41,3.41c-1.893,0-3.41-1.517-3.41-3.41C808.59,187.417,810.107,185.9,812,185.9z"></path>
		<path id="SexM1" class="st11" d="M808.59,220v-12.787h-2.557v-9.378c0-1.876,1.534-3.41,3.41-3.41h5.115    c1.876,0,3.41,1.535,3.41,3.41v9.378h-2.557V220L808.59,220z M812,192.72c1.893,0,3.41-1.517,3.41-3.41s-1.517-3.41-3.41-3.41    c-1.893,0-3.41,1.517-3.41,3.41C808.59,191.203,810.107,192.72,812,192.72z"></path>
	</g>
	<g>
		<g id="SexMF2">
			<path class="st11" d="M983.135,220v-12.788h-2.558l0-9.378c0-1.876,1.534-3.41,3.41-3.41h5.115c1.875,0,3.41,1.534,3.41,3.41     v9.378h-2.558V220H983.135z M986.545,192.72c1.893,0,3.41-1.517,3.41-3.41s-1.517-3.41-3.41-3.41s-3.41,1.517-3.41,3.41     S984.652,192.72,986.545,192.72z"></path>
			<path class="st12" d="M1003.852,194.425c1.466,0,2.762,0.938,3.24,2.336l0,0l4.331,13.009h-5.115V220h-5.115v-10.23h-5.115     l4.331-13.009c0.46-1.398,1.773-2.336,3.24-2.336l0,0H1003.852z M1003.75,185.9c1.893,0,3.41,1.517,3.41,3.41     s-1.517,3.41-3.41,3.41c-1.893,0-3.41-1.517-3.41-3.41S1001.857,185.9,1003.75,185.9z"></path>
		</g>
		<path id="SexF2" class="st12" d="M996.102,194.425c1.466,0,2.762,0.938,3.24,2.336l0,0l4.331,13.009h-5.115V220h-5.115v-10.23    h-5.115l4.331-13.009c0.46-1.398,1.773-2.336,3.24-2.336l0,0H996.102z M996,185.9c1.893,0,3.41,1.517,3.41,3.41    s-1.517,3.41-3.41,3.41c-1.893,0-3.41-1.517-3.41-3.41S994.107,185.9,996,185.9z"></path>
		<path id="SexM2" class="st11" d="M992.59,220v-12.788h-2.557v-9.378c0-1.876,1.534-3.41,3.41-3.41h5.115    c1.875,0,3.41,1.535,3.41,3.41v9.378h-2.557V220H992.59z M996,192.72c1.893,0,3.41-1.517,3.41-3.41s-1.517-3.41-3.41-3.41    c-1.893,0-3.41,1.517-3.41,3.41S994.107,192.72,996,192.72z"></path>
	</g>
	<g>
		<g id="SexMF3">
			<path class="st11" d="M1167.135,220v-12.788h-2.557v-9.378c0-1.875,1.535-3.41,3.41-3.41h5.115c1.875,0,3.41,1.535,3.41,3.41     v9.377h-2.557V220H1167.135z M1170.545,192.72c1.893,0,3.41-1.517,3.41-3.41s-1.517-3.41-3.41-3.41s-3.41,1.517-3.41,3.41     S1168.652,192.72,1170.545,192.72z"></path>
			<path class="st12" d="M1187.852,194.425c1.466,0,2.762,0.938,3.24,2.336l0,0l4.331,13.009h-5.115V220h-5.115v-10.23h-5.115     l4.331-13.009c0.46-1.398,1.773-2.336,3.24-2.336l0,0H1187.852z M1187.75,185.9c1.893,0,3.41,1.517,3.41,3.41     s-1.517,3.41-3.41,3.41s-3.41-1.517-3.41-3.41S1185.857,185.9,1187.75,185.9z"></path>
		</g>
		<path id="SexF3" class="st12" d="M1180.102,194.425c1.466,0,2.762,0.938,3.24,2.336l0,0l4.331,13.009h-5.115V220h-5.115v-10.23    h-5.115l4.331-13.009c0.46-1.398,1.773-2.336,3.24-2.336l0,0H1180.102z M1180,185.9c1.893,0,3.41,1.517,3.41,3.41    s-1.517,3.41-3.41,3.41s-3.41-1.517-3.41-3.41S1178.107,185.9,1180,185.9z"></path>
		<path id="SexM3" class="st11" d="M1176.59,220v-12.788h-2.557v-9.377c0-1.876,1.535-3.41,3.41-3.41h5.115    c1.875,0,3.41,1.535,3.41,3.41v9.377h-2.557V220H1176.59z M1180,192.72c1.893,0,3.41-1.517,3.41-3.41s-1.517-3.41-3.41-3.41    s-3.41,1.517-3.41,3.41S1178.107,192.72,1180,192.72z"></path>
	</g>
	<g>
		<g id="SexMF4">
			<path class="st11" d="M1351.135,220v-12.787h-2.557v-9.378c0-1.876,1.534-3.41,3.41-3.41h5.115c1.875,0,3.41,1.535,3.41,3.41     v9.378h-2.557V220H1351.135z M1354.545,192.72c1.893,0,3.41-1.517,3.41-3.41c0-1.893-1.517-3.41-3.41-3.41     c-1.892,0-3.41,1.517-3.41,3.41C1351.135,191.203,1352.652,192.72,1354.545,192.72z"></path>
			<path class="st12" d="M1371.852,194.425c1.466,0,2.762,0.938,3.24,2.336l0,0l4.331,13.009h-5.115V220h-5.115v-10.23h-5.115     l4.331-13.009c0.46-1.398,1.773-2.336,3.24-2.336l0,0H1371.852z M1371.75,185.9c1.892,0,3.41,1.517,3.41,3.41     c0,1.893-1.517,3.41-3.41,3.41c-1.893,0-3.41-1.517-3.41-3.41C1368.34,187.417,1369.857,185.9,1371.75,185.9z"></path>
		</g>
		<path id="SexF4" class="st12" d="M1364.102,194.425c1.466,0,2.762,0.938,3.24,2.336l0,0l4.331,13.009h-5.115V220h-5.115v-10.23    h-5.115l4.331-13.009c0.46-1.398,1.773-2.336,3.24-2.336l0,0H1364.102z M1364,185.9c1.892,0,3.41,1.517,3.41,3.41    c0,1.893-1.517,3.41-3.41,3.41c-1.893,0-3.41-1.517-3.41-3.41C1360.59,187.417,1362.107,185.9,1364,185.9z"></path>
		<path id="SexM4" class="st11" d="M1360.59,220v-12.787h-2.557v-9.378c0-1.876,1.535-3.41,3.41-3.41h5.115    c1.875,0,3.41,1.535,3.41,3.41v9.378h-2.557V220H1360.59z M1364,192.72c1.892,0,3.41-1.517,3.41-3.41    c0-1.893-1.517-3.41-3.41-3.41c-1.893,0-3.41,1.517-3.41,3.41C1360.59,191.203,1362.107,192.72,1364,192.72z"></path>
	</g>
	<g>
		<g id="SexMF5">
			<path class="st11" d="M1535.135,220v-12.787h-2.557v-9.378c0-1.876,1.534-3.41,3.41-3.41h5.115c1.875,0,3.41,1.535,3.41,3.41     v9.378h-2.557V220H1535.135z M1538.545,192.72c1.892,0,3.41-1.517,3.41-3.41c0-1.893-1.517-3.41-3.41-3.41     c-1.893,0-3.41,1.517-3.41,3.41C1535.135,191.203,1536.653,192.72,1538.545,192.72z"></path>
			<path class="st12" d="M1555.852,194.425c1.466,0,2.762,0.938,3.24,2.336l0,0l4.331,13.009h-5.115V220h-5.115v-10.23h-5.115     l4.331-13.009c0.46-1.398,1.773-2.336,3.24-2.336l0,0H1555.852z M1555.75,185.9c1.893,0,3.41,1.517,3.41,3.41     c0,1.893-1.517,3.41-3.41,3.41s-3.41-1.517-3.41-3.41C1552.34,187.417,1553.858,185.9,1555.75,185.9z"></path>
		</g>
		<path id="SexF5" class="st12" d="M1548.102,194.425c1.466,0,2.762,0.938,3.24,2.336l0,0l4.331,13.009h-5.115V220h-5.115v-10.23    h-5.115l4.331-13.009c0.46-1.398,1.773-2.336,3.24-2.336l0,0H1548.102z M1548,185.9c1.893,0,3.41,1.517,3.41,3.41    c0,1.893-1.517,3.41-3.41,3.41s-3.41-1.517-3.41-3.41C1544.59,187.417,1546.108,185.9,1548,185.9z"></path>
		<path id="SexM5" class="st11" d="M1544.59,220v-12.787h-2.557v-9.378c0-1.876,1.535-3.41,3.41-3.41h5.115    c1.875,0,3.41,1.535,3.41,3.41v9.378h-2.557V220H1544.59z M1548,192.72c1.893,0,3.41-1.517,3.41-3.41    c0-1.893-1.517-3.41-3.41-3.41s-3.41,1.517-3.41,3.41C1544.59,191.203,1546.108,192.72,1548,192.72z"></path>
	</g>
	<g>
		<g id="SexMF6">
			<path class="st11" d="M1719.135,220v-12.788h-2.557v-9.378c0-1.876,1.534-3.41,3.41-3.41h5.115c1.875,0,3.41,1.535,3.41,3.41     v9.378h-2.557V220H1719.135z M1722.545,192.72c1.892,0,3.41-1.517,3.41-3.41s-1.517-3.41-3.41-3.41     c-1.893,0-3.41,1.517-3.41,3.41S1720.653,192.72,1722.545,192.72z"></path>
			<path class="st12" d="M1739.852,194.425c1.466,0,2.762,0.938,3.24,2.336l0,0l4.331,13.009h-5.115V220h-5.115v-10.23h-5.115     l4.331-13.009c0.46-1.398,1.773-2.336,3.24-2.336l0,0H1739.852z M1739.75,185.9c1.893,0,3.41,1.517,3.41,3.41     s-1.517,3.41-3.41,3.41s-3.41-1.517-3.41-3.41S1737.858,185.9,1739.75,185.9z"></path>
		</g>
		<path id="SexF6" class="st12" d="M1732.102,194.425c1.466,0,2.762,0.938,3.24,2.336l0,0l4.331,13.009h-5.115V220h-5.115v-10.23    h-5.115l4.331-13.009c0.46-1.398,1.773-2.336,3.24-2.336l0,0H1732.102z M1732,185.9c1.893,0,3.41,1.517,3.41,3.41    s-1.517,3.41-3.41,3.41s-3.41-1.517-3.41-3.41S1730.108,185.9,1732,185.9z"></path>
		<path id="SexM6" class="st11" d="M1728.59,220v-12.788h-2.557v-9.378c0-1.876,1.535-3.41,3.41-3.41h5.115    c1.875,0,3.41,1.535,3.41,3.41v9.378h-2.557V220H1728.59z M1732,192.72c1.893,0,3.41-1.517,3.41-3.41s-1.517-3.41-3.41-3.41    s-3.41,1.517-3.41,3.41S1730.108,192.72,1732,192.72z" style="opacity: 1;"></path>
	</g>
	<g>
		<g id="SexMF7">
			<path class="st11" d="M1903.135,220v-12.788h-2.557v-9.378c0-1.875,1.535-3.41,3.41-3.41h5.115c1.875,0,3.41,1.535,3.41,3.41     v9.378h-2.558V220H1903.135z M1906.545,192.72c1.893,0,3.41-1.517,3.41-3.41s-1.517-3.41-3.41-3.41s-3.41,1.517-3.41,3.41     S1904.652,192.72,1906.545,192.72z"></path>
			<path class="st12" d="M1923.852,194.425c1.466,0,2.762,0.938,3.24,2.336l0,0l4.331,13.009h-5.115V220h-5.115v-10.23h-5.115     l4.331-13.009c0.46-1.398,1.773-2.336,3.24-2.336l0,0H1923.852z M1923.75,185.9c1.893,0,3.41,1.517,3.41,3.41     s-1.517,3.41-3.41,3.41s-3.41-1.517-3.41-3.41S1921.857,185.9,1923.75,185.9z"></path>
		</g>
		<path id="SexF7" class="st12" d="M1916.102,194.425c1.466,0,2.762,0.938,3.24,2.336l0,0l4.331,13.009h-5.115V220h-5.115v-10.23    h-5.115l4.331-13.009c0.46-1.398,1.773-2.336,3.24-2.336l0,0H1916.102z M1916,185.9c1.893,0,3.41,1.517,3.41,3.41    s-1.517,3.41-3.41,3.41s-3.41-1.517-3.41-3.41S1914.107,185.9,1916,185.9z"></path>
		<path id="SexM7" class="st11" d="M1912.59,220v-12.788h-2.557v-9.378c0-1.875,1.535-3.41,3.41-3.41h5.115    c1.875,0,3.41,1.535,3.41,3.41v9.378h-2.557V220H1912.59z M1916,192.72c1.893,0,3.41-1.517,3.41-3.41s-1.517-3.41-3.41-3.41    s-3.41,1.517-3.41,3.41S1914.107,192.72,1916,192.72z"></path>
	</g>
	<g>
		<g id="SexMF8">
			<path class="st11" d="M2087.135,220v-12.787h-2.557v-9.378c0-1.876,1.534-3.41,3.41-3.41h5.115c1.875,0,3.41,1.535,3.41,3.41     v9.378h-2.557V220H2087.135z M2090.545,192.72c1.893,0,3.41-1.517,3.41-3.41s-1.518-3.41-3.41-3.41     c-1.892,0-3.41,1.517-3.41,3.41S2088.653,192.72,2090.545,192.72z"></path>
			<path class="st12" d="M2107.852,194.425c1.466,0,2.762,0.938,3.24,2.336l0,0l4.331,13.009h-5.115V220h-5.115v-10.23h-5.115     l4.331-13.009c0.46-1.398,1.773-2.336,3.24-2.336l0,0H2107.852z M2107.75,185.9c1.893,0,3.41,1.517,3.41,3.41     s-1.517,3.41-3.41,3.41s-3.41-1.517-3.41-3.41S2105.857,185.9,2107.75,185.9z"></path>
		</g>
		<path id="SexF8" class="st12" d="M2100.102,194.425c1.466,0,2.762,0.938,3.24,2.336l0,0l4.331,13.009h-5.115V220h-5.115v-10.23    h-5.115l4.331-13.009c0.46-1.398,1.773-2.336,3.24-2.336l0,0H2100.102z M2100,185.9c1.893,0,3.41,1.517,3.41,3.41    s-1.517,3.41-3.41,3.41s-3.41-1.517-3.41-3.41S2098.107,185.9,2100,185.9z"></path>
		<path id="SexM8" class="st11" d="M2096.59,220v-12.787h-2.558v-9.378c0-1.876,1.534-3.41,3.41-3.41h5.115    c1.875,0,3.41,1.535,3.41,3.41v9.378h-2.558V220H2096.59z M2100,192.72c1.893,0,3.41-1.517,3.41-3.41s-1.517-3.41-3.41-3.41    s-3.41,1.517-3.41,3.41S2098.107,192.72,2100,192.72z"></path>
	</g>
</g>
<g id="Tables">
	<path class="st13" d="M2004,13v66h-74.816c-2.851,0-5.184-1.974-5.184-4.387V17.387c0-2.413,2.333-4.387,5.184-4.387H2004z"></path>
	<path class="st13" d="M900,13v66h-74.816c-2.851,0-5.184-1.974-5.184-4.387V17.387c0-2.413,2.333-4.387,5.184-4.387H900z"></path>
	<path class="st13" d="M908,79V13h74.816c2.851,0,5.184,1.974,5.184,4.387v57.227c0,2.412-2.333,4.387-5.184,4.387H908z"></path>
	<path class="st13" d="M1268,13v66h-74.816c-2.851,0-5.184-1.974-5.184-4.387V17.387c0-2.413,2.333-4.387,5.184-4.387H1268z"></path>
	<path class="st13" d="M1276,79V13h74.816c2.851,0,5.184,1.974,5.184,4.387v57.226c0,2.413-2.333,4.387-5.184,4.387H1276z"></path>
	<path class="st13" d="M1636,13v66h-74.816c-2.851,0-5.184-1.974-5.184-4.387V17.387c0-2.413,2.333-4.387,5.184-4.387H1636z"></path>
	<path class="st13" d="M1644,79V13h74.816c2.851,0,5.184,1.974,5.184,4.387v57.226c0,2.413-2.333,4.387-5.184,4.387H1644z"></path>
	<path class="st13" d="M2012,79V13h74.816c2.851,0,5.184,1.974,5.184,4.387v57.226c0,2.413-2.333,4.387-5.184,4.387H2012z"></path>
	<polygon class="st13" points="2312,328 2312,294.566 2245.468,294.566 2196,309.566 2196,328  "></polygon>
	<polygon class="st13" points="2196,241 2196,187 2249.423,187 2243.786,194.762 2210.207,241  "></polygon>
</g>
<g id="Cup_for_table">
	<path class="st14" d="M850.017,53.925H830c0,1.148,0.928,2.075,2.078,2.075h15.86C849.089,56,850.017,55.073,850.017,53.925   L850.017,53.925z M845.692,49.095v-4.319h0.366c1.193,0,2.16,0.965,2.16,2.157c0,1.194-0.967,2.159-2.16,2.159   C845.906,49.092,845.692,49.095,845.692,49.095L845.692,49.095L845.692,49.095z M835.918,53.052h7.997   c0.98,0,1.775-0.795,1.775-1.775c0-0.117,0.002-0.561,0.002-0.77h0.366c1.976,0,3.575-1.599,3.575-3.575   c0-1.973-1.607-3.577-3.582-3.577h-11.904v7.922C834.148,52.257,834.939,53.052,835.918,53.052L835.918,53.052L835.918,53.052z    M837.323,40.407c0-0.332-0.212-0.729-0.634-1.191c-0.423-0.461-0.634-0.972-0.634-1.533c0-0.624,0.224-1.15,0.675-1.576   c0.079-0.072,0.17-0.107,0.273-0.107c0.26,0,0.391,0.13,0.391,0.391c0,0.111-0.04,0.206-0.119,0.284   c-0.292,0.277-0.438,0.612-0.438,1.008c0,0.372,0.211,0.786,0.634,1.244c0.422,0.458,0.634,0.952,0.634,1.48   c0,0.719-0.289,1.296-0.865,1.73c-0.071,0.056-0.15,0.083-0.237,0.083c-0.26,0-0.391-0.13-0.391-0.392   c0-0.133,0.051-0.24,0.154-0.318C837.136,41.232,837.323,40.866,837.323,40.407L837.323,40.407L837.323,40.407z M840.118,40.407   c0-0.332-0.211-0.729-0.634-1.191c-0.423-0.461-0.634-0.972-0.634-1.533c0-0.624,0.226-1.15,0.676-1.576   c0.078-0.072,0.169-0.107,0.272-0.107c0.261,0,0.391,0.13,0.391,0.391c0,0.111-0.039,0.206-0.118,0.284   c-0.292,0.277-0.438,0.612-0.438,1.008c0,0.372,0.211,0.786,0.633,1.244c0.422,0.458,0.633,0.952,0.633,1.48   c0,0.719-0.287,1.296-0.864,1.73c-0.071,0.056-0.149,0.083-0.237,0.083c-0.26,0-0.391-0.13-0.391-0.392   c0-0.133,0.052-0.24,0.154-0.318C839.933,41.232,840.118,40.866,840.118,40.407L840.118,40.407L840.118,40.407z M842.281,39.216   c-0.422-0.461-0.634-0.972-0.634-1.533c0-0.624,0.225-1.15,0.675-1.576c0.079-0.072,0.169-0.107,0.272-0.107   c0.261,0,0.391,0.13,0.391,0.391c0,0.111-0.039,0.206-0.118,0.284c-0.291,0.277-0.438,0.612-0.438,1.008   c0,0.372,0.212,0.786,0.634,1.244c0.422,0.458,0.633,0.952,0.633,1.48c0,0.719-0.287,1.296-0.864,1.73   c-0.071,0.056-0.15,0.083-0.237,0.083c-0.26,0-0.391-0.13-0.391-0.392c0-0.133,0.052-0.24,0.154-0.318   c0.371-0.277,0.557-0.644,0.557-1.103l0,0C842.914,40.075,842.703,39.678,842.281,39.216z"></path>
	<path class="st14" d="M978,53.925h-20.017c0,1.148,0.928,2.075,2.078,2.075h15.86C977.071,56,978,55.073,978,53.925L978,53.925z    M973.675,49.095v-4.319h0.367c1.193,0,2.16,0.965,2.16,2.157c0,1.194-0.967,2.159-2.16,2.159   C973.888,49.092,973.675,49.095,973.675,49.095L973.675,49.095L973.675,49.095z M963.901,53.052h7.997   c0.98,0,1.775-0.795,1.775-1.775c0-0.117,0.002-0.561,0.002-0.77h0.367c1.975,0,3.575-1.599,3.575-3.575   c0-1.973-1.607-3.577-3.582-3.577h-11.904v7.922C962.131,52.257,962.922,53.052,963.901,53.052L963.901,53.052L963.901,53.052z    M965.306,40.407c0-0.332-0.212-0.729-0.634-1.191c-0.423-0.461-0.634-0.972-0.634-1.533c0-0.624,0.225-1.15,0.675-1.576   c0.079-0.072,0.17-0.107,0.273-0.107c0.26,0,0.391,0.13,0.391,0.391c0,0.111-0.04,0.206-0.118,0.284   c-0.293,0.277-0.439,0.612-0.439,1.008c0,0.372,0.211,0.786,0.634,1.244c0.422,0.458,0.634,0.952,0.634,1.48   c0,0.719-0.289,1.296-0.865,1.73c-0.071,0.056-0.151,0.083-0.237,0.083c-0.26,0-0.391-0.13-0.391-0.392   c0-0.133,0.051-0.24,0.154-0.318C965.119,41.232,965.306,40.866,965.306,40.407L965.306,40.407L965.306,40.407z M968.101,40.407   c0-0.332-0.211-0.729-0.634-1.191c-0.423-0.461-0.634-0.972-0.634-1.533c0-0.624,0.226-1.15,0.676-1.576   c0.078-0.072,0.169-0.107,0.272-0.107c0.261,0,0.391,0.13,0.391,0.391c0,0.111-0.039,0.206-0.119,0.284   c-0.292,0.277-0.438,0.612-0.438,1.008c0,0.372,0.211,0.786,0.634,1.244c0.422,0.458,0.633,0.952,0.633,1.48   c0,0.719-0.287,1.296-0.864,1.73c-0.071,0.056-0.149,0.083-0.237,0.083c-0.26,0-0.391-0.13-0.391-0.392   c0-0.133,0.052-0.24,0.154-0.318C967.916,41.232,968.101,40.866,968.101,40.407L968.101,40.407L968.101,40.407z M970.263,39.216   c-0.422-0.461-0.634-0.972-0.634-1.533c0-0.624,0.225-1.15,0.675-1.576c0.079-0.072,0.17-0.107,0.272-0.107   c0.261,0,0.391,0.13,0.391,0.391c0,0.111-0.039,0.206-0.118,0.284c-0.291,0.277-0.439,0.612-0.439,1.008   c0,0.372,0.212,0.786,0.634,1.244c0.422,0.458,0.633,0.952,0.633,1.48c0,0.719-0.287,1.296-0.864,1.73   c-0.07,0.056-0.15,0.083-0.237,0.083c-0.26,0-0.391-0.13-0.391-0.392c0-0.133,0.052-0.24,0.154-0.318   c0.371-0.277,0.556-0.644,0.556-1.103l0,0C970.897,40.075,970.686,39.678,970.263,39.216z"></path>
	<path class="st14" d="M1218.017,53.925H1198c0,1.148,0.928,2.075,2.078,2.075h15.86C1217.089,56,1218.017,55.073,1218.017,53.925   L1218.017,53.925z M1213.692,49.095v-4.319h0.367c1.193,0,2.16,0.965,2.16,2.157c0,1.194-0.967,2.159-2.16,2.159   C1213.906,49.092,1213.692,49.095,1213.692,49.095L1213.692,49.095L1213.692,49.095z M1203.918,53.052h7.997   c0.98,0,1.775-0.795,1.775-1.775c0-0.117,0.002-0.561,0.002-0.77h0.367c1.975,0,3.575-1.599,3.575-3.575   c0-1.973-1.607-3.577-3.582-3.577h-11.904v7.922C1202.148,52.257,1202.939,53.052,1203.918,53.052L1203.918,53.052L1203.918,53.052   z M1205.323,40.407c0-0.332-0.212-0.729-0.634-1.191c-0.423-0.461-0.634-0.972-0.634-1.533c0-0.624,0.225-1.15,0.675-1.576   c0.079-0.072,0.17-0.107,0.273-0.107c0.26,0,0.391,0.13,0.391,0.391c0,0.111-0.04,0.206-0.119,0.284   c-0.292,0.277-0.438,0.612-0.438,1.008c0,0.372,0.211,0.786,0.634,1.244c0.422,0.458,0.634,0.952,0.634,1.48   c0,0.719-0.289,1.296-0.865,1.73c-0.071,0.056-0.151,0.083-0.237,0.083c-0.26,0-0.391-0.13-0.391-0.392   c0-0.133,0.051-0.24,0.154-0.318C1205.136,41.232,1205.323,40.866,1205.323,40.407L1205.323,40.407L1205.323,40.407z    M1208.119,40.407c0-0.332-0.211-0.729-0.634-1.191c-0.423-0.461-0.634-0.972-0.634-1.533c0-0.624,0.226-1.15,0.676-1.576   c0.078-0.072,0.17-0.107,0.272-0.107c0.261,0,0.391,0.13,0.391,0.391c0,0.111-0.039,0.206-0.118,0.284   c-0.292,0.277-0.438,0.612-0.438,1.008c0,0.372,0.211,0.786,0.633,1.244c0.422,0.458,0.633,0.952,0.633,1.48   c0,0.719-0.287,1.296-0.864,1.73c-0.071,0.056-0.149,0.083-0.237,0.083c-0.26,0-0.391-0.13-0.391-0.392   c0-0.133,0.052-0.24,0.154-0.318C1207.933,41.232,1208.119,40.866,1208.119,40.407L1208.119,40.407L1208.119,40.407z    M1210.281,39.216c-0.422-0.461-0.634-0.972-0.634-1.533c0-0.624,0.225-1.15,0.675-1.576c0.079-0.072,0.17-0.107,0.272-0.107   c0.261,0,0.391,0.13,0.391,0.391c0,0.111-0.039,0.206-0.118,0.284c-0.291,0.277-0.438,0.612-0.438,1.008   c0,0.372,0.212,0.786,0.634,1.244c0.422,0.458,0.634,0.952,0.634,1.48c0,0.719-0.287,1.296-0.864,1.73   c-0.071,0.056-0.15,0.083-0.237,0.083c-0.26,0-0.391-0.13-0.391-0.392c0-0.133,0.052-0.24,0.154-0.318   c0.371-0.277,0.556-0.644,0.556-1.103l0,0C1210.914,40.075,1210.703,39.678,1210.281,39.216z"></path>
	<path class="st14" d="M1346,53.925h-20.017c0,1.148,0.928,2.075,2.078,2.075h15.86C1345.071,56,1346,55.073,1346,53.925   L1346,53.925z M1341.675,49.095v-4.319h0.367c1.193,0,2.16,0.965,2.16,2.157c0,1.194-0.967,2.159-2.16,2.159   C1341.888,49.092,1341.675,49.095,1341.675,49.095L1341.675,49.095L1341.675,49.095z M1331.901,53.052h7.997   c0.98,0,1.775-0.795,1.775-1.775c0-0.117,0.002-0.561,0.002-0.77h0.367c1.975,0,3.575-1.599,3.575-3.575   c0-1.973-1.607-3.577-3.582-3.577h-11.904v7.922C1330.131,52.257,1330.922,53.052,1331.901,53.052L1331.901,53.052L1331.901,53.052   z M1333.306,40.407c0-0.332-0.212-0.729-0.634-1.191c-0.422-0.461-0.634-0.972-0.634-1.533c0-0.624,0.224-1.15,0.675-1.576   c0.079-0.072,0.17-0.107,0.273-0.107c0.26,0,0.391,0.13,0.391,0.391c0,0.111-0.04,0.206-0.119,0.284   c-0.292,0.277-0.438,0.612-0.438,1.008c0,0.372,0.211,0.786,0.634,1.244c0.422,0.458,0.634,0.952,0.634,1.48   c0,0.719-0.289,1.296-0.865,1.73c-0.071,0.056-0.151,0.083-0.237,0.083c-0.26,0-0.391-0.13-0.391-0.392   c0-0.133,0.051-0.24,0.154-0.318C1333.119,41.232,1333.306,40.866,1333.306,40.407L1333.306,40.407L1333.306,40.407z    M1336.101,40.407c0-0.332-0.211-0.729-0.634-1.191c-0.423-0.461-0.634-0.972-0.634-1.533c0-0.624,0.226-1.15,0.676-1.576   c0.078-0.072,0.17-0.107,0.272-0.107c0.261,0,0.391,0.13,0.391,0.391c0,0.111-0.039,0.206-0.119,0.284   c-0.292,0.277-0.438,0.612-0.438,1.008c0,0.372,0.211,0.786,0.634,1.244c0.422,0.458,0.633,0.952,0.633,1.48   c0,0.719-0.287,1.296-0.864,1.73c-0.071,0.056-0.149,0.083-0.237,0.083c-0.26,0-0.391-0.13-0.391-0.392   c0-0.133,0.052-0.24,0.154-0.318C1335.916,41.232,1336.101,40.866,1336.101,40.407L1336.101,40.407L1336.101,40.407z    M1338.263,39.216c-0.422-0.461-0.634-0.972-0.634-1.533c0-0.624,0.225-1.15,0.675-1.576c0.079-0.072,0.169-0.107,0.272-0.107   c0.261,0,0.391,0.13,0.391,0.391c0,0.111-0.039,0.206-0.118,0.284c-0.291,0.277-0.438,0.612-0.438,1.008   c0,0.372,0.212,0.786,0.634,1.244c0.422,0.458,0.634,0.952,0.634,1.48c0,0.719-0.287,1.296-0.864,1.73   c-0.071,0.056-0.15,0.083-0.237,0.083c-0.26,0-0.391-0.13-0.391-0.392c0-0.133,0.052-0.24,0.154-0.318   c0.371-0.277,0.557-0.644,0.557-1.103l0,0C1338.897,40.075,1338.686,39.678,1338.263,39.216z"></path>
	<path class="st14" d="M1586.017,53.925H1566c0,1.148,0.928,2.075,2.078,2.075h15.861C1585.089,56,1586.017,55.073,1586.017,53.925   L1586.017,53.925z M1581.692,49.095v-4.319h0.367c1.193,0,2.16,0.965,2.16,2.157c0,1.194-0.967,2.159-2.16,2.159   C1581.906,49.092,1581.692,49.095,1581.692,49.095L1581.692,49.095L1581.692,49.095z M1571.918,53.052h7.997   c0.98,0,1.775-0.795,1.775-1.775c0-0.117,0.002-0.561,0.002-0.77h0.367c1.975,0,3.575-1.599,3.575-3.575   c0-1.973-1.607-3.577-3.582-3.577h-11.904v7.922C1570.148,52.257,1570.939,53.052,1571.918,53.052L1571.918,53.052L1571.918,53.052   z M1573.323,40.407c0-0.332-0.212-0.729-0.634-1.191c-0.423-0.461-0.634-0.972-0.634-1.533c0-0.624,0.224-1.15,0.675-1.576   c0.079-0.072,0.17-0.107,0.273-0.107c0.26,0,0.391,0.13,0.391,0.391c0,0.111-0.04,0.206-0.119,0.284   c-0.293,0.277-0.438,0.612-0.438,1.008c0,0.372,0.211,0.786,0.634,1.244c0.422,0.458,0.634,0.952,0.634,1.48   c0,0.719-0.289,1.296-0.865,1.73c-0.071,0.056-0.151,0.083-0.237,0.083c-0.26,0-0.391-0.13-0.391-0.392   c0-0.133,0.051-0.24,0.154-0.318C1573.136,41.232,1573.323,40.866,1573.323,40.407L1573.323,40.407L1573.323,40.407z    M1576.119,40.407c0-0.332-0.211-0.729-0.634-1.191c-0.423-0.461-0.634-0.972-0.634-1.533c0-0.624,0.226-1.15,0.676-1.576   c0.078-0.072,0.17-0.107,0.272-0.107c0.261,0,0.391,0.13,0.391,0.391c0,0.111-0.039,0.206-0.119,0.284   c-0.292,0.277-0.438,0.612-0.438,1.008c0,0.372,0.211,0.786,0.634,1.244c0.422,0.458,0.633,0.952,0.633,1.48   c0,0.719-0.287,1.296-0.864,1.73c-0.072,0.056-0.149,0.083-0.237,0.083c-0.26,0-0.391-0.13-0.391-0.392   c0-0.133,0.052-0.24,0.154-0.318C1575.933,41.232,1576.119,40.866,1576.119,40.407L1576.119,40.407L1576.119,40.407z    M1578.281,39.216c-0.422-0.461-0.634-0.972-0.634-1.533c0-0.624,0.225-1.15,0.675-1.576c0.079-0.072,0.169-0.107,0.272-0.107   c0.261,0,0.391,0.13,0.391,0.391c0,0.111-0.039,0.206-0.118,0.284c-0.291,0.277-0.438,0.612-0.438,1.008   c0,0.372,0.212,0.786,0.634,1.244c0.422,0.458,0.634,0.952,0.634,1.48c0,0.719-0.287,1.296-0.864,1.73   c-0.07,0.056-0.15,0.083-0.237,0.083c-0.26,0-0.391-0.13-0.391-0.392c0-0.133,0.052-0.24,0.154-0.318   c0.371-0.277,0.556-0.644,0.556-1.103l0,0C1578.914,40.075,1578.703,39.678,1578.281,39.216z"></path>
	<path class="st14" d="M1714,53.925h-20.017c0,1.148,0.928,2.075,2.078,2.075h15.86C1713.071,56,1714,55.073,1714,53.925   L1714,53.925z M1709.675,49.095v-4.319h0.367c1.193,0,2.16,0.965,2.16,2.157c0,1.194-0.967,2.159-2.16,2.159   C1709.888,49.092,1709.675,49.095,1709.675,49.095L1709.675,49.095L1709.675,49.095z M1699.901,53.052h7.997   c0.98,0,1.775-0.795,1.775-1.775c0-0.117,0.002-0.561,0.002-0.77h0.367c1.975,0,3.575-1.599,3.575-3.575   c0-1.973-1.607-3.577-3.582-3.577h-11.904v7.922C1698.131,52.257,1698.922,53.052,1699.901,53.052L1699.901,53.052L1699.901,53.052   z M1701.306,40.407c0-0.332-0.212-0.729-0.634-1.191c-0.423-0.461-0.634-0.972-0.634-1.533c0-0.624,0.224-1.15,0.675-1.576   c0.079-0.072,0.17-0.107,0.273-0.107c0.26,0,0.391,0.13,0.391,0.391c0,0.111-0.04,0.206-0.118,0.284   c-0.293,0.277-0.439,0.612-0.439,1.008c0,0.372,0.211,0.786,0.634,1.244c0.422,0.458,0.634,0.952,0.634,1.48   c0,0.719-0.289,1.296-0.865,1.73c-0.071,0.056-0.151,0.083-0.237,0.083c-0.26,0-0.391-0.13-0.391-0.392   c0-0.133,0.051-0.24,0.154-0.318C1701.119,41.232,1701.306,40.866,1701.306,40.407L1701.306,40.407L1701.306,40.407z    M1704.101,40.407c0-0.332-0.211-0.729-0.634-1.191c-0.423-0.461-0.634-0.972-0.634-1.533c0-0.624,0.226-1.15,0.676-1.576   c0.078-0.072,0.17-0.107,0.272-0.107c0.261,0,0.391,0.13,0.391,0.391c0,0.111-0.039,0.206-0.119,0.284   c-0.292,0.277-0.438,0.612-0.438,1.008c0,0.372,0.211,0.786,0.633,1.244c0.422,0.458,0.633,0.952,0.633,1.48   c0,0.719-0.287,1.296-0.864,1.73c-0.071,0.056-0.149,0.083-0.237,0.083c-0.26,0-0.391-0.13-0.391-0.392   c0-0.133,0.052-0.24,0.154-0.318C1703.916,41.232,1704.101,40.866,1704.101,40.407L1704.101,40.407L1704.101,40.407z    M1706.263,39.216c-0.422-0.461-0.634-0.972-0.634-1.533c0-0.624,0.225-1.15,0.675-1.576c0.079-0.072,0.17-0.107,0.272-0.107   c0.261,0,0.391,0.13,0.391,0.391c0,0.111-0.039,0.206-0.118,0.284c-0.292,0.277-0.439,0.612-0.439,1.008   c0,0.372,0.212,0.786,0.634,1.244c0.422,0.458,0.634,0.952,0.634,1.48c0,0.719-0.287,1.296-0.864,1.73   c-0.071,0.056-0.15,0.083-0.237,0.083c-0.26,0-0.391-0.13-0.391-0.392c0-0.133,0.052-0.24,0.154-0.318   c0.371-0.277,0.556-0.644,0.556-1.103l0,0C1706.897,40.075,1706.686,39.678,1706.263,39.216z"></path>
	<path class="st14" d="M1954.017,53.925H1934c0,1.148,0.928,2.075,2.078,2.075h15.86C1953.089,56,1954.017,55.073,1954.017,53.925   L1954.017,53.925z M1949.692,49.095v-4.319h0.367c1.193,0,2.16,0.965,2.16,2.157c0,1.194-0.967,2.159-2.16,2.159   C1949.906,49.092,1949.692,49.095,1949.692,49.095L1949.692,49.095L1949.692,49.095z M1939.918,53.052h7.997   c0.98,0,1.775-0.795,1.775-1.775c0-0.117,0.002-0.561,0.002-0.77h0.367c1.975,0,3.575-1.599,3.575-3.575   c0-1.973-1.607-3.577-3.582-3.577h-11.904v7.922C1938.148,52.257,1938.939,53.052,1939.918,53.052L1939.918,53.052L1939.918,53.052   z M1941.323,40.407c0-0.332-0.212-0.729-0.634-1.191c-0.423-0.461-0.634-0.972-0.634-1.533c0-0.624,0.225-1.15,0.675-1.576   c0.079-0.072,0.17-0.107,0.273-0.107c0.26,0,0.391,0.13,0.391,0.391c0,0.111-0.04,0.206-0.119,0.284   c-0.292,0.277-0.438,0.612-0.438,1.008c0,0.372,0.211,0.786,0.634,1.244c0.422,0.458,0.634,0.952,0.634,1.48   c0,0.719-0.289,1.296-0.865,1.73c-0.071,0.056-0.151,0.083-0.237,0.083c-0.26,0-0.391-0.13-0.391-0.392   c0-0.133,0.051-0.24,0.154-0.318C1941.136,41.232,1941.323,40.866,1941.323,40.407L1941.323,40.407L1941.323,40.407z    M1944.119,40.407c0-0.332-0.211-0.729-0.634-1.191c-0.423-0.461-0.634-0.972-0.634-1.533c0-0.624,0.226-1.15,0.676-1.576   c0.078-0.072,0.17-0.107,0.272-0.107c0.261,0,0.391,0.13,0.391,0.391c0,0.111-0.039,0.206-0.119,0.284   c-0.292,0.277-0.438,0.612-0.438,1.008c0,0.372,0.211,0.786,0.633,1.244c0.422,0.458,0.633,0.952,0.633,1.48   c0,0.719-0.287,1.296-0.864,1.73c-0.071,0.056-0.149,0.083-0.237,0.083c-0.26,0-0.391-0.13-0.391-0.392   c0-0.133,0.052-0.24,0.154-0.318C1943.933,41.232,1944.119,40.866,1944.119,40.407L1944.119,40.407L1944.119,40.407z    M1946.281,39.216c-0.422-0.461-0.634-0.972-0.634-1.533c0-0.624,0.225-1.15,0.675-1.576c0.079-0.072,0.17-0.107,0.272-0.107   c0.261,0,0.391,0.13,0.391,0.391c0,0.111-0.039,0.206-0.118,0.284c-0.291,0.277-0.438,0.612-0.438,1.008   c0,0.372,0.212,0.786,0.634,1.244c0.422,0.458,0.634,0.952,0.634,1.48c0,0.719-0.287,1.296-0.864,1.73   c-0.071,0.056-0.15,0.083-0.237,0.083c-0.26,0-0.391-0.13-0.391-0.392c0-0.133,0.052-0.24,0.154-0.318   c0.371-0.277,0.557-0.644,0.557-1.103l0,0C1946.914,40.075,1946.703,39.678,1946.281,39.216z"></path>
	<path class="st14" d="M2082,53.925h-20.017c0,1.148,0.928,2.075,2.078,2.075h15.86C2081.071,56,2082,55.073,2082,53.925   L2082,53.925z M2077.675,49.095v-4.319h0.366c1.193,0,2.16,0.965,2.16,2.157c0,1.194-0.967,2.159-2.16,2.159   C2077.888,49.092,2077.675,49.095,2077.675,49.095L2077.675,49.095L2077.675,49.095z M2067.901,53.052h7.997   c0.98,0,1.775-0.795,1.775-1.775c0-0.117,0.002-0.561,0.002-0.77h0.366c1.975,0,3.575-1.599,3.575-3.575   c0-1.973-1.607-3.577-3.582-3.577h-11.904v7.922C2066.131,52.257,2066.922,53.052,2067.901,53.052L2067.901,53.052L2067.901,53.052   z M2069.306,40.407c0-0.332-0.212-0.729-0.635-1.191c-0.423-0.461-0.634-0.972-0.634-1.533c0-0.624,0.225-1.15,0.675-1.576   c0.079-0.072,0.17-0.107,0.273-0.107c0.26,0,0.391,0.13,0.391,0.391c0,0.111-0.04,0.206-0.118,0.284   c-0.293,0.277-0.439,0.612-0.439,1.008c0,0.372,0.211,0.786,0.634,1.244c0.422,0.458,0.635,0.952,0.635,1.48   c0,0.719-0.289,1.296-0.865,1.73c-0.071,0.056-0.151,0.083-0.237,0.083c-0.26,0-0.391-0.13-0.391-0.392   c0-0.133,0.051-0.24,0.154-0.318C2069.119,41.232,2069.306,40.866,2069.306,40.407L2069.306,40.407L2069.306,40.407z    M2072.101,40.407c0-0.332-0.211-0.729-0.634-1.191c-0.423-0.461-0.634-0.972-0.634-1.533c0-0.624,0.226-1.15,0.676-1.576   c0.078-0.072,0.169-0.107,0.272-0.107c0.261,0,0.391,0.13,0.391,0.391c0,0.111-0.04,0.206-0.119,0.284   c-0.292,0.277-0.438,0.612-0.438,1.008c0,0.372,0.211,0.786,0.634,1.244c0.422,0.458,0.633,0.952,0.633,1.48   c0,0.719-0.287,1.296-0.864,1.73c-0.072,0.056-0.149,0.083-0.237,0.083c-0.26,0-0.391-0.13-0.391-0.392   c0-0.133,0.052-0.24,0.154-0.318C2071.916,41.232,2072.101,40.866,2072.101,40.407L2072.101,40.407L2072.101,40.407z    M2074.263,39.216c-0.422-0.461-0.634-0.972-0.634-1.533c0-0.624,0.225-1.15,0.675-1.576c0.079-0.072,0.17-0.107,0.272-0.107   c0.261,0,0.391,0.13,0.391,0.391c0,0.111-0.039,0.206-0.118,0.284c-0.291,0.277-0.438,0.612-0.438,1.008   c0,0.372,0.212,0.786,0.634,1.244c0.422,0.458,0.634,0.952,0.634,1.48c0,0.719-0.287,1.296-0.864,1.73   c-0.071,0.056-0.15,0.083-0.237,0.083c-0.26,0-0.391-0.13-0.391-0.392c0-0.133,0.052-0.24,0.154-0.318   c0.371-0.277,0.556-0.644,0.556-1.103l0,0C2074.897,40.075,2074.686,39.678,2074.263,39.216z"></path>
</g>
<g id="Window">
	<line class="st15" x1="412" y1="4" x2="514" y2="4"></line>
	<line class="st15" x1="577" y1="4" x2="679" y2="4"></line>
	<line class="st15" x1="761" y1="4" x2="863" y2="4"></line>
	<line class="st15" x1="945" y1="4" x2="1047" y2="4"></line>
	<line class="st15" x1="1129" y1="4" x2="1231" y2="4"></line>
	<line class="st15" x1="1313" y1="4" x2="1415" y2="4"></line>
	<line class="st15" x1="1497" y1="4" x2="1599" y2="4"></line>
	<line class="st15" x1="1681" y1="4" x2="1783" y2="4"></line>
	<line class="st15" x1="128" y1="4" x2="212" y2="4"></line>
	<line class="st15" x1="262" y1="4" x2="364" y2="4"></line>
	<line class="st15" x1="21" y1="4" x2="87" y2="4"></line>
	<line class="st15" x1="2399" y1="4" x2="2333" y2="4"></line>
	<line class="st15" x1="2296" y1="4" x2="2212" y2="4"></line>
	<line class="st15" x1="1865" y1="4" x2="1967" y2="4"></line>
	<line class="st15" x1="2049" y1="4" x2="2151" y2="4"></line>
	<line class="st15" x1="412" y1="332" x2="514" y2="332"></line>
	<line class="st15" x1="577" y1="332" x2="679" y2="332"></line>
	<line class="st15" x1="761" y1="332" x2="863" y2="332"></line>
	<line class="st15" x1="945" y1="332" x2="1047" y2="332"></line>
	<line class="st15" x1="1129" y1="332" x2="1231" y2="332"></line>
	<line class="st15" x1="1313" y1="332" x2="1415" y2="332"></line>
	<line class="st15" x1="1497" y1="332" x2="1599" y2="332"></line>
	<line class="st15" x1="1681" y1="332" x2="1783" y2="332"></line>
	<line class="st15" x1="128" y1="332" x2="212" y2="332"></line>
	<line class="st15" x1="262" y1="332" x2="364" y2="332"></line>
	<line class="st15" x1="21" y1="332" x2="87" y2="332"></line>
	<line class="st15" x1="2399" y1="332" x2="2333" y2="332"></line>
	<line class="st15" x1="2296" y1="332" x2="2212" y2="332"></line>
	<line class="st15" x1="1865" y1="332" x2="1967" y2="332"></line>
	<line class="st15" x1="2049" y1="332" x2="2151" y2="332"></line>
</g>
<g id="Icons">
	<path id="Exit" class="st14" d="M59.233,22.861v19.712L67.962,48V18.308L59.233,22.861L59.233,22.861z M48.848,22.656   L48.848,22.656c1.282-0.031,2.302-1.097,2.271-2.381c-0.032-1.288-1.101-2.304-2.384-2.274c-1.283,0.031-2.301,1.097-2.27,2.385   C46.496,21.67,47.563,22.687,48.848,22.656L48.848,22.656z M42.454,26.804L42.454,26.804l-2.235,5.53   c-0.406,0.922-0.14,1.841,0.948,2.185l0.586,0.129l2.66-6.449h0.003c0.237-0.496,0.614-0.908,1.068-1.232l-0.495,6.886   l-0.007,0.003l-1.016,7.028l-3.026,4.293c0,0-0.374,0.587-0.004,1.303c0.254,0.49,1.285,1.222,1.285,1.222l4.686-6.262l1.108-6.596   c0.063-0.004,0.127-0.008,0.195-0.014l-0.01,0.009l3.272,11.575c0,0,0.123,0.728,0.508,1.071c0.435,0.397,1.082,0.408,1.082,0.408   l1.404-0.211l-3.576-14.272c0-1.499,0.009-4.972,0.009-6.506c0-2.055-0.54-3.172-3.09-3.39   C47.205,23.468,44.084,22.866,42.454,26.804L42.454,26.804z M55.7,33.234L55.7,33.234l0.147-0.296l-3.995-2.758l-0.103,2.58   l1.995,1.184C54.579,34.328,55.214,34.214,55.7,33.234z"></path>
	<path id="Exit_1_" class="st14" d="M59.233,292.861v19.712l8.73,5.427v-29.692L59.233,292.861L59.233,292.861z M48.848,292.656   L48.848,292.656c1.282-0.031,2.302-1.097,2.271-2.381c-0.032-1.288-1.101-2.304-2.384-2.274c-1.283,0.031-2.301,1.097-2.27,2.385   C46.496,291.67,47.563,292.686,48.848,292.656L48.848,292.656z M42.454,296.804L42.454,296.804l-2.235,5.53   c-0.406,0.922-0.14,1.841,0.948,2.185l0.586,0.129l2.66-6.449h0.003c0.237-0.496,0.614-0.908,1.068-1.232l-0.495,6.886   l-0.007,0.003l-1.016,7.028l-3.026,4.293c0,0-0.374,0.587-0.004,1.303c0.254,0.49,1.285,1.222,1.285,1.222l4.686-6.262l1.108-6.596   c0.063-0.004,0.127-0.008,0.195-0.014l-0.01,0.009l3.272,11.575c0,0,0.123,0.728,0.508,1.071c0.435,0.397,1.082,0.408,1.082,0.408   l1.404-0.211l-3.576-14.272c0-1.499,0.009-4.972,0.009-6.506c0-2.055-0.54-3.172-3.09-3.39   C47.205,293.468,44.084,292.866,42.454,296.804L42.454,296.804z M55.7,303.233L55.7,303.233l0.147-0.296l-3.995-2.758l-0.103,2.58   l1.995,1.184C54.579,304.327,55.214,304.213,55.7,303.233z"></path>
	<path id="Exit_2_" class="st14" d="M2371.232,292.861v19.712l8.729,5.427v-29.692L2371.232,292.861L2371.232,292.861z    M2360.847,292.656L2360.847,292.656c1.282-0.031,2.302-1.097,2.271-2.381c-0.032-1.288-1.101-2.304-2.384-2.274   c-1.283,0.031-2.301,1.097-2.27,2.385C2358.496,291.67,2359.563,292.686,2360.847,292.656L2360.847,292.656z M2354.453,296.804   L2354.453,296.804l-2.235,5.53c-0.406,0.922-0.139,1.841,0.948,2.185l0.586,0.129l2.66-6.449h0.003   c0.237-0.496,0.614-0.908,1.068-1.232l-0.495,6.886l-0.007,0.003l-1.016,7.028l-3.026,4.293c0,0-0.374,0.587-0.004,1.303   c0.254,0.49,1.285,1.222,1.285,1.222l4.686-6.262l1.107-6.596c0.063-0.004,0.127-0.008,0.196-0.014l-0.01,0.009l3.272,11.575   c0,0,0.123,0.728,0.508,1.071c0.435,0.397,1.082,0.408,1.082,0.408l1.404-0.211l-3.576-14.272c0-1.499,0.009-4.972,0.009-6.506   c0-2.055-0.54-3.172-3.09-3.39C2359.205,293.468,2356.084,292.866,2354.453,296.804L2354.453,296.804z M2367.699,303.233   L2367.699,303.233l0.146-0.296l-3.995-2.758l-0.103,2.58l1.995,1.184C2366.579,304.327,2367.214,304.213,2367.699,303.233z"></path>
	<path id="Exit_3_" class="st14" d="M2371.232,22.861v19.712l8.729,5.427V18.308L2371.232,22.861L2371.232,22.861z M2360.847,22.656   L2360.847,22.656c1.282-0.031,2.302-1.097,2.271-2.381c-0.032-1.288-1.101-2.304-2.384-2.274c-1.283,0.031-2.301,1.097-2.27,2.385   C2358.496,21.67,2359.563,22.687,2360.847,22.656L2360.847,22.656z M2354.453,26.804L2354.453,26.804l-2.235,5.53   c-0.406,0.922-0.139,1.841,0.948,2.185l0.586,0.129l2.66-6.449h0.003c0.237-0.496,0.614-0.908,1.068-1.232l-0.495,6.886   l-0.007,0.003l-1.016,7.028l-3.026,4.293c0,0-0.374,0.587-0.004,1.303c0.254,0.49,1.285,1.222,1.285,1.222l4.686-6.262l1.107-6.596   c0.063-0.004,0.127-0.008,0.196-0.014l-0.01,0.009l3.272,11.575c0,0,0.123,0.728,0.508,1.071c0.435,0.397,1.082,0.408,1.082,0.408   l1.404-0.211l-3.576-14.272c0-1.499,0.009-4.972,0.009-6.506c0-2.055-0.54-3.172-3.09-3.39   C2359.205,23.468,2356.084,22.866,2354.453,26.804L2354.453,26.804z M2367.699,33.234L2367.699,33.234l0.146-0.296l-3.995-2.758   l-0.103,2.58l1.995,1.184C2366.579,34.328,2367.214,34.214,2367.699,33.234z"></path>
	<path id="WC" class="st14" d="M155,58.596h3.478l1.647,9.844h0.037l1.721-9.844h4.32l1.794,9.844h0.036l1.666-9.844h3.313   l-2.856,12.809h-4.375l-1.812-9.844h-0.037l-1.684,9.844h-4.411L155,58.596L155,58.596z M185,71.112   c-0.683,0.183-1.3,0.314-1.849,0.393c-0.549,0.079-1.135,0.119-1.757,0.119c-1.306,0-2.431-0.168-3.377-0.503   c-0.946-0.335-1.724-0.802-2.334-1.4c-0.61-0.598-1.065-1.296-1.364-2.095c-0.299-0.799-0.448-1.668-0.448-2.607   c0-1.135,0.201-2.132,0.604-2.992c0.403-0.86,0.921-1.558,1.556-2.095c0.622-0.512,1.376-0.9,2.261-1.162   c0.885-0.262,1.852-0.393,2.901-0.393c0.354,0,0.848,0.037,1.483,0.11c0.635,0.073,1.403,0.256,2.306,0.549l-0.274,2.763   c-0.391-0.208-0.876-0.409-1.455-0.604c-0.58-0.195-1.199-0.293-1.858-0.293c-0.683,0-1.26,0.113-1.73,0.338   c-0.47,0.226-0.845,0.479-1.126,0.759c-0.329,0.329-0.604,0.756-0.824,1.281c-0.219,0.525-0.329,1.116-0.329,1.775   c0,0.622,0.104,1.189,0.311,1.702c0.207,0.512,0.488,0.933,0.842,1.262c0.366,0.354,0.827,0.622,1.382,0.805   c0.555,0.183,1.132,0.274,1.73,0.274c0.476,0,0.995-0.058,1.556-0.174c0.561-0.116,1.104-0.277,1.629-0.485L185,71.112z"></path>
	<path id="WC_1_" class="st14" d="M2239,87.096h3.478l1.647,9.844h0.037l1.721-9.844h4.32l1.794,9.844h0.036l1.666-9.844h3.313   l-2.856,12.809h-4.375l-1.812-9.844h-0.037l-1.684,9.844h-4.411L2239,87.096L2239,87.096z M2269,99.611   c-0.683,0.183-1.3,0.314-1.849,0.393c-0.549,0.079-1.135,0.119-1.757,0.119c-1.306,0-2.431-0.168-3.377-0.503   c-0.946-0.335-1.723-0.802-2.334-1.4c-0.61-0.598-1.064-1.296-1.364-2.095c-0.299-0.799-0.448-1.668-0.448-2.607   c0-1.135,0.201-2.132,0.604-2.992c0.403-0.86,0.921-1.558,1.556-2.095c0.622-0.512,1.376-0.9,2.26-1.162   c0.885-0.262,1.852-0.393,2.901-0.393c0.354,0,0.848,0.037,1.483,0.11c0.635,0.073,1.403,0.256,2.306,0.549l-0.274,2.763   c-0.391-0.207-0.876-0.409-1.455-0.604c-0.58-0.195-1.199-0.293-1.858-0.293c-0.683,0-1.26,0.113-1.729,0.338   c-0.47,0.226-0.845,0.479-1.126,0.759c-0.329,0.329-0.604,0.756-0.824,1.281c-0.219,0.525-0.329,1.116-0.329,1.775   c0,0.622,0.104,1.189,0.311,1.702c0.207,0.512,0.488,0.933,0.842,1.262c0.366,0.354,0.827,0.622,1.382,0.805   c0.556,0.183,1.132,0.274,1.73,0.274c0.476,0,0.995-0.058,1.556-0.174c0.561-0.116,1.104-0.277,1.629-0.485L2269,99.611z"></path>
	<path id="Steward" class="st14" d="M326.547,88.877c-0.907-0.445-3.205-0.862-5.354-1.48c0.007-0.007-1.169-0.366-1.169-0.366   c-0.231-0.079-0.457-0.162-0.674-0.248c-0.296-0.118-0.524-0.218-0.74-0.322c-0.134-0.066-0.222-0.112-0.308-0.157   c-0.147-0.08-0.23-0.129-0.311-0.177c-0.13-0.08-0.22-0.139-0.305-0.201c-0.081-0.058-0.156-0.117-0.227-0.177   c-0.107-0.091-0.158-0.14-0.207-0.189c-0.103-0.106-0.152-0.163-0.198-0.221c-0.072-0.093-0.117-0.162-0.157-0.231   c-0.054-0.102-0.08-0.157-0.102-0.212c-0.043-0.123-0.058-0.176-0.069-0.23c-0.028-0.145-0.036-0.222-0.036-0.3v-1.358   c1.369-1.088,2.372-2.762,2.758-4.709c0.727,0.009,1.298-1.176,1.353-2.64c0.054-1.463-0.428-2.649-1.078-2.649   c-0.033,0-0.065,0.005-0.097,0.011v-0.957h0.229l0.591-3.293c0-1.562-0.897-2.166-3.192-2.718   c-2.296-0.552-4.749-1.117-8.009-1.429c-3.26-0.312-3.69-0.462-3.69,2.261l0.576,5.179h0.257v0.957   c-0.032-0.006-0.064-0.011-0.097-0.011c-0.651,0-1.132,1.186-1.078,2.649c0.055,1.464,0.626,2.649,1.277,2.649   c0.462,1.938,1.465,3.614,2.834,4.7v1.357c0,0.079-0.008,0.155-0.021,0.232c-0.026,0.122-0.041,0.175-0.058,0.227   c-0.047,0.126-0.073,0.18-0.101,0.232c-0.067,0.121-0.111,0.189-0.161,0.256c-0.071,0.088-0.118,0.142-0.168,0.196   c-0.103,0.103-0.152,0.148-0.204,0.193c-0.125,0.106-0.194,0.16-0.266,0.211c-0.104,0.076-0.191,0.133-0.281,0.189   c-0.129,0.078-0.204,0.122-0.282,0.164c-0.026,0.015-0.052,0.029-0.079,0.043c-0.078,0.042-0.156,0.082-0.238,0.122   c-0.279,0.135-0.501,0.233-0.733,0.325c-0.028,0.011-0.057,0.023-0.084,0.034c-0.05,0.019-0.1,0.039-0.15,0.058l-1.678,0.551   c-2.149,0.618-4.447,1.035-5.354,1.48c-0.6,0.293-1.11,0.721-1.464,1.356c0.001,0.001,30,0.002,30,0.002   C327.647,89.603,327.144,89.171,326.547,88.877L326.547,88.877z M308.977,69.927c-0.695,0-1.259-0.751-1.259-1.677   c0-0.927,0.564-1.678,1.259-1.678c0.695,0,1.259,0.751,1.259,1.678C310.236,69.176,309.672,69.927,308.977,69.927L308.977,69.927z"></path>
	<path id="HotWater" class="st14" d="M316.671,307.099c0,1.579-1.279,2.857-2.857,2.857c-1.579,0-2.857-1.279-2.857-2.857   c0-1.9,2.857-5,2.857-5S316.671,305.199,316.671,307.099z M289.528,281.385h11.429v7.143h5.714v-2.857l-2.857,0.714v-3.571   l2.857,0.714h2.857l2.857-0.714v3.571l-2.857-0.714v2.857h4.286c1.579,0,2.857,1.279,2.857,2.857v5.714   c0.789,0,1.429,0.64,1.429,1.429s-0.64,1.429-1.429,1.429h-5.714c-0.789,0-1.429-0.64-1.429-1.429s0.64-1.429,1.429-1.429v-2.857   h-10v17.143h-11.429V281.385z"></path>
	<path id="RoomService" class="st14" d="M474.148,103.907c0.06-0.48,0.105-0.96,0.105-1.455c0-0.495-0.045-0.99-0.105-1.5   l3.165-2.445c0.285-0.225,0.36-0.63,0.18-0.96l-3-5.19c-0.18-0.33-0.585-0.465-0.915-0.33l-3.735,1.5   c-0.78-0.585-1.59-1.095-2.535-1.47l-0.555-3.975c-0.06-0.36-0.375-0.63-0.75-0.63h-6c-0.375,0-0.69,0.27-0.75,0.63l-0.555,3.975   c-0.945,0.375-1.755,0.885-2.535,1.47l-3.735-1.5c-0.33-0.135-0.735,0-0.915,0.33l-3,5.19c-0.195,0.33-0.105,0.735,0.18,0.96   l3.165,2.445c-0.06,0.51-0.105,1.005-0.105,1.5c0,0.495,0.045,0.975,0.105,1.455l-3.165,2.49c-0.285,0.225-0.375,0.63-0.18,0.96   l3,5.19c0.18,0.33,0.585,0.45,0.915,0.33l3.735-1.515c0.78,0.6,1.59,1.11,2.535,1.485l0.555,3.975c0.06,0.36,0.375,0.63,0.75,0.63   h6c0.375,0,0.69-0.27,0.75-0.63l0.555-3.975c0.945-0.39,1.755-0.885,2.535-1.485l3.735,1.515c0.33,0.12,0.735,0,0.915-0.33l3-5.19   c0.18-0.33,0.105-0.735-0.18-0.96L474.148,103.907z M463.003,107.702c-2.899,0-5.25-2.351-5.25-5.25s2.351-5.25,5.25-5.25   s5.25,2.351,5.25,5.25S465.903,107.702,463.003,107.702z"></path>
	<path id="Shower" class="st14" d="M630.515,109.533c2.447,0.844,4.408,2.935,4.408,6.236v0.115c0,1.154,0,1.154-1.154,1.154   h-11.539c-1.154,0-1.154,0-1.154-1.154v-0.115c0-3.366,1.937-5.441,4.361-6.261v-2.785c0-1.223,0-1.223,2.585-1.223   c2.492,0,2.492,0,2.492,1.223V109.533L630.515,109.533z M624.977,119.392L624.977,119.392c-0.97,0-1.8,0.784-1.8,1.777   c0,1.038,0.831,1.8,1.8,1.8c0.946,0,1.753-0.762,1.753-1.8C626.73,120.177,625.923,119.392,624.977,119.392L624.977,119.392z    M621.446,125.646L621.446,125.646c-0.969,0-1.8,0.807-1.8,1.8c0,1.016,0.831,1.8,1.8,1.8c0.992,0,1.823-0.784,1.823-1.8   C623.269,126.453,622.439,125.646,621.446,125.646L621.446,125.646z M618.446,131.946L618.446,131.946   c-0.992,0-1.754,0.785-1.754,1.777c0,1.016,0.762,1.777,1.754,1.777c0.946,0,1.777-0.761,1.777-1.777   C620.223,132.73,619.392,131.946,618.446,131.946L618.446,131.946z M631.323,119.392L631.323,119.392   c-0.992,0-1.754,0.784-1.754,1.777c0,1.038,0.762,1.8,1.754,1.8c0.992,0,1.8-0.762,1.8-1.8   C633.123,120.177,632.315,119.392,631.323,119.392L631.323,119.392z M627.977,125.646L627.977,125.646c-0.992,0-1.8,0.807-1.8,1.8   c0,1.016,0.808,1.8,1.8,1.8c0.992,0,1.777-0.784,1.777-1.8C629.753,126.453,628.969,125.646,627.977,125.646L627.977,125.646z    M624.977,131.946L624.977,131.946c-0.97,0-1.8,0.785-1.8,1.777c0,1.016,0.831,1.777,1.8,1.777c0.946,0,1.753-0.761,1.753-1.777   C626.73,132.73,625.923,131.946,624.977,131.946L624.977,131.946z M634.346,125.646L634.346,125.646c-0.969,0-1.8,0.807-1.8,1.8   c0,1.016,0.831,1.8,1.8,1.8c0.992,0,1.823-0.784,1.823-1.8C636.169,126.453,635.339,125.646,634.346,125.646L634.346,125.646z    M631.323,131.946L631.323,131.946c-0.992,0-1.754,0.785-1.754,1.777c0,1.016,0.762,1.777,1.754,1.777c0.992,0,1.8-0.761,1.8-1.777   C633.123,132.73,632.315,131.946,631.323,131.946L631.323,131.946z M637.507,131.946L637.507,131.946c-0.992,0-1.8,0.785-1.8,1.777   c0,1.016,0.807,1.777,1.8,1.777c0.992,0,1.801-0.761,1.801-1.777C639.308,132.73,638.5,131.946,637.507,131.946z"></path>
	<path id="Trash_can" class="st14" d="M2222.605,218.904c0,0.659-0.262,1.29-0.729,1.756c-0.466,0.466-1.097,0.728-1.756,0.728   h-17.47c-0.328,0.002-0.653-0.061-0.956-0.184c-0.303-0.124-0.579-0.306-0.812-0.538c-0.231-0.231-0.415-0.506-0.542-0.809   c-0.126-0.302-0.19-0.628-0.19-0.954v-25.015c0-0.663,0.263-1.299,0.732-1.768c0.469-0.469,1.105-0.732,1.768-0.732h17.47   c1.497,0,2.156,0.584,2.424,1.632c-4.531,6.398-6.772,9.496-6.721,9.297l-1.885-1.497l4.984-6.931h-16.272v25.015h17.47v-14.969   h2.485v14.969V218.904z M2210.824,216.567h-2.291c-0.297,0.037-0.599-0.015-0.866-0.153c-0.268-0.135-0.487-0.348-0.631-0.611   l-1.497-2.664c-0.159-0.242-0.242-0.525-0.242-0.815c0-0.291,0.084-0.573,0.242-0.817l0.613-1.063l-1.063-0.613h3.174l1.632,2.724   l-1.063-0.613l-0.867,1.497h2.859V216.567z M2216.152,206.837l-1.632,2.709h-3.171l1.062-0.613l-0.867-1.498l-1.364,2.366   l-2.664-1.497l1.108-1.93c0.123-0.262,0.317-0.484,0.561-0.639c0.245-0.153,0.529-0.233,0.817-0.23h3.084   c0.29-0.003,0.573,0.077,0.817,0.23c0.245,0.155,0.44,0.377,0.561,0.639l0.613,1.062l1.079-0.598H2216.152z M2217.649,212.824   l-1.497,2.666c-0.144,0.26-0.365,0.475-0.631,0.611c-0.267,0.135-0.567,0.188-0.865,0.152h-1.287v1.226l-1.497-2.753l1.497-2.784   v1.226h1.736l-1.377-2.364l2.681-1.497l1.106,1.93c0.17,0.239,0.267,0.521,0.277,0.815c0.01,0.291-0.064,0.582-0.218,0.832   l0.077-0.06H2217.649z"></path>
	<path id="Chair_00000059989043981981081790000005361245686375166647_" class="st14" d="M881.714,102.186   c1.432,0,2.594-1.161,2.594-2.593c0-1.433-1.162-2.593-2.594-2.593c-1.432,0-2.595,1.16-2.595,2.593   C879.119,101.025,880.282,102.186,881.714,102.186L881.714,102.186z M880.973,117.902L880.973,117.902l5.568-10.491   c1.992,1.092,1.778,2.152,0.845,3.954c-1.45,2.798-4.396,8.456-4.826,9.281h0.001c-0.289,0.545-0.563,1.045-1.258,1.084h-1.278   h-3.491h-1.243c-1.372,0.088-2.695-1.38-2.723-2.744h7.147C880.41,118.947,880.684,118.447,880.973,117.902L880.973,117.902z    M868.668,114.149L868.668,114.149l0.022-0.022l0.001,0.001c0.417-0.345,0.976-0.544,1.687-0.545l5.505-0.161l4.326-7.907   c1.845-4.226,6.531-2.453,5.181,0.961l-5.361,10.121c-0.502,0.959-0.819,1.109-1.817,1.109h-6.963   c-0.195,1.126-0.529,5.643-0.788,7.475c-0.209,1.507-1.556,1.944-2.944,1.79l0.236-7.646c-0.899,0.737-1.861,1.526-2.478,1.992   c-1.214,0.917-2.476,0.273-3.349-0.817l6.53-6.15C868.519,114.274,868.593,114.211,868.668,114.149z"></path>
	<path id="Chair_00000085213443134920030430000002051762001198547609_" class="st14" d="M926.286,102.186   c1.432,0,2.595-1.161,2.595-2.593c0-1.433-1.163-2.593-2.595-2.593c-1.432,0-2.594,1.16-2.594,2.593   C923.692,101.025,924.854,102.186,926.286,102.186L926.286,102.186z M927.027,117.902c0.289,0.545,0.563,1.045,1.258,1.084h7.147   c-0.028,1.364-1.351,2.832-2.723,2.744h-1.243h-3.491h-1.278c-0.696-0.039-0.97-0.539-1.258-1.084h0.001   c-0.431-0.825-3.376-6.483-4.826-9.281c-0.933-1.802-1.147-2.862,0.845-3.954L927.027,117.902L927.027,117.902L927.027,117.902z    M939.544,114.349l6.53,6.15c-0.873,1.09-2.136,1.734-3.349,0.817c-0.618-0.466-1.579-1.255-2.478-1.992l0.236,7.646   c-1.389,0.154-2.736-0.283-2.944-1.79c-0.259-1.831-0.593-6.349-0.788-7.475h-6.963c-0.999,0-1.315-0.151-1.817-1.109   l-5.361-10.121c-1.349-3.414,3.336-5.187,5.181-0.961l4.326,7.907l5.505,0.161c0.712,0.001,1.27,0.2,1.687,0.545l0.001-0.001   l0.022,0.022l0,0C939.407,114.211,939.481,114.274,939.544,114.349z"></path>
	<path id="Chair_00000011730671606326649770000015747644728181720704_" class="st14" d="M1249.714,102.186   c1.432,0,2.594-1.161,2.594-2.593c0-1.433-1.162-2.593-2.594-2.593s-2.595,1.16-2.595,2.593   C1247.119,101.025,1248.282,102.186,1249.714,102.186L1249.714,102.186z M1248.973,117.902L1248.973,117.902l5.568-10.491   c1.992,1.092,1.778,2.152,0.845,3.954c-1.45,2.798-4.396,8.456-4.826,9.281h0.001c-0.289,0.545-0.563,1.045-1.258,1.084h-1.278   h-3.491h-1.243c-1.372,0.088-2.695-1.38-2.723-2.744h7.147C1248.41,118.947,1248.684,118.447,1248.973,117.902L1248.973,117.902z    M1236.668,114.149L1236.668,114.149l0.022-0.022l0.001,0.001c0.417-0.345,0.975-0.544,1.687-0.545l5.505-0.161l4.326-7.907   c1.845-4.226,6.531-2.453,5.181,0.961l-5.361,10.121c-0.502,0.959-0.819,1.109-1.817,1.109h-6.963   c-0.195,1.126-0.529,5.643-0.788,7.475c-0.209,1.507-1.556,1.944-2.944,1.79l0.236-7.646c-0.899,0.737-1.861,1.526-2.478,1.992   c-1.214,0.917-2.476,0.273-3.349-0.817l6.53-6.15C1236.519,114.274,1236.593,114.211,1236.668,114.149z"></path>
	<path id="Chair_00000121262105113982561590000016163792241503132041_" class="st14" d="M1294.286,102.186   c1.432,0,2.595-1.161,2.595-2.593c0-1.433-1.163-2.593-2.595-2.593s-2.594,1.16-2.594,2.593   C1291.692,101.025,1292.854,102.186,1294.286,102.186L1294.286,102.186z M1295.027,117.902c0.289,0.545,0.563,1.045,1.258,1.084   h7.147c-0.028,1.364-1.35,2.832-2.723,2.744h-1.243h-3.491h-1.278c-0.696-0.039-0.97-0.539-1.258-1.084h0.001   c-0.431-0.825-3.376-6.483-4.826-9.281c-0.933-1.802-1.147-2.862,0.845-3.954L1295.027,117.902L1295.027,117.902L1295.027,117.902z    M1307.544,114.349l6.53,6.15c-0.873,1.09-2.136,1.734-3.349,0.817c-0.618-0.466-1.579-1.255-2.478-1.992l0.236,7.646   c-1.389,0.154-2.736-0.283-2.944-1.79c-0.259-1.831-0.593-6.349-0.788-7.475h-6.963c-0.999,0-1.315-0.151-1.817-1.109   l-5.361-10.121c-1.349-3.414,3.336-5.187,5.181-0.961l4.327,7.907l5.505,0.161c0.712,0.001,1.27,0.2,1.687,0.545l0.001-0.001   l0.022,0.022l0,0C1307.407,114.211,1307.481,114.274,1307.544,114.349z"></path>
	<path id="Chair_00000180325097368029145920000002354599104973802414_" class="st14" d="M1617.714,102.186   c1.432,0,2.594-1.161,2.594-2.593c0-1.433-1.162-2.593-2.594-2.593s-2.595,1.16-2.595,2.593   C1615.119,101.025,1616.282,102.186,1617.714,102.186L1617.714,102.186z M1616.973,117.902L1616.973,117.902l5.568-10.491   c1.992,1.092,1.778,2.152,0.845,3.954c-1.45,2.798-4.396,8.456-4.826,9.281h0.001c-0.289,0.545-0.563,1.045-1.258,1.084h-1.278   h-3.491h-1.243c-1.372,0.088-2.695-1.38-2.723-2.744h7.147C1616.41,118.947,1616.684,118.447,1616.973,117.902L1616.973,117.902z    M1604.668,114.149L1604.668,114.149l0.022-0.022l0.001,0.001c0.417-0.345,0.975-0.544,1.687-0.545l5.505-0.161l4.326-7.907   c1.845-4.226,6.531-2.453,5.181,0.961l-5.361,10.121c-0.502,0.959-0.818,1.109-1.817,1.109h-6.963   c-0.195,1.126-0.529,5.643-0.788,7.475c-0.209,1.507-1.556,1.944-2.944,1.79l0.236-7.646c-0.899,0.737-1.861,1.526-2.478,1.992   c-1.214,0.917-2.476,0.273-3.349-0.817l6.53-6.15C1604.519,114.274,1604.593,114.211,1604.668,114.149z"></path>
	<path id="Chair_00000058550018266168789070000000691627244144040372_" class="st14" d="M1662.286,102.186   c1.432,0,2.595-1.161,2.595-2.593c0-1.433-1.163-2.593-2.595-2.593c-1.432,0-2.594,1.16-2.594,2.593   C1659.692,101.025,1660.854,102.186,1662.286,102.186L1662.286,102.186z M1663.027,117.902c0.289,0.545,0.563,1.045,1.258,1.084   h7.147c-0.028,1.364-1.351,2.832-2.723,2.744h-1.243h-3.491h-1.278c-0.696-0.039-0.97-0.539-1.258-1.084h0.001   c-0.431-0.825-3.376-6.483-4.826-9.281c-0.933-1.802-1.147-2.862,0.845-3.954L1663.027,117.902L1663.027,117.902L1663.027,117.902z    M1675.544,114.349l6.53,6.15c-0.873,1.09-2.136,1.734-3.349,0.817c-0.618-0.466-1.579-1.255-2.478-1.992l0.236,7.646   c-1.389,0.154-2.736-0.283-2.944-1.79c-0.259-1.831-0.593-6.349-0.788-7.475h-6.963c-0.999,0-1.315-0.151-1.817-1.109   l-5.361-10.121c-1.349-3.414,3.336-5.187,5.181-0.961l4.327,7.907l5.505,0.161c0.712,0.001,1.27,0.2,1.687,0.545l0.002-0.001   l0.022,0.022l0,0C1675.406,114.211,1675.48,114.274,1675.544,114.349z"></path>
	<path id="Chair_00000085243691924438656450000015050221318026381697_" class="st14" d="M1985.714,102.186   c1.432,0,2.594-1.161,2.594-2.593c0-1.433-1.162-2.593-2.594-2.593c-1.432,0-2.595,1.16-2.595,2.593   C1983.119,101.025,1984.282,102.186,1985.714,102.186L1985.714,102.186z M1984.973,117.902L1984.973,117.902l5.568-10.491   c1.992,1.092,1.778,2.152,0.845,3.954c-1.45,2.798-4.396,8.456-4.826,9.281h0.001c-0.289,0.545-0.563,1.045-1.258,1.084h-1.278   h-3.491h-1.243c-1.372,0.088-2.695-1.38-2.723-2.744h7.147C1984.41,118.947,1984.684,118.447,1984.973,117.902L1984.973,117.902z    M1972.668,114.149L1972.668,114.149l0.022-0.022l0.001,0.001c0.417-0.345,0.975-0.544,1.687-0.545l5.505-0.161l4.326-7.907   c1.845-4.226,6.531-2.453,5.181,0.961l-5.361,10.121c-0.502,0.959-0.819,1.109-1.817,1.109h-6.963   c-0.195,1.126-0.529,5.643-0.788,7.475c-0.209,1.507-1.556,1.944-2.944,1.79l0.236-7.646c-0.899,0.737-1.861,1.526-2.478,1.992   c-1.214,0.917-2.476,0.273-3.349-0.817l6.53-6.15C1972.519,114.274,1972.593,114.211,1972.668,114.149z"></path>
	<path id="Chair_00000035495115405587483500000007820249062938902956_" class="st14" d="M2030.286,102.186   c1.432,0,2.595-1.161,2.595-2.593c0-1.433-1.163-2.593-2.595-2.593c-1.432,0-2.594,1.16-2.594,2.593   C2027.692,101.025,2028.854,102.186,2030.286,102.186L2030.286,102.186z M2031.027,117.902c0.289,0.545,0.563,1.045,1.258,1.084   h7.147c-0.028,1.364-1.351,2.832-2.723,2.744h-1.243h-3.491h-1.278c-0.696-0.039-0.97-0.539-1.258-1.084h0.001   c-0.431-0.825-3.376-6.483-4.826-9.281c-0.933-1.802-1.147-2.862,0.845-3.954L2031.027,117.902L2031.027,117.902L2031.027,117.902z    M2043.544,114.349l6.53,6.15c-0.874,1.09-2.136,1.734-3.35,0.817c-0.618-0.466-1.579-1.255-2.478-1.992l0.236,7.646   c-1.389,0.154-2.736-0.283-2.944-1.79c-0.259-1.831-0.593-6.349-0.788-7.475h-6.963c-0.999,0-1.315-0.151-1.817-1.109   l-5.361-10.121c-1.349-3.414,3.336-5.187,5.181-0.961l4.327,7.907l5.505,0.161c0.712,0.001,1.27,0.2,1.687,0.545l0.002-0.001   l0.022,0.022l0,0C2043.406,114.211,2043.48,114.274,2043.544,114.349z"></path>
	<path id="Sink_00000043445622871647800490000006546307301577719696_" class="st14" d="M882.806,39.256H886v4.657h-6.192   c-0.18,0.099-0.332,0.233-0.458,0.395c-1.481,1.813-3.966,1.903-5.519,0.17c-0.485-0.538-0.943-0.736-1.624-0.709   c-1.31,0.054-2.629,0.018-3.939,0.054c-1.005,0.027-1.499,0.476-1.472,1.588c0.045,2.073-0.009,2.073-2.136,2.073   c-2.62,0-2.62,0-2.324-2.593c0.063-0.583,0.107-1.184,0.233-1.759c0.512-2.405,1.921-3.491,4.882-3.733   c1.311-0.099,2.62-0.144,3.939-0.117c0.404,0.009,0.691-0.036,0.871-0.207v-1.292v-0.018c0-0.467,0.386-0.853,0.852-0.853h1.75   v-3.051h-2.979c-0.548-0.018-0.978-0.458-0.969-1.005v-0.906v-0.018c0.009-0.52,0.439-0.942,0.969-0.933h9.118h0.036   c0.52,0.018,0.924,0.44,0.915,0.96v0.906c0,0.538-0.412,1.005-0.951,1.005h-2.648c-0.054,0-0.117,0.018-0.171,0.036v3.015h1.669   h0.027c0.467,0.009,0.835,0.404,0.816,0.87v1.409c0.09,0.018,0.153-0.036,0.216,0.054H882.806L882.806,39.256z M863.198,53.031   c-0.51,0-0.924-0.414-0.924-0.924s0.414-0.924,0.924-0.924c0.511,0,0.924,0.414,0.924,0.924S863.708,53.031,863.198,53.031   L863.198,53.031L863.198,53.031z M866.868,53.004c-0.511,0-0.924-0.414-0.924-0.924c0-0.511,0.413-0.924,0.924-0.924   c0.51,0,0.924,0.414,0.924,0.924C867.792,52.59,867.378,53.004,866.868,53.004L866.868,53.004L866.868,53.004z M865.028,55.858   c-0.51,0-0.924-0.414-0.924-0.924c0-0.51,0.414-0.924,0.924-0.924c0.511,0,0.924,0.414,0.924,0.924   C865.953,55.444,865.539,55.858,865.028,55.858L865.028,55.858L865.028,55.858z M863.467,58.415c-0.51,0-0.924-0.414-0.924-0.924   c0-0.511,0.414-0.924,0.924-0.924c0.511,0,0.924,0.414,0.924,0.924C864.391,58.001,863.977,58.415,863.467,58.415L863.467,58.415   L863.467,58.415z M867.317,58.487c-0.511,0-0.924-0.414-0.924-0.924c0-0.51,0.413-0.924,0.924-0.924   c0.51,0,0.924,0.414,0.924,0.924C868.241,58.073,867.827,58.487,867.317,58.487L867.317,58.487L867.317,58.487z M865.297,61   c-0.51,0-0.924-0.414-0.924-0.924c0-0.511,0.414-0.924,0.924-0.924c0.511,0,0.924,0.414,0.924,0.924   C866.222,60.586,865.808,61,865.297,61L865.297,61L865.297,61z M864.104,49.603c0-0.51,0.414-0.924,0.924-0.924   c0.511,0,0.924,0.414,0.924,0.924c0,0.511-0.414,0.924-0.924,0.924l0,0C864.518,50.527,864.104,50.114,864.104,49.603z"></path>
	<path id="Sink_00000030476629897064972840000009570194564676487603_" class="st14" d="M925.194,39.256h1.894   c0.063-0.09,0.126-0.036,0.216-0.054v-1.409c-0.018-0.467,0.35-0.861,0.816-0.87h0.027h1.669v-3.015   c-0.054-0.018-0.117-0.036-0.171-0.036h-2.648c-0.539,0-0.951-0.467-0.951-1.005V31.96c-0.009-0.52,0.395-0.942,0.915-0.96h0.036   h9.118c0.53-0.009,0.96,0.413,0.969,0.933v0.018v0.906c0.009,0.547-0.422,0.987-0.969,1.005h-2.979v3.051h1.75   c0.467,0,0.852,0.386,0.852,0.853v0.018v1.292c0.18,0.171,0.467,0.215,0.871,0.207c1.319-0.027,2.629,0.018,3.939,0.117   c2.961,0.242,4.37,1.328,4.882,3.733c0.126,0.575,0.17,1.176,0.233,1.759c0.296,2.593,0.296,2.593-2.324,2.593   c-2.127,0-2.181,0-2.136-2.073c0.027-1.113-0.467-1.561-1.472-1.588c-1.31-0.036-2.629,0-3.939-0.054   c-0.682-0.027-1.14,0.171-1.624,0.709c-1.552,1.732-4.038,1.643-5.519-0.17c-0.126-0.162-0.278-0.296-0.458-0.395H922v-4.657   H925.194L925.194,39.256z M944.802,53.031L944.802,53.031c-0.511,0-0.924-0.414-0.924-0.924s0.414-0.924,0.924-0.924   c0.51,0,0.924,0.414,0.924,0.924S945.313,53.031,944.802,53.031L944.802,53.031z M941.132,53.004L941.132,53.004   c-0.51,0-0.924-0.414-0.924-0.924c0-0.511,0.414-0.924,0.924-0.924c0.511,0,0.924,0.414,0.924,0.924   C942.056,52.59,941.643,53.004,941.132,53.004L941.132,53.004z M942.972,55.858L942.972,55.858c-0.511,0-0.924-0.414-0.924-0.924   c0-0.51,0.414-0.924,0.924-0.924c0.51,0,0.924,0.414,0.924,0.924C943.896,55.444,943.482,55.858,942.972,55.858L942.972,55.858z    M944.533,58.415L944.533,58.415c-0.511,0-0.924-0.414-0.924-0.924c0-0.511,0.414-0.924,0.924-0.924   c0.51,0,0.924,0.414,0.924,0.924C945.457,58.001,945.044,58.415,944.533,58.415L944.533,58.415z M940.683,58.487L940.683,58.487   c-0.51,0-0.924-0.414-0.924-0.924c0-0.51,0.414-0.924,0.924-0.924c0.511,0,0.924,0.414,0.924,0.924   C941.607,58.073,941.194,58.487,940.683,58.487L940.683,58.487z M942.703,61L942.703,61c-0.511,0-0.924-0.414-0.924-0.924   c0-0.511,0.414-0.924,0.924-0.924c0.51,0,0.924,0.414,0.924,0.924C943.627,60.586,943.213,61,942.703,61L942.703,61z    M942.972,50.527L942.972,50.527c-0.511,0-0.924-0.414-0.924-0.924c0-0.51,0.414-0.924,0.924-0.924c0.51,0,0.924,0.414,0.924,0.924   C943.896,50.114,943.482,50.527,942.972,50.527z"></path>
	<path id="Sink_00000031916830874690356920000006516330435365357990_" class="st14" d="M1250.806,39.256H1254v4.657h-6.192   c-0.18,0.099-0.332,0.233-0.458,0.395c-1.481,1.813-3.966,1.903-5.519,0.17c-0.485-0.538-0.943-0.736-1.624-0.709   c-1.311,0.054-2.629,0.018-3.939,0.054c-1.005,0.027-1.499,0.476-1.472,1.588c0.045,2.073-0.009,2.073-2.136,2.073   c-2.62,0-2.62,0-2.324-2.593c0.063-0.583,0.107-1.184,0.233-1.759c0.512-2.405,1.921-3.491,4.882-3.733   c1.311-0.099,2.62-0.144,3.939-0.117c0.404,0.009,0.691-0.036,0.871-0.207v-1.292v-0.018c0-0.467,0.386-0.853,0.853-0.853h1.75   v-3.051h-2.979c-0.547-0.018-0.978-0.458-0.969-1.005v-0.906v-0.018c0.009-0.52,0.44-0.942,0.969-0.933h9.118h0.036   c0.521,0.018,0.924,0.44,0.915,0.96v0.906c0,0.538-0.412,1.005-0.951,1.005h-2.647c-0.054,0-0.117,0.018-0.171,0.036v3.015h1.669   h0.027c0.467,0.009,0.835,0.404,0.817,0.87v1.409c0.09,0.018,0.153-0.036,0.215,0.054H1250.806L1250.806,39.256z M1231.198,53.031   c-0.51,0-0.924-0.414-0.924-0.924s0.414-0.924,0.924-0.924c0.511,0,0.924,0.414,0.924,0.924S1231.708,53.031,1231.198,53.031   L1231.198,53.031L1231.198,53.031z M1234.868,53.004c-0.511,0-0.924-0.414-0.924-0.924c0-0.511,0.413-0.924,0.924-0.924   c0.51,0,0.924,0.414,0.924,0.924C1235.792,52.59,1235.378,53.004,1234.868,53.004L1234.868,53.004L1234.868,53.004z    M1233.028,55.858c-0.51,0-0.924-0.414-0.924-0.924c0-0.51,0.414-0.924,0.924-0.924c0.511,0,0.924,0.414,0.924,0.924   C1233.953,55.444,1233.539,55.858,1233.028,55.858L1233.028,55.858L1233.028,55.858z M1231.467,58.415   c-0.51,0-0.924-0.414-0.924-0.924c0-0.511,0.414-0.924,0.924-0.924c0.511,0,0.924,0.414,0.924,0.924   C1232.391,58.001,1231.978,58.415,1231.467,58.415L1231.467,58.415L1231.467,58.415z M1235.317,58.487   c-0.511,0-0.924-0.414-0.924-0.924c0-0.51,0.413-0.924,0.924-0.924c0.51,0,0.924,0.414,0.924,0.924   C1236.241,58.073,1235.827,58.487,1235.317,58.487L1235.317,58.487L1235.317,58.487z M1233.297,61c-0.51,0-0.924-0.414-0.924-0.924   c0-0.511,0.414-0.924,0.924-0.924c0.511,0,0.924,0.414,0.924,0.924C1234.222,60.586,1233.808,61,1233.297,61L1233.297,61   L1233.297,61z M1232.104,49.603c0-0.51,0.414-0.924,0.924-0.924c0.511,0,0.924,0.414,0.924,0.924c0,0.511-0.414,0.924-0.924,0.924   l0,0C1232.518,50.527,1232.104,50.114,1232.104,49.603z"></path>
	<path id="Sink_00000060025385850721936860000001020144110844212659_" class="st14" d="M1293.194,39.256h1.894   c0.063-0.09,0.126-0.036,0.215-0.054v-1.409c-0.018-0.467,0.35-0.861,0.817-0.87h0.027h1.669v-3.015   c-0.054-0.018-0.117-0.036-0.171-0.036h-2.647c-0.539,0-0.951-0.467-0.951-1.005V31.96c-0.009-0.52,0.395-0.942,0.915-0.96h0.036   h9.118c0.53-0.009,0.96,0.413,0.969,0.933v0.018v0.906c0.009,0.547-0.422,0.987-0.969,1.005h-2.979v3.051h1.75   c0.467,0,0.853,0.386,0.853,0.853v0.018v1.292c0.179,0.171,0.467,0.215,0.871,0.207c1.319-0.027,2.629,0.018,3.939,0.117   c2.961,0.242,4.37,1.328,4.882,3.733c0.126,0.575,0.17,1.176,0.233,1.759c0.296,2.593,0.296,2.593-2.324,2.593   c-2.127,0-2.181,0-2.136-2.073c0.027-1.113-0.467-1.561-1.472-1.588c-1.31-0.036-2.629,0-3.939-0.054   c-0.682-0.027-1.14,0.171-1.624,0.709c-1.552,1.732-4.038,1.643-5.519-0.17c-0.126-0.162-0.278-0.296-0.458-0.395H1290v-4.657   H1293.194L1293.194,39.256z M1312.802,53.031L1312.802,53.031c-0.511,0-0.924-0.414-0.924-0.924s0.414-0.924,0.924-0.924   c0.51,0,0.924,0.414,0.924,0.924S1313.313,53.031,1312.802,53.031L1312.802,53.031z M1309.132,53.004L1309.132,53.004   c-0.51,0-0.924-0.414-0.924-0.924c0-0.511,0.414-0.924,0.924-0.924c0.511,0,0.924,0.414,0.924,0.924   C1310.056,52.59,1309.643,53.004,1309.132,53.004L1309.132,53.004z M1310.972,55.858L1310.972,55.858   c-0.511,0-0.924-0.414-0.924-0.924c0-0.51,0.414-0.924,0.924-0.924c0.51,0,0.924,0.414,0.924,0.924   C1311.896,55.444,1311.482,55.858,1310.972,55.858L1310.972,55.858z M1312.533,58.415L1312.533,58.415   c-0.511,0-0.924-0.414-0.924-0.924c0-0.511,0.413-0.924,0.924-0.924c0.51,0,0.924,0.414,0.924,0.924   C1313.457,58.001,1313.044,58.415,1312.533,58.415L1312.533,58.415z M1308.683,58.487L1308.683,58.487   c-0.51,0-0.924-0.414-0.924-0.924c0-0.51,0.414-0.924,0.924-0.924c0.511,0,0.924,0.414,0.924,0.924   C1309.607,58.073,1309.194,58.487,1308.683,58.487L1308.683,58.487z M1310.703,61L1310.703,61c-0.511,0-0.924-0.414-0.924-0.924   c0-0.511,0.414-0.924,0.924-0.924c0.51,0,0.924,0.414,0.924,0.924C1311.627,60.586,1311.213,61,1310.703,61L1310.703,61z    M1310.972,50.527L1310.972,50.527c-0.511,0-0.924-0.414-0.924-0.924c0-0.51,0.414-0.924,0.924-0.924   c0.51,0,0.924,0.414,0.924,0.924C1311.896,50.114,1311.482,50.527,1310.972,50.527z"></path>
	<path id="Sink_00000170236227148446503040000005791984092632383880_" class="st14" d="M1618.806,39.256H1622v4.657h-6.192   c-0.18,0.099-0.332,0.233-0.458,0.395c-1.481,1.813-3.966,1.903-5.519,0.17c-0.485-0.538-0.943-0.736-1.624-0.709   c-1.311,0.054-2.629,0.018-3.939,0.054c-1.005,0.027-1.499,0.476-1.472,1.588c0.045,2.073-0.009,2.073-2.136,2.073   c-2.62,0-2.62,0-2.324-2.593c0.063-0.583,0.107-1.184,0.233-1.759c0.512-2.405,1.921-3.491,4.882-3.733   c1.311-0.099,2.62-0.144,3.939-0.117c0.404,0.009,0.691-0.036,0.871-0.207v-1.292v-0.018c0-0.467,0.386-0.853,0.853-0.853h1.75   v-3.051h-2.979c-0.547-0.018-0.978-0.458-0.969-1.005v-0.906v-0.018c0.009-0.52,0.44-0.942,0.969-0.933h9.118h0.036   c0.521,0.018,0.924,0.44,0.915,0.96v0.906c0,0.538-0.412,1.005-0.951,1.005h-2.647c-0.054,0-0.117,0.018-0.171,0.036v3.015h1.669   h0.027c0.467,0.009,0.835,0.404,0.817,0.87v1.409c0.09,0.018,0.153-0.036,0.215,0.054H1618.806L1618.806,39.256z M1599.198,53.031   c-0.51,0-0.924-0.414-0.924-0.924s0.414-0.924,0.924-0.924c0.511,0,0.924,0.414,0.924,0.924S1599.708,53.031,1599.198,53.031   L1599.198,53.031L1599.198,53.031z M1602.868,53.004c-0.511,0-0.924-0.414-0.924-0.924c0-0.511,0.413-0.924,0.924-0.924   c0.51,0,0.924,0.414,0.924,0.924C1603.792,52.59,1603.378,53.004,1602.868,53.004L1602.868,53.004L1602.868,53.004z    M1601.028,55.858c-0.51,0-0.924-0.414-0.924-0.924c0-0.51,0.414-0.924,0.924-0.924c0.511,0,0.924,0.414,0.924,0.924   C1601.953,55.444,1601.539,55.858,1601.028,55.858L1601.028,55.858L1601.028,55.858z M1599.467,58.415   c-0.51,0-0.924-0.414-0.924-0.924c0-0.511,0.414-0.924,0.924-0.924c0.511,0,0.924,0.414,0.924,0.924   C1600.391,58.001,1599.978,58.415,1599.467,58.415L1599.467,58.415L1599.467,58.415z M1603.317,58.487   c-0.511,0-0.924-0.414-0.924-0.924c0-0.51,0.413-0.924,0.924-0.924c0.51,0,0.924,0.414,0.924,0.924   C1604.241,58.073,1603.827,58.487,1603.317,58.487L1603.317,58.487L1603.317,58.487z M1601.297,61c-0.51,0-0.924-0.414-0.924-0.924   c0-0.511,0.414-0.924,0.924-0.924c0.511,0,0.924,0.414,0.924,0.924C1602.222,60.586,1601.808,61,1601.297,61L1601.297,61   L1601.297,61z M1600.104,49.603c0-0.51,0.414-0.924,0.924-0.924c0.511,0,0.924,0.414,0.924,0.924c0,0.511-0.414,0.924-0.924,0.924   l0,0C1600.518,50.527,1600.104,50.114,1600.104,49.603z"></path>
	<path id="Sink_00000074416340207904915500000005822704923454851976_" class="st14" d="M1661.194,39.256h1.894   c0.063-0.09,0.126-0.036,0.215-0.054v-1.409c-0.018-0.467,0.35-0.861,0.817-0.87h0.027h1.669v-3.015   c-0.054-0.018-0.117-0.036-0.171-0.036h-2.647c-0.539,0-0.951-0.467-0.951-1.005V31.96c-0.009-0.52,0.395-0.942,0.915-0.96h0.036   h9.118c0.53-0.009,0.96,0.413,0.969,0.933v0.018v0.906c0.009,0.547-0.422,0.987-0.969,1.005h-2.979v3.051h1.75   c0.467,0,0.853,0.386,0.853,0.853v0.018v1.292c0.179,0.171,0.467,0.215,0.871,0.207c1.319-0.027,2.629,0.018,3.939,0.117   c2.961,0.242,4.37,1.328,4.882,3.733c0.126,0.575,0.17,1.176,0.233,1.759c0.296,2.593,0.296,2.593-2.324,2.593   c-2.127,0-2.181,0-2.136-2.073c0.027-1.113-0.467-1.561-1.472-1.588c-1.31-0.036-2.629,0-3.939-0.054   c-0.682-0.027-1.14,0.171-1.624,0.709c-1.552,1.732-4.038,1.643-5.519-0.17c-0.126-0.162-0.278-0.296-0.458-0.395H1658v-4.657   H1661.194L1661.194,39.256z M1680.802,53.031L1680.802,53.031c-0.511,0-0.924-0.414-0.924-0.924s0.414-0.924,0.924-0.924   c0.51,0,0.924,0.414,0.924,0.924S1681.313,53.031,1680.802,53.031L1680.802,53.031z M1677.132,53.004L1677.132,53.004   c-0.51,0-0.924-0.414-0.924-0.924c0-0.511,0.414-0.924,0.924-0.924c0.511,0,0.924,0.414,0.924,0.924   C1678.056,52.59,1677.643,53.004,1677.132,53.004L1677.132,53.004z M1678.972,55.858L1678.972,55.858   c-0.511,0-0.924-0.414-0.924-0.924c0-0.51,0.414-0.924,0.924-0.924c0.51,0,0.924,0.414,0.924,0.924   C1679.896,55.444,1679.482,55.858,1678.972,55.858L1678.972,55.858z M1680.533,58.415L1680.533,58.415   c-0.511,0-0.924-0.414-0.924-0.924c0-0.511,0.413-0.924,0.924-0.924c0.51,0,0.924,0.414,0.924,0.924   C1681.457,58.001,1681.044,58.415,1680.533,58.415L1680.533,58.415z M1676.683,58.487L1676.683,58.487   c-0.51,0-0.924-0.414-0.924-0.924c0-0.51,0.414-0.924,0.924-0.924c0.511,0,0.924,0.414,0.924,0.924   C1677.607,58.073,1677.194,58.487,1676.683,58.487L1676.683,58.487z M1678.703,61L1678.703,61c-0.511,0-0.924-0.414-0.924-0.924   c0-0.511,0.414-0.924,0.924-0.924c0.51,0,0.924,0.414,0.924,0.924C1679.627,60.586,1679.213,61,1678.703,61L1678.703,61z    M1678.972,50.527L1678.972,50.527c-0.511,0-0.924-0.414-0.924-0.924c0-0.51,0.414-0.924,0.924-0.924   c0.51,0,0.924,0.414,0.924,0.924C1679.896,50.114,1679.482,50.527,1678.972,50.527z"></path>
	<path id="Sink_00000140724868063602066680000007156745171391690894_" class="st14" d="M1986.806,38.032H1990v4.657h-6.192   c-0.18,0.099-0.332,0.233-0.458,0.395c-1.481,1.813-3.966,1.903-5.519,0.17c-0.485-0.538-0.943-0.736-1.624-0.709   c-1.311,0.054-2.629,0.018-3.939,0.054c-1.005,0.027-1.499,0.476-1.472,1.588c0.045,2.073-0.009,2.073-2.136,2.073   c-2.62,0-2.62,0-2.324-2.593c0.063-0.583,0.107-1.184,0.233-1.759c0.512-2.405,1.921-3.491,4.882-3.733   c1.311-0.099,2.62-0.144,3.939-0.117c0.404,0.009,0.691-0.036,0.871-0.207V36.56v-0.018c0-0.467,0.386-0.853,0.853-0.853h1.75   v-3.051h-2.979c-0.547-0.018-0.978-0.458-0.969-1.005v-0.906v-0.018c0.009-0.52,0.44-0.942,0.969-0.933h9.118h0.036   c0.521,0.018,0.924,0.44,0.915,0.96v0.906c0,0.538-0.412,1.005-0.951,1.005h-2.647c-0.054,0-0.117,0.018-0.171,0.036v3.015h1.669   h0.027c0.467,0.009,0.835,0.404,0.817,0.87v1.409c0.09,0.018,0.153-0.036,0.215,0.054H1986.806L1986.806,38.032z M1967.198,51.807   c-0.51,0-0.924-0.414-0.924-0.924c0-0.511,0.414-0.924,0.924-0.924c0.511,0,0.924,0.414,0.924,0.924   C1968.122,51.393,1967.708,51.807,1967.198,51.807L1967.198,51.807L1967.198,51.807z M1970.868,51.78   c-0.511,0-0.924-0.414-0.924-0.924c0-0.511,0.413-0.924,0.924-0.924c0.51,0,0.924,0.414,0.924,0.924   C1971.792,51.366,1971.378,51.78,1970.868,51.78L1970.868,51.78L1970.868,51.78z M1969.028,54.633c-0.51,0-0.924-0.414-0.924-0.924   c0-0.51,0.414-0.924,0.924-0.924c0.511,0,0.924,0.414,0.924,0.924C1969.953,54.22,1969.539,54.633,1969.028,54.633L1969.028,54.633   L1969.028,54.633z M1967.467,57.191c-0.51,0-0.924-0.414-0.924-0.924c0-0.511,0.414-0.924,0.924-0.924   c0.511,0,0.924,0.414,0.924,0.924C1968.391,56.777,1967.978,57.191,1967.467,57.191L1967.467,57.191L1967.467,57.191z    M1971.317,57.263c-0.511,0-0.924-0.414-0.924-0.924c0-0.51,0.413-0.924,0.924-0.924c0.51,0,0.924,0.414,0.924,0.924   C1972.241,56.849,1971.827,57.263,1971.317,57.263L1971.317,57.263L1971.317,57.263z M1969.297,59.776   c-0.51,0-0.924-0.414-0.924-0.924c0-0.511,0.414-0.924,0.924-0.924c0.511,0,0.924,0.414,0.924,0.924   C1970.222,59.362,1969.808,59.776,1969.297,59.776L1969.297,59.776L1969.297,59.776z M1968.104,48.378   c0-0.51,0.414-0.924,0.924-0.924c0.511,0,0.924,0.414,0.924,0.924c0,0.511-0.414,0.924-0.924,0.924l0,0   C1968.518,49.303,1968.104,48.889,1968.104,48.378z"></path>
	<path id="Sink_00000109014385514538024270000012585686868982473369_" class="st14" d="M2029.194,39.256h1.894   c0.063-0.09,0.126-0.036,0.215-0.054v-1.409c-0.018-0.467,0.35-0.861,0.817-0.87h0.027h1.669v-3.015   c-0.054-0.018-0.117-0.036-0.171-0.036h-2.647c-0.539,0-0.951-0.467-0.951-1.005V31.96c-0.009-0.52,0.395-0.942,0.915-0.96h0.036   h9.118c0.53-0.009,0.96,0.413,0.969,0.933v0.018v0.906c0.009,0.547-0.422,0.987-0.969,1.005h-2.979v3.051h1.75   c0.467,0,0.853,0.386,0.853,0.853v0.018v1.292c0.179,0.171,0.467,0.215,0.871,0.207c1.319-0.027,2.629,0.018,3.939,0.117   c2.961,0.242,4.37,1.328,4.882,3.733c0.126,0.575,0.17,1.176,0.233,1.759c0.296,2.593,0.296,2.593-2.324,2.593   c-2.127,0-2.181,0-2.136-2.073c0.027-1.113-0.467-1.561-1.472-1.588c-1.31-0.036-2.629,0-3.939-0.054   c-0.682-0.027-1.14,0.171-1.624,0.709c-1.552,1.732-4.038,1.643-5.519-0.17c-0.126-0.162-0.278-0.296-0.458-0.395H2026v-4.657   H2029.194L2029.194,39.256z M2048.802,53.031L2048.802,53.031c-0.511,0-0.924-0.414-0.924-0.924s0.414-0.924,0.924-0.924   c0.51,0,0.924,0.414,0.924,0.924S2049.312,53.031,2048.802,53.031L2048.802,53.031z M2045.132,53.004L2045.132,53.004   c-0.51,0-0.924-0.414-0.924-0.924c0-0.511,0.414-0.924,0.924-0.924c0.511,0,0.924,0.414,0.924,0.924   C2046.056,52.59,2045.643,53.004,2045.132,53.004L2045.132,53.004z M2046.972,55.858L2046.972,55.858   c-0.511,0-0.924-0.414-0.924-0.924c0-0.51,0.414-0.924,0.924-0.924c0.51,0,0.924,0.414,0.924,0.924   C2047.896,55.444,2047.482,55.858,2046.972,55.858L2046.972,55.858z M2048.533,58.415L2048.533,58.415   c-0.511,0-0.924-0.414-0.924-0.924c0-0.511,0.413-0.924,0.924-0.924c0.51,0,0.924,0.414,0.924,0.924   C2049.458,58.001,2049.044,58.415,2048.533,58.415L2048.533,58.415z M2044.683,58.487L2044.683,58.487   c-0.51,0-0.924-0.414-0.924-0.924c0-0.51,0.414-0.924,0.924-0.924c0.511,0,0.924,0.414,0.924,0.924   C2045.607,58.073,2045.194,58.487,2044.683,58.487L2044.683,58.487z M2046.703,61L2046.703,61c-0.511,0-0.924-0.414-0.924-0.924   c0-0.511,0.414-0.924,0.924-0.924c0.51,0,0.924,0.414,0.924,0.924C2047.627,60.586,2047.213,61,2046.703,61L2046.703,61z    M2046.972,50.527L2046.972,50.527c-0.511,0-0.924-0.414-0.924-0.924c0-0.51,0.414-0.924,0.924-0.924   c0.51,0,0.924,0.414,0.924,0.924C2047.896,50.114,2047.482,50.527,2046.972,50.527z"></path>
</g>
</svg>